G04 #@! TF.GenerationSoftware,KiCad,Pcbnew,(2016-12-18 revision 3ffa37c)-master*
G04 #@! TF.CreationDate,2017-03-29T20:30:54-07:00*
G04 #@! TF.ProjectId,GameshowV2,47616D6573686F7756322E6B69636164,rev?*
G04 #@! TF.FileFunction,Soldermask,Bot*
G04 #@! TF.FilePolarity,Negative*
%FSLAX46Y46*%
G04 Gerber Fmt 4.6, Leading zero omitted, Abs format (unit mm)*
G04 Created by KiCad (PCBNEW (2016-12-18 revision 3ffa37c)-master) date Wednesday, March 29, 2017 'PMt' 08:30:54 PM*
%MOMM*%
%LPD*%
G01*
G04 APERTURE LIST*
%ADD10C,0.100000*%
%ADD11C,2.000000*%
%ADD12C,1.600000*%
%ADD13C,1.900000*%
%ADD14C,3.100000*%
%ADD15O,2.127200X2.127200*%
%ADD16R,2.127200X2.127200*%
G04 APERTURE END LIST*
D10*
D11*
X176190000Y-29810000D03*
X183810000Y-34890000D03*
X183810000Y-39335000D03*
X176190000Y-38700000D03*
D12*
X180000000Y-43150000D03*
X171750000Y-32980000D03*
D11*
X206190000Y-29810000D03*
X213810000Y-34890000D03*
X213810000Y-39335000D03*
X206190000Y-38700000D03*
D12*
X210000000Y-43150000D03*
X201750000Y-32980000D03*
D11*
X146190000Y-29810000D03*
X153810000Y-34890000D03*
X153810000Y-39335000D03*
X146190000Y-38700000D03*
D12*
X150000000Y-43150000D03*
X141750000Y-32980000D03*
D11*
X116190000Y-29810000D03*
X123810000Y-34890000D03*
X123810000Y-39335000D03*
X116190000Y-38700000D03*
D12*
X120000000Y-43150000D03*
X111750000Y-32980000D03*
D13*
X230000000Y-111000000D03*
X222500000Y-111000000D03*
X215559000Y-110876000D03*
X209000000Y-111000000D03*
X229750000Y-104500000D03*
X222500000Y-104500000D03*
X215500000Y-104500000D03*
X209000000Y-104500000D03*
D14*
X95000000Y-28000000D03*
X235000000Y-28000000D03*
X235000000Y-125000000D03*
X95000000Y-125000000D03*
X190000000Y-120000000D03*
X190000000Y-71000000D03*
X105000000Y-120000000D03*
X105000000Y-71000000D03*
D15*
X164260000Y-62460000D03*
X164260000Y-65000000D03*
X161720000Y-62460000D03*
X161720000Y-65000000D03*
X159180000Y-62460000D03*
X159180000Y-65000000D03*
X156640000Y-62460000D03*
X156640000Y-65000000D03*
X154100000Y-62460000D03*
X154100000Y-65000000D03*
X151560000Y-62460000D03*
X151560000Y-65000000D03*
X149020000Y-62460000D03*
X149020000Y-65000000D03*
X146480000Y-62460000D03*
X146480000Y-65000000D03*
X143940000Y-62460000D03*
X143940000Y-65000000D03*
X141400000Y-62460000D03*
X141400000Y-65000000D03*
X138860000Y-62460000D03*
X138860000Y-65000000D03*
X136320000Y-62460000D03*
X136320000Y-65000000D03*
X133780000Y-62460000D03*
X133780000Y-65000000D03*
X131240000Y-62460000D03*
X131240000Y-65000000D03*
X128700000Y-62460000D03*
X128700000Y-65000000D03*
X126160000Y-62460000D03*
X126160000Y-65000000D03*
X123620000Y-62460000D03*
X123620000Y-65000000D03*
X121080000Y-62460000D03*
X121080000Y-65000000D03*
X118540000Y-62460000D03*
X118540000Y-65000000D03*
X116000000Y-62460000D03*
D16*
X116000000Y-65000000D03*
M02*
