%FSLAX45Y45*%
G04 Gerber Fmt 4.5, Leading zero omitted, Abs format (unit mm)*
G04 Created by KiCad (PCBNEW (2016-12-18 revision 3ffa37c)-master) date Wednesday, March 29, 2017 'PMt' 08:26:17 PM*
%MOMM*%
%LPD*%
G01*
G04 APERTURE LIST*
%ADD10C,0.127000*%
%ADD11C,0.150000*%
%ADD12C,0.200000*%
%ADD13C,0.300000*%
G04 APERTURE END LIST*
D10*
D11*
X9000000Y-13000000D02*
X9000000Y-2300000D01*
X24000000Y-13000000D02*
X9000000Y-13000000D01*
X24000000Y-2300000D02*
X24000000Y-13000000D01*
X9000000Y-2300000D02*
X24000000Y-2300000D01*
D12*
X19830000Y-6380000D02*
X19870000Y-6420000D01*
X19870000Y-6380000D02*
X19830000Y-6420000D01*
X20030000Y-6752501D02*
X20070000Y-6792501D01*
X20070000Y-6752501D02*
X20030000Y-6792501D01*
X20380000Y-7480000D02*
X20420000Y-7520000D01*
X20420000Y-7480000D02*
X20380000Y-7520000D01*
X20530000Y-7080000D02*
X20570000Y-7120000D01*
X20570000Y-7080000D02*
X20530000Y-7120000D01*
X21130000Y-8780000D02*
X21170000Y-8820000D01*
X21170000Y-8780000D02*
X21130000Y-8820000D01*
X21240660Y-9516990D02*
X21280660Y-9556990D01*
X21280660Y-9516990D02*
X21240660Y-9556990D01*
X22354710Y-7458310D02*
X22394710Y-7498310D01*
X22394710Y-7458310D02*
X22354710Y-7498310D01*
X20940000Y-10450000D02*
G75*
G03X20940000Y-10450000I-40000J0D01*
G01*
X20940000Y-11100000D02*
G75*
G03X20940000Y-11100000I-40000J0D01*
G01*
X21590000Y-10450000D02*
G75*
G03X21590000Y-10450000I-40000J0D01*
G01*
X21595900Y-11087600D02*
G75*
G03X21595900Y-11087600I-40000J0D01*
G01*
X22290000Y-10450000D02*
G75*
G03X22290000Y-10450000I-40000J0D01*
G01*
X22290000Y-11100000D02*
G75*
G03X22290000Y-11100000I-40000J0D01*
G01*
X23015000Y-10450000D02*
G75*
G03X23015000Y-10450000I-40000J0D01*
G01*
X23040000Y-11100000D02*
G75*
G03X23040000Y-11100000I-40000J0D01*
G01*
X11600000Y-6195200D02*
X11600000Y-6296800D01*
X11549200Y-6246000D02*
X11650800Y-6246000D01*
X11600000Y-6449200D02*
X11600000Y-6550800D01*
X11549200Y-6500000D02*
X11650800Y-6500000D01*
X11854000Y-6195200D02*
X11854000Y-6296800D01*
X11803200Y-6246000D02*
X11904800Y-6246000D01*
X11854000Y-6449200D02*
X11854000Y-6550800D01*
X11803200Y-6500000D02*
X11904800Y-6500000D01*
X12108000Y-6195200D02*
X12108000Y-6296800D01*
X12057200Y-6246000D02*
X12158800Y-6246000D01*
X12108000Y-6449200D02*
X12108000Y-6550800D01*
X12057200Y-6500000D02*
X12158800Y-6500000D01*
X12362000Y-6195200D02*
X12362000Y-6296800D01*
X12311200Y-6246000D02*
X12412800Y-6246000D01*
X12362000Y-6449200D02*
X12362000Y-6550800D01*
X12311200Y-6500000D02*
X12412800Y-6500000D01*
X12616000Y-6195200D02*
X12616000Y-6296800D01*
X12565200Y-6246000D02*
X12666800Y-6246000D01*
X12616000Y-6449200D02*
X12616000Y-6550800D01*
X12565200Y-6500000D02*
X12666800Y-6500000D01*
X12870000Y-6195200D02*
X12870000Y-6296800D01*
X12819200Y-6246000D02*
X12920800Y-6246000D01*
X12870000Y-6449200D02*
X12870000Y-6550800D01*
X12819200Y-6500000D02*
X12920800Y-6500000D01*
X13124000Y-6195200D02*
X13124000Y-6296800D01*
X13073200Y-6246000D02*
X13174800Y-6246000D01*
X13124000Y-6449200D02*
X13124000Y-6550800D01*
X13073200Y-6500000D02*
X13174800Y-6500000D01*
X13378000Y-6195200D02*
X13378000Y-6296800D01*
X13327200Y-6246000D02*
X13428800Y-6246000D01*
X13378000Y-6449200D02*
X13378000Y-6550800D01*
X13327200Y-6500000D02*
X13428800Y-6500000D01*
X13632000Y-6195200D02*
X13632000Y-6296800D01*
X13581200Y-6246000D02*
X13682800Y-6246000D01*
X13632000Y-6449200D02*
X13632000Y-6550800D01*
X13581200Y-6500000D02*
X13682800Y-6500000D01*
X13886000Y-6195200D02*
X13886000Y-6296800D01*
X13835200Y-6246000D02*
X13936800Y-6246000D01*
X13886000Y-6449200D02*
X13886000Y-6550800D01*
X13835200Y-6500000D02*
X13936800Y-6500000D01*
X14140000Y-6195200D02*
X14140000Y-6296800D01*
X14089200Y-6246000D02*
X14190800Y-6246000D01*
X14140000Y-6449200D02*
X14140000Y-6550800D01*
X14089200Y-6500000D02*
X14190800Y-6500000D01*
X14394000Y-6195200D02*
X14394000Y-6296800D01*
X14343200Y-6246000D02*
X14444800Y-6246000D01*
X14394000Y-6449200D02*
X14394000Y-6550800D01*
X14343200Y-6500000D02*
X14444800Y-6500000D01*
X14648000Y-6195200D02*
X14648000Y-6296800D01*
X14597200Y-6246000D02*
X14698800Y-6246000D01*
X14648000Y-6449200D02*
X14648000Y-6550800D01*
X14597200Y-6500000D02*
X14698800Y-6500000D01*
X14902000Y-6195200D02*
X14902000Y-6296800D01*
X14851200Y-6246000D02*
X14952800Y-6246000D01*
X14902000Y-6449200D02*
X14902000Y-6550800D01*
X14851200Y-6500000D02*
X14952800Y-6500000D01*
X15156000Y-6195200D02*
X15156000Y-6296800D01*
X15105200Y-6246000D02*
X15206800Y-6246000D01*
X15156000Y-6449200D02*
X15156000Y-6550800D01*
X15105200Y-6500000D02*
X15206800Y-6500000D01*
X15410000Y-6195200D02*
X15410000Y-6296800D01*
X15359200Y-6246000D02*
X15460800Y-6246000D01*
X15410000Y-6449200D02*
X15410000Y-6550800D01*
X15359200Y-6500000D02*
X15460800Y-6500000D01*
X15664000Y-6195200D02*
X15664000Y-6296800D01*
X15613200Y-6246000D02*
X15714800Y-6246000D01*
X15664000Y-6449200D02*
X15664000Y-6550800D01*
X15613200Y-6500000D02*
X15714800Y-6500000D01*
X15918000Y-6195200D02*
X15918000Y-6296800D01*
X15867200Y-6246000D02*
X15968800Y-6246000D01*
X15918000Y-6449200D02*
X15918000Y-6550800D01*
X15867200Y-6500000D02*
X15968800Y-6500000D01*
X16172000Y-6195200D02*
X16172000Y-6296800D01*
X16121200Y-6246000D02*
X16222800Y-6246000D01*
X16172000Y-6449200D02*
X16172000Y-6550800D01*
X16121200Y-6500000D02*
X16222800Y-6500000D01*
X16426000Y-6195200D02*
X16426000Y-6296800D01*
X16375200Y-6246000D02*
X16476800Y-6246000D01*
X16426000Y-6449200D02*
X16426000Y-6550800D01*
X16375200Y-6500000D02*
X16476800Y-6500000D01*
X11217427Y-3340427D02*
X11217427Y-3255573D01*
X11132573Y-3255573D01*
X11132573Y-3340427D01*
X11217427Y-3340427D01*
X12042427Y-4357427D02*
X12042427Y-4272573D01*
X11957573Y-4272573D01*
X11957573Y-4357427D01*
X12042427Y-4357427D01*
X14217427Y-3340427D02*
X14217427Y-3255573D01*
X14132573Y-3255573D01*
X14132573Y-3340427D01*
X14217427Y-3340427D01*
X15042427Y-4357427D02*
X15042427Y-4272573D01*
X14957573Y-4272573D01*
X14957573Y-4357427D01*
X15042427Y-4357427D01*
X17217427Y-3340427D02*
X17217427Y-3255573D01*
X17132573Y-3255573D01*
X17132573Y-3340427D01*
X17217427Y-3340427D01*
X18042427Y-4357427D02*
X18042427Y-4272573D01*
X17957573Y-4272573D01*
X17957573Y-4357427D01*
X18042427Y-4357427D01*
X20217427Y-3340427D02*
X20217427Y-3255573D01*
X20132573Y-3255573D01*
X20132573Y-3340427D01*
X20217427Y-3340427D01*
X21042427Y-4357427D02*
X21042427Y-4272573D01*
X20957573Y-4272573D01*
X20957573Y-4357427D01*
X21042427Y-4357427D01*
X11619000Y-3061000D02*
X11699000Y-2981000D01*
X11619000Y-2901000D01*
X11539000Y-2981000D01*
X11619000Y-3061000D01*
X11619000Y-3950000D02*
X11699000Y-3870000D01*
X11619000Y-3790000D01*
X11539000Y-3870000D01*
X11619000Y-3950000D01*
X12381000Y-3569000D02*
X12461000Y-3489000D01*
X12381000Y-3409000D01*
X12301000Y-3489000D01*
X12381000Y-3569000D01*
X12381000Y-4013500D02*
X12461000Y-3933500D01*
X12381000Y-3853500D01*
X12301000Y-3933500D01*
X12381000Y-4013500D01*
X14619000Y-3061000D02*
X14699000Y-2981000D01*
X14619000Y-2901000D01*
X14539000Y-2981000D01*
X14619000Y-3061000D01*
X14619000Y-3950000D02*
X14699000Y-3870000D01*
X14619000Y-3790000D01*
X14539000Y-3870000D01*
X14619000Y-3950000D01*
X15381000Y-3569000D02*
X15461000Y-3489000D01*
X15381000Y-3409000D01*
X15301000Y-3489000D01*
X15381000Y-3569000D01*
X15381000Y-4013500D02*
X15461000Y-3933500D01*
X15381000Y-3853500D01*
X15301000Y-3933500D01*
X15381000Y-4013500D01*
X17619000Y-3061000D02*
X17699000Y-2981000D01*
X17619000Y-2901000D01*
X17539000Y-2981000D01*
X17619000Y-3061000D01*
X17619000Y-3950000D02*
X17699000Y-3870000D01*
X17619000Y-3790000D01*
X17539000Y-3870000D01*
X17619000Y-3950000D01*
X18381000Y-3569000D02*
X18461000Y-3489000D01*
X18381000Y-3409000D01*
X18301000Y-3489000D01*
X18381000Y-3569000D01*
X18381000Y-4013500D02*
X18461000Y-3933500D01*
X18381000Y-3853500D01*
X18301000Y-3933500D01*
X18381000Y-4013500D01*
X20619000Y-3061000D02*
X20699000Y-2981000D01*
X20619000Y-2901000D01*
X20539000Y-2981000D01*
X20619000Y-3061000D01*
X20619000Y-3950000D02*
X20699000Y-3870000D01*
X20619000Y-3790000D01*
X20539000Y-3870000D01*
X20619000Y-3950000D01*
X21381000Y-3569000D02*
X21461000Y-3489000D01*
X21381000Y-3409000D01*
X21301000Y-3489000D01*
X21381000Y-3569000D01*
X21381000Y-4013500D02*
X21461000Y-3933500D01*
X21381000Y-3853500D01*
X21301000Y-3933500D01*
X21381000Y-4013500D01*
X9365000Y-2665000D02*
X9635000Y-2935000D01*
X9635000Y-2665000D02*
X9365000Y-2935000D01*
X9635000Y-2800000D02*
G75*
G03X9635000Y-2800000I-135000J0D01*
G01*
X9365000Y-12365000D02*
X9635000Y-12635000D01*
X9635000Y-12365000D02*
X9365000Y-12635000D01*
X9635000Y-12500000D02*
G75*
G03X9635000Y-12500000I-135000J0D01*
G01*
X10365000Y-6965000D02*
X10635000Y-7235000D01*
X10635000Y-6965000D02*
X10365000Y-7235000D01*
X10635000Y-7100000D02*
G75*
G03X10635000Y-7100000I-135000J0D01*
G01*
X10365000Y-11865000D02*
X10635000Y-12135000D01*
X10635000Y-11865000D02*
X10365000Y-12135000D01*
X10635000Y-12000000D02*
G75*
G03X10635000Y-12000000I-135000J0D01*
G01*
X18865000Y-6965000D02*
X19135000Y-7235000D01*
X19135000Y-6965000D02*
X18865000Y-7235000D01*
X19135000Y-7100000D02*
G75*
G03X19135000Y-7100000I-135000J0D01*
G01*
X18865000Y-11865000D02*
X19135000Y-12135000D01*
X19135000Y-11865000D02*
X18865000Y-12135000D01*
X19135000Y-12000000D02*
G75*
G03X19135000Y-12000000I-135000J0D01*
G01*
X23365000Y-2665000D02*
X23635000Y-2935000D01*
X23635000Y-2665000D02*
X23365000Y-2935000D01*
X23635000Y-2800000D02*
G75*
G03X23635000Y-2800000I-135000J0D01*
G01*
X23365000Y-12365000D02*
X23635000Y-12635000D01*
X23635000Y-12365000D02*
X23365000Y-12635000D01*
X23635000Y-12500000D02*
G75*
G03X23635000Y-12500000I-135000J0D01*
G01*
D13*
X9278928Y-13473214D02*
X9278928Y-13173214D01*
X9350357Y-13173214D01*
X9393214Y-13187500D01*
X9421786Y-13216071D01*
X9436071Y-13244643D01*
X9450357Y-13301786D01*
X9450357Y-13344643D01*
X9436071Y-13401786D01*
X9421786Y-13430357D01*
X9393214Y-13458929D01*
X9350357Y-13473214D01*
X9278928Y-13473214D01*
X9578928Y-13473214D02*
X9578928Y-13273214D01*
X9578928Y-13330357D02*
X9593214Y-13301786D01*
X9607500Y-13287500D01*
X9636071Y-13273214D01*
X9664643Y-13273214D01*
X9764643Y-13473214D02*
X9764643Y-13273214D01*
X9764643Y-13173214D02*
X9750357Y-13187500D01*
X9764643Y-13201786D01*
X9778928Y-13187500D01*
X9764643Y-13173214D01*
X9764643Y-13201786D01*
X9950357Y-13473214D02*
X9921786Y-13458929D01*
X9907500Y-13430357D01*
X9907500Y-13173214D01*
X10107500Y-13473214D02*
X10078928Y-13458929D01*
X10064643Y-13430357D01*
X10064643Y-13173214D01*
X10450357Y-13473214D02*
X10450357Y-13173214D01*
X10550357Y-13387500D01*
X10650357Y-13173214D01*
X10650357Y-13473214D01*
X10921786Y-13473214D02*
X10921786Y-13316071D01*
X10907500Y-13287500D01*
X10878928Y-13273214D01*
X10821786Y-13273214D01*
X10793214Y-13287500D01*
X10921786Y-13458929D02*
X10893214Y-13473214D01*
X10821786Y-13473214D01*
X10793214Y-13458929D01*
X10778928Y-13430357D01*
X10778928Y-13401786D01*
X10793214Y-13373214D01*
X10821786Y-13358929D01*
X10893214Y-13358929D01*
X10921786Y-13344643D01*
X11064643Y-13273214D02*
X11064643Y-13573214D01*
X11064643Y-13287500D02*
X11093214Y-13273214D01*
X11150357Y-13273214D01*
X11178928Y-13287500D01*
X11193214Y-13301786D01*
X11207500Y-13330357D01*
X11207500Y-13416071D01*
X11193214Y-13444643D01*
X11178928Y-13458929D01*
X11150357Y-13473214D01*
X11093214Y-13473214D01*
X11064643Y-13458929D01*
X11336071Y-13444643D02*
X11350357Y-13458929D01*
X11336071Y-13473214D01*
X11321786Y-13458929D01*
X11336071Y-13444643D01*
X11336071Y-13473214D01*
X11336071Y-13287500D02*
X11350357Y-13301786D01*
X11336071Y-13316071D01*
X11321786Y-13301786D01*
X11336071Y-13287500D01*
X11336071Y-13316071D01*
X8952500Y-13947500D02*
X8992500Y-13987500D01*
X8992500Y-13947500D02*
X8952500Y-13987500D01*
X9336071Y-13803214D02*
X9364643Y-13803214D01*
X9393214Y-13817500D01*
X9407500Y-13831786D01*
X9421786Y-13860357D01*
X9436071Y-13917500D01*
X9436071Y-13988929D01*
X9421786Y-14046071D01*
X9407500Y-14074643D01*
X9393214Y-14088929D01*
X9364643Y-14103214D01*
X9336071Y-14103214D01*
X9307500Y-14088929D01*
X9293214Y-14074643D01*
X9278928Y-14046071D01*
X9264643Y-13988929D01*
X9264643Y-13917500D01*
X9278928Y-13860357D01*
X9293214Y-13831786D01*
X9307500Y-13817500D01*
X9336071Y-13803214D01*
X9564643Y-14074643D02*
X9578928Y-14088929D01*
X9564643Y-14103214D01*
X9550357Y-14088929D01*
X9564643Y-14074643D01*
X9564643Y-14103214D01*
X9836071Y-13903214D02*
X9836071Y-14103214D01*
X9764643Y-13788929D02*
X9693214Y-14003214D01*
X9878928Y-14003214D01*
X10050357Y-13803214D02*
X10078928Y-13803214D01*
X10107500Y-13817500D01*
X10121786Y-13831786D01*
X10136071Y-13860357D01*
X10150357Y-13917500D01*
X10150357Y-13988929D01*
X10136071Y-14046071D01*
X10121786Y-14074643D01*
X10107500Y-14088929D01*
X10078928Y-14103214D01*
X10050357Y-14103214D01*
X10021786Y-14088929D01*
X10007500Y-14074643D01*
X9993214Y-14046071D01*
X9978928Y-13988929D01*
X9978928Y-13917500D01*
X9993214Y-13860357D01*
X10007500Y-13831786D01*
X10021786Y-13817500D01*
X10050357Y-13803214D01*
X10278928Y-14103214D02*
X10278928Y-13903214D01*
X10278928Y-13931786D02*
X10293214Y-13917500D01*
X10321786Y-13903214D01*
X10364643Y-13903214D01*
X10393214Y-13917500D01*
X10407500Y-13946071D01*
X10407500Y-14103214D01*
X10407500Y-13946071D02*
X10421786Y-13917500D01*
X10450357Y-13903214D01*
X10493214Y-13903214D01*
X10521786Y-13917500D01*
X10536071Y-13946071D01*
X10536071Y-14103214D01*
X10678928Y-14103214D02*
X10678928Y-13903214D01*
X10678928Y-13931786D02*
X10693214Y-13917500D01*
X10721786Y-13903214D01*
X10764643Y-13903214D01*
X10793214Y-13917500D01*
X10807500Y-13946071D01*
X10807500Y-14103214D01*
X10807500Y-13946071D02*
X10821786Y-13917500D01*
X10850357Y-13903214D01*
X10893214Y-13903214D01*
X10921786Y-13917500D01*
X10936071Y-13946071D01*
X10936071Y-14103214D01*
X11521786Y-13788929D02*
X11264643Y-14174643D01*
X11907500Y-13803214D02*
X11936071Y-13803214D01*
X11964643Y-13817500D01*
X11978928Y-13831786D01*
X11993214Y-13860357D01*
X12007500Y-13917500D01*
X12007500Y-13988929D01*
X11993214Y-14046071D01*
X11978928Y-14074643D01*
X11964643Y-14088929D01*
X11936071Y-14103214D01*
X11907500Y-14103214D01*
X11878928Y-14088929D01*
X11864643Y-14074643D01*
X11850357Y-14046071D01*
X11836071Y-13988929D01*
X11836071Y-13917500D01*
X11850357Y-13860357D01*
X11864643Y-13831786D01*
X11878928Y-13817500D01*
X11907500Y-13803214D01*
X12136071Y-14074643D02*
X12150357Y-14088929D01*
X12136071Y-14103214D01*
X12121786Y-14088929D01*
X12136071Y-14074643D01*
X12136071Y-14103214D01*
X12336071Y-13803214D02*
X12364643Y-13803214D01*
X12393214Y-13817500D01*
X12407500Y-13831786D01*
X12421786Y-13860357D01*
X12436071Y-13917500D01*
X12436071Y-13988929D01*
X12421786Y-14046071D01*
X12407500Y-14074643D01*
X12393214Y-14088929D01*
X12364643Y-14103214D01*
X12336071Y-14103214D01*
X12307500Y-14088929D01*
X12293214Y-14074643D01*
X12278928Y-14046071D01*
X12264643Y-13988929D01*
X12264643Y-13917500D01*
X12278928Y-13860357D01*
X12293214Y-13831786D01*
X12307500Y-13817500D01*
X12336071Y-13803214D01*
X12721786Y-14103214D02*
X12550357Y-14103214D01*
X12636071Y-14103214D02*
X12636071Y-13803214D01*
X12607500Y-13846071D01*
X12578928Y-13874643D01*
X12550357Y-13888929D01*
X12978928Y-13803214D02*
X12921786Y-13803214D01*
X12893214Y-13817500D01*
X12878928Y-13831786D01*
X12850357Y-13874643D01*
X12836071Y-13931786D01*
X12836071Y-14046071D01*
X12850357Y-14074643D01*
X12864643Y-14088929D01*
X12893214Y-14103214D01*
X12950357Y-14103214D01*
X12978928Y-14088929D01*
X12993214Y-14074643D01*
X13007500Y-14046071D01*
X13007500Y-13974643D01*
X12993214Y-13946071D01*
X12978928Y-13931786D01*
X12950357Y-13917500D01*
X12893214Y-13917500D01*
X12864643Y-13931786D01*
X12850357Y-13946071D01*
X12836071Y-13974643D01*
X13121786Y-13803214D02*
X13121786Y-13860357D01*
X13236071Y-13803214D02*
X13236071Y-13860357D01*
X13678928Y-14217500D02*
X13664643Y-14203214D01*
X13636071Y-14160357D01*
X13621786Y-14131786D01*
X13607500Y-14088929D01*
X13593214Y-14017500D01*
X13593214Y-13960357D01*
X13607500Y-13888929D01*
X13621786Y-13846071D01*
X13636071Y-13817500D01*
X13664643Y-13774643D01*
X13678928Y-13760357D01*
X13764643Y-13803214D02*
X13964643Y-13803214D01*
X13836071Y-14103214D01*
X14307500Y-14103214D02*
X14307500Y-13803214D01*
X14436071Y-14103214D02*
X14436071Y-13946071D01*
X14421786Y-13917500D01*
X14393214Y-13903214D01*
X14350357Y-13903214D01*
X14321786Y-13917500D01*
X14307500Y-13931786D01*
X14621786Y-14103214D02*
X14593214Y-14088929D01*
X14578928Y-14074643D01*
X14564643Y-14046071D01*
X14564643Y-13960357D01*
X14578928Y-13931786D01*
X14593214Y-13917500D01*
X14621786Y-13903214D01*
X14664643Y-13903214D01*
X14693214Y-13917500D01*
X14707500Y-13931786D01*
X14721786Y-13960357D01*
X14721786Y-14046071D01*
X14707500Y-14074643D01*
X14693214Y-14088929D01*
X14664643Y-14103214D01*
X14621786Y-14103214D01*
X14893214Y-14103214D02*
X14864643Y-14088929D01*
X14850357Y-14060357D01*
X14850357Y-13803214D01*
X15121786Y-14088929D02*
X15093214Y-14103214D01*
X15036071Y-14103214D01*
X15007500Y-14088929D01*
X14993214Y-14060357D01*
X14993214Y-13946071D01*
X15007500Y-13917500D01*
X15036071Y-13903214D01*
X15093214Y-13903214D01*
X15121786Y-13917500D01*
X15136071Y-13946071D01*
X15136071Y-13974643D01*
X14993214Y-14003214D01*
X15250357Y-14088929D02*
X15278928Y-14103214D01*
X15336071Y-14103214D01*
X15364643Y-14088929D01*
X15378928Y-14060357D01*
X15378928Y-14046071D01*
X15364643Y-14017500D01*
X15336071Y-14003214D01*
X15293214Y-14003214D01*
X15264643Y-13988929D01*
X15250357Y-13960357D01*
X15250357Y-13946071D01*
X15264643Y-13917500D01*
X15293214Y-13903214D01*
X15336071Y-13903214D01*
X15364643Y-13917500D01*
X15478928Y-14217500D02*
X15493214Y-14203214D01*
X15521786Y-14160357D01*
X15536071Y-14131786D01*
X15550357Y-14088929D01*
X15564643Y-14017500D01*
X15564643Y-13960357D01*
X15550357Y-13888929D01*
X15536071Y-13846071D01*
X15521786Y-13817500D01*
X15493214Y-13774643D01*
X15478928Y-13760357D01*
X8992500Y-14363500D02*
G75*
G03X8992500Y-14363500I-40000J0D01*
G01*
X9336071Y-14199214D02*
X9364643Y-14199214D01*
X9393214Y-14213500D01*
X9407500Y-14227786D01*
X9421786Y-14256357D01*
X9436071Y-14313500D01*
X9436071Y-14384929D01*
X9421786Y-14442071D01*
X9407500Y-14470643D01*
X9393214Y-14484929D01*
X9364643Y-14499214D01*
X9336071Y-14499214D01*
X9307500Y-14484929D01*
X9293214Y-14470643D01*
X9278928Y-14442071D01*
X9264643Y-14384929D01*
X9264643Y-14313500D01*
X9278928Y-14256357D01*
X9293214Y-14227786D01*
X9307500Y-14213500D01*
X9336071Y-14199214D01*
X9564643Y-14470643D02*
X9578928Y-14484929D01*
X9564643Y-14499214D01*
X9550357Y-14484929D01*
X9564643Y-14470643D01*
X9564643Y-14499214D01*
X9750357Y-14327786D02*
X9721786Y-14313500D01*
X9707500Y-14299214D01*
X9693214Y-14270643D01*
X9693214Y-14256357D01*
X9707500Y-14227786D01*
X9721786Y-14213500D01*
X9750357Y-14199214D01*
X9807500Y-14199214D01*
X9836071Y-14213500D01*
X9850357Y-14227786D01*
X9864643Y-14256357D01*
X9864643Y-14270643D01*
X9850357Y-14299214D01*
X9836071Y-14313500D01*
X9807500Y-14327786D01*
X9750357Y-14327786D01*
X9721786Y-14342071D01*
X9707500Y-14356357D01*
X9693214Y-14384929D01*
X9693214Y-14442071D01*
X9707500Y-14470643D01*
X9721786Y-14484929D01*
X9750357Y-14499214D01*
X9807500Y-14499214D01*
X9836071Y-14484929D01*
X9850357Y-14470643D01*
X9864643Y-14442071D01*
X9864643Y-14384929D01*
X9850357Y-14356357D01*
X9836071Y-14342071D01*
X9807500Y-14327786D01*
X10050357Y-14199214D02*
X10078928Y-14199214D01*
X10107500Y-14213500D01*
X10121786Y-14227786D01*
X10136071Y-14256357D01*
X10150357Y-14313500D01*
X10150357Y-14384929D01*
X10136071Y-14442071D01*
X10121786Y-14470643D01*
X10107500Y-14484929D01*
X10078928Y-14499214D01*
X10050357Y-14499214D01*
X10021786Y-14484929D01*
X10007500Y-14470643D01*
X9993214Y-14442071D01*
X9978928Y-14384929D01*
X9978928Y-14313500D01*
X9993214Y-14256357D01*
X10007500Y-14227786D01*
X10021786Y-14213500D01*
X10050357Y-14199214D01*
X10278928Y-14499214D02*
X10278928Y-14299214D01*
X10278928Y-14327786D02*
X10293214Y-14313500D01*
X10321786Y-14299214D01*
X10364643Y-14299214D01*
X10393214Y-14313500D01*
X10407500Y-14342071D01*
X10407500Y-14499214D01*
X10407500Y-14342071D02*
X10421786Y-14313500D01*
X10450357Y-14299214D01*
X10493214Y-14299214D01*
X10521786Y-14313500D01*
X10536071Y-14342071D01*
X10536071Y-14499214D01*
X10678928Y-14499214D02*
X10678928Y-14299214D01*
X10678928Y-14327786D02*
X10693214Y-14313500D01*
X10721786Y-14299214D01*
X10764643Y-14299214D01*
X10793214Y-14313500D01*
X10807500Y-14342071D01*
X10807500Y-14499214D01*
X10807500Y-14342071D02*
X10821786Y-14313500D01*
X10850357Y-14299214D01*
X10893214Y-14299214D01*
X10921786Y-14313500D01*
X10936071Y-14342071D01*
X10936071Y-14499214D01*
X11521786Y-14184929D02*
X11264643Y-14570643D01*
X11907500Y-14199214D02*
X11936071Y-14199214D01*
X11964643Y-14213500D01*
X11978928Y-14227786D01*
X11993214Y-14256357D01*
X12007500Y-14313500D01*
X12007500Y-14384929D01*
X11993214Y-14442071D01*
X11978928Y-14470643D01*
X11964643Y-14484929D01*
X11936071Y-14499214D01*
X11907500Y-14499214D01*
X11878928Y-14484929D01*
X11864643Y-14470643D01*
X11850357Y-14442071D01*
X11836071Y-14384929D01*
X11836071Y-14313500D01*
X11850357Y-14256357D01*
X11864643Y-14227786D01*
X11878928Y-14213500D01*
X11907500Y-14199214D01*
X12136071Y-14470643D02*
X12150357Y-14484929D01*
X12136071Y-14499214D01*
X12121786Y-14484929D01*
X12136071Y-14470643D01*
X12136071Y-14499214D01*
X12336071Y-14199214D02*
X12364643Y-14199214D01*
X12393214Y-14213500D01*
X12407500Y-14227786D01*
X12421786Y-14256357D01*
X12436071Y-14313500D01*
X12436071Y-14384929D01*
X12421786Y-14442071D01*
X12407500Y-14470643D01*
X12393214Y-14484929D01*
X12364643Y-14499214D01*
X12336071Y-14499214D01*
X12307500Y-14484929D01*
X12293214Y-14470643D01*
X12278928Y-14442071D01*
X12264643Y-14384929D01*
X12264643Y-14313500D01*
X12278928Y-14256357D01*
X12293214Y-14227786D01*
X12307500Y-14213500D01*
X12336071Y-14199214D01*
X12536071Y-14199214D02*
X12721786Y-14199214D01*
X12621786Y-14313500D01*
X12664643Y-14313500D01*
X12693214Y-14327786D01*
X12707500Y-14342071D01*
X12721786Y-14370643D01*
X12721786Y-14442071D01*
X12707500Y-14470643D01*
X12693214Y-14484929D01*
X12664643Y-14499214D01*
X12578928Y-14499214D01*
X12550357Y-14484929D01*
X12536071Y-14470643D01*
X13007500Y-14499214D02*
X12836071Y-14499214D01*
X12921786Y-14499214D02*
X12921786Y-14199214D01*
X12893214Y-14242071D01*
X12864643Y-14270643D01*
X12836071Y-14284929D01*
X13121786Y-14199214D02*
X13121786Y-14256357D01*
X13236071Y-14199214D02*
X13236071Y-14256357D01*
X13678928Y-14613500D02*
X13664643Y-14599214D01*
X13636071Y-14556357D01*
X13621786Y-14527786D01*
X13607500Y-14484929D01*
X13593214Y-14413500D01*
X13593214Y-14356357D01*
X13607500Y-14284929D01*
X13621786Y-14242071D01*
X13636071Y-14213500D01*
X13664643Y-14170643D01*
X13678928Y-14156357D01*
X13836071Y-14327786D02*
X13807500Y-14313500D01*
X13793214Y-14299214D01*
X13778928Y-14270643D01*
X13778928Y-14256357D01*
X13793214Y-14227786D01*
X13807500Y-14213500D01*
X13836071Y-14199214D01*
X13893214Y-14199214D01*
X13921786Y-14213500D01*
X13936071Y-14227786D01*
X13950357Y-14256357D01*
X13950357Y-14270643D01*
X13936071Y-14299214D01*
X13921786Y-14313500D01*
X13893214Y-14327786D01*
X13836071Y-14327786D01*
X13807500Y-14342071D01*
X13793214Y-14356357D01*
X13778928Y-14384929D01*
X13778928Y-14442071D01*
X13793214Y-14470643D01*
X13807500Y-14484929D01*
X13836071Y-14499214D01*
X13893214Y-14499214D01*
X13921786Y-14484929D01*
X13936071Y-14470643D01*
X13950357Y-14442071D01*
X13950357Y-14384929D01*
X13936071Y-14356357D01*
X13921786Y-14342071D01*
X13893214Y-14327786D01*
X14307500Y-14499214D02*
X14307500Y-14199214D01*
X14436071Y-14499214D02*
X14436071Y-14342071D01*
X14421786Y-14313500D01*
X14393214Y-14299214D01*
X14350357Y-14299214D01*
X14321786Y-14313500D01*
X14307500Y-14327786D01*
X14621786Y-14499214D02*
X14593214Y-14484929D01*
X14578928Y-14470643D01*
X14564643Y-14442071D01*
X14564643Y-14356357D01*
X14578928Y-14327786D01*
X14593214Y-14313500D01*
X14621786Y-14299214D01*
X14664643Y-14299214D01*
X14693214Y-14313500D01*
X14707500Y-14327786D01*
X14721786Y-14356357D01*
X14721786Y-14442071D01*
X14707500Y-14470643D01*
X14693214Y-14484929D01*
X14664643Y-14499214D01*
X14621786Y-14499214D01*
X14893214Y-14499214D02*
X14864643Y-14484929D01*
X14850357Y-14456357D01*
X14850357Y-14199214D01*
X15121786Y-14484929D02*
X15093214Y-14499214D01*
X15036071Y-14499214D01*
X15007500Y-14484929D01*
X14993214Y-14456357D01*
X14993214Y-14342071D01*
X15007500Y-14313500D01*
X15036071Y-14299214D01*
X15093214Y-14299214D01*
X15121786Y-14313500D01*
X15136071Y-14342071D01*
X15136071Y-14370643D01*
X14993214Y-14399214D01*
X15250357Y-14484929D02*
X15278928Y-14499214D01*
X15336071Y-14499214D01*
X15364643Y-14484929D01*
X15378928Y-14456357D01*
X15378928Y-14442071D01*
X15364643Y-14413500D01*
X15336071Y-14399214D01*
X15293214Y-14399214D01*
X15264643Y-14384929D01*
X15250357Y-14356357D01*
X15250357Y-14342071D01*
X15264643Y-14313500D01*
X15293214Y-14299214D01*
X15336071Y-14299214D01*
X15364643Y-14313500D01*
X15478928Y-14613500D02*
X15493214Y-14599214D01*
X15521786Y-14556357D01*
X15536071Y-14527786D01*
X15550357Y-14484929D01*
X15564643Y-14413500D01*
X15564643Y-14356357D01*
X15550357Y-14284929D01*
X15536071Y-14242071D01*
X15521786Y-14213500D01*
X15493214Y-14170643D01*
X15478928Y-14156357D01*
X8941700Y-14708700D02*
X8941700Y-14810300D01*
X8890900Y-14759500D02*
X8992500Y-14759500D01*
X9436071Y-14895214D02*
X9264643Y-14895214D01*
X9350357Y-14895214D02*
X9350357Y-14595214D01*
X9321786Y-14638071D01*
X9293214Y-14666643D01*
X9264643Y-14680929D01*
X9564643Y-14866643D02*
X9578928Y-14880929D01*
X9564643Y-14895214D01*
X9550357Y-14880929D01*
X9564643Y-14866643D01*
X9564643Y-14895214D01*
X9764643Y-14595214D02*
X9793214Y-14595214D01*
X9821786Y-14609500D01*
X9836071Y-14623786D01*
X9850357Y-14652357D01*
X9864643Y-14709500D01*
X9864643Y-14780929D01*
X9850357Y-14838071D01*
X9836071Y-14866643D01*
X9821786Y-14880929D01*
X9793214Y-14895214D01*
X9764643Y-14895214D01*
X9736071Y-14880929D01*
X9721786Y-14866643D01*
X9707500Y-14838071D01*
X9693214Y-14780929D01*
X9693214Y-14709500D01*
X9707500Y-14652357D01*
X9721786Y-14623786D01*
X9736071Y-14609500D01*
X9764643Y-14595214D01*
X9978928Y-14623786D02*
X9993214Y-14609500D01*
X10021786Y-14595214D01*
X10093214Y-14595214D01*
X10121786Y-14609500D01*
X10136071Y-14623786D01*
X10150357Y-14652357D01*
X10150357Y-14680929D01*
X10136071Y-14723786D01*
X9964643Y-14895214D01*
X10150357Y-14895214D01*
X10278928Y-14895214D02*
X10278928Y-14695214D01*
X10278928Y-14723786D02*
X10293214Y-14709500D01*
X10321786Y-14695214D01*
X10364643Y-14695214D01*
X10393214Y-14709500D01*
X10407500Y-14738071D01*
X10407500Y-14895214D01*
X10407500Y-14738071D02*
X10421786Y-14709500D01*
X10450357Y-14695214D01*
X10493214Y-14695214D01*
X10521786Y-14709500D01*
X10536071Y-14738071D01*
X10536071Y-14895214D01*
X10678928Y-14895214D02*
X10678928Y-14695214D01*
X10678928Y-14723786D02*
X10693214Y-14709500D01*
X10721786Y-14695214D01*
X10764643Y-14695214D01*
X10793214Y-14709500D01*
X10807500Y-14738071D01*
X10807500Y-14895214D01*
X10807500Y-14738071D02*
X10821786Y-14709500D01*
X10850357Y-14695214D01*
X10893214Y-14695214D01*
X10921786Y-14709500D01*
X10936071Y-14738071D01*
X10936071Y-14895214D01*
X11521786Y-14580929D02*
X11264643Y-14966643D01*
X11907500Y-14595214D02*
X11936071Y-14595214D01*
X11964643Y-14609500D01*
X11978928Y-14623786D01*
X11993214Y-14652357D01*
X12007500Y-14709500D01*
X12007500Y-14780929D01*
X11993214Y-14838071D01*
X11978928Y-14866643D01*
X11964643Y-14880929D01*
X11936071Y-14895214D01*
X11907500Y-14895214D01*
X11878928Y-14880929D01*
X11864643Y-14866643D01*
X11850357Y-14838071D01*
X11836071Y-14780929D01*
X11836071Y-14709500D01*
X11850357Y-14652357D01*
X11864643Y-14623786D01*
X11878928Y-14609500D01*
X11907500Y-14595214D01*
X12136071Y-14866643D02*
X12150357Y-14880929D01*
X12136071Y-14895214D01*
X12121786Y-14880929D01*
X12136071Y-14866643D01*
X12136071Y-14895214D01*
X12336071Y-14595214D02*
X12364643Y-14595214D01*
X12393214Y-14609500D01*
X12407500Y-14623786D01*
X12421786Y-14652357D01*
X12436071Y-14709500D01*
X12436071Y-14780929D01*
X12421786Y-14838071D01*
X12407500Y-14866643D01*
X12393214Y-14880929D01*
X12364643Y-14895214D01*
X12336071Y-14895214D01*
X12307500Y-14880929D01*
X12293214Y-14866643D01*
X12278928Y-14838071D01*
X12264643Y-14780929D01*
X12264643Y-14709500D01*
X12278928Y-14652357D01*
X12293214Y-14623786D01*
X12307500Y-14609500D01*
X12336071Y-14595214D01*
X12693214Y-14695214D02*
X12693214Y-14895214D01*
X12621786Y-14580929D02*
X12550357Y-14795214D01*
X12736071Y-14795214D01*
X12907500Y-14595214D02*
X12936071Y-14595214D01*
X12964643Y-14609500D01*
X12978928Y-14623786D01*
X12993214Y-14652357D01*
X13007500Y-14709500D01*
X13007500Y-14780929D01*
X12993214Y-14838071D01*
X12978928Y-14866643D01*
X12964643Y-14880929D01*
X12936071Y-14895214D01*
X12907500Y-14895214D01*
X12878928Y-14880929D01*
X12864643Y-14866643D01*
X12850357Y-14838071D01*
X12836071Y-14780929D01*
X12836071Y-14709500D01*
X12850357Y-14652357D01*
X12864643Y-14623786D01*
X12878928Y-14609500D01*
X12907500Y-14595214D01*
X13121786Y-14595214D02*
X13121786Y-14652357D01*
X13236071Y-14595214D02*
X13236071Y-14652357D01*
X13678928Y-15009500D02*
X13664643Y-14995214D01*
X13636071Y-14952357D01*
X13621786Y-14923786D01*
X13607500Y-14880929D01*
X13593214Y-14809500D01*
X13593214Y-14752357D01*
X13607500Y-14680929D01*
X13621786Y-14638071D01*
X13636071Y-14609500D01*
X13664643Y-14566643D01*
X13678928Y-14552357D01*
X13921786Y-14695214D02*
X13921786Y-14895214D01*
X13850357Y-14580929D02*
X13778928Y-14795214D01*
X13964643Y-14795214D01*
X14136071Y-14595214D02*
X14164643Y-14595214D01*
X14193214Y-14609500D01*
X14207500Y-14623786D01*
X14221786Y-14652357D01*
X14236071Y-14709500D01*
X14236071Y-14780929D01*
X14221786Y-14838071D01*
X14207500Y-14866643D01*
X14193214Y-14880929D01*
X14164643Y-14895214D01*
X14136071Y-14895214D01*
X14107500Y-14880929D01*
X14093214Y-14866643D01*
X14078928Y-14838071D01*
X14064643Y-14780929D01*
X14064643Y-14709500D01*
X14078928Y-14652357D01*
X14093214Y-14623786D01*
X14107500Y-14609500D01*
X14136071Y-14595214D01*
X14593214Y-14895214D02*
X14593214Y-14595214D01*
X14721786Y-14895214D02*
X14721786Y-14738071D01*
X14707500Y-14709500D01*
X14678928Y-14695214D01*
X14636071Y-14695214D01*
X14607500Y-14709500D01*
X14593214Y-14723786D01*
X14907500Y-14895214D02*
X14878928Y-14880929D01*
X14864643Y-14866643D01*
X14850357Y-14838071D01*
X14850357Y-14752357D01*
X14864643Y-14723786D01*
X14878928Y-14709500D01*
X14907500Y-14695214D01*
X14950357Y-14695214D01*
X14978928Y-14709500D01*
X14993214Y-14723786D01*
X15007500Y-14752357D01*
X15007500Y-14838071D01*
X14993214Y-14866643D01*
X14978928Y-14880929D01*
X14950357Y-14895214D01*
X14907500Y-14895214D01*
X15178928Y-14895214D02*
X15150357Y-14880929D01*
X15136071Y-14852357D01*
X15136071Y-14595214D01*
X15407500Y-14880929D02*
X15378928Y-14895214D01*
X15321786Y-14895214D01*
X15293214Y-14880929D01*
X15278928Y-14852357D01*
X15278928Y-14738071D01*
X15293214Y-14709500D01*
X15321786Y-14695214D01*
X15378928Y-14695214D01*
X15407500Y-14709500D01*
X15421786Y-14738071D01*
X15421786Y-14766643D01*
X15278928Y-14795214D01*
X15536071Y-14880929D02*
X15564643Y-14895214D01*
X15621786Y-14895214D01*
X15650357Y-14880929D01*
X15664643Y-14852357D01*
X15664643Y-14838071D01*
X15650357Y-14809500D01*
X15621786Y-14795214D01*
X15578928Y-14795214D01*
X15550357Y-14780929D01*
X15536071Y-14752357D01*
X15536071Y-14738071D01*
X15550357Y-14709500D01*
X15578928Y-14695214D01*
X15621786Y-14695214D01*
X15650357Y-14709500D01*
X15764643Y-15009500D02*
X15778928Y-14995214D01*
X15807500Y-14952357D01*
X15821786Y-14923786D01*
X15836071Y-14880929D01*
X15850357Y-14809500D01*
X15850357Y-14752357D01*
X15836071Y-14680929D01*
X15821786Y-14638071D01*
X15807500Y-14609500D01*
X15778928Y-14566643D01*
X15764643Y-14552357D01*
X8974927Y-15197927D02*
X8974927Y-15113073D01*
X8890073Y-15113073D01*
X8890073Y-15197927D01*
X8974927Y-15197927D01*
X9436071Y-15291214D02*
X9264643Y-15291214D01*
X9350357Y-15291214D02*
X9350357Y-14991214D01*
X9321786Y-15034071D01*
X9293214Y-15062643D01*
X9264643Y-15076929D01*
X9564643Y-15262643D02*
X9578928Y-15276929D01*
X9564643Y-15291214D01*
X9550357Y-15276929D01*
X9564643Y-15262643D01*
X9564643Y-15291214D01*
X9693214Y-15019786D02*
X9707500Y-15005500D01*
X9736071Y-14991214D01*
X9807500Y-14991214D01*
X9836071Y-15005500D01*
X9850357Y-15019786D01*
X9864643Y-15048357D01*
X9864643Y-15076929D01*
X9850357Y-15119786D01*
X9678928Y-15291214D01*
X9864643Y-15291214D01*
X10050357Y-14991214D02*
X10078928Y-14991214D01*
X10107500Y-15005500D01*
X10121786Y-15019786D01*
X10136071Y-15048357D01*
X10150357Y-15105500D01*
X10150357Y-15176929D01*
X10136071Y-15234071D01*
X10121786Y-15262643D01*
X10107500Y-15276929D01*
X10078928Y-15291214D01*
X10050357Y-15291214D01*
X10021786Y-15276929D01*
X10007500Y-15262643D01*
X9993214Y-15234071D01*
X9978928Y-15176929D01*
X9978928Y-15105500D01*
X9993214Y-15048357D01*
X10007500Y-15019786D01*
X10021786Y-15005500D01*
X10050357Y-14991214D01*
X10278928Y-15291214D02*
X10278928Y-15091214D01*
X10278928Y-15119786D02*
X10293214Y-15105500D01*
X10321786Y-15091214D01*
X10364643Y-15091214D01*
X10393214Y-15105500D01*
X10407500Y-15134071D01*
X10407500Y-15291214D01*
X10407500Y-15134071D02*
X10421786Y-15105500D01*
X10450357Y-15091214D01*
X10493214Y-15091214D01*
X10521786Y-15105500D01*
X10536071Y-15134071D01*
X10536071Y-15291214D01*
X10678928Y-15291214D02*
X10678928Y-15091214D01*
X10678928Y-15119786D02*
X10693214Y-15105500D01*
X10721786Y-15091214D01*
X10764643Y-15091214D01*
X10793214Y-15105500D01*
X10807500Y-15134071D01*
X10807500Y-15291214D01*
X10807500Y-15134071D02*
X10821786Y-15105500D01*
X10850357Y-15091214D01*
X10893214Y-15091214D01*
X10921786Y-15105500D01*
X10936071Y-15134071D01*
X10936071Y-15291214D01*
X11521786Y-14976929D02*
X11264643Y-15362643D01*
X11907500Y-14991214D02*
X11936071Y-14991214D01*
X11964643Y-15005500D01*
X11978928Y-15019786D01*
X11993214Y-15048357D01*
X12007500Y-15105500D01*
X12007500Y-15176929D01*
X11993214Y-15234071D01*
X11978928Y-15262643D01*
X11964643Y-15276929D01*
X11936071Y-15291214D01*
X11907500Y-15291214D01*
X11878928Y-15276929D01*
X11864643Y-15262643D01*
X11850357Y-15234071D01*
X11836071Y-15176929D01*
X11836071Y-15105500D01*
X11850357Y-15048357D01*
X11864643Y-15019786D01*
X11878928Y-15005500D01*
X11907500Y-14991214D01*
X12136071Y-15262643D02*
X12150357Y-15276929D01*
X12136071Y-15291214D01*
X12121786Y-15276929D01*
X12136071Y-15262643D01*
X12136071Y-15291214D01*
X12336071Y-14991214D02*
X12364643Y-14991214D01*
X12393214Y-15005500D01*
X12407500Y-15019786D01*
X12421786Y-15048357D01*
X12436071Y-15105500D01*
X12436071Y-15176929D01*
X12421786Y-15234071D01*
X12407500Y-15262643D01*
X12393214Y-15276929D01*
X12364643Y-15291214D01*
X12336071Y-15291214D01*
X12307500Y-15276929D01*
X12293214Y-15262643D01*
X12278928Y-15234071D01*
X12264643Y-15176929D01*
X12264643Y-15105500D01*
X12278928Y-15048357D01*
X12293214Y-15019786D01*
X12307500Y-15005500D01*
X12336071Y-14991214D01*
X12693214Y-15091214D02*
X12693214Y-15291214D01*
X12621786Y-14976929D02*
X12550357Y-15191214D01*
X12736071Y-15191214D01*
X12821786Y-14991214D02*
X13021786Y-14991214D01*
X12893214Y-15291214D01*
X13121786Y-14991214D02*
X13121786Y-15048357D01*
X13236071Y-14991214D02*
X13236071Y-15048357D01*
X13678928Y-15405500D02*
X13664643Y-15391214D01*
X13636071Y-15348357D01*
X13621786Y-15319786D01*
X13607500Y-15276929D01*
X13593214Y-15205500D01*
X13593214Y-15148357D01*
X13607500Y-15076929D01*
X13621786Y-15034071D01*
X13636071Y-15005500D01*
X13664643Y-14962643D01*
X13678928Y-14948357D01*
X13836071Y-15119786D02*
X13807500Y-15105500D01*
X13793214Y-15091214D01*
X13778928Y-15062643D01*
X13778928Y-15048357D01*
X13793214Y-15019786D01*
X13807500Y-15005500D01*
X13836071Y-14991214D01*
X13893214Y-14991214D01*
X13921786Y-15005500D01*
X13936071Y-15019786D01*
X13950357Y-15048357D01*
X13950357Y-15062643D01*
X13936071Y-15091214D01*
X13921786Y-15105500D01*
X13893214Y-15119786D01*
X13836071Y-15119786D01*
X13807500Y-15134071D01*
X13793214Y-15148357D01*
X13778928Y-15176929D01*
X13778928Y-15234071D01*
X13793214Y-15262643D01*
X13807500Y-15276929D01*
X13836071Y-15291214D01*
X13893214Y-15291214D01*
X13921786Y-15276929D01*
X13936071Y-15262643D01*
X13950357Y-15234071D01*
X13950357Y-15176929D01*
X13936071Y-15148357D01*
X13921786Y-15134071D01*
X13893214Y-15119786D01*
X14307500Y-15291214D02*
X14307500Y-14991214D01*
X14436071Y-15291214D02*
X14436071Y-15134071D01*
X14421786Y-15105500D01*
X14393214Y-15091214D01*
X14350357Y-15091214D01*
X14321786Y-15105500D01*
X14307500Y-15119786D01*
X14621786Y-15291214D02*
X14593214Y-15276929D01*
X14578928Y-15262643D01*
X14564643Y-15234071D01*
X14564643Y-15148357D01*
X14578928Y-15119786D01*
X14593214Y-15105500D01*
X14621786Y-15091214D01*
X14664643Y-15091214D01*
X14693214Y-15105500D01*
X14707500Y-15119786D01*
X14721786Y-15148357D01*
X14721786Y-15234071D01*
X14707500Y-15262643D01*
X14693214Y-15276929D01*
X14664643Y-15291214D01*
X14621786Y-15291214D01*
X14893214Y-15291214D02*
X14864643Y-15276929D01*
X14850357Y-15248357D01*
X14850357Y-14991214D01*
X15121786Y-15276929D02*
X15093214Y-15291214D01*
X15036071Y-15291214D01*
X15007500Y-15276929D01*
X14993214Y-15248357D01*
X14993214Y-15134071D01*
X15007500Y-15105500D01*
X15036071Y-15091214D01*
X15093214Y-15091214D01*
X15121786Y-15105500D01*
X15136071Y-15134071D01*
X15136071Y-15162643D01*
X14993214Y-15191214D01*
X15250357Y-15276929D02*
X15278928Y-15291214D01*
X15336071Y-15291214D01*
X15364643Y-15276929D01*
X15378928Y-15248357D01*
X15378928Y-15234071D01*
X15364643Y-15205500D01*
X15336071Y-15191214D01*
X15293214Y-15191214D01*
X15264643Y-15176929D01*
X15250357Y-15148357D01*
X15250357Y-15134071D01*
X15264643Y-15105500D01*
X15293214Y-15091214D01*
X15336071Y-15091214D01*
X15364643Y-15105500D01*
X15478928Y-15405500D02*
X15493214Y-15391214D01*
X15521786Y-15348357D01*
X15536071Y-15319786D01*
X15550357Y-15276929D01*
X15564643Y-15205500D01*
X15564643Y-15148357D01*
X15550357Y-15076929D01*
X15536071Y-15034071D01*
X15521786Y-15005500D01*
X15493214Y-14962643D01*
X15478928Y-14948357D01*
X8912500Y-15631500D02*
X8992500Y-15551500D01*
X8912500Y-15471500D01*
X8832500Y-15551500D01*
X8912500Y-15631500D01*
X9436071Y-15687214D02*
X9264643Y-15687214D01*
X9350357Y-15687214D02*
X9350357Y-15387214D01*
X9321786Y-15430071D01*
X9293214Y-15458643D01*
X9264643Y-15472929D01*
X9564643Y-15658643D02*
X9578928Y-15672929D01*
X9564643Y-15687214D01*
X9550357Y-15672929D01*
X9564643Y-15658643D01*
X9564643Y-15687214D01*
X9836071Y-15387214D02*
X9778928Y-15387214D01*
X9750357Y-15401500D01*
X9736071Y-15415786D01*
X9707500Y-15458643D01*
X9693214Y-15515786D01*
X9693214Y-15630071D01*
X9707500Y-15658643D01*
X9721786Y-15672929D01*
X9750357Y-15687214D01*
X9807500Y-15687214D01*
X9836071Y-15672929D01*
X9850357Y-15658643D01*
X9864643Y-15630071D01*
X9864643Y-15558643D01*
X9850357Y-15530071D01*
X9836071Y-15515786D01*
X9807500Y-15501500D01*
X9750357Y-15501500D01*
X9721786Y-15515786D01*
X9707500Y-15530071D01*
X9693214Y-15558643D01*
X10050357Y-15387214D02*
X10078928Y-15387214D01*
X10107500Y-15401500D01*
X10121786Y-15415786D01*
X10136071Y-15444357D01*
X10150357Y-15501500D01*
X10150357Y-15572929D01*
X10136071Y-15630071D01*
X10121786Y-15658643D01*
X10107500Y-15672929D01*
X10078928Y-15687214D01*
X10050357Y-15687214D01*
X10021786Y-15672929D01*
X10007500Y-15658643D01*
X9993214Y-15630071D01*
X9978928Y-15572929D01*
X9978928Y-15501500D01*
X9993214Y-15444357D01*
X10007500Y-15415786D01*
X10021786Y-15401500D01*
X10050357Y-15387214D01*
X10278928Y-15687214D02*
X10278928Y-15487214D01*
X10278928Y-15515786D02*
X10293214Y-15501500D01*
X10321786Y-15487214D01*
X10364643Y-15487214D01*
X10393214Y-15501500D01*
X10407500Y-15530071D01*
X10407500Y-15687214D01*
X10407500Y-15530071D02*
X10421786Y-15501500D01*
X10450357Y-15487214D01*
X10493214Y-15487214D01*
X10521786Y-15501500D01*
X10536071Y-15530071D01*
X10536071Y-15687214D01*
X10678928Y-15687214D02*
X10678928Y-15487214D01*
X10678928Y-15515786D02*
X10693214Y-15501500D01*
X10721786Y-15487214D01*
X10764643Y-15487214D01*
X10793214Y-15501500D01*
X10807500Y-15530071D01*
X10807500Y-15687214D01*
X10807500Y-15530071D02*
X10821786Y-15501500D01*
X10850357Y-15487214D01*
X10893214Y-15487214D01*
X10921786Y-15501500D01*
X10936071Y-15530071D01*
X10936071Y-15687214D01*
X11521786Y-15372929D02*
X11264643Y-15758643D01*
X11907500Y-15387214D02*
X11936071Y-15387214D01*
X11964643Y-15401500D01*
X11978928Y-15415786D01*
X11993214Y-15444357D01*
X12007500Y-15501500D01*
X12007500Y-15572929D01*
X11993214Y-15630071D01*
X11978928Y-15658643D01*
X11964643Y-15672929D01*
X11936071Y-15687214D01*
X11907500Y-15687214D01*
X11878928Y-15672929D01*
X11864643Y-15658643D01*
X11850357Y-15630071D01*
X11836071Y-15572929D01*
X11836071Y-15501500D01*
X11850357Y-15444357D01*
X11864643Y-15415786D01*
X11878928Y-15401500D01*
X11907500Y-15387214D01*
X12136071Y-15658643D02*
X12150357Y-15672929D01*
X12136071Y-15687214D01*
X12121786Y-15672929D01*
X12136071Y-15658643D01*
X12136071Y-15687214D01*
X12336071Y-15387214D02*
X12364643Y-15387214D01*
X12393214Y-15401500D01*
X12407500Y-15415786D01*
X12421786Y-15444357D01*
X12436071Y-15501500D01*
X12436071Y-15572929D01*
X12421786Y-15630071D01*
X12407500Y-15658643D01*
X12393214Y-15672929D01*
X12364643Y-15687214D01*
X12336071Y-15687214D01*
X12307500Y-15672929D01*
X12293214Y-15658643D01*
X12278928Y-15630071D01*
X12264643Y-15572929D01*
X12264643Y-15501500D01*
X12278928Y-15444357D01*
X12293214Y-15415786D01*
X12307500Y-15401500D01*
X12336071Y-15387214D01*
X12693214Y-15387214D02*
X12636071Y-15387214D01*
X12607500Y-15401500D01*
X12593214Y-15415786D01*
X12564643Y-15458643D01*
X12550357Y-15515786D01*
X12550357Y-15630071D01*
X12564643Y-15658643D01*
X12578928Y-15672929D01*
X12607500Y-15687214D01*
X12664643Y-15687214D01*
X12693214Y-15672929D01*
X12707500Y-15658643D01*
X12721786Y-15630071D01*
X12721786Y-15558643D01*
X12707500Y-15530071D01*
X12693214Y-15515786D01*
X12664643Y-15501500D01*
X12607500Y-15501500D01*
X12578928Y-15515786D01*
X12564643Y-15530071D01*
X12550357Y-15558643D01*
X12821786Y-15387214D02*
X13007500Y-15387214D01*
X12907500Y-15501500D01*
X12950357Y-15501500D01*
X12978928Y-15515786D01*
X12993214Y-15530071D01*
X13007500Y-15558643D01*
X13007500Y-15630071D01*
X12993214Y-15658643D01*
X12978928Y-15672929D01*
X12950357Y-15687214D01*
X12864643Y-15687214D01*
X12836071Y-15672929D01*
X12821786Y-15658643D01*
X13121786Y-15387214D02*
X13121786Y-15444357D01*
X13236071Y-15387214D02*
X13236071Y-15444357D01*
X13678928Y-15801500D02*
X13664643Y-15787214D01*
X13636071Y-15744357D01*
X13621786Y-15715786D01*
X13607500Y-15672929D01*
X13593214Y-15601500D01*
X13593214Y-15544357D01*
X13607500Y-15472929D01*
X13621786Y-15430071D01*
X13636071Y-15401500D01*
X13664643Y-15358643D01*
X13678928Y-15344357D01*
X13950357Y-15687214D02*
X13778928Y-15687214D01*
X13864643Y-15687214D02*
X13864643Y-15387214D01*
X13836071Y-15430071D01*
X13807500Y-15458643D01*
X13778928Y-15472929D01*
X14207500Y-15387214D02*
X14150357Y-15387214D01*
X14121786Y-15401500D01*
X14107500Y-15415786D01*
X14078928Y-15458643D01*
X14064643Y-15515786D01*
X14064643Y-15630071D01*
X14078928Y-15658643D01*
X14093214Y-15672929D01*
X14121786Y-15687214D01*
X14178928Y-15687214D01*
X14207500Y-15672929D01*
X14221786Y-15658643D01*
X14236071Y-15630071D01*
X14236071Y-15558643D01*
X14221786Y-15530071D01*
X14207500Y-15515786D01*
X14178928Y-15501500D01*
X14121786Y-15501500D01*
X14093214Y-15515786D01*
X14078928Y-15530071D01*
X14064643Y-15558643D01*
X14593214Y-15687214D02*
X14593214Y-15387214D01*
X14721786Y-15687214D02*
X14721786Y-15530071D01*
X14707500Y-15501500D01*
X14678928Y-15487214D01*
X14636071Y-15487214D01*
X14607500Y-15501500D01*
X14593214Y-15515786D01*
X14907500Y-15687214D02*
X14878928Y-15672929D01*
X14864643Y-15658643D01*
X14850357Y-15630071D01*
X14850357Y-15544357D01*
X14864643Y-15515786D01*
X14878928Y-15501500D01*
X14907500Y-15487214D01*
X14950357Y-15487214D01*
X14978928Y-15501500D01*
X14993214Y-15515786D01*
X15007500Y-15544357D01*
X15007500Y-15630071D01*
X14993214Y-15658643D01*
X14978928Y-15672929D01*
X14950357Y-15687214D01*
X14907500Y-15687214D01*
X15178928Y-15687214D02*
X15150357Y-15672929D01*
X15136071Y-15644357D01*
X15136071Y-15387214D01*
X15407500Y-15672929D02*
X15378928Y-15687214D01*
X15321786Y-15687214D01*
X15293214Y-15672929D01*
X15278928Y-15644357D01*
X15278928Y-15530071D01*
X15293214Y-15501500D01*
X15321786Y-15487214D01*
X15378928Y-15487214D01*
X15407500Y-15501500D01*
X15421786Y-15530071D01*
X15421786Y-15558643D01*
X15278928Y-15587214D01*
X15536071Y-15672929D02*
X15564643Y-15687214D01*
X15621786Y-15687214D01*
X15650357Y-15672929D01*
X15664643Y-15644357D01*
X15664643Y-15630071D01*
X15650357Y-15601500D01*
X15621786Y-15587214D01*
X15578928Y-15587214D01*
X15550357Y-15572929D01*
X15536071Y-15544357D01*
X15536071Y-15530071D01*
X15550357Y-15501500D01*
X15578928Y-15487214D01*
X15621786Y-15487214D01*
X15650357Y-15501500D01*
X15764643Y-15801500D02*
X15778928Y-15787214D01*
X15807500Y-15744357D01*
X15821786Y-15715786D01*
X15836071Y-15672929D01*
X15850357Y-15601500D01*
X15850357Y-15544357D01*
X15836071Y-15472929D01*
X15821786Y-15430071D01*
X15807500Y-15401500D01*
X15778928Y-15358643D01*
X15764643Y-15344357D01*
X8722500Y-15812500D02*
X8992500Y-16082500D01*
X8992500Y-15812500D02*
X8722500Y-16082500D01*
X8992500Y-15947500D02*
G75*
G03X8992500Y-15947500I-135000J0D01*
G01*
X9264643Y-15811786D02*
X9278928Y-15797500D01*
X9307500Y-15783214D01*
X9378928Y-15783214D01*
X9407500Y-15797500D01*
X9421786Y-15811786D01*
X9436071Y-15840357D01*
X9436071Y-15868929D01*
X9421786Y-15911786D01*
X9250357Y-16083214D01*
X9436071Y-16083214D01*
X9564643Y-16054643D02*
X9578928Y-16068929D01*
X9564643Y-16083214D01*
X9550357Y-16068929D01*
X9564643Y-16054643D01*
X9564643Y-16083214D01*
X9678928Y-15783214D02*
X9878928Y-15783214D01*
X9750357Y-16083214D01*
X10050357Y-15783214D02*
X10078928Y-15783214D01*
X10107500Y-15797500D01*
X10121786Y-15811786D01*
X10136071Y-15840357D01*
X10150357Y-15897500D01*
X10150357Y-15968929D01*
X10136071Y-16026071D01*
X10121786Y-16054643D01*
X10107500Y-16068929D01*
X10078928Y-16083214D01*
X10050357Y-16083214D01*
X10021786Y-16068929D01*
X10007500Y-16054643D01*
X9993214Y-16026071D01*
X9978928Y-15968929D01*
X9978928Y-15897500D01*
X9993214Y-15840357D01*
X10007500Y-15811786D01*
X10021786Y-15797500D01*
X10050357Y-15783214D01*
X10278928Y-16083214D02*
X10278928Y-15883214D01*
X10278928Y-15911786D02*
X10293214Y-15897500D01*
X10321786Y-15883214D01*
X10364643Y-15883214D01*
X10393214Y-15897500D01*
X10407500Y-15926071D01*
X10407500Y-16083214D01*
X10407500Y-15926071D02*
X10421786Y-15897500D01*
X10450357Y-15883214D01*
X10493214Y-15883214D01*
X10521786Y-15897500D01*
X10536071Y-15926071D01*
X10536071Y-16083214D01*
X10678928Y-16083214D02*
X10678928Y-15883214D01*
X10678928Y-15911786D02*
X10693214Y-15897500D01*
X10721786Y-15883214D01*
X10764643Y-15883214D01*
X10793214Y-15897500D01*
X10807500Y-15926071D01*
X10807500Y-16083214D01*
X10807500Y-15926071D02*
X10821786Y-15897500D01*
X10850357Y-15883214D01*
X10893214Y-15883214D01*
X10921786Y-15897500D01*
X10936071Y-15926071D01*
X10936071Y-16083214D01*
X11521786Y-15768929D02*
X11264643Y-16154643D01*
X11907500Y-15783214D02*
X11936071Y-15783214D01*
X11964643Y-15797500D01*
X11978928Y-15811786D01*
X11993214Y-15840357D01*
X12007500Y-15897500D01*
X12007500Y-15968929D01*
X11993214Y-16026071D01*
X11978928Y-16054643D01*
X11964643Y-16068929D01*
X11936071Y-16083214D01*
X11907500Y-16083214D01*
X11878928Y-16068929D01*
X11864643Y-16054643D01*
X11850357Y-16026071D01*
X11836071Y-15968929D01*
X11836071Y-15897500D01*
X11850357Y-15840357D01*
X11864643Y-15811786D01*
X11878928Y-15797500D01*
X11907500Y-15783214D01*
X12136071Y-16054643D02*
X12150357Y-16068929D01*
X12136071Y-16083214D01*
X12121786Y-16068929D01*
X12136071Y-16054643D01*
X12136071Y-16083214D01*
X12436071Y-16083214D02*
X12264643Y-16083214D01*
X12350357Y-16083214D02*
X12350357Y-15783214D01*
X12321786Y-15826071D01*
X12293214Y-15854643D01*
X12264643Y-15868929D01*
X12621786Y-15783214D02*
X12650357Y-15783214D01*
X12678928Y-15797500D01*
X12693214Y-15811786D01*
X12707500Y-15840357D01*
X12721786Y-15897500D01*
X12721786Y-15968929D01*
X12707500Y-16026071D01*
X12693214Y-16054643D01*
X12678928Y-16068929D01*
X12650357Y-16083214D01*
X12621786Y-16083214D01*
X12593214Y-16068929D01*
X12578928Y-16054643D01*
X12564643Y-16026071D01*
X12550357Y-15968929D01*
X12550357Y-15897500D01*
X12564643Y-15840357D01*
X12578928Y-15811786D01*
X12593214Y-15797500D01*
X12621786Y-15783214D01*
X12978928Y-15783214D02*
X12921786Y-15783214D01*
X12893214Y-15797500D01*
X12878928Y-15811786D01*
X12850357Y-15854643D01*
X12836071Y-15911786D01*
X12836071Y-16026071D01*
X12850357Y-16054643D01*
X12864643Y-16068929D01*
X12893214Y-16083214D01*
X12950357Y-16083214D01*
X12978928Y-16068929D01*
X12993214Y-16054643D01*
X13007500Y-16026071D01*
X13007500Y-15954643D01*
X12993214Y-15926071D01*
X12978928Y-15911786D01*
X12950357Y-15897500D01*
X12893214Y-15897500D01*
X12864643Y-15911786D01*
X12850357Y-15926071D01*
X12836071Y-15954643D01*
X13121786Y-15783214D02*
X13121786Y-15840357D01*
X13236071Y-15783214D02*
X13236071Y-15840357D01*
X13678928Y-16197500D02*
X13664643Y-16183214D01*
X13636071Y-16140357D01*
X13621786Y-16111786D01*
X13607500Y-16068929D01*
X13593214Y-15997500D01*
X13593214Y-15940357D01*
X13607500Y-15868929D01*
X13621786Y-15826071D01*
X13636071Y-15797500D01*
X13664643Y-15754643D01*
X13678928Y-15740357D01*
X13836071Y-15911786D02*
X13807500Y-15897500D01*
X13793214Y-15883214D01*
X13778928Y-15854643D01*
X13778928Y-15840357D01*
X13793214Y-15811786D01*
X13807500Y-15797500D01*
X13836071Y-15783214D01*
X13893214Y-15783214D01*
X13921786Y-15797500D01*
X13936071Y-15811786D01*
X13950357Y-15840357D01*
X13950357Y-15854643D01*
X13936071Y-15883214D01*
X13921786Y-15897500D01*
X13893214Y-15911786D01*
X13836071Y-15911786D01*
X13807500Y-15926071D01*
X13793214Y-15940357D01*
X13778928Y-15968929D01*
X13778928Y-16026071D01*
X13793214Y-16054643D01*
X13807500Y-16068929D01*
X13836071Y-16083214D01*
X13893214Y-16083214D01*
X13921786Y-16068929D01*
X13936071Y-16054643D01*
X13950357Y-16026071D01*
X13950357Y-15968929D01*
X13936071Y-15940357D01*
X13921786Y-15926071D01*
X13893214Y-15911786D01*
X14307500Y-16083214D02*
X14307500Y-15783214D01*
X14436071Y-16083214D02*
X14436071Y-15926071D01*
X14421786Y-15897500D01*
X14393214Y-15883214D01*
X14350357Y-15883214D01*
X14321786Y-15897500D01*
X14307500Y-15911786D01*
X14621786Y-16083214D02*
X14593214Y-16068929D01*
X14578928Y-16054643D01*
X14564643Y-16026071D01*
X14564643Y-15940357D01*
X14578928Y-15911786D01*
X14593214Y-15897500D01*
X14621786Y-15883214D01*
X14664643Y-15883214D01*
X14693214Y-15897500D01*
X14707500Y-15911786D01*
X14721786Y-15940357D01*
X14721786Y-16026071D01*
X14707500Y-16054643D01*
X14693214Y-16068929D01*
X14664643Y-16083214D01*
X14621786Y-16083214D01*
X14893214Y-16083214D02*
X14864643Y-16068929D01*
X14850357Y-16040357D01*
X14850357Y-15783214D01*
X15121786Y-16068929D02*
X15093214Y-16083214D01*
X15036071Y-16083214D01*
X15007500Y-16068929D01*
X14993214Y-16040357D01*
X14993214Y-15926071D01*
X15007500Y-15897500D01*
X15036071Y-15883214D01*
X15093214Y-15883214D01*
X15121786Y-15897500D01*
X15136071Y-15926071D01*
X15136071Y-15954643D01*
X14993214Y-15983214D01*
X15250357Y-16068929D02*
X15278928Y-16083214D01*
X15336071Y-16083214D01*
X15364643Y-16068929D01*
X15378928Y-16040357D01*
X15378928Y-16026071D01*
X15364643Y-15997500D01*
X15336071Y-15983214D01*
X15293214Y-15983214D01*
X15264643Y-15968929D01*
X15250357Y-15940357D01*
X15250357Y-15926071D01*
X15264643Y-15897500D01*
X15293214Y-15883214D01*
X15336071Y-15883214D01*
X15364643Y-15897500D01*
X15478928Y-16197500D02*
X15493214Y-16183214D01*
X15521786Y-16140357D01*
X15536071Y-16111786D01*
X15550357Y-16068929D01*
X15564643Y-15997500D01*
X15564643Y-15940357D01*
X15550357Y-15868929D01*
X15536071Y-15826071D01*
X15521786Y-15797500D01*
X15493214Y-15754643D01*
X15478928Y-15740357D01*
X16021786Y-16197500D02*
X16007500Y-16183214D01*
X15978928Y-16140357D01*
X15964643Y-16111786D01*
X15950357Y-16068929D01*
X15936071Y-15997500D01*
X15936071Y-15940357D01*
X15950357Y-15868929D01*
X15964643Y-15826071D01*
X15978928Y-15797500D01*
X16007500Y-15754643D01*
X16021786Y-15740357D01*
X16136071Y-15883214D02*
X16136071Y-16083214D01*
X16136071Y-15911786D02*
X16150357Y-15897500D01*
X16178928Y-15883214D01*
X16221786Y-15883214D01*
X16250357Y-15897500D01*
X16264643Y-15926071D01*
X16264643Y-16083214D01*
X16450357Y-16083214D02*
X16421786Y-16068929D01*
X16407500Y-16054643D01*
X16393214Y-16026071D01*
X16393214Y-15940357D01*
X16407500Y-15911786D01*
X16421786Y-15897500D01*
X16450357Y-15883214D01*
X16493214Y-15883214D01*
X16521786Y-15897500D01*
X16536071Y-15911786D01*
X16550357Y-15940357D01*
X16550357Y-16026071D01*
X16536071Y-16054643D01*
X16521786Y-16068929D01*
X16493214Y-16083214D01*
X16450357Y-16083214D01*
X16636071Y-15883214D02*
X16750357Y-15883214D01*
X16678928Y-15783214D02*
X16678928Y-16040357D01*
X16693214Y-16068929D01*
X16721786Y-16083214D01*
X16750357Y-16083214D01*
X17078928Y-15883214D02*
X17078928Y-16183214D01*
X17078928Y-15897500D02*
X17107500Y-15883214D01*
X17164643Y-15883214D01*
X17193214Y-15897500D01*
X17207500Y-15911786D01*
X17221786Y-15940357D01*
X17221786Y-16026071D01*
X17207500Y-16054643D01*
X17193214Y-16068929D01*
X17164643Y-16083214D01*
X17107500Y-16083214D01*
X17078928Y-16068929D01*
X17393214Y-16083214D02*
X17364643Y-16068929D01*
X17350357Y-16040357D01*
X17350357Y-15783214D01*
X17636071Y-16083214D02*
X17636071Y-15926071D01*
X17621786Y-15897500D01*
X17593214Y-15883214D01*
X17536071Y-15883214D01*
X17507500Y-15897500D01*
X17636071Y-16068929D02*
X17607500Y-16083214D01*
X17536071Y-16083214D01*
X17507500Y-16068929D01*
X17493214Y-16040357D01*
X17493214Y-16011786D01*
X17507500Y-15983214D01*
X17536071Y-15968929D01*
X17607500Y-15968929D01*
X17636071Y-15954643D01*
X17736071Y-15883214D02*
X17850357Y-15883214D01*
X17778928Y-15783214D02*
X17778928Y-16040357D01*
X17793214Y-16068929D01*
X17821786Y-16083214D01*
X17850357Y-16083214D01*
X18064643Y-16068929D02*
X18036071Y-16083214D01*
X17978928Y-16083214D01*
X17950357Y-16068929D01*
X17936071Y-16040357D01*
X17936071Y-15926071D01*
X17950357Y-15897500D01*
X17978928Y-15883214D01*
X18036071Y-15883214D01*
X18064643Y-15897500D01*
X18078928Y-15926071D01*
X18078928Y-15954643D01*
X17936071Y-15983214D01*
X18336071Y-16083214D02*
X18336071Y-15783214D01*
X18336071Y-16068929D02*
X18307500Y-16083214D01*
X18250357Y-16083214D01*
X18221786Y-16068929D01*
X18207500Y-16054643D01*
X18193214Y-16026071D01*
X18193214Y-15940357D01*
X18207500Y-15911786D01*
X18221786Y-15897500D01*
X18250357Y-15883214D01*
X18307500Y-15883214D01*
X18336071Y-15897500D01*
X18450357Y-16197500D02*
X18464643Y-16183214D01*
X18493214Y-16140357D01*
X18507500Y-16111786D01*
X18521786Y-16068929D01*
X18536071Y-15997500D01*
X18536071Y-15940357D01*
X18521786Y-15868929D01*
X18507500Y-15826071D01*
X18493214Y-15797500D01*
X18464643Y-15754643D01*
X18450357Y-15740357D01*
M02*
