G04 #@! TF.GenerationSoftware,KiCad,Pcbnew,(2016-12-18 revision 3ffa37c)-master*
G04 #@! TF.CreationDate,2017-03-29T20:30:54-07:00*
G04 #@! TF.ProjectId,GameshowV2,47616D6573686F7756322E6B69636164,rev?*
G04 #@! TF.FileFunction,Legend,Top*
G04 #@! TF.FilePolarity,Positive*
%FSLAX46Y46*%
G04 Gerber Fmt 4.6, Leading zero omitted, Abs format (unit mm)*
G04 Created by KiCad (PCBNEW (2016-12-18 revision 3ffa37c)-master) date Wednesday, March 29, 2017 'PMt' 08:30:54 PM*
%MOMM*%
%LPD*%
G01*
G04 APERTURE LIST*
%ADD10C,0.100000*%
%ADD11C,0.300000*%
%ADD12C,0.150000*%
G04 APERTURE END LIST*
D10*
D11*
X200019285Y-117378571D02*
X200019285Y-116378571D01*
X200019285Y-116664285D02*
X200090714Y-116521428D01*
X200162142Y-116450000D01*
X200305000Y-116378571D01*
X200447857Y-116378571D01*
X200947857Y-117378571D02*
X200947857Y-115878571D01*
X201519285Y-115878571D01*
X201662142Y-115950000D01*
X201733571Y-116021428D01*
X201805000Y-116164285D01*
X201805000Y-116378571D01*
X201733571Y-116521428D01*
X201662142Y-116592857D01*
X201519285Y-116664285D01*
X200947857Y-116664285D01*
X202447857Y-117378571D02*
X202447857Y-115878571D01*
X205090714Y-115950000D02*
X204947857Y-115878571D01*
X204733571Y-115878571D01*
X204519285Y-115950000D01*
X204376428Y-116092857D01*
X204305000Y-116235714D01*
X204233571Y-116521428D01*
X204233571Y-116735714D01*
X204305000Y-117021428D01*
X204376428Y-117164285D01*
X204519285Y-117307142D01*
X204733571Y-117378571D01*
X204876428Y-117378571D01*
X205090714Y-117307142D01*
X205162142Y-117235714D01*
X205162142Y-116735714D01*
X204876428Y-116735714D01*
X206447857Y-117378571D02*
X206447857Y-116592857D01*
X206376428Y-116450000D01*
X206233571Y-116378571D01*
X205947857Y-116378571D01*
X205805000Y-116450000D01*
X206447857Y-117307142D02*
X206305000Y-117378571D01*
X205947857Y-117378571D01*
X205805000Y-117307142D01*
X205733571Y-117164285D01*
X205733571Y-117021428D01*
X205805000Y-116878571D01*
X205947857Y-116807142D01*
X206305000Y-116807142D01*
X206447857Y-116735714D01*
X207162142Y-117378571D02*
X207162142Y-116378571D01*
X207162142Y-116521428D02*
X207233571Y-116450000D01*
X207376428Y-116378571D01*
X207590714Y-116378571D01*
X207733571Y-116450000D01*
X207805000Y-116592857D01*
X207805000Y-117378571D01*
X207805000Y-116592857D02*
X207876428Y-116450000D01*
X208019285Y-116378571D01*
X208233571Y-116378571D01*
X208376428Y-116450000D01*
X208447857Y-116592857D01*
X208447857Y-117378571D01*
X209733571Y-117307142D02*
X209590714Y-117378571D01*
X209305000Y-117378571D01*
X209162142Y-117307142D01*
X209090714Y-117164285D01*
X209090714Y-116592857D01*
X209162142Y-116450000D01*
X209305000Y-116378571D01*
X209590714Y-116378571D01*
X209733571Y-116450000D01*
X209805000Y-116592857D01*
X209805000Y-116735714D01*
X209090714Y-116878571D01*
X210376428Y-117307142D02*
X210519285Y-117378571D01*
X210805000Y-117378571D01*
X210947857Y-117307142D01*
X211019285Y-117164285D01*
X211019285Y-117092857D01*
X210947857Y-116950000D01*
X210805000Y-116878571D01*
X210590714Y-116878571D01*
X210447857Y-116807142D01*
X210376428Y-116664285D01*
X210376428Y-116592857D01*
X210447857Y-116450000D01*
X210590714Y-116378571D01*
X210805000Y-116378571D01*
X210947857Y-116450000D01*
X211662142Y-117378571D02*
X211662142Y-115878571D01*
X212305000Y-117378571D02*
X212305000Y-116592857D01*
X212233571Y-116450000D01*
X212090714Y-116378571D01*
X211876428Y-116378571D01*
X211733571Y-116450000D01*
X211662142Y-116521428D01*
X213233571Y-117378571D02*
X213090714Y-117307142D01*
X213019285Y-117235714D01*
X212947857Y-117092857D01*
X212947857Y-116664285D01*
X213019285Y-116521428D01*
X213090714Y-116450000D01*
X213233571Y-116378571D01*
X213447857Y-116378571D01*
X213590714Y-116450000D01*
X213662142Y-116521428D01*
X213733571Y-116664285D01*
X213733571Y-117092857D01*
X213662142Y-117235714D01*
X213590714Y-117307142D01*
X213447857Y-117378571D01*
X213233571Y-117378571D01*
X214233571Y-116378571D02*
X214519285Y-117378571D01*
X214805000Y-116664285D01*
X215090714Y-117378571D01*
X215376428Y-116378571D01*
X217019285Y-116950000D02*
X217733571Y-116950000D01*
X216876428Y-117378571D02*
X217376428Y-115878571D01*
X217876428Y-117378571D01*
X219019285Y-117378571D02*
X219019285Y-115878571D01*
X219019285Y-117307142D02*
X218876428Y-117378571D01*
X218590714Y-117378571D01*
X218447857Y-117307142D01*
X218376428Y-117235714D01*
X218305000Y-117092857D01*
X218305000Y-116664285D01*
X218376428Y-116521428D01*
X218447857Y-116450000D01*
X218590714Y-116378571D01*
X218876428Y-116378571D01*
X219019285Y-116450000D01*
X220376428Y-117378571D02*
X220376428Y-116592857D01*
X220305000Y-116450000D01*
X220162142Y-116378571D01*
X219876428Y-116378571D01*
X219733571Y-116450000D01*
X220376428Y-117307142D02*
X220233571Y-117378571D01*
X219876428Y-117378571D01*
X219733571Y-117307142D01*
X219662142Y-117164285D01*
X219662142Y-117021428D01*
X219733571Y-116878571D01*
X219876428Y-116807142D01*
X220233571Y-116807142D01*
X220376428Y-116735714D01*
X221090714Y-116378571D02*
X221090714Y-117878571D01*
X221090714Y-116450000D02*
X221233571Y-116378571D01*
X221519285Y-116378571D01*
X221662142Y-116450000D01*
X221733571Y-116521428D01*
X221805000Y-116664285D01*
X221805000Y-117092857D01*
X221733571Y-117235714D01*
X221662142Y-117307142D01*
X221519285Y-117378571D01*
X221233571Y-117378571D01*
X221090714Y-117307142D01*
X222233571Y-116378571D02*
X222805000Y-116378571D01*
X222447857Y-115878571D02*
X222447857Y-117164285D01*
X222519285Y-117307142D01*
X222662142Y-117378571D01*
X222805000Y-117378571D01*
X223876428Y-117307142D02*
X223733571Y-117378571D01*
X223447857Y-117378571D01*
X223305000Y-117307142D01*
X223233571Y-117164285D01*
X223233571Y-116592857D01*
X223305000Y-116450000D01*
X223447857Y-116378571D01*
X223733571Y-116378571D01*
X223876428Y-116450000D01*
X223947857Y-116592857D01*
X223947857Y-116735714D01*
X223233571Y-116878571D01*
X224590714Y-117378571D02*
X224590714Y-116378571D01*
X224590714Y-116664285D02*
X224662142Y-116521428D01*
X224733571Y-116450000D01*
X224876428Y-116378571D01*
X225019285Y-116378571D01*
X225519285Y-117235714D02*
X225590714Y-117307142D01*
X225519285Y-117378571D01*
X225447857Y-117307142D01*
X225519285Y-117235714D01*
X225519285Y-117378571D01*
X227376428Y-117378571D02*
X227376428Y-116378571D01*
X227376428Y-116664285D02*
X227447857Y-116521428D01*
X227519285Y-116450000D01*
X227662142Y-116378571D01*
X227805000Y-116378571D01*
X228876428Y-117307142D02*
X228733571Y-117378571D01*
X228447857Y-117378571D01*
X228305000Y-117307142D01*
X228233571Y-117164285D01*
X228233571Y-116592857D01*
X228305000Y-116450000D01*
X228447857Y-116378571D01*
X228733571Y-116378571D01*
X228876428Y-116450000D01*
X228947857Y-116592857D01*
X228947857Y-116735714D01*
X228233571Y-116878571D01*
X229447857Y-116378571D02*
X229805000Y-117378571D01*
X230162142Y-116378571D01*
X231519285Y-117378571D02*
X230662142Y-117378571D01*
X231090714Y-117378571D02*
X231090714Y-115878571D01*
X230947857Y-116092857D01*
X230805000Y-116235714D01*
X230662142Y-116307142D01*
X211662142Y-118571428D02*
X211733571Y-118500000D01*
X211876428Y-118428571D01*
X212233571Y-118428571D01*
X212376428Y-118500000D01*
X212447857Y-118571428D01*
X212519285Y-118714285D01*
X212519285Y-118857142D01*
X212447857Y-119071428D01*
X211590714Y-119928571D01*
X212519285Y-119928571D01*
X213447857Y-118428571D02*
X213590714Y-118428571D01*
X213733571Y-118500000D01*
X213805000Y-118571428D01*
X213876428Y-118714285D01*
X213947857Y-119000000D01*
X213947857Y-119357142D01*
X213876428Y-119642857D01*
X213805000Y-119785714D01*
X213733571Y-119857142D01*
X213590714Y-119928571D01*
X213447857Y-119928571D01*
X213305000Y-119857142D01*
X213233571Y-119785714D01*
X213162142Y-119642857D01*
X213090714Y-119357142D01*
X213090714Y-119000000D01*
X213162142Y-118714285D01*
X213233571Y-118571428D01*
X213305000Y-118500000D01*
X213447857Y-118428571D01*
X215376428Y-119928571D02*
X214519285Y-119928571D01*
X214947857Y-119928571D02*
X214947857Y-118428571D01*
X214805000Y-118642857D01*
X214662142Y-118785714D01*
X214519285Y-118857142D01*
X215876428Y-118428571D02*
X216876428Y-118428571D01*
X216233571Y-119928571D01*
X219019285Y-118428571D02*
X219019285Y-119500000D01*
X218947857Y-119714285D01*
X218805000Y-119857142D01*
X218590714Y-119928571D01*
X218447857Y-119928571D01*
X219947857Y-119928571D02*
X219805000Y-119857142D01*
X219733571Y-119785714D01*
X219662142Y-119642857D01*
X219662142Y-119214285D01*
X219733571Y-119071428D01*
X219805000Y-119000000D01*
X219947857Y-118928571D01*
X220162142Y-118928571D01*
X220305000Y-119000000D01*
X220376428Y-119071428D01*
X220447857Y-119214285D01*
X220447857Y-119642857D01*
X220376428Y-119785714D01*
X220305000Y-119857142D01*
X220162142Y-119928571D01*
X219947857Y-119928571D01*
X221090714Y-119928571D02*
X221090714Y-118428571D01*
X221733571Y-119928571D02*
X221733571Y-119142857D01*
X221662142Y-119000000D01*
X221519285Y-118928571D01*
X221305000Y-118928571D01*
X221162142Y-119000000D01*
X221090714Y-119071428D01*
X222447857Y-118928571D02*
X222447857Y-119928571D01*
X222447857Y-119071428D02*
X222519285Y-119000000D01*
X222662142Y-118928571D01*
X222876428Y-118928571D01*
X223019285Y-119000000D01*
X223090714Y-119142857D01*
X223090714Y-119928571D01*
X224876428Y-119500000D02*
X225590714Y-119500000D01*
X224733571Y-119928571D02*
X225233571Y-118428571D01*
X225733571Y-119928571D01*
X226876428Y-119928571D02*
X226876428Y-118428571D01*
X226876428Y-119857142D02*
X226733571Y-119928571D01*
X226447857Y-119928571D01*
X226305000Y-119857142D01*
X226233571Y-119785714D01*
X226162142Y-119642857D01*
X226162142Y-119214285D01*
X226233571Y-119071428D01*
X226305000Y-119000000D01*
X226447857Y-118928571D01*
X226733571Y-118928571D01*
X226876428Y-119000000D01*
X228233571Y-119928571D02*
X228233571Y-119142857D01*
X228162142Y-119000000D01*
X228019285Y-118928571D01*
X227733571Y-118928571D01*
X227590714Y-119000000D01*
X228233571Y-119857142D02*
X228090714Y-119928571D01*
X227733571Y-119928571D01*
X227590714Y-119857142D01*
X227519285Y-119714285D01*
X227519285Y-119571428D01*
X227590714Y-119428571D01*
X227733571Y-119357142D01*
X228090714Y-119357142D01*
X228233571Y-119285714D01*
X228947857Y-119928571D02*
X228947857Y-118928571D01*
X228947857Y-119071428D02*
X229019285Y-119000000D01*
X229162142Y-118928571D01*
X229376428Y-118928571D01*
X229519285Y-119000000D01*
X229590714Y-119142857D01*
X229590714Y-119928571D01*
X229590714Y-119142857D02*
X229662142Y-119000000D01*
X229805000Y-118928571D01*
X230019285Y-118928571D01*
X230162142Y-119000000D01*
X230233571Y-119142857D01*
X230233571Y-119928571D01*
X230876428Y-119857142D02*
X231019285Y-119928571D01*
X231305000Y-119928571D01*
X231447857Y-119857142D01*
X231519285Y-119714285D01*
X231519285Y-119642857D01*
X231447857Y-119500000D01*
X231305000Y-119428571D01*
X231090714Y-119428571D01*
X230947857Y-119357142D01*
X230876428Y-119214285D01*
X230876428Y-119142857D01*
X230947857Y-119000000D01*
X231090714Y-118928571D01*
X231305000Y-118928571D01*
X231447857Y-119000000D01*
X225733571Y-121764285D02*
X225662142Y-121692857D01*
X225519285Y-121621428D01*
X225376428Y-121621428D01*
X225233571Y-121692857D01*
X225162142Y-121764285D01*
X225090714Y-121907142D01*
X225090714Y-122050000D01*
X225162142Y-122192857D01*
X225233571Y-122264285D01*
X225376428Y-122335714D01*
X225519285Y-122335714D01*
X225662142Y-122264285D01*
X225733571Y-122192857D01*
X225733571Y-121621428D02*
X225733571Y-122192857D01*
X225805000Y-122264285D01*
X225876428Y-122264285D01*
X226019285Y-122192857D01*
X226090714Y-122050000D01*
X226090714Y-121692857D01*
X225947857Y-121478571D01*
X225733571Y-121335714D01*
X225447857Y-121264285D01*
X225162142Y-121335714D01*
X224947857Y-121478571D01*
X224805000Y-121692857D01*
X224733571Y-121978571D01*
X224805000Y-122264285D01*
X224947857Y-122478571D01*
X225162142Y-122621428D01*
X225447857Y-122692857D01*
X225733571Y-122621428D01*
X225947857Y-122478571D01*
X226733571Y-121478571D02*
X226733571Y-122478571D01*
X226733571Y-121621428D02*
X226805000Y-121550000D01*
X226947857Y-121478571D01*
X227162142Y-121478571D01*
X227305000Y-121550000D01*
X227376428Y-121692857D01*
X227376428Y-122478571D01*
X228662142Y-122407142D02*
X228519285Y-122478571D01*
X228233571Y-122478571D01*
X228090714Y-122407142D01*
X228019285Y-122264285D01*
X228019285Y-121692857D01*
X228090714Y-121550000D01*
X228233571Y-121478571D01*
X228519285Y-121478571D01*
X228662142Y-121550000D01*
X228733571Y-121692857D01*
X228733571Y-121835714D01*
X228019285Y-121978571D01*
X229162142Y-121478571D02*
X229733571Y-121478571D01*
X229376428Y-120978571D02*
X229376428Y-122264285D01*
X229447857Y-122407142D01*
X229590714Y-122478571D01*
X229733571Y-122478571D01*
X230233571Y-122478571D02*
X230233571Y-121478571D01*
X230233571Y-120978571D02*
X230162142Y-121050000D01*
X230233571Y-121121428D01*
X230305000Y-121050000D01*
X230233571Y-120978571D01*
X230233571Y-121121428D01*
X230947857Y-122478571D02*
X230947857Y-120978571D01*
X231090714Y-121907142D02*
X231519285Y-122478571D01*
X231519285Y-121478571D02*
X230947857Y-122050000D01*
X225000000Y-60678571D02*
X225000000Y-59178571D01*
X225571428Y-59178571D01*
X225714285Y-59250000D01*
X225785714Y-59321428D01*
X225857142Y-59464285D01*
X225857142Y-59678571D01*
X225785714Y-59821428D01*
X225714285Y-59892857D01*
X225571428Y-59964285D01*
X225000000Y-59964285D01*
X227214285Y-60678571D02*
X226500000Y-60678571D01*
X226500000Y-59178571D01*
X227642857Y-60250000D02*
X228357142Y-60250000D01*
X227500000Y-60678571D02*
X228000000Y-59178571D01*
X228500000Y-60678571D01*
X229285714Y-59964285D02*
X229285714Y-60678571D01*
X228785714Y-59178571D02*
X229285714Y-59964285D01*
X229785714Y-59178571D01*
X230285714Y-59892857D02*
X230785714Y-59892857D01*
X231000000Y-60678571D02*
X230285714Y-60678571D01*
X230285714Y-59178571D01*
X231000000Y-59178571D01*
X232500000Y-60678571D02*
X232000000Y-59964285D01*
X231642857Y-60678571D02*
X231642857Y-59178571D01*
X232214285Y-59178571D01*
X232357142Y-59250000D01*
X232428571Y-59321428D01*
X232500000Y-59464285D01*
X232500000Y-59678571D01*
X232428571Y-59821428D01*
X232357142Y-59892857D01*
X232214285Y-59964285D01*
X231642857Y-59964285D01*
X235071428Y-60678571D02*
X234214285Y-60678571D01*
X234642857Y-60678571D02*
X234642857Y-59178571D01*
X234500000Y-59392857D01*
X234357142Y-59535714D01*
X234214285Y-59607142D01*
X225000000Y-90678571D02*
X225000000Y-89178571D01*
X225571428Y-89178571D01*
X225714285Y-89250000D01*
X225785714Y-89321428D01*
X225857142Y-89464285D01*
X225857142Y-89678571D01*
X225785714Y-89821428D01*
X225714285Y-89892857D01*
X225571428Y-89964285D01*
X225000000Y-89964285D01*
X227214285Y-90678571D02*
X226500000Y-90678571D01*
X226500000Y-89178571D01*
X227642857Y-90250000D02*
X228357142Y-90250000D01*
X227500000Y-90678571D02*
X228000000Y-89178571D01*
X228500000Y-90678571D01*
X229285714Y-89964285D02*
X229285714Y-90678571D01*
X228785714Y-89178571D02*
X229285714Y-89964285D01*
X229785714Y-89178571D01*
X230285714Y-89892857D02*
X230785714Y-89892857D01*
X231000000Y-90678571D02*
X230285714Y-90678571D01*
X230285714Y-89178571D01*
X231000000Y-89178571D01*
X232500000Y-90678571D02*
X232000000Y-89964285D01*
X231642857Y-90678571D02*
X231642857Y-89178571D01*
X232214285Y-89178571D01*
X232357142Y-89250000D01*
X232428571Y-89321428D01*
X232500000Y-89464285D01*
X232500000Y-89678571D01*
X232428571Y-89821428D01*
X232357142Y-89892857D01*
X232214285Y-89964285D01*
X231642857Y-89964285D01*
X234928571Y-89678571D02*
X234928571Y-90678571D01*
X234571428Y-89107142D02*
X234214285Y-90178571D01*
X235142857Y-90178571D01*
X225000000Y-80678571D02*
X225000000Y-79178571D01*
X225571428Y-79178571D01*
X225714285Y-79250000D01*
X225785714Y-79321428D01*
X225857142Y-79464285D01*
X225857142Y-79678571D01*
X225785714Y-79821428D01*
X225714285Y-79892857D01*
X225571428Y-79964285D01*
X225000000Y-79964285D01*
X227214285Y-80678571D02*
X226500000Y-80678571D01*
X226500000Y-79178571D01*
X227642857Y-80250000D02*
X228357142Y-80250000D01*
X227500000Y-80678571D02*
X228000000Y-79178571D01*
X228500000Y-80678571D01*
X229285714Y-79964285D02*
X229285714Y-80678571D01*
X228785714Y-79178571D02*
X229285714Y-79964285D01*
X229785714Y-79178571D01*
X230285714Y-79892857D02*
X230785714Y-79892857D01*
X231000000Y-80678571D02*
X230285714Y-80678571D01*
X230285714Y-79178571D01*
X231000000Y-79178571D01*
X232500000Y-80678571D02*
X232000000Y-79964285D01*
X231642857Y-80678571D02*
X231642857Y-79178571D01*
X232214285Y-79178571D01*
X232357142Y-79250000D01*
X232428571Y-79321428D01*
X232500000Y-79464285D01*
X232500000Y-79678571D01*
X232428571Y-79821428D01*
X232357142Y-79892857D01*
X232214285Y-79964285D01*
X231642857Y-79964285D01*
X234142857Y-79178571D02*
X235071428Y-79178571D01*
X234571428Y-79750000D01*
X234785714Y-79750000D01*
X234928571Y-79821428D01*
X235000000Y-79892857D01*
X235071428Y-80035714D01*
X235071428Y-80392857D01*
X235000000Y-80535714D01*
X234928571Y-80607142D01*
X234785714Y-80678571D01*
X234357142Y-80678571D01*
X234214285Y-80607142D01*
X234142857Y-80535714D01*
X225000000Y-70678571D02*
X225000000Y-69178571D01*
X225571428Y-69178571D01*
X225714285Y-69250000D01*
X225785714Y-69321428D01*
X225857142Y-69464285D01*
X225857142Y-69678571D01*
X225785714Y-69821428D01*
X225714285Y-69892857D01*
X225571428Y-69964285D01*
X225000000Y-69964285D01*
X227214285Y-70678571D02*
X226500000Y-70678571D01*
X226500000Y-69178571D01*
X227642857Y-70250000D02*
X228357142Y-70250000D01*
X227500000Y-70678571D02*
X228000000Y-69178571D01*
X228500000Y-70678571D01*
X229285714Y-69964285D02*
X229285714Y-70678571D01*
X228785714Y-69178571D02*
X229285714Y-69964285D01*
X229785714Y-69178571D01*
X230285714Y-69892857D02*
X230785714Y-69892857D01*
X231000000Y-70678571D02*
X230285714Y-70678571D01*
X230285714Y-69178571D01*
X231000000Y-69178571D01*
X232500000Y-70678571D02*
X232000000Y-69964285D01*
X231642857Y-70678571D02*
X231642857Y-69178571D01*
X232214285Y-69178571D01*
X232357142Y-69250000D01*
X232428571Y-69321428D01*
X232500000Y-69464285D01*
X232500000Y-69678571D01*
X232428571Y-69821428D01*
X232357142Y-69892857D01*
X232214285Y-69964285D01*
X231642857Y-69964285D01*
X234214285Y-69321428D02*
X234285714Y-69250000D01*
X234428571Y-69178571D01*
X234785714Y-69178571D01*
X234928571Y-69250000D01*
X235000000Y-69321428D01*
X235071428Y-69464285D01*
X235071428Y-69607142D01*
X235000000Y-69821428D01*
X234142857Y-70678571D01*
X235071428Y-70678571D01*
D12*
X170100000Y-45500000D02*
X189900000Y-45500000D01*
X170100000Y-26000000D02*
X189900000Y-26000000D01*
X189900000Y-23300000D02*
X189900000Y-45500000D01*
X170100000Y-23300000D02*
X170100000Y-45500000D01*
X170100000Y-23300000D02*
X189900000Y-23300000D01*
X189900000Y-23300000D02*
X189900000Y-26000000D01*
X170100000Y-23300000D02*
X170100000Y-26000000D01*
X200100000Y-45500000D02*
X219900000Y-45500000D01*
X200100000Y-26000000D02*
X219900000Y-26000000D01*
X219900000Y-23300000D02*
X219900000Y-45500000D01*
X200100000Y-23300000D02*
X200100000Y-45500000D01*
X200100000Y-23300000D02*
X219900000Y-23300000D01*
X219900000Y-23300000D02*
X219900000Y-26000000D01*
X200100000Y-23300000D02*
X200100000Y-26000000D01*
X140100000Y-45500000D02*
X159900000Y-45500000D01*
X140100000Y-26000000D02*
X159900000Y-26000000D01*
X159900000Y-23300000D02*
X159900000Y-45500000D01*
X140100000Y-23300000D02*
X140100000Y-45500000D01*
X140100000Y-23300000D02*
X159900000Y-23300000D01*
X159900000Y-23300000D02*
X159900000Y-26000000D01*
X140100000Y-23300000D02*
X140100000Y-26000000D01*
X110100000Y-45500000D02*
X129900000Y-45500000D01*
X110100000Y-26000000D02*
X129900000Y-26000000D01*
X129900000Y-23300000D02*
X129900000Y-45500000D01*
X110100000Y-23300000D02*
X110100000Y-45500000D01*
X110100000Y-23300000D02*
X129900000Y-23300000D01*
X129900000Y-23300000D02*
X129900000Y-26000000D01*
X110100000Y-23300000D02*
X110100000Y-26000000D01*
X213400000Y-95750000D02*
X216100000Y-95750000D01*
X213400000Y-94250000D02*
X216100000Y-94250000D01*
X214900000Y-95150000D02*
X214900000Y-94900000D01*
X214900000Y-94900000D02*
X214750000Y-95050000D01*
X214650000Y-94650000D02*
X214650000Y-95350000D01*
X215000000Y-95000000D02*
X215350000Y-95000000D01*
X214650000Y-95000000D02*
X215000000Y-94650000D01*
X215000000Y-94650000D02*
X215000000Y-95350000D01*
X215000000Y-95350000D02*
X214650000Y-95000000D01*
X215000000Y-85350000D02*
X214650000Y-85000000D01*
X215000000Y-84650000D02*
X215000000Y-85350000D01*
X214650000Y-85000000D02*
X215000000Y-84650000D01*
X215000000Y-85000000D02*
X215350000Y-85000000D01*
X214650000Y-84650000D02*
X214650000Y-85350000D01*
X214900000Y-84900000D02*
X214750000Y-85050000D01*
X214900000Y-85150000D02*
X214900000Y-84900000D01*
X213400000Y-84250000D02*
X216100000Y-84250000D01*
X213400000Y-85750000D02*
X216100000Y-85750000D01*
X213900000Y-75750000D02*
X216600000Y-75750000D01*
X213900000Y-74250000D02*
X216600000Y-74250000D01*
X215400000Y-75150000D02*
X215400000Y-74900000D01*
X215400000Y-74900000D02*
X215250000Y-75050000D01*
X215150000Y-74650000D02*
X215150000Y-75350000D01*
X215500000Y-75000000D02*
X215850000Y-75000000D01*
X215150000Y-75000000D02*
X215500000Y-74650000D01*
X215500000Y-74650000D02*
X215500000Y-75350000D01*
X215500000Y-75350000D02*
X215150000Y-75000000D01*
X215549000Y-65350000D02*
X215199000Y-65000000D01*
X215549000Y-64650000D02*
X215549000Y-65350000D01*
X215199000Y-65000000D02*
X215549000Y-64650000D01*
X215549000Y-65000000D02*
X215899000Y-65000000D01*
X215199000Y-64650000D02*
X215199000Y-65350000D01*
X215449000Y-64900000D02*
X215299000Y-65050000D01*
X215449000Y-65150000D02*
X215449000Y-64900000D01*
X213949000Y-64250000D02*
X216649000Y-64250000D01*
X213949000Y-65750000D02*
X216649000Y-65750000D01*
X218900000Y-95750000D02*
X221600000Y-95750000D01*
X218900000Y-94250000D02*
X221600000Y-94250000D01*
X220400000Y-95150000D02*
X220400000Y-94900000D01*
X220400000Y-94900000D02*
X220250000Y-95050000D01*
X220150000Y-94650000D02*
X220150000Y-95350000D01*
X220500000Y-95000000D02*
X220850000Y-95000000D01*
X220150000Y-95000000D02*
X220500000Y-94650000D01*
X220500000Y-94650000D02*
X220500000Y-95350000D01*
X220500000Y-95350000D02*
X220150000Y-95000000D01*
X220500000Y-85350000D02*
X220150000Y-85000000D01*
X220500000Y-84650000D02*
X220500000Y-85350000D01*
X220150000Y-85000000D02*
X220500000Y-84650000D01*
X220500000Y-85000000D02*
X220850000Y-85000000D01*
X220150000Y-84650000D02*
X220150000Y-85350000D01*
X220400000Y-84900000D02*
X220250000Y-85050000D01*
X220400000Y-85150000D02*
X220400000Y-84900000D01*
X218900000Y-84250000D02*
X221600000Y-84250000D01*
X218900000Y-85750000D02*
X221600000Y-85750000D01*
X219400000Y-75750000D02*
X222100000Y-75750000D01*
X219400000Y-74250000D02*
X222100000Y-74250000D01*
X220900000Y-75150000D02*
X220900000Y-74900000D01*
X220900000Y-74900000D02*
X220750000Y-75050000D01*
X220650000Y-74650000D02*
X220650000Y-75350000D01*
X221000000Y-75000000D02*
X221350000Y-75000000D01*
X220650000Y-75000000D02*
X221000000Y-74650000D01*
X221000000Y-74650000D02*
X221000000Y-75350000D01*
X221000000Y-75350000D02*
X220650000Y-75000000D01*
X221049000Y-65350000D02*
X220699000Y-65000000D01*
X221049000Y-64650000D02*
X221049000Y-65350000D01*
X220699000Y-65000000D02*
X221049000Y-64650000D01*
X221049000Y-65000000D02*
X221399000Y-65000000D01*
X220699000Y-64650000D02*
X220699000Y-65350000D01*
X220949000Y-64900000D02*
X220799000Y-65050000D01*
X220949000Y-65150000D02*
X220949000Y-64900000D01*
X219449000Y-64250000D02*
X222149000Y-64250000D01*
X219449000Y-65750000D02*
X222149000Y-65750000D01*
X114450000Y-66550000D02*
X116000000Y-66550000D01*
X117270000Y-63730000D02*
X117270000Y-66270000D01*
X114730000Y-63730000D02*
X117270000Y-63730000D01*
X114450000Y-65000000D02*
X114450000Y-66550000D01*
X114730000Y-61190000D02*
X114730000Y-63730000D01*
X165530000Y-61190000D02*
X165530000Y-66270000D01*
X117270000Y-66270000D02*
X165530000Y-66270000D01*
X165530000Y-61190000D02*
X114730000Y-61190000D01*
X210100000Y-95875000D02*
X208900000Y-95875000D01*
X208900000Y-94125000D02*
X210100000Y-94125000D01*
X208900000Y-84125000D02*
X210100000Y-84125000D01*
X210100000Y-85875000D02*
X208900000Y-85875000D01*
X210100000Y-75875000D02*
X208900000Y-75875000D01*
X208900000Y-74125000D02*
X210100000Y-74125000D01*
X208900000Y-64125000D02*
X210100000Y-64125000D01*
X210100000Y-65875000D02*
X208900000Y-65875000D01*
X227100000Y-85875000D02*
X225900000Y-85875000D01*
X225900000Y-84125000D02*
X227100000Y-84125000D01*
X226250000Y-74125000D02*
X227450000Y-74125000D01*
X227450000Y-75875000D02*
X226250000Y-75875000D01*
X228100000Y-65875000D02*
X226900000Y-65875000D01*
X226900000Y-64125000D02*
X228100000Y-64125000D01*
X225900000Y-94125000D02*
X227100000Y-94125000D01*
X227100000Y-95875000D02*
X225900000Y-95875000D01*
X179261904Y-33912380D02*
X179261904Y-32912380D01*
X179833333Y-33912380D02*
X179404761Y-33340952D01*
X179833333Y-32912380D02*
X179261904Y-33483809D01*
X180166666Y-32912380D02*
X180785714Y-32912380D01*
X180452380Y-33293333D01*
X180595238Y-33293333D01*
X180690476Y-33340952D01*
X180738095Y-33388571D01*
X180785714Y-33483809D01*
X180785714Y-33721904D01*
X180738095Y-33817142D01*
X180690476Y-33864761D01*
X180595238Y-33912380D01*
X180309523Y-33912380D01*
X180214285Y-33864761D01*
X180166666Y-33817142D01*
X209261904Y-33912380D02*
X209261904Y-32912380D01*
X209833333Y-33912380D02*
X209404761Y-33340952D01*
X209833333Y-32912380D02*
X209261904Y-33483809D01*
X210690476Y-33245714D02*
X210690476Y-33912380D01*
X210452380Y-32864761D02*
X210214285Y-33579047D01*
X210833333Y-33579047D01*
X149261904Y-33912380D02*
X149261904Y-32912380D01*
X149833333Y-33912380D02*
X149404761Y-33340952D01*
X149833333Y-32912380D02*
X149261904Y-33483809D01*
X150214285Y-33007619D02*
X150261904Y-32960000D01*
X150357142Y-32912380D01*
X150595238Y-32912380D01*
X150690476Y-32960000D01*
X150738095Y-33007619D01*
X150785714Y-33102857D01*
X150785714Y-33198095D01*
X150738095Y-33340952D01*
X150166666Y-33912380D01*
X150785714Y-33912380D01*
X119261904Y-33912380D02*
X119261904Y-32912380D01*
X119833333Y-33912380D02*
X119404761Y-33340952D01*
X119833333Y-32912380D02*
X119261904Y-33483809D01*
X120785714Y-33912380D02*
X120214285Y-33912380D01*
X120500000Y-33912380D02*
X120500000Y-32912380D01*
X120404761Y-33055238D01*
X120309523Y-33150476D01*
X120214285Y-33198095D01*
X228738095Y-108452380D02*
X229309523Y-108452380D01*
X229023809Y-109452380D02*
X229023809Y-108452380D01*
X229642857Y-109452380D02*
X229642857Y-108452380D01*
X230023809Y-108452380D01*
X230119047Y-108500000D01*
X230166666Y-108547619D01*
X230214285Y-108642857D01*
X230214285Y-108785714D01*
X230166666Y-108880952D01*
X230119047Y-108928571D01*
X230023809Y-108976190D01*
X229642857Y-108976190D01*
X230785714Y-108880952D02*
X230690476Y-108833333D01*
X230642857Y-108785714D01*
X230595238Y-108690476D01*
X230595238Y-108642857D01*
X230642857Y-108547619D01*
X230690476Y-108500000D01*
X230785714Y-108452380D01*
X230976190Y-108452380D01*
X231071428Y-108500000D01*
X231119047Y-108547619D01*
X231166666Y-108642857D01*
X231166666Y-108690476D01*
X231119047Y-108785714D01*
X231071428Y-108833333D01*
X230976190Y-108880952D01*
X230785714Y-108880952D01*
X230690476Y-108928571D01*
X230642857Y-108976190D01*
X230595238Y-109071428D01*
X230595238Y-109261904D01*
X230642857Y-109357142D01*
X230690476Y-109404761D01*
X230785714Y-109452380D01*
X230976190Y-109452380D01*
X231071428Y-109404761D01*
X231119047Y-109357142D01*
X231166666Y-109261904D01*
X231166666Y-109071428D01*
X231119047Y-108976190D01*
X231071428Y-108928571D01*
X230976190Y-108880952D01*
X221238095Y-108452380D02*
X221809523Y-108452380D01*
X221523809Y-109452380D02*
X221523809Y-108452380D01*
X222142857Y-109452380D02*
X222142857Y-108452380D01*
X222523809Y-108452380D01*
X222619047Y-108500000D01*
X222666666Y-108547619D01*
X222714285Y-108642857D01*
X222714285Y-108785714D01*
X222666666Y-108880952D01*
X222619047Y-108928571D01*
X222523809Y-108976190D01*
X222142857Y-108976190D01*
X223047619Y-108452380D02*
X223714285Y-108452380D01*
X223285714Y-109452380D01*
X214297095Y-108328380D02*
X214868523Y-108328380D01*
X214582809Y-109328380D02*
X214582809Y-108328380D01*
X215201857Y-109328380D02*
X215201857Y-108328380D01*
X215582809Y-108328380D01*
X215678047Y-108376000D01*
X215725666Y-108423619D01*
X215773285Y-108518857D01*
X215773285Y-108661714D01*
X215725666Y-108756952D01*
X215678047Y-108804571D01*
X215582809Y-108852190D01*
X215201857Y-108852190D01*
X216630428Y-108328380D02*
X216439952Y-108328380D01*
X216344714Y-108376000D01*
X216297095Y-108423619D01*
X216201857Y-108566476D01*
X216154238Y-108756952D01*
X216154238Y-109137904D01*
X216201857Y-109233142D01*
X216249476Y-109280761D01*
X216344714Y-109328380D01*
X216535190Y-109328380D01*
X216630428Y-109280761D01*
X216678047Y-109233142D01*
X216725666Y-109137904D01*
X216725666Y-108899809D01*
X216678047Y-108804571D01*
X216630428Y-108756952D01*
X216535190Y-108709333D01*
X216344714Y-108709333D01*
X216249476Y-108756952D01*
X216201857Y-108804571D01*
X216154238Y-108899809D01*
X207738095Y-108452380D02*
X208309523Y-108452380D01*
X208023809Y-109452380D02*
X208023809Y-108452380D01*
X208642857Y-109452380D02*
X208642857Y-108452380D01*
X209023809Y-108452380D01*
X209119047Y-108500000D01*
X209166666Y-108547619D01*
X209214285Y-108642857D01*
X209214285Y-108785714D01*
X209166666Y-108880952D01*
X209119047Y-108928571D01*
X209023809Y-108976190D01*
X208642857Y-108976190D01*
X210119047Y-108452380D02*
X209642857Y-108452380D01*
X209595238Y-108928571D01*
X209642857Y-108880952D01*
X209738095Y-108833333D01*
X209976190Y-108833333D01*
X210071428Y-108880952D01*
X210119047Y-108928571D01*
X210166666Y-109023809D01*
X210166666Y-109261904D01*
X210119047Y-109357142D01*
X210071428Y-109404761D01*
X209976190Y-109452380D01*
X209738095Y-109452380D01*
X209642857Y-109404761D01*
X209595238Y-109357142D01*
X228488095Y-101952380D02*
X229059523Y-101952380D01*
X228773809Y-102952380D02*
X228773809Y-101952380D01*
X229392857Y-102952380D02*
X229392857Y-101952380D01*
X229773809Y-101952380D01*
X229869047Y-102000000D01*
X229916666Y-102047619D01*
X229964285Y-102142857D01*
X229964285Y-102285714D01*
X229916666Y-102380952D01*
X229869047Y-102428571D01*
X229773809Y-102476190D01*
X229392857Y-102476190D01*
X230821428Y-102285714D02*
X230821428Y-102952380D01*
X230583333Y-101904761D02*
X230345238Y-102619047D01*
X230964285Y-102619047D01*
X221238095Y-101952380D02*
X221809523Y-101952380D01*
X221523809Y-102952380D02*
X221523809Y-101952380D01*
X222142857Y-102952380D02*
X222142857Y-101952380D01*
X222523809Y-101952380D01*
X222619047Y-102000000D01*
X222666666Y-102047619D01*
X222714285Y-102142857D01*
X222714285Y-102285714D01*
X222666666Y-102380952D01*
X222619047Y-102428571D01*
X222523809Y-102476190D01*
X222142857Y-102476190D01*
X223047619Y-101952380D02*
X223666666Y-101952380D01*
X223333333Y-102333333D01*
X223476190Y-102333333D01*
X223571428Y-102380952D01*
X223619047Y-102428571D01*
X223666666Y-102523809D01*
X223666666Y-102761904D01*
X223619047Y-102857142D01*
X223571428Y-102904761D01*
X223476190Y-102952380D01*
X223190476Y-102952380D01*
X223095238Y-102904761D01*
X223047619Y-102857142D01*
X214238095Y-101952380D02*
X214809523Y-101952380D01*
X214523809Y-102952380D02*
X214523809Y-101952380D01*
X215142857Y-102952380D02*
X215142857Y-101952380D01*
X215523809Y-101952380D01*
X215619047Y-102000000D01*
X215666666Y-102047619D01*
X215714285Y-102142857D01*
X215714285Y-102285714D01*
X215666666Y-102380952D01*
X215619047Y-102428571D01*
X215523809Y-102476190D01*
X215142857Y-102476190D01*
X216095238Y-102047619D02*
X216142857Y-102000000D01*
X216238095Y-101952380D01*
X216476190Y-101952380D01*
X216571428Y-102000000D01*
X216619047Y-102047619D01*
X216666666Y-102142857D01*
X216666666Y-102238095D01*
X216619047Y-102380952D01*
X216047619Y-102952380D01*
X216666666Y-102952380D01*
X207738095Y-101952380D02*
X208309523Y-101952380D01*
X208023809Y-102952380D02*
X208023809Y-101952380D01*
X208642857Y-102952380D02*
X208642857Y-101952380D01*
X209023809Y-101952380D01*
X209119047Y-102000000D01*
X209166666Y-102047619D01*
X209214285Y-102142857D01*
X209214285Y-102285714D01*
X209166666Y-102380952D01*
X209119047Y-102428571D01*
X209023809Y-102476190D01*
X208642857Y-102476190D01*
X210166666Y-102952380D02*
X209595238Y-102952380D01*
X209880952Y-102952380D02*
X209880952Y-101952380D01*
X209785714Y-102095238D01*
X209690476Y-102190476D01*
X209595238Y-102238095D01*
X214261904Y-93702380D02*
X214261904Y-92702380D01*
X214500000Y-92702380D01*
X214642857Y-92750000D01*
X214738095Y-92845238D01*
X214785714Y-92940476D01*
X214833333Y-93130952D01*
X214833333Y-93273809D01*
X214785714Y-93464285D01*
X214738095Y-93559523D01*
X214642857Y-93654761D01*
X214500000Y-93702380D01*
X214261904Y-93702380D01*
X215404761Y-93130952D02*
X215309523Y-93083333D01*
X215261904Y-93035714D01*
X215214285Y-92940476D01*
X215214285Y-92892857D01*
X215261904Y-92797619D01*
X215309523Y-92750000D01*
X215404761Y-92702380D01*
X215595238Y-92702380D01*
X215690476Y-92750000D01*
X215738095Y-92797619D01*
X215785714Y-92892857D01*
X215785714Y-92940476D01*
X215738095Y-93035714D01*
X215690476Y-93083333D01*
X215595238Y-93130952D01*
X215404761Y-93130952D01*
X215309523Y-93178571D01*
X215261904Y-93226190D01*
X215214285Y-93321428D01*
X215214285Y-93511904D01*
X215261904Y-93607142D01*
X215309523Y-93654761D01*
X215404761Y-93702380D01*
X215595238Y-93702380D01*
X215690476Y-93654761D01*
X215738095Y-93607142D01*
X215785714Y-93511904D01*
X215785714Y-93321428D01*
X215738095Y-93226190D01*
X215690476Y-93178571D01*
X215595238Y-93130952D01*
X214261904Y-83702380D02*
X214261904Y-82702380D01*
X214500000Y-82702380D01*
X214642857Y-82750000D01*
X214738095Y-82845238D01*
X214785714Y-82940476D01*
X214833333Y-83130952D01*
X214833333Y-83273809D01*
X214785714Y-83464285D01*
X214738095Y-83559523D01*
X214642857Y-83654761D01*
X214500000Y-83702380D01*
X214261904Y-83702380D01*
X215166666Y-82702380D02*
X215833333Y-82702380D01*
X215404761Y-83702380D01*
X214761904Y-73702380D02*
X214761904Y-72702380D01*
X215000000Y-72702380D01*
X215142857Y-72750000D01*
X215238095Y-72845238D01*
X215285714Y-72940476D01*
X215333333Y-73130952D01*
X215333333Y-73273809D01*
X215285714Y-73464285D01*
X215238095Y-73559523D01*
X215142857Y-73654761D01*
X215000000Y-73702380D01*
X214761904Y-73702380D01*
X216190476Y-72702380D02*
X216000000Y-72702380D01*
X215904761Y-72750000D01*
X215857142Y-72797619D01*
X215761904Y-72940476D01*
X215714285Y-73130952D01*
X215714285Y-73511904D01*
X215761904Y-73607142D01*
X215809523Y-73654761D01*
X215904761Y-73702380D01*
X216095238Y-73702380D01*
X216190476Y-73654761D01*
X216238095Y-73607142D01*
X216285714Y-73511904D01*
X216285714Y-73273809D01*
X216238095Y-73178571D01*
X216190476Y-73130952D01*
X216095238Y-73083333D01*
X215904761Y-73083333D01*
X215809523Y-73130952D01*
X215761904Y-73178571D01*
X215714285Y-73273809D01*
X214810904Y-63702380D02*
X214810904Y-62702380D01*
X215049000Y-62702380D01*
X215191857Y-62750000D01*
X215287095Y-62845238D01*
X215334714Y-62940476D01*
X215382333Y-63130952D01*
X215382333Y-63273809D01*
X215334714Y-63464285D01*
X215287095Y-63559523D01*
X215191857Y-63654761D01*
X215049000Y-63702380D01*
X214810904Y-63702380D01*
X216287095Y-62702380D02*
X215810904Y-62702380D01*
X215763285Y-63178571D01*
X215810904Y-63130952D01*
X215906142Y-63083333D01*
X216144238Y-63083333D01*
X216239476Y-63130952D01*
X216287095Y-63178571D01*
X216334714Y-63273809D01*
X216334714Y-63511904D01*
X216287095Y-63607142D01*
X216239476Y-63654761D01*
X216144238Y-63702380D01*
X215906142Y-63702380D01*
X215810904Y-63654761D01*
X215763285Y-63607142D01*
X219761904Y-93702380D02*
X219761904Y-92702380D01*
X220000000Y-92702380D01*
X220142857Y-92750000D01*
X220238095Y-92845238D01*
X220285714Y-92940476D01*
X220333333Y-93130952D01*
X220333333Y-93273809D01*
X220285714Y-93464285D01*
X220238095Y-93559523D01*
X220142857Y-93654761D01*
X220000000Y-93702380D01*
X219761904Y-93702380D01*
X221190476Y-93035714D02*
X221190476Y-93702380D01*
X220952380Y-92654761D02*
X220714285Y-93369047D01*
X221333333Y-93369047D01*
X219761904Y-83702380D02*
X219761904Y-82702380D01*
X220000000Y-82702380D01*
X220142857Y-82750000D01*
X220238095Y-82845238D01*
X220285714Y-82940476D01*
X220333333Y-83130952D01*
X220333333Y-83273809D01*
X220285714Y-83464285D01*
X220238095Y-83559523D01*
X220142857Y-83654761D01*
X220000000Y-83702380D01*
X219761904Y-83702380D01*
X220666666Y-82702380D02*
X221285714Y-82702380D01*
X220952380Y-83083333D01*
X221095238Y-83083333D01*
X221190476Y-83130952D01*
X221238095Y-83178571D01*
X221285714Y-83273809D01*
X221285714Y-83511904D01*
X221238095Y-83607142D01*
X221190476Y-83654761D01*
X221095238Y-83702380D01*
X220809523Y-83702380D01*
X220714285Y-83654761D01*
X220666666Y-83607142D01*
X220261904Y-73702380D02*
X220261904Y-72702380D01*
X220500000Y-72702380D01*
X220642857Y-72750000D01*
X220738095Y-72845238D01*
X220785714Y-72940476D01*
X220833333Y-73130952D01*
X220833333Y-73273809D01*
X220785714Y-73464285D01*
X220738095Y-73559523D01*
X220642857Y-73654761D01*
X220500000Y-73702380D01*
X220261904Y-73702380D01*
X221214285Y-72797619D02*
X221261904Y-72750000D01*
X221357142Y-72702380D01*
X221595238Y-72702380D01*
X221690476Y-72750000D01*
X221738095Y-72797619D01*
X221785714Y-72892857D01*
X221785714Y-72988095D01*
X221738095Y-73130952D01*
X221166666Y-73702380D01*
X221785714Y-73702380D01*
X220310904Y-63702380D02*
X220310904Y-62702380D01*
X220549000Y-62702380D01*
X220691857Y-62750000D01*
X220787095Y-62845238D01*
X220834714Y-62940476D01*
X220882333Y-63130952D01*
X220882333Y-63273809D01*
X220834714Y-63464285D01*
X220787095Y-63559523D01*
X220691857Y-63654761D01*
X220549000Y-63702380D01*
X220310904Y-63702380D01*
X221834714Y-63702380D02*
X221263285Y-63702380D01*
X221549000Y-63702380D02*
X221549000Y-62702380D01*
X221453761Y-62845238D01*
X221358523Y-62940476D01*
X221263285Y-62988095D01*
X140488095Y-67452380D02*
X140488095Y-68261904D01*
X140535714Y-68357142D01*
X140583333Y-68404761D01*
X140678571Y-68452380D01*
X140869047Y-68452380D01*
X140964285Y-68404761D01*
X141011904Y-68357142D01*
X141059523Y-68261904D01*
X141059523Y-67452380D01*
X142059523Y-68452380D02*
X141488095Y-68452380D01*
X141773809Y-68452380D02*
X141773809Y-67452380D01*
X141678571Y-67595238D01*
X141583333Y-67690476D01*
X141488095Y-67738095D01*
X209333333Y-93352380D02*
X209000000Y-92876190D01*
X208761904Y-93352380D02*
X208761904Y-92352380D01*
X209142857Y-92352380D01*
X209238095Y-92400000D01*
X209285714Y-92447619D01*
X209333333Y-92542857D01*
X209333333Y-92685714D01*
X209285714Y-92780952D01*
X209238095Y-92828571D01*
X209142857Y-92876190D01*
X208761904Y-92876190D01*
X209904761Y-92780952D02*
X209809523Y-92733333D01*
X209761904Y-92685714D01*
X209714285Y-92590476D01*
X209714285Y-92542857D01*
X209761904Y-92447619D01*
X209809523Y-92400000D01*
X209904761Y-92352380D01*
X210095238Y-92352380D01*
X210190476Y-92400000D01*
X210238095Y-92447619D01*
X210285714Y-92542857D01*
X210285714Y-92590476D01*
X210238095Y-92685714D01*
X210190476Y-92733333D01*
X210095238Y-92780952D01*
X209904761Y-92780952D01*
X209809523Y-92828571D01*
X209761904Y-92876190D01*
X209714285Y-92971428D01*
X209714285Y-93161904D01*
X209761904Y-93257142D01*
X209809523Y-93304761D01*
X209904761Y-93352380D01*
X210095238Y-93352380D01*
X210190476Y-93304761D01*
X210238095Y-93257142D01*
X210285714Y-93161904D01*
X210285714Y-92971428D01*
X210238095Y-92876190D01*
X210190476Y-92828571D01*
X210095238Y-92780952D01*
X209333333Y-83352380D02*
X209000000Y-82876190D01*
X208761904Y-83352380D02*
X208761904Y-82352380D01*
X209142857Y-82352380D01*
X209238095Y-82400000D01*
X209285714Y-82447619D01*
X209333333Y-82542857D01*
X209333333Y-82685714D01*
X209285714Y-82780952D01*
X209238095Y-82828571D01*
X209142857Y-82876190D01*
X208761904Y-82876190D01*
X209666666Y-82352380D02*
X210333333Y-82352380D01*
X209904761Y-83352380D01*
X209333333Y-73352380D02*
X209000000Y-72876190D01*
X208761904Y-73352380D02*
X208761904Y-72352380D01*
X209142857Y-72352380D01*
X209238095Y-72400000D01*
X209285714Y-72447619D01*
X209333333Y-72542857D01*
X209333333Y-72685714D01*
X209285714Y-72780952D01*
X209238095Y-72828571D01*
X209142857Y-72876190D01*
X208761904Y-72876190D01*
X210190476Y-72352380D02*
X210000000Y-72352380D01*
X209904761Y-72400000D01*
X209857142Y-72447619D01*
X209761904Y-72590476D01*
X209714285Y-72780952D01*
X209714285Y-73161904D01*
X209761904Y-73257142D01*
X209809523Y-73304761D01*
X209904761Y-73352380D01*
X210095238Y-73352380D01*
X210190476Y-73304761D01*
X210238095Y-73257142D01*
X210285714Y-73161904D01*
X210285714Y-72923809D01*
X210238095Y-72828571D01*
X210190476Y-72780952D01*
X210095238Y-72733333D01*
X209904761Y-72733333D01*
X209809523Y-72780952D01*
X209761904Y-72828571D01*
X209714285Y-72923809D01*
X209333333Y-63352380D02*
X209000000Y-62876190D01*
X208761904Y-63352380D02*
X208761904Y-62352380D01*
X209142857Y-62352380D01*
X209238095Y-62400000D01*
X209285714Y-62447619D01*
X209333333Y-62542857D01*
X209333333Y-62685714D01*
X209285714Y-62780952D01*
X209238095Y-62828571D01*
X209142857Y-62876190D01*
X208761904Y-62876190D01*
X210238095Y-62352380D02*
X209761904Y-62352380D01*
X209714285Y-62828571D01*
X209761904Y-62780952D01*
X209857142Y-62733333D01*
X210095238Y-62733333D01*
X210190476Y-62780952D01*
X210238095Y-62828571D01*
X210285714Y-62923809D01*
X210285714Y-63161904D01*
X210238095Y-63257142D01*
X210190476Y-63304761D01*
X210095238Y-63352380D01*
X209857142Y-63352380D01*
X209761904Y-63304761D01*
X209714285Y-63257142D01*
X226333333Y-83352380D02*
X226000000Y-82876190D01*
X225761904Y-83352380D02*
X225761904Y-82352380D01*
X226142857Y-82352380D01*
X226238095Y-82400000D01*
X226285714Y-82447619D01*
X226333333Y-82542857D01*
X226333333Y-82685714D01*
X226285714Y-82780952D01*
X226238095Y-82828571D01*
X226142857Y-82876190D01*
X225761904Y-82876190D01*
X227190476Y-82685714D02*
X227190476Y-83352380D01*
X226952380Y-82304761D02*
X226714285Y-83019047D01*
X227333333Y-83019047D01*
X226683333Y-73352380D02*
X226350000Y-72876190D01*
X226111904Y-73352380D02*
X226111904Y-72352380D01*
X226492857Y-72352380D01*
X226588095Y-72400000D01*
X226635714Y-72447619D01*
X226683333Y-72542857D01*
X226683333Y-72685714D01*
X226635714Y-72780952D01*
X226588095Y-72828571D01*
X226492857Y-72876190D01*
X226111904Y-72876190D01*
X227016666Y-72352380D02*
X227635714Y-72352380D01*
X227302380Y-72733333D01*
X227445238Y-72733333D01*
X227540476Y-72780952D01*
X227588095Y-72828571D01*
X227635714Y-72923809D01*
X227635714Y-73161904D01*
X227588095Y-73257142D01*
X227540476Y-73304761D01*
X227445238Y-73352380D01*
X227159523Y-73352380D01*
X227064285Y-73304761D01*
X227016666Y-73257142D01*
X227333333Y-63352380D02*
X227000000Y-62876190D01*
X226761904Y-63352380D02*
X226761904Y-62352380D01*
X227142857Y-62352380D01*
X227238095Y-62400000D01*
X227285714Y-62447619D01*
X227333333Y-62542857D01*
X227333333Y-62685714D01*
X227285714Y-62780952D01*
X227238095Y-62828571D01*
X227142857Y-62876190D01*
X226761904Y-62876190D01*
X227714285Y-62447619D02*
X227761904Y-62400000D01*
X227857142Y-62352380D01*
X228095238Y-62352380D01*
X228190476Y-62400000D01*
X228238095Y-62447619D01*
X228285714Y-62542857D01*
X228285714Y-62638095D01*
X228238095Y-62780952D01*
X227666666Y-63352380D01*
X228285714Y-63352380D01*
X226333333Y-93352380D02*
X226000000Y-92876190D01*
X225761904Y-93352380D02*
X225761904Y-92352380D01*
X226142857Y-92352380D01*
X226238095Y-92400000D01*
X226285714Y-92447619D01*
X226333333Y-92542857D01*
X226333333Y-92685714D01*
X226285714Y-92780952D01*
X226238095Y-92828571D01*
X226142857Y-92876190D01*
X225761904Y-92876190D01*
X227285714Y-93352380D02*
X226714285Y-93352380D01*
X227000000Y-93352380D02*
X227000000Y-92352380D01*
X226904761Y-92495238D01*
X226809523Y-92590476D01*
X226714285Y-92638095D01*
M02*
