M48
;DRILL file {KiCad (2016-12-18 revision 3ffa37c)-master} date Wednesday, March 29, 2017 'PMt' 08:26:16 PM
;FORMAT={2:4/ absolute / inch / suppress leading zeros}
FMAT,2
INCH,TZ
T1C0.016
T2C0.031
T3C0.040
T4C0.047
T5C0.063
T6C0.106
%
G90
G05
M72
T1
X78150Y-25197
X78937Y-26663
X80315Y-29528
X80906Y-27953
X83268Y-34646
X83703Y-37547
X88089Y-29442
T2
X82283Y-41142
X82283Y-43701
X84843Y-41142
X84866Y-43652
X87598Y-41142
X87598Y-43701
X90453Y-41142
X90551Y-43701
T3
X45669Y-24591
X45669Y-25591
X46669Y-24591
X46669Y-25591
X47669Y-24591
X47669Y-25591
X48669Y-24591
X48669Y-25591
X49669Y-24591
X49669Y-25591
X50669Y-24591
X50669Y-25591
X51669Y-24591
X51669Y-25591
X52669Y-24591
X52669Y-25591
X53669Y-24591
X53669Y-25591
X54669Y-24591
X54669Y-25591
X55669Y-24591
X55669Y-25591
X56669Y-24591
X56669Y-25591
X57669Y-24591
X57669Y-25591
X58669Y-24591
X58669Y-25591
X59669Y-24591
X59669Y-25591
X60669Y-24591
X60669Y-25591
X61669Y-24591
X61669Y-25591
X62669Y-24591
X62669Y-25591
X63669Y-24591
X63669Y-25591
X64669Y-24591
X64669Y-25591
T4
X43996Y-12984
X47244Y-16988
X55807Y-12984
X59055Y-16988
X67618Y-12984
X70866Y-16988
X79429Y-12984
X82677Y-16988
T5
X45744Y-11736
X45744Y-15236
X48744Y-13736
X48744Y-15486
X57555Y-11736
X57555Y-15236
X60555Y-13736
X60555Y-15486
X69366Y-11736
X69366Y-15236
X72366Y-13736
X72366Y-15486
X81177Y-11736
X81177Y-15236
X84177Y-13736
X84177Y-15486
T6
X37402Y-11024
X37402Y-49213
X41339Y-27953
X41339Y-47244
X74803Y-27953
X74803Y-47244
X92520Y-11024
X92520Y-49213
T0
M30
