%TF.GenerationSoftware,KiCad,Pcbnew,7.0.9*%
%TF.CreationDate,2023-12-01T11:37:00-08:00*%
%TF.ProjectId,gameshow_v4,67616d65-7368-46f7-975f-76342e6b6963,rev?*%
%TF.SameCoordinates,Original*%
%TF.FileFunction,Soldermask,Top*%
%TF.FilePolarity,Negative*%
%FSLAX46Y46*%
G04 Gerber Fmt 4.6, Leading zero omitted, Abs format (unit mm)*
G04 Created by KiCad (PCBNEW 7.0.9) date 2023-12-01 11:37:00*
%MOMM*%
%LPD*%
G01*
G04 APERTURE LIST*
G04 Aperture macros list*
%AMRoundRect*
0 Rectangle with rounded corners*
0 $1 Rounding radius*
0 $2 $3 $4 $5 $6 $7 $8 $9 X,Y pos of 4 corners*
0 Add a 4 corners polygon primitive as box body*
4,1,4,$2,$3,$4,$5,$6,$7,$8,$9,$2,$3,0*
0 Add four circle primitives for the rounded corners*
1,1,$1+$1,$2,$3*
1,1,$1+$1,$4,$5*
1,1,$1+$1,$6,$7*
1,1,$1+$1,$8,$9*
0 Add four rect primitives between the rounded corners*
20,1,$1+$1,$2,$3,$4,$5,0*
20,1,$1+$1,$4,$5,$6,$7,0*
20,1,$1+$1,$6,$7,$8,$9,0*
20,1,$1+$1,$8,$9,$2,$3,0*%
G04 Aperture macros list end*
%ADD10RoundRect,0.250000X0.262500X0.450000X-0.262500X0.450000X-0.262500X-0.450000X0.262500X-0.450000X0*%
%ADD11C,3.200000*%
%ADD12RoundRect,0.243750X-0.243750X-0.456250X0.243750X-0.456250X0.243750X0.456250X-0.243750X0.456250X0*%
%ADD13R,1.600000X1.600000*%
%ADD14O,1.600000X1.600000*%
%ADD15C,1.600000*%
%ADD16C,3.400000*%
%ADD17C,2.900000*%
%ADD18RoundRect,0.250000X-0.262500X-0.450000X0.262500X-0.450000X0.262500X0.450000X-0.262500X0.450000X0*%
G04 APERTURE END LIST*
D10*
%TO.C,R8*%
X196596000Y-81235000D03*
X194771000Y-81235000D03*
%TD*%
D11*
%TO.C,H4*%
X225044000Y-99822000D03*
%TD*%
D12*
%TO.C,D4*%
X129272500Y-81235000D03*
X131147500Y-81235000D03*
%TD*%
%TO.C,D8*%
X190336000Y-81235000D03*
X192211000Y-81235000D03*
%TD*%
D13*
%TO.C,A1*%
X218176000Y-96266000D03*
D14*
X218176000Y-93726000D03*
X218176000Y-91186000D03*
X218176000Y-88646000D03*
X218176000Y-86106000D03*
X218176000Y-83566000D03*
X218176000Y-81026000D03*
X218176000Y-78486000D03*
X218176000Y-75946000D03*
X218176000Y-73406000D03*
X218176000Y-70866000D03*
X218176000Y-68326000D03*
X218176000Y-65786000D03*
X218176000Y-63246000D03*
X218176000Y-60706000D03*
X202936000Y-60706000D03*
X202936000Y-63246000D03*
X202936000Y-65786000D03*
X202936000Y-68326000D03*
X202936000Y-70866000D03*
X202936000Y-73406000D03*
X202936000Y-75946000D03*
X202936000Y-78486000D03*
X202936000Y-81026000D03*
X202936000Y-83566000D03*
X202936000Y-86106000D03*
X202936000Y-88646000D03*
X202936000Y-91186000D03*
X202936000Y-93726000D03*
X202936000Y-96266000D03*
%TD*%
D15*
%TO.C,J3*%
X157480000Y-66040000D03*
X149860000Y-60960000D03*
D16*
X149860000Y-69850000D03*
X157480000Y-70485000D03*
D17*
X153670000Y-74300000D03*
%TD*%
D11*
%TO.C,H5*%
X107950000Y-99822000D03*
%TD*%
D12*
%TO.C,D6*%
X141314000Y-81235000D03*
X143189000Y-81235000D03*
%TD*%
D18*
%TO.C,R4*%
X114761000Y-81235000D03*
X116586000Y-81235000D03*
%TD*%
%TO.C,R5*%
X145899500Y-81235000D03*
X147724500Y-81235000D03*
%TD*%
D12*
%TO.C,D2*%
X110490000Y-81235000D03*
X112365000Y-81235000D03*
%TD*%
D10*
%TO.C,R2*%
X104695000Y-81235000D03*
X102870000Y-81235000D03*
%TD*%
D18*
%TO.C,R6*%
X176229000Y-81235000D03*
X178054000Y-81235000D03*
%TD*%
D15*
%TO.C,J1*%
X96520000Y-66040000D03*
X88900000Y-60960000D03*
D16*
X88900000Y-69850000D03*
X96520000Y-70485000D03*
D17*
X92710000Y-74300000D03*
%TD*%
D11*
%TO.C,H3*%
X74930000Y-99822000D03*
%TD*%
D12*
%TO.C,D3*%
X98435000Y-81235000D03*
X100310000Y-81235000D03*
%TD*%
%TO.C,D1*%
X80675000Y-81235000D03*
X82550000Y-81235000D03*
%TD*%
D10*
%TO.C,R7*%
X166026000Y-81235000D03*
X164201000Y-81235000D03*
%TD*%
D15*
%TO.C,J4*%
X187960000Y-66040000D03*
X180340000Y-60960000D03*
D16*
X180340000Y-69850000D03*
X187960000Y-70485000D03*
D17*
X184150000Y-74300000D03*
%TD*%
D11*
%TO.C,H1*%
X74930000Y-59182000D03*
%TD*%
%TO.C,H2*%
X225044000Y-59436000D03*
%TD*%
D18*
%TO.C,R1*%
X85110000Y-81235000D03*
X86935000Y-81235000D03*
%TD*%
D12*
%TO.C,D7*%
X171861000Y-81235000D03*
X173736000Y-81235000D03*
%TD*%
D10*
%TO.C,R3*%
X135532500Y-81235000D03*
X133707500Y-81235000D03*
%TD*%
D15*
%TO.C,J2*%
X127000000Y-66040000D03*
X119380000Y-60960000D03*
D16*
X119380000Y-69850000D03*
X127000000Y-70485000D03*
D17*
X123190000Y-74300000D03*
%TD*%
D11*
%TO.C,H6*%
X169910000Y-99822000D03*
%TD*%
D12*
%TO.C,D5*%
X159766000Y-81235000D03*
X161641000Y-81235000D03*
%TD*%
M02*
