M48
INCH
T1C0.0157
T2C0.0394
T3C0.0472
T4C0.0630
%
G90
G05
T1
X3.93Y-2.59
X4.34Y-3.4
X5.04Y-2.4177
X5.53Y-3.4
X8.18Y-2.93
X8.18Y-3.04
X8.18Y-3.14
X8.18Y-3.24
T2
X7.9896Y-2.39
X7.9896Y-2.49
X7.9896Y-2.59
X7.9896Y-2.69
X7.9896Y-2.79
X7.9896Y-2.89
X7.9896Y-2.99
X7.9896Y-3.09
X7.9896Y-3.19
X7.9896Y-3.29
X7.9896Y-3.39
X7.9896Y-3.49
X7.9896Y-3.59
X7.9896Y-3.69
X7.9896Y-3.79
X8.5896Y-2.39
X8.5896Y-2.49
X8.5896Y-2.59
X8.5896Y-2.69
X8.5896Y-2.79
X8.5896Y-2.89
X8.5896Y-2.99
X8.5896Y-3.09
X8.5896Y-3.19
X8.5896Y-3.29
X8.5896Y-3.39
X8.5896Y-3.49
X8.5896Y-3.59
X8.5896Y-3.69
X8.5896Y-3.79
T3
X3.65Y-2.9252
X4.85Y-2.9252
X6.05Y-2.9252
X7.25Y-2.9252
T4
X3.5Y-2.75
X3.8Y-2.775
X4.7Y-2.75
X5.0Y-2.775
X5.9Y-2.75
X6.2Y-2.775
X7.1Y-2.75
X7.4Y-2.775
T0
M30
