%TF.GenerationSoftware,KiCad,Pcbnew,7.0.9*%
%TF.CreationDate,2023-12-01T11:37:00-08:00*%
%TF.ProjectId,gameshow_v4,67616d65-7368-46f7-975f-76342e6b6963,rev?*%
%TF.SameCoordinates,Original*%
%TF.FileFunction,Copper,L1,Top*%
%TF.FilePolarity,Positive*%
%FSLAX46Y46*%
G04 Gerber Fmt 4.6, Leading zero omitted, Abs format (unit mm)*
G04 Created by KiCad (PCBNEW 7.0.9) date 2023-12-01 11:37:00*
%MOMM*%
%LPD*%
G01*
G04 APERTURE LIST*
G04 Aperture macros list*
%AMRoundRect*
0 Rectangle with rounded corners*
0 $1 Rounding radius*
0 $2 $3 $4 $5 $6 $7 $8 $9 X,Y pos of 4 corners*
0 Add a 4 corners polygon primitive as box body*
4,1,4,$2,$3,$4,$5,$6,$7,$8,$9,$2,$3,0*
0 Add four circle primitives for the rounded corners*
1,1,$1+$1,$2,$3*
1,1,$1+$1,$4,$5*
1,1,$1+$1,$6,$7*
1,1,$1+$1,$8,$9*
0 Add four rect primitives between the rounded corners*
20,1,$1+$1,$2,$3,$4,$5,0*
20,1,$1+$1,$4,$5,$6,$7,0*
20,1,$1+$1,$6,$7,$8,$9,0*
20,1,$1+$1,$8,$9,$2,$3,0*%
G04 Aperture macros list end*
%TA.AperFunction,SMDPad,CuDef*%
%ADD10RoundRect,0.250000X0.262500X0.450000X-0.262500X0.450000X-0.262500X-0.450000X0.262500X-0.450000X0*%
%TD*%
%TA.AperFunction,SMDPad,CuDef*%
%ADD11RoundRect,0.243750X-0.243750X-0.456250X0.243750X-0.456250X0.243750X0.456250X-0.243750X0.456250X0*%
%TD*%
%TA.AperFunction,ComponentPad*%
%ADD12R,1.600000X1.600000*%
%TD*%
%TA.AperFunction,ComponentPad*%
%ADD13O,1.600000X1.600000*%
%TD*%
%TA.AperFunction,ComponentPad*%
%ADD14C,3.400000*%
%TD*%
%TA.AperFunction,ComponentPad*%
%ADD15C,2.900000*%
%TD*%
%TA.AperFunction,SMDPad,CuDef*%
%ADD16RoundRect,0.250000X-0.262500X-0.450000X0.262500X-0.450000X0.262500X0.450000X-0.262500X0.450000X0*%
%TD*%
%TA.AperFunction,ViaPad*%
%ADD17C,0.800000*%
%TD*%
%TA.AperFunction,Conductor*%
%ADD18C,0.250000*%
%TD*%
G04 APERTURE END LIST*
D10*
%TO.P,R8,1*%
%TO.N,+3V3*%
X196596000Y-81235000D03*
%TO.P,R8,2*%
%TO.N,Net-(D8-A)*%
X194771000Y-81235000D03*
%TD*%
D11*
%TO.P,D4,1,K*%
%TO.N,P2_SW*%
X129272500Y-81235000D03*
%TO.P,D4,2,A*%
%TO.N,Net-(D4-A)*%
X131147500Y-81235000D03*
%TD*%
%TO.P,D8,1,K*%
%TO.N,P4_SW*%
X190336000Y-81235000D03*
%TO.P,D8,2,A*%
%TO.N,Net-(D8-A)*%
X192211000Y-81235000D03*
%TD*%
D12*
%TO.P,A1,1,D1/TX*%
%TO.N,unconnected-(A1-D1{slash}TX-Pad1)*%
X218176000Y-96266000D03*
D13*
%TO.P,A1,2,D0/RX*%
%TO.N,unconnected-(A1-D0{slash}RX-Pad2)*%
X218176000Y-93726000D03*
%TO.P,A1,3,~{RESET}*%
%TO.N,unconnected-(A1-~{RESET}-Pad3)*%
X218176000Y-91186000D03*
%TO.P,A1,4,GND*%
%TO.N,GND*%
X218176000Y-88646000D03*
%TO.P,A1,5,D2*%
%TO.N,unconnected-(A1-D2-Pad5)*%
X218176000Y-86106000D03*
%TO.P,A1,6,D3*%
%TO.N,unconnected-(A1-D3-Pad6)*%
X218176000Y-83566000D03*
%TO.P,A1,7,D4*%
%TO.N,P1_LED*%
X218176000Y-81026000D03*
%TO.P,A1,8,D5*%
%TO.N,P2_LED*%
X218176000Y-78486000D03*
%TO.P,A1,9,D6*%
%TO.N,P3_LED*%
X218176000Y-75946000D03*
%TO.P,A1,10,D7*%
%TO.N,P4_LED*%
X218176000Y-73406000D03*
%TO.P,A1,11,D8*%
%TO.N,unconnected-(A1-D8-Pad11)*%
X218176000Y-70866000D03*
%TO.P,A1,12,D9*%
%TO.N,unconnected-(A1-D9-Pad12)*%
X218176000Y-68326000D03*
%TO.P,A1,13,D10*%
%TO.N,P4_SW*%
X218176000Y-65786000D03*
%TO.P,A1,14,D11*%
%TO.N,P3_SW*%
X218176000Y-63246000D03*
%TO.P,A1,15,D12*%
%TO.N,P2_SW*%
X218176000Y-60706000D03*
%TO.P,A1,16,D13*%
%TO.N,P1_SW*%
X202936000Y-60706000D03*
%TO.P,A1,17,3V3*%
%TO.N,+3V3*%
X202936000Y-63246000D03*
%TO.P,A1,18,AREF*%
%TO.N,unconnected-(A1-AREF-Pad18)*%
X202936000Y-65786000D03*
%TO.P,A1,19,A0*%
%TO.N,unconnected-(A1-A0-Pad19)*%
X202936000Y-68326000D03*
%TO.P,A1,20,A1*%
%TO.N,unconnected-(A1-A1-Pad20)*%
X202936000Y-70866000D03*
%TO.P,A1,21,A2*%
%TO.N,unconnected-(A1-A2-Pad21)*%
X202936000Y-73406000D03*
%TO.P,A1,22,A3*%
%TO.N,unconnected-(A1-A3-Pad22)*%
X202936000Y-75946000D03*
%TO.P,A1,23,A4*%
%TO.N,unconnected-(A1-A4-Pad23)*%
X202936000Y-78486000D03*
%TO.P,A1,24,A5*%
%TO.N,unconnected-(A1-A5-Pad24)*%
X202936000Y-81026000D03*
%TO.P,A1,25,A6*%
%TO.N,unconnected-(A1-A6-Pad25)*%
X202936000Y-83566000D03*
%TO.P,A1,26,A7*%
%TO.N,unconnected-(A1-A7-Pad26)*%
X202936000Y-86106000D03*
%TO.P,A1,27,+5V*%
%TO.N,unconnected-(A1-+5V-Pad27)*%
X202936000Y-88646000D03*
%TO.P,A1,28,~{RESET}*%
%TO.N,unconnected-(A1-~{RESET}-Pad28)*%
X202936000Y-91186000D03*
%TO.P,A1,29,GND*%
%TO.N,GND*%
X202936000Y-93726000D03*
%TO.P,A1,30,VIN*%
%TO.N,unconnected-(A1-VIN-Pad30)*%
X202936000Y-96266000D03*
%TD*%
D14*
%TO.P,J3,1*%
%TO.N,GND*%
X149860000Y-69850000D03*
%TO.P,J3,2*%
%TO.N,P3_SW*%
X157480000Y-70485000D03*
D15*
%TO.P,J3,3*%
%TO.N,P3_LED*%
X153670000Y-74300000D03*
%TD*%
D11*
%TO.P,D6,1,K*%
%TO.N,GND*%
X141314000Y-81235000D03*
%TO.P,D6,2,A*%
%TO.N,Net-(D6-A)*%
X143189000Y-81235000D03*
%TD*%
D16*
%TO.P,R4,1*%
%TO.N,Net-(D2-A)*%
X114761000Y-81235000D03*
%TO.P,R4,2*%
%TO.N,P2_LED*%
X116586000Y-81235000D03*
%TD*%
%TO.P,R5,1*%
%TO.N,Net-(D6-A)*%
X145899500Y-81235000D03*
%TO.P,R5,2*%
%TO.N,P3_LED*%
X147724500Y-81235000D03*
%TD*%
D11*
%TO.P,D2,1,K*%
%TO.N,GND*%
X110490000Y-81235000D03*
%TO.P,D2,2,A*%
%TO.N,Net-(D2-A)*%
X112365000Y-81235000D03*
%TD*%
D10*
%TO.P,R2,1*%
%TO.N,+3V3*%
X104695000Y-81235000D03*
%TO.P,R2,2*%
%TO.N,Net-(D3-A)*%
X102870000Y-81235000D03*
%TD*%
D16*
%TO.P,R6,1*%
%TO.N,Net-(D7-A)*%
X176229000Y-81235000D03*
%TO.P,R6,2*%
%TO.N,P4_LED*%
X178054000Y-81235000D03*
%TD*%
D14*
%TO.P,J1,1*%
%TO.N,GND*%
X88900000Y-69850000D03*
%TO.P,J1,2*%
%TO.N,P1_SW*%
X96520000Y-70485000D03*
D15*
%TO.P,J1,3*%
%TO.N,P1_LED*%
X92710000Y-74300000D03*
%TD*%
D11*
%TO.P,D3,1,K*%
%TO.N,P1_SW*%
X98435000Y-81235000D03*
%TO.P,D3,2,A*%
%TO.N,Net-(D3-A)*%
X100310000Y-81235000D03*
%TD*%
%TO.P,D1,1,K*%
%TO.N,GND*%
X80675000Y-81235000D03*
%TO.P,D1,2,A*%
%TO.N,Net-(D1-A)*%
X82550000Y-81235000D03*
%TD*%
D10*
%TO.P,R7,1*%
%TO.N,+3V3*%
X166026000Y-81235000D03*
%TO.P,R7,2*%
%TO.N,Net-(D5-A)*%
X164201000Y-81235000D03*
%TD*%
D14*
%TO.P,J4,1*%
%TO.N,GND*%
X180340000Y-69850000D03*
%TO.P,J4,2*%
%TO.N,P4_SW*%
X187960000Y-70485000D03*
D15*
%TO.P,J4,3*%
%TO.N,P4_LED*%
X184150000Y-74300000D03*
%TD*%
D16*
%TO.P,R1,1*%
%TO.N,Net-(D1-A)*%
X85110000Y-81235000D03*
%TO.P,R1,2*%
%TO.N,P1_LED*%
X86935000Y-81235000D03*
%TD*%
D11*
%TO.P,D7,1,K*%
%TO.N,GND*%
X171861000Y-81235000D03*
%TO.P,D7,2,A*%
%TO.N,Net-(D7-A)*%
X173736000Y-81235000D03*
%TD*%
D10*
%TO.P,R3,1*%
%TO.N,+3V3*%
X135532500Y-81235000D03*
%TO.P,R3,2*%
%TO.N,Net-(D4-A)*%
X133707500Y-81235000D03*
%TD*%
D14*
%TO.P,J2,1*%
%TO.N,GND*%
X119380000Y-69850000D03*
%TO.P,J2,2*%
%TO.N,P2_SW*%
X127000000Y-70485000D03*
D15*
%TO.P,J2,3*%
%TO.N,P2_LED*%
X123190000Y-74300000D03*
%TD*%
D11*
%TO.P,D5,1,K*%
%TO.N,P3_SW*%
X159766000Y-81235000D03*
%TO.P,D5,2,A*%
%TO.N,Net-(D5-A)*%
X161641000Y-81235000D03*
%TD*%
D17*
%TO.N,P1_LED*%
X207772000Y-82296000D03*
%TO.N,P2_LED*%
X207772000Y-79756000D03*
%TO.N,P3_LED*%
X207772000Y-77216000D03*
%TO.N,P4_LED*%
X207772000Y-74422000D03*
%TO.N,+3V3*%
X140462000Y-86360000D03*
X110236000Y-86360000D03*
%TO.N,P1_SW*%
X99822000Y-65786000D03*
%TO.N,P2_SW*%
X128016000Y-61410500D03*
%TD*%
D18*
%TO.N,GND*%
X171861000Y-78329000D02*
X171861000Y-81235000D01*
X121354000Y-67876000D02*
X119380000Y-69850000D01*
X149860000Y-69850000D02*
X141314000Y-78396000D01*
X171861000Y-81235000D02*
X184352000Y-93726000D01*
X178640000Y-68150000D02*
X151560000Y-68150000D01*
X130794000Y-67876000D02*
X121354000Y-67876000D01*
X119380000Y-69850000D02*
X117680000Y-68150000D01*
X141314000Y-78396000D02*
X141314000Y-81235000D01*
X88900000Y-69850000D02*
X88900000Y-73010000D01*
X180340000Y-69850000D02*
X171861000Y-78329000D01*
X110490000Y-78740000D02*
X110490000Y-80518000D01*
X180340000Y-69850000D02*
X178640000Y-68150000D01*
X184352000Y-93726000D02*
X202936000Y-93726000D01*
X90600000Y-68150000D02*
X88900000Y-69850000D01*
X119380000Y-69850000D02*
X110490000Y-78740000D01*
X208016000Y-88646000D02*
X202936000Y-93726000D01*
X151560000Y-68150000D02*
X149860000Y-69850000D01*
X117680000Y-68150000D02*
X90600000Y-68150000D01*
X88900000Y-73010000D02*
X80675000Y-81235000D01*
X218176000Y-88646000D02*
X208016000Y-88646000D01*
X141314000Y-78396000D02*
X130794000Y-67876000D01*
%TO.N,P1_LED*%
X218176000Y-81026000D02*
X209042000Y-81026000D01*
X92710000Y-74300000D02*
X92710000Y-78486000D01*
X89916000Y-81280000D02*
X89871000Y-81235000D01*
X89871000Y-81235000D02*
X86935000Y-81235000D01*
X209042000Y-81026000D02*
X207772000Y-82296000D01*
X92710000Y-78486000D02*
X89916000Y-81280000D01*
%TO.N,P2_LED*%
X123190000Y-74300000D02*
X124968000Y-76078000D01*
X124968000Y-76078000D02*
X124968000Y-83312000D01*
X218176000Y-78486000D02*
X209042000Y-78486000D01*
X209042000Y-78486000D02*
X207772000Y-79756000D01*
X122891000Y-81235000D02*
X116586000Y-81235000D01*
X124968000Y-83312000D02*
X122891000Y-81235000D01*
%TO.N,P3_LED*%
X218176000Y-75946000D02*
X209042000Y-75946000D01*
X209042000Y-75946000D02*
X207772000Y-77216000D01*
X153670000Y-78994000D02*
X153670000Y-74300000D01*
X151429000Y-81235000D02*
X153670000Y-78994000D01*
X147724500Y-81235000D02*
X151429000Y-81235000D01*
%TO.N,P4_LED*%
X178054000Y-80396000D02*
X178054000Y-81235000D01*
X218176000Y-73406000D02*
X208788000Y-73406000D01*
X208788000Y-73406000D02*
X207772000Y-74422000D01*
X184150000Y-74300000D02*
X178054000Y-80396000D01*
%TO.N,+3V3*%
X204061000Y-64371000D02*
X204061000Y-81781991D01*
X135532500Y-81430500D02*
X140462000Y-86360000D01*
X104695000Y-81235000D02*
X105111000Y-81235000D01*
X135532500Y-81235000D02*
X135532500Y-81430500D01*
X164084000Y-86360000D02*
X166026000Y-84418000D01*
X105111000Y-81235000D02*
X110236000Y-86360000D01*
X166026000Y-84418000D02*
X166026000Y-81235000D01*
X203691991Y-82151000D02*
X197512000Y-82151000D01*
X202936000Y-63246000D02*
X204061000Y-64371000D01*
X140462000Y-86360000D02*
X164084000Y-86360000D01*
X197512000Y-82151000D02*
X196596000Y-81235000D01*
X204061000Y-81781991D02*
X203691991Y-82151000D01*
%TO.N,P1_SW*%
X96520000Y-70485000D02*
X96520000Y-79320000D01*
X103473000Y-62135000D02*
X99822000Y-65786000D01*
X202936000Y-60706000D02*
X201507000Y-62135000D01*
X201507000Y-62135000D02*
X103473000Y-62135000D01*
X96520000Y-79320000D02*
X98435000Y-81235000D01*
%TO.N,P2_SW*%
X129141000Y-59581000D02*
X129032000Y-59690000D01*
X129032000Y-59690000D02*
X128016000Y-60706000D01*
X127000000Y-78962500D02*
X129272500Y-81235000D01*
X218176000Y-60706000D02*
X217051000Y-59581000D01*
X127000000Y-70485000D02*
X127000000Y-78962500D01*
X217051000Y-59581000D02*
X129141000Y-59581000D01*
X128016000Y-60706000D02*
X128016000Y-61410500D01*
%TO.N,P3_SW*%
X157480000Y-70485000D02*
X157480000Y-78949000D01*
X157480000Y-78949000D02*
X159766000Y-81235000D01*
%TO.N,P4_SW*%
X187960000Y-78859000D02*
X190336000Y-81235000D01*
X187960000Y-70485000D02*
X187960000Y-78859000D01*
%TO.N,Net-(D1-A)*%
X85065000Y-81280000D02*
X85110000Y-81235000D01*
X82550000Y-81280000D02*
X85065000Y-81280000D01*
%TO.N,Net-(D2-A)*%
X112365000Y-81235000D02*
X114761000Y-81235000D01*
%TO.N,Net-(D3-A)*%
X100310000Y-81235000D02*
X102870000Y-81235000D01*
%TO.N,Net-(D4-A)*%
X131147500Y-81235000D02*
X133707500Y-81235000D01*
%TO.N,Net-(D5-A)*%
X161641000Y-81235000D02*
X164201000Y-81235000D01*
%TO.N,Net-(D6-A)*%
X143189000Y-81235000D02*
X145899500Y-81235000D01*
%TO.N,Net-(D7-A)*%
X173736000Y-81235000D02*
X176229000Y-81235000D01*
%TO.N,Net-(D8-A)*%
X194771000Y-81235000D02*
X192211000Y-81235000D01*
%TD*%
%TA.AperFunction,Conductor*%
%TO.N,GND*%
G36*
X230320539Y-53868185D02*
G01*
X230366294Y-53920989D01*
X230377500Y-53972500D01*
X230377500Y-105031500D01*
X230357815Y-105098539D01*
X230305011Y-105144294D01*
X230253500Y-105155500D01*
X69720500Y-105155500D01*
X69653461Y-105135815D01*
X69607706Y-105083011D01*
X69596500Y-105031500D01*
X69596500Y-99889763D01*
X73075787Y-99889763D01*
X73105413Y-100159013D01*
X73105415Y-100159024D01*
X73173926Y-100421082D01*
X73173928Y-100421088D01*
X73279870Y-100670390D01*
X73351998Y-100788575D01*
X73420979Y-100901605D01*
X73420986Y-100901615D01*
X73594253Y-101109819D01*
X73594259Y-101109824D01*
X73795998Y-101290582D01*
X74021910Y-101440044D01*
X74267176Y-101555020D01*
X74267183Y-101555022D01*
X74267185Y-101555023D01*
X74526557Y-101633057D01*
X74526564Y-101633058D01*
X74526569Y-101633060D01*
X74794561Y-101672500D01*
X74794566Y-101672500D01*
X74997636Y-101672500D01*
X75049133Y-101668730D01*
X75200156Y-101657677D01*
X75312758Y-101632593D01*
X75464546Y-101598782D01*
X75464548Y-101598781D01*
X75464553Y-101598780D01*
X75717558Y-101502014D01*
X75953777Y-101369441D01*
X76168177Y-101203888D01*
X76356186Y-101008881D01*
X76513799Y-100788579D01*
X76587787Y-100644669D01*
X76637649Y-100547690D01*
X76637651Y-100547684D01*
X76637656Y-100547675D01*
X76725118Y-100291305D01*
X76774319Y-100024933D01*
X76779259Y-99889763D01*
X106095787Y-99889763D01*
X106125413Y-100159013D01*
X106125415Y-100159024D01*
X106193926Y-100421082D01*
X106193928Y-100421088D01*
X106299870Y-100670390D01*
X106371998Y-100788575D01*
X106440979Y-100901605D01*
X106440986Y-100901615D01*
X106614253Y-101109819D01*
X106614259Y-101109824D01*
X106815998Y-101290582D01*
X107041910Y-101440044D01*
X107287176Y-101555020D01*
X107287183Y-101555022D01*
X107287185Y-101555023D01*
X107546557Y-101633057D01*
X107546564Y-101633058D01*
X107546569Y-101633060D01*
X107814561Y-101672500D01*
X107814566Y-101672500D01*
X108017636Y-101672500D01*
X108069133Y-101668730D01*
X108220156Y-101657677D01*
X108332758Y-101632593D01*
X108484546Y-101598782D01*
X108484548Y-101598781D01*
X108484553Y-101598780D01*
X108737558Y-101502014D01*
X108973777Y-101369441D01*
X109188177Y-101203888D01*
X109376186Y-101008881D01*
X109533799Y-100788579D01*
X109607787Y-100644669D01*
X109657649Y-100547690D01*
X109657651Y-100547684D01*
X109657656Y-100547675D01*
X109745118Y-100291305D01*
X109794319Y-100024933D01*
X109799259Y-99889763D01*
X168055787Y-99889763D01*
X168085413Y-100159013D01*
X168085415Y-100159024D01*
X168153926Y-100421082D01*
X168153928Y-100421088D01*
X168259870Y-100670390D01*
X168331998Y-100788575D01*
X168400979Y-100901605D01*
X168400986Y-100901615D01*
X168574253Y-101109819D01*
X168574259Y-101109824D01*
X168775998Y-101290582D01*
X169001910Y-101440044D01*
X169247176Y-101555020D01*
X169247183Y-101555022D01*
X169247185Y-101555023D01*
X169506557Y-101633057D01*
X169506564Y-101633058D01*
X169506569Y-101633060D01*
X169774561Y-101672500D01*
X169774566Y-101672500D01*
X169977636Y-101672500D01*
X170029133Y-101668730D01*
X170180156Y-101657677D01*
X170292758Y-101632593D01*
X170444546Y-101598782D01*
X170444548Y-101598781D01*
X170444553Y-101598780D01*
X170697558Y-101502014D01*
X170933777Y-101369441D01*
X171148177Y-101203888D01*
X171336186Y-101008881D01*
X171493799Y-100788579D01*
X171567787Y-100644669D01*
X171617649Y-100547690D01*
X171617651Y-100547684D01*
X171617656Y-100547675D01*
X171705118Y-100291305D01*
X171754319Y-100024933D01*
X171759259Y-99889763D01*
X223189787Y-99889763D01*
X223219413Y-100159013D01*
X223219415Y-100159024D01*
X223287926Y-100421082D01*
X223287928Y-100421088D01*
X223393870Y-100670390D01*
X223465998Y-100788575D01*
X223534979Y-100901605D01*
X223534986Y-100901615D01*
X223708253Y-101109819D01*
X223708259Y-101109824D01*
X223909998Y-101290582D01*
X224135910Y-101440044D01*
X224381176Y-101555020D01*
X224381183Y-101555022D01*
X224381185Y-101555023D01*
X224640557Y-101633057D01*
X224640564Y-101633058D01*
X224640569Y-101633060D01*
X224908561Y-101672500D01*
X224908566Y-101672500D01*
X225111636Y-101672500D01*
X225163133Y-101668730D01*
X225314156Y-101657677D01*
X225426758Y-101632593D01*
X225578546Y-101598782D01*
X225578548Y-101598781D01*
X225578553Y-101598780D01*
X225831558Y-101502014D01*
X226067777Y-101369441D01*
X226282177Y-101203888D01*
X226470186Y-101008881D01*
X226627799Y-100788579D01*
X226701787Y-100644669D01*
X226751649Y-100547690D01*
X226751651Y-100547684D01*
X226751656Y-100547675D01*
X226839118Y-100291305D01*
X226888319Y-100024933D01*
X226898212Y-99754235D01*
X226868586Y-99484982D01*
X226800072Y-99222912D01*
X226694130Y-98973610D01*
X226553018Y-98742390D01*
X226463747Y-98635119D01*
X226379746Y-98534180D01*
X226379740Y-98534175D01*
X226178002Y-98353418D01*
X225952092Y-98203957D01*
X225952090Y-98203956D01*
X225706824Y-98088980D01*
X225706819Y-98088978D01*
X225706814Y-98088976D01*
X225447442Y-98010942D01*
X225447428Y-98010939D01*
X225331791Y-97993921D01*
X225179439Y-97971500D01*
X224976369Y-97971500D01*
X224976364Y-97971500D01*
X224773844Y-97986323D01*
X224773831Y-97986325D01*
X224509453Y-98045217D01*
X224509446Y-98045220D01*
X224256439Y-98141987D01*
X224020226Y-98274557D01*
X223805822Y-98440112D01*
X223617822Y-98635109D01*
X223617816Y-98635116D01*
X223460202Y-98855419D01*
X223460199Y-98855424D01*
X223336350Y-99096309D01*
X223336343Y-99096327D01*
X223248884Y-99352685D01*
X223248881Y-99352699D01*
X223199681Y-99619068D01*
X223199680Y-99619075D01*
X223189787Y-99889763D01*
X171759259Y-99889763D01*
X171764212Y-99754235D01*
X171734586Y-99484982D01*
X171666072Y-99222912D01*
X171560130Y-98973610D01*
X171419018Y-98742390D01*
X171329747Y-98635119D01*
X171245746Y-98534180D01*
X171245740Y-98534175D01*
X171044002Y-98353418D01*
X170818092Y-98203957D01*
X170818090Y-98203956D01*
X170572824Y-98088980D01*
X170572819Y-98088978D01*
X170572814Y-98088976D01*
X170313442Y-98010942D01*
X170313428Y-98010939D01*
X170197791Y-97993921D01*
X170045439Y-97971500D01*
X169842369Y-97971500D01*
X169842364Y-97971500D01*
X169639844Y-97986323D01*
X169639831Y-97986325D01*
X169375453Y-98045217D01*
X169375446Y-98045220D01*
X169122439Y-98141987D01*
X168886226Y-98274557D01*
X168671822Y-98440112D01*
X168483822Y-98635109D01*
X168483816Y-98635116D01*
X168326202Y-98855419D01*
X168326199Y-98855424D01*
X168202350Y-99096309D01*
X168202343Y-99096327D01*
X168114884Y-99352685D01*
X168114881Y-99352699D01*
X168065681Y-99619068D01*
X168065680Y-99619075D01*
X168055787Y-99889763D01*
X109799259Y-99889763D01*
X109804212Y-99754235D01*
X109774586Y-99484982D01*
X109706072Y-99222912D01*
X109600130Y-98973610D01*
X109459018Y-98742390D01*
X109369747Y-98635119D01*
X109285746Y-98534180D01*
X109285740Y-98534175D01*
X109084002Y-98353418D01*
X108858092Y-98203957D01*
X108858090Y-98203956D01*
X108612824Y-98088980D01*
X108612819Y-98088978D01*
X108612814Y-98088976D01*
X108353442Y-98010942D01*
X108353428Y-98010939D01*
X108237791Y-97993921D01*
X108085439Y-97971500D01*
X107882369Y-97971500D01*
X107882364Y-97971500D01*
X107679844Y-97986323D01*
X107679831Y-97986325D01*
X107415453Y-98045217D01*
X107415446Y-98045220D01*
X107162439Y-98141987D01*
X106926226Y-98274557D01*
X106711822Y-98440112D01*
X106523822Y-98635109D01*
X106523816Y-98635116D01*
X106366202Y-98855419D01*
X106366199Y-98855424D01*
X106242350Y-99096309D01*
X106242343Y-99096327D01*
X106154884Y-99352685D01*
X106154881Y-99352699D01*
X106105681Y-99619068D01*
X106105680Y-99619075D01*
X106095787Y-99889763D01*
X76779259Y-99889763D01*
X76784212Y-99754235D01*
X76754586Y-99484982D01*
X76686072Y-99222912D01*
X76580130Y-98973610D01*
X76439018Y-98742390D01*
X76349747Y-98635119D01*
X76265746Y-98534180D01*
X76265740Y-98534175D01*
X76064002Y-98353418D01*
X75838092Y-98203957D01*
X75838090Y-98203956D01*
X75592824Y-98088980D01*
X75592819Y-98088978D01*
X75592814Y-98088976D01*
X75333442Y-98010942D01*
X75333428Y-98010939D01*
X75217791Y-97993921D01*
X75065439Y-97971500D01*
X74862369Y-97971500D01*
X74862364Y-97971500D01*
X74659844Y-97986323D01*
X74659831Y-97986325D01*
X74395453Y-98045217D01*
X74395446Y-98045220D01*
X74142439Y-98141987D01*
X73906226Y-98274557D01*
X73691822Y-98440112D01*
X73503822Y-98635109D01*
X73503816Y-98635116D01*
X73346202Y-98855419D01*
X73346199Y-98855424D01*
X73222350Y-99096309D01*
X73222343Y-99096327D01*
X73134884Y-99352685D01*
X73134881Y-99352699D01*
X73085681Y-99619068D01*
X73085680Y-99619075D01*
X73075787Y-99889763D01*
X69596500Y-99889763D01*
X69596500Y-81485000D01*
X79687500Y-81485000D01*
X79687500Y-81740815D01*
X79697907Y-81842673D01*
X79752594Y-82007709D01*
X79752596Y-82007714D01*
X79843870Y-82155691D01*
X79966808Y-82278629D01*
X80114785Y-82369903D01*
X80114790Y-82369905D01*
X80279826Y-82424592D01*
X80381684Y-82434999D01*
X80381697Y-82435000D01*
X80425000Y-82435000D01*
X80925000Y-82435000D01*
X80968303Y-82435000D01*
X80968315Y-82434999D01*
X81070173Y-82424592D01*
X81235209Y-82369905D01*
X81235214Y-82369903D01*
X81383191Y-82278629D01*
X81506128Y-82155692D01*
X81506659Y-82154832D01*
X81507180Y-82154363D01*
X81510612Y-82150023D01*
X81511353Y-82150608D01*
X81558601Y-82108102D01*
X81627563Y-82096872D01*
X81691648Y-82124708D01*
X81713913Y-82150398D01*
X81713993Y-82150336D01*
X81715390Y-82152103D01*
X81717738Y-82154812D01*
X81718468Y-82155995D01*
X81718474Y-82156003D01*
X81841496Y-82279025D01*
X81841500Y-82279028D01*
X81989566Y-82370357D01*
X81989569Y-82370358D01*
X81989575Y-82370362D01*
X82154725Y-82425087D01*
X82256652Y-82435500D01*
X82256657Y-82435500D01*
X82843343Y-82435500D01*
X82843348Y-82435500D01*
X82945275Y-82425087D01*
X83110425Y-82370362D01*
X83258503Y-82279026D01*
X83381526Y-82156003D01*
X83472862Y-82007925D01*
X83478637Y-81990495D01*
X83518410Y-81933051D01*
X83582926Y-81906228D01*
X83596343Y-81905500D01*
X84040395Y-81905500D01*
X84107434Y-81925185D01*
X84153189Y-81977989D01*
X84158101Y-81990496D01*
X84162685Y-82004331D01*
X84162687Y-82004336D01*
X84193880Y-82054908D01*
X84254788Y-82153656D01*
X84378844Y-82277712D01*
X84528166Y-82369814D01*
X84694703Y-82424999D01*
X84797491Y-82435500D01*
X85422508Y-82435499D01*
X85422516Y-82435498D01*
X85422519Y-82435498D01*
X85478802Y-82429748D01*
X85525297Y-82424999D01*
X85691834Y-82369814D01*
X85841156Y-82277712D01*
X85934819Y-82184049D01*
X85996142Y-82150564D01*
X86065834Y-82155548D01*
X86110181Y-82184049D01*
X86203844Y-82277712D01*
X86353166Y-82369814D01*
X86519703Y-82424999D01*
X86622491Y-82435500D01*
X87247508Y-82435499D01*
X87247516Y-82435498D01*
X87247519Y-82435498D01*
X87303802Y-82429748D01*
X87350297Y-82424999D01*
X87516834Y-82369814D01*
X87666156Y-82277712D01*
X87790212Y-82153656D01*
X87882314Y-82004334D01*
X87901811Y-81945493D01*
X87941584Y-81888051D01*
X88006100Y-81861228D01*
X88019517Y-81860500D01*
X89647745Y-81860500D01*
X89694665Y-81871765D01*
X89695101Y-81870557D01*
X89702432Y-81873197D01*
X89702433Y-81873197D01*
X89702435Y-81873198D01*
X89710413Y-81874981D01*
X89732603Y-81882191D01*
X89740105Y-81885438D01*
X89796846Y-81894424D01*
X89800627Y-81895146D01*
X89856667Y-81907673D01*
X89864835Y-81907416D01*
X89888124Y-81908881D01*
X89896196Y-81910160D01*
X89896197Y-81910159D01*
X89896199Y-81910160D01*
X89896200Y-81910160D01*
X89939063Y-81906107D01*
X89953358Y-81904755D01*
X89957224Y-81904512D01*
X90014627Y-81902709D01*
X90022467Y-81900430D01*
X90045400Y-81896055D01*
X90053533Y-81895287D01*
X90107586Y-81875826D01*
X90111212Y-81874647D01*
X90166390Y-81858618D01*
X90173417Y-81854461D01*
X90194541Y-81844521D01*
X90202229Y-81841754D01*
X90249744Y-81809461D01*
X90252997Y-81807397D01*
X90302420Y-81778170D01*
X90308189Y-81772400D01*
X90326182Y-81757514D01*
X90332938Y-81752924D01*
X90370929Y-81709829D01*
X90373564Y-81707024D01*
X93093786Y-78986802D01*
X93106048Y-78976980D01*
X93105865Y-78976759D01*
X93111867Y-78971792D01*
X93111877Y-78971786D01*
X93159241Y-78921348D01*
X93180120Y-78900470D01*
X93184373Y-78894986D01*
X93188150Y-78890563D01*
X93220062Y-78856582D01*
X93229714Y-78839023D01*
X93240389Y-78822772D01*
X93252674Y-78806936D01*
X93271186Y-78764152D01*
X93273742Y-78758935D01*
X93296197Y-78718092D01*
X93301180Y-78698680D01*
X93307477Y-78680291D01*
X93315438Y-78661895D01*
X93322729Y-78615853D01*
X93323908Y-78610162D01*
X93335500Y-78565019D01*
X93335500Y-78544983D01*
X93337027Y-78525582D01*
X93340160Y-78505804D01*
X93335775Y-78459415D01*
X93335500Y-78453577D01*
X93335500Y-76234549D01*
X93355185Y-76167510D01*
X93407989Y-76121755D01*
X93416152Y-76118373D01*
X93522337Y-76078769D01*
X93767213Y-75945056D01*
X93990568Y-75777855D01*
X94187855Y-75580568D01*
X94355056Y-75357213D01*
X94488769Y-75112337D01*
X94586271Y-74850923D01*
X94645578Y-74578294D01*
X94665482Y-74300000D01*
X94645578Y-74021706D01*
X94586271Y-73749077D01*
X94488769Y-73487663D01*
X94444177Y-73406000D01*
X94355059Y-73242792D01*
X94355054Y-73242784D01*
X94187861Y-73019439D01*
X94187845Y-73019421D01*
X93990578Y-72822154D01*
X93990560Y-72822138D01*
X93767215Y-72654945D01*
X93767207Y-72654940D01*
X93522342Y-72521233D01*
X93522338Y-72521231D01*
X93423230Y-72484266D01*
X93260923Y-72423729D01*
X93260919Y-72423728D01*
X93260916Y-72423727D01*
X92988299Y-72364422D01*
X92710001Y-72344518D01*
X92709999Y-72344518D01*
X92431700Y-72364422D01*
X92159083Y-72423727D01*
X92159078Y-72423728D01*
X92159077Y-72423729D01*
X92095875Y-72447301D01*
X91897661Y-72521231D01*
X91897657Y-72521233D01*
X91652792Y-72654940D01*
X91652784Y-72654945D01*
X91429439Y-72822138D01*
X91429421Y-72822154D01*
X91232154Y-73019421D01*
X91232138Y-73019439D01*
X91064945Y-73242784D01*
X91064940Y-73242792D01*
X90931233Y-73487657D01*
X90931231Y-73487661D01*
X90833727Y-73749083D01*
X90774422Y-74021700D01*
X90754518Y-74299998D01*
X90754518Y-74300001D01*
X90774422Y-74578299D01*
X90826008Y-74815431D01*
X90833729Y-74850923D01*
X90872255Y-74954216D01*
X90931231Y-75112338D01*
X90931233Y-75112342D01*
X91064940Y-75357207D01*
X91064945Y-75357215D01*
X91232138Y-75580560D01*
X91232154Y-75580578D01*
X91429421Y-75777845D01*
X91429439Y-75777861D01*
X91652784Y-75945054D01*
X91652792Y-75945059D01*
X91897657Y-76078766D01*
X91897665Y-76078770D01*
X91927505Y-76089899D01*
X92003833Y-76118368D01*
X92059766Y-76160238D01*
X92084184Y-76225702D01*
X92084500Y-76234549D01*
X92084500Y-78175547D01*
X92064815Y-78242586D01*
X92048181Y-78263228D01*
X89738228Y-80573181D01*
X89676905Y-80606666D01*
X89650547Y-80609500D01*
X88019517Y-80609500D01*
X87952478Y-80589815D01*
X87906723Y-80537011D01*
X87901811Y-80524505D01*
X87901811Y-80524504D01*
X87882314Y-80465666D01*
X87790212Y-80316344D01*
X87666156Y-80192288D01*
X87516834Y-80100186D01*
X87350297Y-80045001D01*
X87350295Y-80045000D01*
X87247510Y-80034500D01*
X86622498Y-80034500D01*
X86622480Y-80034501D01*
X86519703Y-80045000D01*
X86519700Y-80045001D01*
X86353168Y-80100185D01*
X86353163Y-80100187D01*
X86203842Y-80192289D01*
X86110181Y-80285951D01*
X86048858Y-80319436D01*
X85979166Y-80314452D01*
X85934819Y-80285951D01*
X85841157Y-80192289D01*
X85841156Y-80192288D01*
X85691834Y-80100186D01*
X85525297Y-80045001D01*
X85525295Y-80045000D01*
X85422510Y-80034500D01*
X84797498Y-80034500D01*
X84797480Y-80034501D01*
X84694703Y-80045000D01*
X84694700Y-80045001D01*
X84528168Y-80100185D01*
X84528163Y-80100187D01*
X84378842Y-80192289D01*
X84254789Y-80316342D01*
X84162687Y-80465663D01*
X84162685Y-80465668D01*
X84160085Y-80473514D01*
X84128276Y-80569505D01*
X84088505Y-80626949D01*
X84023990Y-80653772D01*
X84010572Y-80654500D01*
X83626166Y-80654500D01*
X83559127Y-80634815D01*
X83513372Y-80582011D01*
X83508460Y-80569504D01*
X83507434Y-80566407D01*
X83472862Y-80462075D01*
X83472858Y-80462069D01*
X83472857Y-80462066D01*
X83381528Y-80314000D01*
X83381525Y-80313996D01*
X83258503Y-80190974D01*
X83258499Y-80190971D01*
X83110433Y-80099642D01*
X83110427Y-80099639D01*
X83110425Y-80099638D01*
X83079052Y-80089242D01*
X82945276Y-80044913D01*
X82843355Y-80034500D01*
X82843348Y-80034500D01*
X82256652Y-80034500D01*
X82256644Y-80034500D01*
X82154723Y-80044913D01*
X81989577Y-80099637D01*
X81989566Y-80099642D01*
X81841500Y-80190971D01*
X81841496Y-80190974D01*
X81718474Y-80313996D01*
X81718467Y-80314005D01*
X81717734Y-80315194D01*
X81717019Y-80315836D01*
X81713993Y-80319664D01*
X81713338Y-80319146D01*
X81665780Y-80361911D01*
X81596816Y-80373123D01*
X81532738Y-80345271D01*
X81510738Y-80319877D01*
X81510612Y-80319977D01*
X81508385Y-80317161D01*
X81506663Y-80315173D01*
X81506130Y-80314309D01*
X81383191Y-80191370D01*
X81235214Y-80100096D01*
X81235209Y-80100094D01*
X81070173Y-80045407D01*
X80968315Y-80035000D01*
X80925000Y-80035000D01*
X80925000Y-82435000D01*
X80425000Y-82435000D01*
X80425000Y-81485000D01*
X79687500Y-81485000D01*
X69596500Y-81485000D01*
X69596500Y-80985000D01*
X79687500Y-80985000D01*
X80425000Y-80985000D01*
X80425000Y-80035000D01*
X80381684Y-80035000D01*
X80279826Y-80045407D01*
X80114790Y-80100094D01*
X80114785Y-80100096D01*
X79966808Y-80191370D01*
X79843870Y-80314308D01*
X79752596Y-80462285D01*
X79752594Y-80462290D01*
X79697907Y-80627326D01*
X79687500Y-80729184D01*
X79687500Y-80985000D01*
X69596500Y-80985000D01*
X69596500Y-69850007D01*
X86695280Y-69850007D01*
X86714140Y-70137757D01*
X86714144Y-70137784D01*
X86770402Y-70420615D01*
X86770407Y-70420635D01*
X86863100Y-70693702D01*
X86863104Y-70693712D01*
X86990653Y-70952356D01*
X87150873Y-71192141D01*
X87150878Y-71192147D01*
X87175837Y-71220607D01*
X88183337Y-70213107D01*
X88270577Y-70351948D01*
X88398052Y-70479423D01*
X88536891Y-70566661D01*
X87529391Y-71574161D01*
X87529391Y-71574162D01*
X87557852Y-71599121D01*
X87557858Y-71599126D01*
X87797643Y-71759346D01*
X88056287Y-71886895D01*
X88056297Y-71886899D01*
X88329364Y-71979592D01*
X88329384Y-71979597D01*
X88612215Y-72035855D01*
X88612242Y-72035859D01*
X88899993Y-72054720D01*
X88900007Y-72054720D01*
X89187757Y-72035859D01*
X89187784Y-72035855D01*
X89470615Y-71979597D01*
X89470635Y-71979592D01*
X89743702Y-71886899D01*
X89743712Y-71886895D01*
X90002356Y-71759346D01*
X90242146Y-71599122D01*
X90270607Y-71574161D01*
X90270607Y-71574160D01*
X89263108Y-70566661D01*
X89401948Y-70479423D01*
X89529423Y-70351948D01*
X89616661Y-70213108D01*
X90624160Y-71220607D01*
X90624161Y-71220607D01*
X90649122Y-71192146D01*
X90809346Y-70952356D01*
X90936895Y-70693712D01*
X90936899Y-70693702D01*
X91007743Y-70485000D01*
X94314778Y-70485000D01*
X94324601Y-70634877D01*
X94333644Y-70772837D01*
X94333646Y-70772849D01*
X94389917Y-71055745D01*
X94389921Y-71055760D01*
X94482642Y-71328905D01*
X94610219Y-71587606D01*
X94610223Y-71587613D01*
X94770478Y-71827452D01*
X94960672Y-72044327D01*
X95177547Y-72234521D01*
X95417386Y-72394776D01*
X95417393Y-72394780D01*
X95676093Y-72522357D01*
X95676096Y-72522358D01*
X95676098Y-72522359D01*
X95810360Y-72567934D01*
X95867512Y-72608122D01*
X95893866Y-72672831D01*
X95894500Y-72685353D01*
X95894500Y-79237255D01*
X95892775Y-79252872D01*
X95893061Y-79252899D01*
X95892326Y-79260665D01*
X95894500Y-79329814D01*
X95894500Y-79359343D01*
X95894501Y-79359360D01*
X95895368Y-79366231D01*
X95895826Y-79372050D01*
X95897290Y-79418624D01*
X95897291Y-79418627D01*
X95902880Y-79437867D01*
X95906824Y-79456911D01*
X95909336Y-79476792D01*
X95926490Y-79520119D01*
X95928382Y-79525647D01*
X95941381Y-79570388D01*
X95951580Y-79587634D01*
X95960138Y-79605103D01*
X95967514Y-79623732D01*
X95994898Y-79661423D01*
X95998106Y-79666307D01*
X96021827Y-79706416D01*
X96021833Y-79706424D01*
X96035990Y-79720580D01*
X96048627Y-79735375D01*
X96060406Y-79751587D01*
X96090338Y-79776349D01*
X96096309Y-79781288D01*
X96100620Y-79785210D01*
X96762791Y-80447381D01*
X97410681Y-81095271D01*
X97444166Y-81156594D01*
X97447000Y-81182952D01*
X97447000Y-81740855D01*
X97457413Y-81842776D01*
X97512137Y-82007922D01*
X97512142Y-82007933D01*
X97603471Y-82155999D01*
X97603474Y-82156003D01*
X97726496Y-82279025D01*
X97726500Y-82279028D01*
X97874566Y-82370357D01*
X97874569Y-82370358D01*
X97874575Y-82370362D01*
X98039725Y-82425087D01*
X98141652Y-82435500D01*
X98141657Y-82435500D01*
X98728343Y-82435500D01*
X98728348Y-82435500D01*
X98830275Y-82425087D01*
X98995425Y-82370362D01*
X99143503Y-82279026D01*
X99266526Y-82156003D01*
X99266958Y-82155301D01*
X99267381Y-82154921D01*
X99271007Y-82150336D01*
X99271790Y-82150955D01*
X99318902Y-82108575D01*
X99387864Y-82097349D01*
X99451948Y-82125188D01*
X99473842Y-82150455D01*
X99473993Y-82150336D01*
X99476643Y-82153687D01*
X99478040Y-82155299D01*
X99478469Y-82155995D01*
X99478475Y-82156004D01*
X99601496Y-82279025D01*
X99601500Y-82279028D01*
X99749566Y-82370357D01*
X99749569Y-82370358D01*
X99749575Y-82370362D01*
X99914725Y-82425087D01*
X100016652Y-82435500D01*
X100016657Y-82435500D01*
X100603343Y-82435500D01*
X100603348Y-82435500D01*
X100705275Y-82425087D01*
X100870425Y-82370362D01*
X101018503Y-82279026D01*
X101141526Y-82156003D01*
X101232862Y-82007925D01*
X101253549Y-81945495D01*
X101293322Y-81888051D01*
X101357838Y-81861228D01*
X101371255Y-81860500D01*
X101785483Y-81860500D01*
X101852522Y-81880185D01*
X101898277Y-81932989D01*
X101903189Y-81945495D01*
X101922686Y-82004333D01*
X101922687Y-82004336D01*
X101953880Y-82054908D01*
X102014788Y-82153656D01*
X102138844Y-82277712D01*
X102288166Y-82369814D01*
X102454703Y-82424999D01*
X102557491Y-82435500D01*
X103182508Y-82435499D01*
X103182516Y-82435498D01*
X103182519Y-82435498D01*
X103238802Y-82429748D01*
X103285297Y-82424999D01*
X103451834Y-82369814D01*
X103601156Y-82277712D01*
X103694819Y-82184049D01*
X103756142Y-82150564D01*
X103825834Y-82155548D01*
X103870181Y-82184049D01*
X103963844Y-82277712D01*
X104113166Y-82369814D01*
X104279703Y-82424999D01*
X104382491Y-82435500D01*
X105007508Y-82435499D01*
X105007516Y-82435498D01*
X105007519Y-82435498D01*
X105063802Y-82429748D01*
X105110297Y-82424999D01*
X105267621Y-82372866D01*
X105337444Y-82370465D01*
X105394302Y-82402892D01*
X109297038Y-86305628D01*
X109330523Y-86366951D01*
X109332678Y-86380347D01*
X109340139Y-86451338D01*
X109350326Y-86548256D01*
X109350327Y-86548259D01*
X109408818Y-86728277D01*
X109408821Y-86728284D01*
X109503467Y-86892216D01*
X109624401Y-87026526D01*
X109630129Y-87032888D01*
X109783265Y-87144148D01*
X109783270Y-87144151D01*
X109956192Y-87221142D01*
X109956197Y-87221144D01*
X110141354Y-87260500D01*
X110141355Y-87260500D01*
X110330644Y-87260500D01*
X110330646Y-87260500D01*
X110515803Y-87221144D01*
X110688730Y-87144151D01*
X110841871Y-87032888D01*
X110968533Y-86892216D01*
X111063179Y-86728284D01*
X111121674Y-86548256D01*
X111141460Y-86360000D01*
X111121674Y-86171744D01*
X111063179Y-85991716D01*
X110968533Y-85827784D01*
X110841871Y-85687112D01*
X110841870Y-85687111D01*
X110688734Y-85575851D01*
X110688729Y-85575848D01*
X110515807Y-85498857D01*
X110515802Y-85498855D01*
X110370001Y-85467865D01*
X110330646Y-85459500D01*
X110330645Y-85459500D01*
X110271453Y-85459500D01*
X110204414Y-85439815D01*
X110183772Y-85423181D01*
X106245591Y-81485000D01*
X109502500Y-81485000D01*
X109502500Y-81740815D01*
X109512907Y-81842673D01*
X109567594Y-82007709D01*
X109567596Y-82007714D01*
X109658870Y-82155691D01*
X109781808Y-82278629D01*
X109929785Y-82369903D01*
X109929790Y-82369905D01*
X110094826Y-82424592D01*
X110196684Y-82434999D01*
X110196697Y-82435000D01*
X110240000Y-82435000D01*
X110740000Y-82435000D01*
X110783303Y-82435000D01*
X110783315Y-82434999D01*
X110885173Y-82424592D01*
X111050209Y-82369905D01*
X111050214Y-82369903D01*
X111198191Y-82278629D01*
X111321128Y-82155692D01*
X111321659Y-82154832D01*
X111322180Y-82154363D01*
X111325612Y-82150023D01*
X111326353Y-82150608D01*
X111373601Y-82108102D01*
X111442563Y-82096872D01*
X111506648Y-82124708D01*
X111528913Y-82150398D01*
X111528993Y-82150336D01*
X111530390Y-82152103D01*
X111532738Y-82154812D01*
X111533468Y-82155995D01*
X111533474Y-82156003D01*
X111656496Y-82279025D01*
X111656500Y-82279028D01*
X111804566Y-82370357D01*
X111804569Y-82370358D01*
X111804575Y-82370362D01*
X111969725Y-82425087D01*
X112071652Y-82435500D01*
X112071657Y-82435500D01*
X112658343Y-82435500D01*
X112658348Y-82435500D01*
X112760275Y-82425087D01*
X112925425Y-82370362D01*
X113073503Y-82279026D01*
X113196526Y-82156003D01*
X113287862Y-82007925D01*
X113308549Y-81945495D01*
X113348322Y-81888051D01*
X113412838Y-81861228D01*
X113426255Y-81860500D01*
X113676483Y-81860500D01*
X113743522Y-81880185D01*
X113789277Y-81932989D01*
X113794189Y-81945495D01*
X113813686Y-82004333D01*
X113813687Y-82004336D01*
X113844880Y-82054908D01*
X113905788Y-82153656D01*
X114029844Y-82277712D01*
X114179166Y-82369814D01*
X114345703Y-82424999D01*
X114448491Y-82435500D01*
X115073508Y-82435499D01*
X115073516Y-82435498D01*
X115073519Y-82435498D01*
X115129802Y-82429748D01*
X115176297Y-82424999D01*
X115342834Y-82369814D01*
X115492156Y-82277712D01*
X115585819Y-82184049D01*
X115647142Y-82150564D01*
X115716834Y-82155548D01*
X115761181Y-82184049D01*
X115854844Y-82277712D01*
X116004166Y-82369814D01*
X116170703Y-82424999D01*
X116273491Y-82435500D01*
X116898508Y-82435499D01*
X116898516Y-82435498D01*
X116898519Y-82435498D01*
X116954802Y-82429748D01*
X117001297Y-82424999D01*
X117167834Y-82369814D01*
X117317156Y-82277712D01*
X117441212Y-82153656D01*
X117533314Y-82004334D01*
X117552811Y-81945493D01*
X117592584Y-81888051D01*
X117657100Y-81861228D01*
X117670517Y-81860500D01*
X122580548Y-81860500D01*
X122647587Y-81880185D01*
X122668229Y-81896819D01*
X124483991Y-83712581D01*
X124496626Y-83727374D01*
X124508404Y-83743584D01*
X124508406Y-83743587D01*
X124544309Y-83773288D01*
X124548620Y-83777210D01*
X124553530Y-83782120D01*
X124553533Y-83782123D01*
X124576865Y-83800222D01*
X124601001Y-83820187D01*
X124630177Y-83844324D01*
X124630183Y-83844326D01*
X124636766Y-83848505D01*
X124636611Y-83848748D01*
X124640207Y-83850952D01*
X124640354Y-83850705D01*
X124647060Y-83854670D01*
X124647064Y-83854674D01*
X124647068Y-83854675D01*
X124647072Y-83854678D01*
X124710587Y-83882162D01*
X124773178Y-83911616D01*
X124780599Y-83914027D01*
X124780510Y-83914300D01*
X124784534Y-83915538D01*
X124784615Y-83915261D01*
X124792095Y-83917433D01*
X124792105Y-83917438D01*
X124860448Y-83928262D01*
X124928412Y-83941227D01*
X124928418Y-83941226D01*
X124936195Y-83941716D01*
X124936176Y-83942004D01*
X124940383Y-83942202D01*
X124940393Y-83941915D01*
X124948192Y-83942160D01*
X124948194Y-83942159D01*
X124948196Y-83942160D01*
X125017073Y-83935649D01*
X125086138Y-83931304D01*
X125086142Y-83931302D01*
X125093804Y-83929841D01*
X125093858Y-83930124D01*
X125097981Y-83929270D01*
X125097918Y-83928988D01*
X125105521Y-83927288D01*
X125105533Y-83927287D01*
X125170643Y-83903846D01*
X125236441Y-83882467D01*
X125236447Y-83882462D01*
X125243506Y-83879142D01*
X125243629Y-83879405D01*
X125247407Y-83877554D01*
X125247276Y-83877296D01*
X125254225Y-83873755D01*
X125254229Y-83873754D01*
X125311486Y-83834841D01*
X125369877Y-83797786D01*
X125369882Y-83797780D01*
X125375886Y-83792814D01*
X125376069Y-83793036D01*
X125379272Y-83790300D01*
X125379083Y-83790086D01*
X125384932Y-83784928D01*
X125384931Y-83784928D01*
X125384938Y-83784924D01*
X125430709Y-83733006D01*
X125478062Y-83682582D01*
X125478064Y-83682577D01*
X125482648Y-83676270D01*
X125482882Y-83676440D01*
X125485305Y-83672992D01*
X125485066Y-83672830D01*
X125489450Y-83666379D01*
X125520870Y-83604713D01*
X125554196Y-83544093D01*
X125554197Y-83544092D01*
X125554198Y-83544087D01*
X125557067Y-83536841D01*
X125557336Y-83536947D01*
X125558827Y-83533000D01*
X125558556Y-83532903D01*
X125561197Y-83525566D01*
X125561198Y-83525565D01*
X125576291Y-83458041D01*
X125593500Y-83391019D01*
X125593500Y-83391013D01*
X125594478Y-83383276D01*
X125594761Y-83383311D01*
X125595224Y-83379122D01*
X125594939Y-83379095D01*
X125595673Y-83371333D01*
X125593500Y-83302172D01*
X125593500Y-76160742D01*
X125595224Y-76145122D01*
X125594939Y-76145095D01*
X125595673Y-76137333D01*
X125593500Y-76068172D01*
X125593500Y-76038656D01*
X125593500Y-76038650D01*
X125592631Y-76031779D01*
X125592173Y-76025952D01*
X125590710Y-75979373D01*
X125585119Y-75960130D01*
X125581173Y-75941078D01*
X125578664Y-75921208D01*
X125561504Y-75877867D01*
X125559624Y-75872379D01*
X125546618Y-75827610D01*
X125536422Y-75810370D01*
X125527861Y-75792894D01*
X125520487Y-75774270D01*
X125520486Y-75774268D01*
X125493079Y-75736545D01*
X125489888Y-75731686D01*
X125482564Y-75719302D01*
X125466170Y-75691580D01*
X125466168Y-75691578D01*
X125466165Y-75691574D01*
X125452006Y-75677415D01*
X125439368Y-75662619D01*
X125427594Y-75646413D01*
X125391688Y-75616709D01*
X125387376Y-75612786D01*
X125002884Y-75228294D01*
X124969400Y-75166972D01*
X124974383Y-75097282D01*
X125066271Y-74850923D01*
X125125578Y-74578294D01*
X125145482Y-74300000D01*
X125125578Y-74021706D01*
X125066271Y-73749077D01*
X124968769Y-73487663D01*
X124924177Y-73406000D01*
X124835059Y-73242792D01*
X124835054Y-73242784D01*
X124667861Y-73019439D01*
X124667845Y-73019421D01*
X124470578Y-72822154D01*
X124470560Y-72822138D01*
X124247215Y-72654945D01*
X124247207Y-72654940D01*
X124002342Y-72521233D01*
X124002338Y-72521231D01*
X123903230Y-72484266D01*
X123740923Y-72423729D01*
X123740919Y-72423728D01*
X123740916Y-72423727D01*
X123468299Y-72364422D01*
X123190001Y-72344518D01*
X123189999Y-72344518D01*
X122911700Y-72364422D01*
X122639083Y-72423727D01*
X122639078Y-72423728D01*
X122639077Y-72423729D01*
X122575875Y-72447301D01*
X122377661Y-72521231D01*
X122377657Y-72521233D01*
X122132792Y-72654940D01*
X122132784Y-72654945D01*
X121909439Y-72822138D01*
X121909421Y-72822154D01*
X121712154Y-73019421D01*
X121712138Y-73019439D01*
X121544945Y-73242784D01*
X121544940Y-73242792D01*
X121411233Y-73487657D01*
X121411231Y-73487661D01*
X121313727Y-73749083D01*
X121254422Y-74021700D01*
X121234518Y-74299998D01*
X121234518Y-74300001D01*
X121254422Y-74578299D01*
X121306008Y-74815431D01*
X121313729Y-74850923D01*
X121352255Y-74954216D01*
X121411231Y-75112338D01*
X121411233Y-75112342D01*
X121544940Y-75357207D01*
X121544945Y-75357215D01*
X121712138Y-75580560D01*
X121712154Y-75580578D01*
X121909421Y-75777845D01*
X121909439Y-75777861D01*
X122132784Y-75945054D01*
X122132792Y-75945059D01*
X122377657Y-76078766D01*
X122377661Y-76078768D01*
X122377663Y-76078769D01*
X122639077Y-76176271D01*
X122775391Y-76205924D01*
X122911700Y-76235577D01*
X122911702Y-76235577D01*
X122911706Y-76235578D01*
X123159014Y-76253265D01*
X123189999Y-76255482D01*
X123190000Y-76255482D01*
X123190001Y-76255482D01*
X123217881Y-76253487D01*
X123468294Y-76235578D01*
X123473025Y-76234549D01*
X123513693Y-76225702D01*
X123740923Y-76176271D01*
X123987282Y-76084383D01*
X124056972Y-76079400D01*
X124118295Y-76112885D01*
X124306181Y-76300771D01*
X124339666Y-76362094D01*
X124342500Y-76388452D01*
X124342500Y-81502547D01*
X124322815Y-81569586D01*
X124270011Y-81615341D01*
X124200853Y-81625285D01*
X124137297Y-81596260D01*
X124130819Y-81590228D01*
X123391803Y-80851212D01*
X123381980Y-80838950D01*
X123381759Y-80839134D01*
X123376786Y-80833123D01*
X123340782Y-80799313D01*
X123326364Y-80785773D01*
X123315919Y-80775328D01*
X123305475Y-80764883D01*
X123299986Y-80760625D01*
X123295561Y-80756847D01*
X123261582Y-80724938D01*
X123261580Y-80724936D01*
X123261577Y-80724935D01*
X123244029Y-80715288D01*
X123227763Y-80704604D01*
X123211933Y-80692325D01*
X123169168Y-80673818D01*
X123163922Y-80671248D01*
X123123093Y-80648803D01*
X123123092Y-80648802D01*
X123103693Y-80643822D01*
X123085281Y-80637518D01*
X123066898Y-80629562D01*
X123066892Y-80629560D01*
X123020874Y-80622272D01*
X123015152Y-80621087D01*
X122970021Y-80609500D01*
X122970019Y-80609500D01*
X122949984Y-80609500D01*
X122930586Y-80607973D01*
X122922112Y-80606631D01*
X122910805Y-80604840D01*
X122910804Y-80604840D01*
X122864416Y-80609225D01*
X122858578Y-80609500D01*
X117670517Y-80609500D01*
X117603478Y-80589815D01*
X117557723Y-80537011D01*
X117552811Y-80524505D01*
X117552811Y-80524504D01*
X117533314Y-80465666D01*
X117441212Y-80316344D01*
X117317156Y-80192288D01*
X117167834Y-80100186D01*
X117001297Y-80045001D01*
X117001295Y-80045000D01*
X116898510Y-80034500D01*
X116273498Y-80034500D01*
X116273480Y-80034501D01*
X116170703Y-80045000D01*
X116170700Y-80045001D01*
X116004168Y-80100185D01*
X116004163Y-80100187D01*
X115854842Y-80192289D01*
X115761181Y-80285951D01*
X115699858Y-80319436D01*
X115630166Y-80314452D01*
X115585819Y-80285951D01*
X115492157Y-80192289D01*
X115492156Y-80192288D01*
X115342834Y-80100186D01*
X115176297Y-80045001D01*
X115176295Y-80045000D01*
X115073510Y-80034500D01*
X114448498Y-80034500D01*
X114448480Y-80034501D01*
X114345703Y-80045000D01*
X114345700Y-80045001D01*
X114179168Y-80100185D01*
X114179163Y-80100187D01*
X114029842Y-80192289D01*
X113905789Y-80316342D01*
X113813687Y-80465663D01*
X113813686Y-80465666D01*
X113794189Y-80524505D01*
X113754416Y-80581949D01*
X113689900Y-80608772D01*
X113676483Y-80609500D01*
X113426255Y-80609500D01*
X113359216Y-80589815D01*
X113313461Y-80537011D01*
X113308549Y-80524504D01*
X113301297Y-80502620D01*
X113287862Y-80462075D01*
X113287856Y-80462066D01*
X113196528Y-80314000D01*
X113196525Y-80313996D01*
X113073503Y-80190974D01*
X113073499Y-80190971D01*
X112925433Y-80099642D01*
X112925427Y-80099639D01*
X112925425Y-80099638D01*
X112894052Y-80089242D01*
X112760276Y-80044913D01*
X112658355Y-80034500D01*
X112658348Y-80034500D01*
X112071652Y-80034500D01*
X112071644Y-80034500D01*
X111969723Y-80044913D01*
X111804577Y-80099637D01*
X111804566Y-80099642D01*
X111656500Y-80190971D01*
X111656496Y-80190974D01*
X111533474Y-80313996D01*
X111533467Y-80314005D01*
X111532734Y-80315194D01*
X111532019Y-80315836D01*
X111528993Y-80319664D01*
X111528338Y-80319146D01*
X111480780Y-80361911D01*
X111411816Y-80373123D01*
X111347738Y-80345271D01*
X111325738Y-80319877D01*
X111325612Y-80319977D01*
X111323385Y-80317161D01*
X111321663Y-80315173D01*
X111321130Y-80314309D01*
X111198191Y-80191370D01*
X111050214Y-80100096D01*
X111050209Y-80100094D01*
X110885173Y-80045407D01*
X110783315Y-80035000D01*
X110740000Y-80035000D01*
X110740000Y-82435000D01*
X110240000Y-82435000D01*
X110240000Y-81485000D01*
X109502500Y-81485000D01*
X106245591Y-81485000D01*
X105745591Y-80985000D01*
X109502500Y-80985000D01*
X110240000Y-80985000D01*
X110240000Y-80035000D01*
X110196684Y-80035000D01*
X110094826Y-80045407D01*
X109929790Y-80100094D01*
X109929785Y-80100096D01*
X109781808Y-80191370D01*
X109658870Y-80314308D01*
X109567596Y-80462285D01*
X109567594Y-80462290D01*
X109512907Y-80627326D01*
X109502500Y-80729184D01*
X109502500Y-80985000D01*
X105745591Y-80985000D01*
X105744318Y-80983727D01*
X105710833Y-80922404D01*
X105707999Y-80896046D01*
X105707999Y-80734998D01*
X105707998Y-80734981D01*
X105697499Y-80632203D01*
X105697498Y-80632200D01*
X105694056Y-80621814D01*
X105642314Y-80465666D01*
X105550212Y-80316344D01*
X105426156Y-80192288D01*
X105276834Y-80100186D01*
X105110297Y-80045001D01*
X105110295Y-80045000D01*
X105007510Y-80034500D01*
X104382498Y-80034500D01*
X104382480Y-80034501D01*
X104279703Y-80045000D01*
X104279700Y-80045001D01*
X104113168Y-80100185D01*
X104113163Y-80100187D01*
X103963842Y-80192289D01*
X103870181Y-80285951D01*
X103808858Y-80319436D01*
X103739166Y-80314452D01*
X103694819Y-80285951D01*
X103601157Y-80192289D01*
X103601156Y-80192288D01*
X103451834Y-80100186D01*
X103285297Y-80045001D01*
X103285295Y-80045000D01*
X103182510Y-80034500D01*
X102557498Y-80034500D01*
X102557480Y-80034501D01*
X102454703Y-80045000D01*
X102454700Y-80045001D01*
X102288168Y-80100185D01*
X102288163Y-80100187D01*
X102138842Y-80192289D01*
X102014789Y-80316342D01*
X101922687Y-80465663D01*
X101922686Y-80465666D01*
X101903189Y-80524505D01*
X101863416Y-80581949D01*
X101798900Y-80608772D01*
X101785483Y-80609500D01*
X101371255Y-80609500D01*
X101304216Y-80589815D01*
X101258461Y-80537011D01*
X101253549Y-80524504D01*
X101246297Y-80502620D01*
X101232862Y-80462075D01*
X101232856Y-80462066D01*
X101141528Y-80314000D01*
X101141525Y-80313996D01*
X101018503Y-80190974D01*
X101018499Y-80190971D01*
X100870433Y-80099642D01*
X100870427Y-80099639D01*
X100870425Y-80099638D01*
X100839052Y-80089242D01*
X100705276Y-80044913D01*
X100603355Y-80034500D01*
X100603348Y-80034500D01*
X100016652Y-80034500D01*
X100016644Y-80034500D01*
X99914723Y-80044913D01*
X99749577Y-80099637D01*
X99749566Y-80099642D01*
X99601500Y-80190971D01*
X99601496Y-80190974D01*
X99478474Y-80313996D01*
X99478471Y-80314000D01*
X99478038Y-80314703D01*
X99477614Y-80315083D01*
X99473993Y-80319664D01*
X99473210Y-80319045D01*
X99426090Y-80361428D01*
X99357128Y-80372649D01*
X99293046Y-80344806D01*
X99271157Y-80319544D01*
X99271007Y-80319664D01*
X99268359Y-80316315D01*
X99266962Y-80314703D01*
X99266528Y-80314000D01*
X99266525Y-80313996D01*
X99143503Y-80190974D01*
X99143499Y-80190971D01*
X98995433Y-80099642D01*
X98995427Y-80099639D01*
X98995425Y-80099638D01*
X98964052Y-80089242D01*
X98830276Y-80044913D01*
X98728355Y-80034500D01*
X98728348Y-80034500D01*
X98170452Y-80034500D01*
X98103413Y-80014815D01*
X98082771Y-79998181D01*
X97181819Y-79097228D01*
X97148334Y-79035905D01*
X97145500Y-79009547D01*
X97145500Y-72685353D01*
X97165185Y-72618314D01*
X97217989Y-72572559D01*
X97229627Y-72567938D01*
X97363902Y-72522359D01*
X97622611Y-72394778D01*
X97862454Y-72234520D01*
X98079327Y-72044327D01*
X98269520Y-71827454D01*
X98429778Y-71587611D01*
X98557359Y-71328902D01*
X98650081Y-71055753D01*
X98706356Y-70772839D01*
X98725222Y-70485000D01*
X98706356Y-70197161D01*
X98650081Y-69914247D01*
X98628274Y-69850007D01*
X117175280Y-69850007D01*
X117194140Y-70137757D01*
X117194144Y-70137784D01*
X117250402Y-70420615D01*
X117250407Y-70420635D01*
X117343100Y-70693702D01*
X117343104Y-70693712D01*
X117470653Y-70952356D01*
X117630873Y-71192141D01*
X117630878Y-71192147D01*
X117655837Y-71220607D01*
X118663337Y-70213107D01*
X118750577Y-70351948D01*
X118878052Y-70479423D01*
X119016891Y-70566661D01*
X118009391Y-71574161D01*
X118009391Y-71574162D01*
X118037852Y-71599121D01*
X118037858Y-71599126D01*
X118277643Y-71759346D01*
X118536287Y-71886895D01*
X118536297Y-71886899D01*
X118809364Y-71979592D01*
X118809384Y-71979597D01*
X119092215Y-72035855D01*
X119092242Y-72035859D01*
X119379993Y-72054720D01*
X119380007Y-72054720D01*
X119667757Y-72035859D01*
X119667784Y-72035855D01*
X119950615Y-71979597D01*
X119950635Y-71979592D01*
X120223702Y-71886899D01*
X120223712Y-71886895D01*
X120482356Y-71759346D01*
X120722146Y-71599122D01*
X120750607Y-71574161D01*
X120750607Y-71574160D01*
X119743108Y-70566661D01*
X119881948Y-70479423D01*
X120009423Y-70351948D01*
X120096661Y-70213108D01*
X121104160Y-71220607D01*
X121104161Y-71220607D01*
X121129122Y-71192146D01*
X121289346Y-70952356D01*
X121416895Y-70693712D01*
X121416899Y-70693702D01*
X121487743Y-70485000D01*
X124794778Y-70485000D01*
X124804601Y-70634877D01*
X124813644Y-70772837D01*
X124813646Y-70772849D01*
X124869917Y-71055745D01*
X124869921Y-71055760D01*
X124962642Y-71328905D01*
X125090219Y-71587606D01*
X125090223Y-71587613D01*
X125250478Y-71827452D01*
X125440672Y-72044327D01*
X125657547Y-72234521D01*
X125897386Y-72394776D01*
X125897393Y-72394780D01*
X126156093Y-72522357D01*
X126156096Y-72522358D01*
X126156098Y-72522359D01*
X126290360Y-72567934D01*
X126347512Y-72608122D01*
X126373866Y-72672831D01*
X126374500Y-72685353D01*
X126374500Y-78879755D01*
X126372775Y-78895372D01*
X126373061Y-78895399D01*
X126372326Y-78903165D01*
X126374500Y-78972314D01*
X126374500Y-79001843D01*
X126374501Y-79001860D01*
X126375368Y-79008731D01*
X126375826Y-79014550D01*
X126377290Y-79061124D01*
X126377291Y-79061127D01*
X126382880Y-79080367D01*
X126386824Y-79099411D01*
X126389336Y-79119292D01*
X126401145Y-79149119D01*
X126406490Y-79162619D01*
X126408382Y-79168147D01*
X126419178Y-79205307D01*
X126421382Y-79212890D01*
X126429190Y-79226094D01*
X126431580Y-79230134D01*
X126440138Y-79247603D01*
X126447514Y-79266232D01*
X126474898Y-79303923D01*
X126478106Y-79308807D01*
X126501827Y-79348916D01*
X126501833Y-79348924D01*
X126515990Y-79363080D01*
X126528628Y-79377876D01*
X126540405Y-79394086D01*
X126540406Y-79394087D01*
X126576309Y-79423788D01*
X126580620Y-79427710D01*
X127438861Y-80285951D01*
X128248181Y-81095271D01*
X128281666Y-81156594D01*
X128284500Y-81182952D01*
X128284500Y-81740855D01*
X128294913Y-81842776D01*
X128349637Y-82007922D01*
X128349642Y-82007933D01*
X128440971Y-82155999D01*
X128440974Y-82156003D01*
X128563996Y-82279025D01*
X128564000Y-82279028D01*
X128712066Y-82370357D01*
X128712069Y-82370358D01*
X128712075Y-82370362D01*
X128877225Y-82425087D01*
X128979152Y-82435500D01*
X128979157Y-82435500D01*
X129565843Y-82435500D01*
X129565848Y-82435500D01*
X129667775Y-82425087D01*
X129832925Y-82370362D01*
X129981003Y-82279026D01*
X130104026Y-82156003D01*
X130104458Y-82155301D01*
X130104881Y-82154921D01*
X130108507Y-82150336D01*
X130109290Y-82150955D01*
X130156402Y-82108575D01*
X130225364Y-82097349D01*
X130289448Y-82125188D01*
X130311342Y-82150455D01*
X130311493Y-82150336D01*
X130314143Y-82153687D01*
X130315540Y-82155299D01*
X130315969Y-82155995D01*
X130315975Y-82156004D01*
X130438996Y-82279025D01*
X130439000Y-82279028D01*
X130587066Y-82370357D01*
X130587069Y-82370358D01*
X130587075Y-82370362D01*
X130752225Y-82425087D01*
X130854152Y-82435500D01*
X130854157Y-82435500D01*
X131440843Y-82435500D01*
X131440848Y-82435500D01*
X131542775Y-82425087D01*
X131707925Y-82370362D01*
X131856003Y-82279026D01*
X131979026Y-82156003D01*
X132070362Y-82007925D01*
X132091049Y-81945495D01*
X132130822Y-81888051D01*
X132195338Y-81861228D01*
X132208755Y-81860500D01*
X132622983Y-81860500D01*
X132690022Y-81880185D01*
X132735777Y-81932989D01*
X132740689Y-81945495D01*
X132760186Y-82004333D01*
X132760187Y-82004336D01*
X132791380Y-82054908D01*
X132852288Y-82153656D01*
X132976344Y-82277712D01*
X133125666Y-82369814D01*
X133292203Y-82424999D01*
X133394991Y-82435500D01*
X134020008Y-82435499D01*
X134020016Y-82435498D01*
X134020019Y-82435498D01*
X134076302Y-82429748D01*
X134122797Y-82424999D01*
X134289334Y-82369814D01*
X134438656Y-82277712D01*
X134532319Y-82184049D01*
X134593642Y-82150564D01*
X134663334Y-82155548D01*
X134707681Y-82184049D01*
X134801344Y-82277712D01*
X134950666Y-82369814D01*
X135117203Y-82424999D01*
X135219991Y-82435500D01*
X135601547Y-82435499D01*
X135668586Y-82455183D01*
X135689228Y-82471818D01*
X139523038Y-86305628D01*
X139556523Y-86366951D01*
X139558678Y-86380347D01*
X139566139Y-86451338D01*
X139576326Y-86548256D01*
X139576327Y-86548259D01*
X139634818Y-86728277D01*
X139634821Y-86728284D01*
X139729467Y-86892216D01*
X139850401Y-87026526D01*
X139856129Y-87032888D01*
X140009265Y-87144148D01*
X140009270Y-87144151D01*
X140182192Y-87221142D01*
X140182197Y-87221144D01*
X140367354Y-87260500D01*
X140367355Y-87260500D01*
X140556644Y-87260500D01*
X140556646Y-87260500D01*
X140741803Y-87221144D01*
X140914730Y-87144151D01*
X141067871Y-87032888D01*
X141070788Y-87029647D01*
X141073600Y-87026526D01*
X141133087Y-86989879D01*
X141165748Y-86985500D01*
X164001257Y-86985500D01*
X164016877Y-86987224D01*
X164016904Y-86986939D01*
X164024660Y-86987671D01*
X164024667Y-86987673D01*
X164093814Y-86985500D01*
X164123350Y-86985500D01*
X164130228Y-86984630D01*
X164136041Y-86984172D01*
X164182627Y-86982709D01*
X164201869Y-86977117D01*
X164220912Y-86973174D01*
X164240792Y-86970664D01*
X164284122Y-86953507D01*
X164289646Y-86951617D01*
X164293396Y-86950527D01*
X164334390Y-86938618D01*
X164351629Y-86928422D01*
X164369103Y-86919862D01*
X164387727Y-86912488D01*
X164387727Y-86912487D01*
X164387732Y-86912486D01*
X164425449Y-86885082D01*
X164430305Y-86881892D01*
X164470420Y-86858170D01*
X164484589Y-86843999D01*
X164499379Y-86831368D01*
X164515587Y-86819594D01*
X164545299Y-86783676D01*
X164549212Y-86779376D01*
X166409786Y-84918802D01*
X166422048Y-84908980D01*
X166421865Y-84908759D01*
X166427867Y-84903792D01*
X166427877Y-84903786D01*
X166475241Y-84853348D01*
X166496120Y-84832470D01*
X166500373Y-84826986D01*
X166504150Y-84822563D01*
X166536062Y-84788582D01*
X166545714Y-84771023D01*
X166556389Y-84754772D01*
X166568674Y-84738936D01*
X166587186Y-84696152D01*
X166589742Y-84690935D01*
X166612197Y-84650092D01*
X166617180Y-84630680D01*
X166623477Y-84612291D01*
X166631438Y-84593895D01*
X166638729Y-84547853D01*
X166639908Y-84542162D01*
X166651500Y-84497019D01*
X166651500Y-84476983D01*
X166653027Y-84457582D01*
X166656160Y-84437804D01*
X166651775Y-84391415D01*
X166651500Y-84385577D01*
X166651500Y-82412087D01*
X166671185Y-82345048D01*
X166710402Y-82306548D01*
X166757156Y-82277712D01*
X166881212Y-82153656D01*
X166973314Y-82004334D01*
X167028499Y-81837797D01*
X167039000Y-81735009D01*
X167039000Y-81485000D01*
X170873500Y-81485000D01*
X170873500Y-81740815D01*
X170883907Y-81842673D01*
X170938594Y-82007709D01*
X170938596Y-82007714D01*
X171029870Y-82155691D01*
X171152808Y-82278629D01*
X171300785Y-82369903D01*
X171300790Y-82369905D01*
X171465826Y-82424592D01*
X171567684Y-82434999D01*
X171567697Y-82435000D01*
X171611000Y-82435000D01*
X172111000Y-82435000D01*
X172154303Y-82435000D01*
X172154315Y-82434999D01*
X172256173Y-82424592D01*
X172421209Y-82369905D01*
X172421214Y-82369903D01*
X172569191Y-82278629D01*
X172692128Y-82155692D01*
X172692659Y-82154832D01*
X172693180Y-82154363D01*
X172696612Y-82150023D01*
X172697353Y-82150608D01*
X172744601Y-82108102D01*
X172813563Y-82096872D01*
X172877648Y-82124708D01*
X172899913Y-82150398D01*
X172899993Y-82150336D01*
X172901390Y-82152103D01*
X172903738Y-82154812D01*
X172904468Y-82155995D01*
X172904474Y-82156003D01*
X173027496Y-82279025D01*
X173027500Y-82279028D01*
X173175566Y-82370357D01*
X173175569Y-82370358D01*
X173175575Y-82370362D01*
X173340725Y-82425087D01*
X173442652Y-82435500D01*
X173442657Y-82435500D01*
X174029343Y-82435500D01*
X174029348Y-82435500D01*
X174131275Y-82425087D01*
X174296425Y-82370362D01*
X174444503Y-82279026D01*
X174567526Y-82156003D01*
X174658862Y-82007925D01*
X174679549Y-81945495D01*
X174719322Y-81888051D01*
X174783838Y-81861228D01*
X174797255Y-81860500D01*
X175144483Y-81860500D01*
X175211522Y-81880185D01*
X175257277Y-81932989D01*
X175262189Y-81945495D01*
X175281686Y-82004333D01*
X175281687Y-82004336D01*
X175312880Y-82054908D01*
X175373788Y-82153656D01*
X175497844Y-82277712D01*
X175647166Y-82369814D01*
X175813703Y-82424999D01*
X175916491Y-82435500D01*
X176541508Y-82435499D01*
X176541516Y-82435498D01*
X176541519Y-82435498D01*
X176597802Y-82429748D01*
X176644297Y-82424999D01*
X176810834Y-82369814D01*
X176960156Y-82277712D01*
X177053819Y-82184049D01*
X177115142Y-82150564D01*
X177184834Y-82155548D01*
X177229181Y-82184049D01*
X177322844Y-82277712D01*
X177472166Y-82369814D01*
X177638703Y-82424999D01*
X177741491Y-82435500D01*
X178366508Y-82435499D01*
X178366516Y-82435498D01*
X178366519Y-82435498D01*
X178422802Y-82429748D01*
X178469297Y-82424999D01*
X178635834Y-82369814D01*
X178785156Y-82277712D01*
X178909212Y-82153656D01*
X179001314Y-82004334D01*
X179056499Y-81837797D01*
X179067000Y-81735009D01*
X179066999Y-80734992D01*
X179066402Y-80729152D01*
X179056499Y-80632203D01*
X179056498Y-80632200D01*
X179053056Y-80621814D01*
X179001314Y-80465666D01*
X179001311Y-80465662D01*
X178998262Y-80459121D01*
X178999856Y-80458377D01*
X178983838Y-80399841D01*
X179004759Y-80333177D01*
X179020131Y-80314457D01*
X183221706Y-76112883D01*
X183283027Y-76079400D01*
X183352717Y-76084383D01*
X183599077Y-76176271D01*
X183735391Y-76205924D01*
X183871700Y-76235577D01*
X183871702Y-76235577D01*
X183871706Y-76235578D01*
X184119014Y-76253265D01*
X184149999Y-76255482D01*
X184150000Y-76255482D01*
X184150001Y-76255482D01*
X184177881Y-76253487D01*
X184428294Y-76235578D01*
X184433025Y-76234549D01*
X184473693Y-76225702D01*
X184700923Y-76176271D01*
X184962337Y-76078769D01*
X185207213Y-75945056D01*
X185430568Y-75777855D01*
X185627855Y-75580568D01*
X185795056Y-75357213D01*
X185928769Y-75112337D01*
X186026271Y-74850923D01*
X186085578Y-74578294D01*
X186105482Y-74300000D01*
X186085578Y-74021706D01*
X186026271Y-73749077D01*
X185928769Y-73487663D01*
X185884177Y-73406000D01*
X185795059Y-73242792D01*
X185795054Y-73242784D01*
X185627861Y-73019439D01*
X185627845Y-73019421D01*
X185430578Y-72822154D01*
X185430560Y-72822138D01*
X185207215Y-72654945D01*
X185207207Y-72654940D01*
X184962342Y-72521233D01*
X184962338Y-72521231D01*
X184863230Y-72484266D01*
X184700923Y-72423729D01*
X184700919Y-72423728D01*
X184700916Y-72423727D01*
X184428299Y-72364422D01*
X184150001Y-72344518D01*
X184149999Y-72344518D01*
X183871700Y-72364422D01*
X183599083Y-72423727D01*
X183599078Y-72423728D01*
X183599077Y-72423729D01*
X183535875Y-72447301D01*
X183337661Y-72521231D01*
X183337657Y-72521233D01*
X183092792Y-72654940D01*
X183092784Y-72654945D01*
X182869439Y-72822138D01*
X182869421Y-72822154D01*
X182672154Y-73019421D01*
X182672138Y-73019439D01*
X182504945Y-73242784D01*
X182504940Y-73242792D01*
X182371233Y-73487657D01*
X182371231Y-73487661D01*
X182273727Y-73749083D01*
X182214422Y-74021700D01*
X182194518Y-74299998D01*
X182194518Y-74300001D01*
X182214422Y-74578299D01*
X182266008Y-74815431D01*
X182273729Y-74850923D01*
X182312255Y-74954216D01*
X182365615Y-75097280D01*
X182370599Y-75166971D01*
X182337114Y-75228294D01*
X177670208Y-79895199D01*
X177657951Y-79905020D01*
X177658134Y-79905241D01*
X177652123Y-79910213D01*
X177604772Y-79960636D01*
X177583889Y-79981519D01*
X177583877Y-79981532D01*
X177579621Y-79987017D01*
X177575837Y-79991447D01*
X177543937Y-80025418D01*
X177543936Y-80025420D01*
X177534286Y-80042973D01*
X177523603Y-80059236D01*
X177521372Y-80062112D01*
X177475813Y-80098484D01*
X177472174Y-80100181D01*
X177322842Y-80192289D01*
X177229181Y-80285951D01*
X177167858Y-80319436D01*
X177098166Y-80314452D01*
X177053819Y-80285951D01*
X176960157Y-80192289D01*
X176960156Y-80192288D01*
X176810834Y-80100186D01*
X176644297Y-80045001D01*
X176644295Y-80045000D01*
X176541510Y-80034500D01*
X175916498Y-80034500D01*
X175916480Y-80034501D01*
X175813703Y-80045000D01*
X175813700Y-80045001D01*
X175647168Y-80100185D01*
X175647163Y-80100187D01*
X175497842Y-80192289D01*
X175373789Y-80316342D01*
X175281687Y-80465663D01*
X175281686Y-80465666D01*
X175262189Y-80524505D01*
X175222416Y-80581949D01*
X175157900Y-80608772D01*
X175144483Y-80609500D01*
X174797255Y-80609500D01*
X174730216Y-80589815D01*
X174684461Y-80537011D01*
X174679549Y-80524504D01*
X174672297Y-80502620D01*
X174658862Y-80462075D01*
X174658856Y-80462066D01*
X174567528Y-80314000D01*
X174567525Y-80313996D01*
X174444503Y-80190974D01*
X174444499Y-80190971D01*
X174296433Y-80099642D01*
X174296427Y-80099639D01*
X174296425Y-80099638D01*
X174265052Y-80089242D01*
X174131276Y-80044913D01*
X174029355Y-80034500D01*
X174029348Y-80034500D01*
X173442652Y-80034500D01*
X173442644Y-80034500D01*
X173340723Y-80044913D01*
X173175577Y-80099637D01*
X173175566Y-80099642D01*
X173027500Y-80190971D01*
X173027496Y-80190974D01*
X172904474Y-80313996D01*
X172904467Y-80314005D01*
X172903734Y-80315194D01*
X172903019Y-80315836D01*
X172899993Y-80319664D01*
X172899338Y-80319146D01*
X172851780Y-80361911D01*
X172782816Y-80373123D01*
X172718738Y-80345271D01*
X172696738Y-80319877D01*
X172696612Y-80319977D01*
X172694385Y-80317161D01*
X172692663Y-80315173D01*
X172692130Y-80314309D01*
X172569191Y-80191370D01*
X172421214Y-80100096D01*
X172421209Y-80100094D01*
X172256173Y-80045407D01*
X172154315Y-80035000D01*
X172111000Y-80035000D01*
X172111000Y-82435000D01*
X171611000Y-82435000D01*
X171611000Y-81485000D01*
X170873500Y-81485000D01*
X167039000Y-81485000D01*
X167038999Y-80985000D01*
X170873500Y-80985000D01*
X171611000Y-80985000D01*
X171611000Y-80035000D01*
X171567684Y-80035000D01*
X171465826Y-80045407D01*
X171300790Y-80100094D01*
X171300785Y-80100096D01*
X171152808Y-80191370D01*
X171029870Y-80314308D01*
X170938596Y-80462285D01*
X170938594Y-80462290D01*
X170883907Y-80627326D01*
X170873500Y-80729184D01*
X170873500Y-80985000D01*
X167038999Y-80985000D01*
X167038999Y-80734992D01*
X167038402Y-80729152D01*
X167028499Y-80632203D01*
X167028498Y-80632200D01*
X167025056Y-80621814D01*
X166973314Y-80465666D01*
X166881212Y-80316344D01*
X166757156Y-80192288D01*
X166607834Y-80100186D01*
X166441297Y-80045001D01*
X166441295Y-80045000D01*
X166338510Y-80034500D01*
X165713498Y-80034500D01*
X165713480Y-80034501D01*
X165610703Y-80045000D01*
X165610700Y-80045001D01*
X165444168Y-80100185D01*
X165444163Y-80100187D01*
X165294842Y-80192289D01*
X165201181Y-80285951D01*
X165139858Y-80319436D01*
X165070166Y-80314452D01*
X165025819Y-80285951D01*
X164932157Y-80192289D01*
X164932156Y-80192288D01*
X164782834Y-80100186D01*
X164616297Y-80045001D01*
X164616295Y-80045000D01*
X164513510Y-80034500D01*
X163888498Y-80034500D01*
X163888480Y-80034501D01*
X163785703Y-80045000D01*
X163785700Y-80045001D01*
X163619168Y-80100185D01*
X163619163Y-80100187D01*
X163469842Y-80192289D01*
X163345789Y-80316342D01*
X163253687Y-80465663D01*
X163253686Y-80465666D01*
X163234189Y-80524505D01*
X163194416Y-80581949D01*
X163129900Y-80608772D01*
X163116483Y-80609500D01*
X162702255Y-80609500D01*
X162635216Y-80589815D01*
X162589461Y-80537011D01*
X162584549Y-80524504D01*
X162577297Y-80502620D01*
X162563862Y-80462075D01*
X162563856Y-80462066D01*
X162472528Y-80314000D01*
X162472525Y-80313996D01*
X162349503Y-80190974D01*
X162349499Y-80190971D01*
X162201433Y-80099642D01*
X162201427Y-80099639D01*
X162201425Y-80099638D01*
X162170052Y-80089242D01*
X162036276Y-80044913D01*
X161934355Y-80034500D01*
X161934348Y-80034500D01*
X161347652Y-80034500D01*
X161347644Y-80034500D01*
X161245723Y-80044913D01*
X161080577Y-80099637D01*
X161080566Y-80099642D01*
X160932500Y-80190971D01*
X160932496Y-80190974D01*
X160809474Y-80313996D01*
X160809471Y-80314000D01*
X160809038Y-80314703D01*
X160808614Y-80315083D01*
X160804993Y-80319664D01*
X160804210Y-80319045D01*
X160757090Y-80361428D01*
X160688128Y-80372649D01*
X160624046Y-80344806D01*
X160602157Y-80319544D01*
X160602007Y-80319664D01*
X160599359Y-80316315D01*
X160597962Y-80314703D01*
X160597528Y-80314000D01*
X160597525Y-80313996D01*
X160474503Y-80190974D01*
X160474499Y-80190971D01*
X160326433Y-80099642D01*
X160326427Y-80099639D01*
X160326425Y-80099638D01*
X160295052Y-80089242D01*
X160161276Y-80044913D01*
X160059355Y-80034500D01*
X160059348Y-80034500D01*
X159501453Y-80034500D01*
X159434414Y-80014815D01*
X159413772Y-79998181D01*
X158141819Y-78726228D01*
X158108334Y-78664905D01*
X158105500Y-78638547D01*
X158105500Y-72685353D01*
X158125185Y-72618314D01*
X158177989Y-72572559D01*
X158189627Y-72567938D01*
X158323902Y-72522359D01*
X158582611Y-72394778D01*
X158822454Y-72234520D01*
X159039327Y-72044327D01*
X159229520Y-71827454D01*
X159389778Y-71587611D01*
X159517359Y-71328902D01*
X159610081Y-71055753D01*
X159666356Y-70772839D01*
X159685222Y-70485000D01*
X159666356Y-70197161D01*
X159610081Y-69914247D01*
X159588274Y-69850007D01*
X178135280Y-69850007D01*
X178154140Y-70137757D01*
X178154144Y-70137784D01*
X178210402Y-70420615D01*
X178210407Y-70420635D01*
X178303100Y-70693702D01*
X178303104Y-70693712D01*
X178430653Y-70952356D01*
X178590873Y-71192141D01*
X178590878Y-71192147D01*
X178615837Y-71220607D01*
X179623337Y-70213107D01*
X179710577Y-70351948D01*
X179838052Y-70479423D01*
X179976891Y-70566661D01*
X178969391Y-71574161D01*
X178969391Y-71574162D01*
X178997852Y-71599121D01*
X178997858Y-71599126D01*
X179237643Y-71759346D01*
X179496287Y-71886895D01*
X179496297Y-71886899D01*
X179769364Y-71979592D01*
X179769384Y-71979597D01*
X180052215Y-72035855D01*
X180052242Y-72035859D01*
X180339993Y-72054720D01*
X180340007Y-72054720D01*
X180627757Y-72035859D01*
X180627784Y-72035855D01*
X180910615Y-71979597D01*
X180910635Y-71979592D01*
X181183702Y-71886899D01*
X181183712Y-71886895D01*
X181442356Y-71759346D01*
X181682146Y-71599122D01*
X181710607Y-71574161D01*
X181710607Y-71574160D01*
X180703108Y-70566661D01*
X180841948Y-70479423D01*
X180969423Y-70351948D01*
X181056661Y-70213108D01*
X182064160Y-71220607D01*
X182064161Y-71220607D01*
X182089122Y-71192146D01*
X182249346Y-70952356D01*
X182376895Y-70693712D01*
X182376899Y-70693702D01*
X182469592Y-70420635D01*
X182469597Y-70420615D01*
X182525855Y-70137784D01*
X182525859Y-70137757D01*
X182544720Y-69850007D01*
X182544720Y-69849992D01*
X182525859Y-69562242D01*
X182525855Y-69562215D01*
X182469597Y-69279384D01*
X182469592Y-69279364D01*
X182376899Y-69006297D01*
X182376895Y-69006287D01*
X182249346Y-68747643D01*
X182089126Y-68507858D01*
X182089121Y-68507852D01*
X182064161Y-68479391D01*
X181056661Y-69486891D01*
X180969423Y-69348052D01*
X180841948Y-69220577D01*
X180703107Y-69133338D01*
X181710607Y-68125837D01*
X181710607Y-68125836D01*
X181682147Y-68100878D01*
X181682141Y-68100873D01*
X181442356Y-67940653D01*
X181183712Y-67813104D01*
X181183702Y-67813100D01*
X180910635Y-67720407D01*
X180910615Y-67720402D01*
X180627784Y-67664144D01*
X180627757Y-67664140D01*
X180340007Y-67645280D01*
X180339993Y-67645280D01*
X180052242Y-67664140D01*
X180052215Y-67664144D01*
X179769384Y-67720402D01*
X179769364Y-67720407D01*
X179496297Y-67813100D01*
X179496287Y-67813104D01*
X179237643Y-67940653D01*
X178997853Y-68100876D01*
X178997847Y-68100881D01*
X178969391Y-68125835D01*
X178969391Y-68125838D01*
X179976891Y-69133338D01*
X179838052Y-69220577D01*
X179710577Y-69348052D01*
X179623338Y-69486891D01*
X178615838Y-68479391D01*
X178615835Y-68479391D01*
X178590881Y-68507847D01*
X178590876Y-68507853D01*
X178430653Y-68747643D01*
X178303104Y-69006287D01*
X178303100Y-69006297D01*
X178210407Y-69279364D01*
X178210402Y-69279384D01*
X178154144Y-69562215D01*
X178154140Y-69562242D01*
X178135280Y-69849992D01*
X178135280Y-69850007D01*
X159588274Y-69850007D01*
X159517359Y-69641098D01*
X159426359Y-69456568D01*
X159389780Y-69382393D01*
X159389776Y-69382386D01*
X159229521Y-69142547D01*
X159039327Y-68925672D01*
X158822452Y-68735478D01*
X158582613Y-68575223D01*
X158582606Y-68575219D01*
X158323905Y-68447642D01*
X158050760Y-68354921D01*
X158050754Y-68354919D01*
X158050753Y-68354919D01*
X158050751Y-68354918D01*
X158050745Y-68354917D01*
X157767849Y-68298646D01*
X157767839Y-68298644D01*
X157480000Y-68279778D01*
X157192161Y-68298644D01*
X157192155Y-68298645D01*
X157192150Y-68298646D01*
X156909254Y-68354917D01*
X156909239Y-68354921D01*
X156636094Y-68447642D01*
X156377393Y-68575219D01*
X156377386Y-68575223D01*
X156137547Y-68735478D01*
X155920672Y-68925672D01*
X155730478Y-69142547D01*
X155570223Y-69382386D01*
X155570219Y-69382393D01*
X155442642Y-69641094D01*
X155349921Y-69914239D01*
X155349917Y-69914254D01*
X155305460Y-70137757D01*
X155293644Y-70197161D01*
X155274778Y-70485000D01*
X155284601Y-70634877D01*
X155293644Y-70772837D01*
X155293646Y-70772849D01*
X155349917Y-71055745D01*
X155349921Y-71055760D01*
X155442642Y-71328905D01*
X155570219Y-71587606D01*
X155570223Y-71587613D01*
X155730478Y-71827452D01*
X155920672Y-72044327D01*
X156137547Y-72234521D01*
X156377386Y-72394776D01*
X156377393Y-72394780D01*
X156636093Y-72522357D01*
X156636096Y-72522358D01*
X156636098Y-72522359D01*
X156770360Y-72567934D01*
X156827512Y-72608122D01*
X156853866Y-72672831D01*
X156854500Y-72685353D01*
X156854500Y-78866255D01*
X156852775Y-78881872D01*
X156853061Y-78881899D01*
X156852326Y-78889665D01*
X156854500Y-78958814D01*
X156854500Y-78988343D01*
X156854501Y-78988360D01*
X156855368Y-78995231D01*
X156855826Y-79001050D01*
X156857290Y-79047624D01*
X156857291Y-79047627D01*
X156862880Y-79066867D01*
X156866824Y-79085911D01*
X156869336Y-79105792D01*
X156874681Y-79119292D01*
X156886490Y-79149119D01*
X156888382Y-79154647D01*
X156892812Y-79169895D01*
X156901382Y-79199390D01*
X156909364Y-79212888D01*
X156911580Y-79216634D01*
X156920136Y-79234100D01*
X156924617Y-79245416D01*
X156927514Y-79252732D01*
X156954898Y-79290423D01*
X156958106Y-79295307D01*
X156981827Y-79335416D01*
X156981833Y-79335424D01*
X156995990Y-79349580D01*
X157008627Y-79364375D01*
X157020406Y-79380587D01*
X157044699Y-79400684D01*
X157056309Y-79410288D01*
X157060620Y-79414210D01*
X157932361Y-80285951D01*
X158741681Y-81095271D01*
X158775166Y-81156594D01*
X158778000Y-81182952D01*
X158778000Y-81740855D01*
X158788413Y-81842776D01*
X158843137Y-82007922D01*
X158843142Y-82007933D01*
X158934471Y-82155999D01*
X158934474Y-82156003D01*
X159057496Y-82279025D01*
X159057500Y-82279028D01*
X159205566Y-82370357D01*
X159205569Y-82370358D01*
X159205575Y-82370362D01*
X159370725Y-82425087D01*
X159472652Y-82435500D01*
X159472657Y-82435500D01*
X160059343Y-82435500D01*
X160059348Y-82435500D01*
X160161275Y-82425087D01*
X160326425Y-82370362D01*
X160474503Y-82279026D01*
X160597526Y-82156003D01*
X160597958Y-82155301D01*
X160598381Y-82154921D01*
X160602007Y-82150336D01*
X160602790Y-82150955D01*
X160649902Y-82108575D01*
X160718864Y-82097349D01*
X160782948Y-82125188D01*
X160804842Y-82150455D01*
X160804993Y-82150336D01*
X160807643Y-82153687D01*
X160809040Y-82155299D01*
X160809469Y-82155995D01*
X160809475Y-82156004D01*
X160932496Y-82279025D01*
X160932500Y-82279028D01*
X161080566Y-82370357D01*
X161080569Y-82370358D01*
X161080575Y-82370362D01*
X161245725Y-82425087D01*
X161347652Y-82435500D01*
X161347657Y-82435500D01*
X161934343Y-82435500D01*
X161934348Y-82435500D01*
X162036275Y-82425087D01*
X162201425Y-82370362D01*
X162349503Y-82279026D01*
X162472526Y-82156003D01*
X162563862Y-82007925D01*
X162584549Y-81945495D01*
X162624322Y-81888051D01*
X162688838Y-81861228D01*
X162702255Y-81860500D01*
X163116483Y-81860500D01*
X163183522Y-81880185D01*
X163229277Y-81932989D01*
X163234189Y-81945495D01*
X163253686Y-82004333D01*
X163253687Y-82004336D01*
X163284880Y-82054908D01*
X163345788Y-82153656D01*
X163469844Y-82277712D01*
X163619166Y-82369814D01*
X163785703Y-82424999D01*
X163888491Y-82435500D01*
X164513508Y-82435499D01*
X164513516Y-82435498D01*
X164513519Y-82435498D01*
X164569802Y-82429748D01*
X164616297Y-82424999D01*
X164782834Y-82369814D01*
X164932156Y-82277712D01*
X165025819Y-82184049D01*
X165087142Y-82150564D01*
X165156834Y-82155548D01*
X165201181Y-82184049D01*
X165294844Y-82277712D01*
X165341596Y-82306548D01*
X165388320Y-82358494D01*
X165400500Y-82412087D01*
X165400500Y-84107547D01*
X165380815Y-84174586D01*
X165364181Y-84195228D01*
X163861228Y-85698181D01*
X163799905Y-85731666D01*
X163773547Y-85734500D01*
X141165748Y-85734500D01*
X141098709Y-85714815D01*
X141073600Y-85693474D01*
X141067873Y-85687114D01*
X141067869Y-85687110D01*
X140914734Y-85575851D01*
X140914729Y-85575848D01*
X140741807Y-85498857D01*
X140741802Y-85498855D01*
X140596001Y-85467865D01*
X140556646Y-85459500D01*
X140556645Y-85459500D01*
X140497452Y-85459500D01*
X140430413Y-85439815D01*
X140409771Y-85423181D01*
X136581818Y-81595227D01*
X136548333Y-81533904D01*
X136545499Y-81507546D01*
X136545499Y-81485000D01*
X140326500Y-81485000D01*
X140326500Y-81740815D01*
X140336907Y-81842673D01*
X140391594Y-82007709D01*
X140391596Y-82007714D01*
X140482870Y-82155691D01*
X140605808Y-82278629D01*
X140753785Y-82369903D01*
X140753790Y-82369905D01*
X140918826Y-82424592D01*
X141020684Y-82434999D01*
X141020697Y-82435000D01*
X141064000Y-82435000D01*
X141564000Y-82435000D01*
X141607303Y-82435000D01*
X141607315Y-82434999D01*
X141709173Y-82424592D01*
X141874209Y-82369905D01*
X141874214Y-82369903D01*
X142022191Y-82278629D01*
X142145128Y-82155692D01*
X142145659Y-82154832D01*
X142146180Y-82154363D01*
X142149612Y-82150023D01*
X142150353Y-82150608D01*
X142197601Y-82108102D01*
X142266563Y-82096872D01*
X142330648Y-82124708D01*
X142352913Y-82150398D01*
X142352993Y-82150336D01*
X142354390Y-82152103D01*
X142356738Y-82154812D01*
X142357468Y-82155995D01*
X142357474Y-82156003D01*
X142480496Y-82279025D01*
X142480500Y-82279028D01*
X142628566Y-82370357D01*
X142628569Y-82370358D01*
X142628575Y-82370362D01*
X142793725Y-82425087D01*
X142895652Y-82435500D01*
X142895657Y-82435500D01*
X143482343Y-82435500D01*
X143482348Y-82435500D01*
X143584275Y-82425087D01*
X143749425Y-82370362D01*
X143897503Y-82279026D01*
X144020526Y-82156003D01*
X144111862Y-82007925D01*
X144132549Y-81945495D01*
X144172322Y-81888051D01*
X144236838Y-81861228D01*
X144250255Y-81860500D01*
X144814983Y-81860500D01*
X144882022Y-81880185D01*
X144927777Y-81932989D01*
X144932689Y-81945495D01*
X144952186Y-82004333D01*
X144952187Y-82004336D01*
X144983380Y-82054908D01*
X145044288Y-82153656D01*
X145168344Y-82277712D01*
X145317666Y-82369814D01*
X145484203Y-82424999D01*
X145586991Y-82435500D01*
X146212008Y-82435499D01*
X146212016Y-82435498D01*
X146212019Y-82435498D01*
X146268302Y-82429748D01*
X146314797Y-82424999D01*
X146481334Y-82369814D01*
X146630656Y-82277712D01*
X146724319Y-82184049D01*
X146785642Y-82150564D01*
X146855334Y-82155548D01*
X146899681Y-82184049D01*
X146993344Y-82277712D01*
X147142666Y-82369814D01*
X147309203Y-82424999D01*
X147411991Y-82435500D01*
X148037008Y-82435499D01*
X148037016Y-82435498D01*
X148037019Y-82435498D01*
X148093302Y-82429748D01*
X148139797Y-82424999D01*
X148306334Y-82369814D01*
X148455656Y-82277712D01*
X148579712Y-82153656D01*
X148671814Y-82004334D01*
X148691311Y-81945493D01*
X148731084Y-81888051D01*
X148795600Y-81861228D01*
X148809017Y-81860500D01*
X151346257Y-81860500D01*
X151361877Y-81862224D01*
X151361904Y-81861939D01*
X151369660Y-81862671D01*
X151369667Y-81862673D01*
X151438814Y-81860500D01*
X151468350Y-81860500D01*
X151475228Y-81859630D01*
X151481041Y-81859172D01*
X151527627Y-81857709D01*
X151546869Y-81852117D01*
X151565912Y-81848174D01*
X151585792Y-81845664D01*
X151629122Y-81828507D01*
X151634646Y-81826617D01*
X151638396Y-81825527D01*
X151679390Y-81813618D01*
X151696629Y-81803422D01*
X151714103Y-81794862D01*
X151732727Y-81787488D01*
X151732727Y-81787487D01*
X151732732Y-81787486D01*
X151770449Y-81760082D01*
X151775305Y-81756892D01*
X151815420Y-81733170D01*
X151829589Y-81718999D01*
X151844379Y-81706368D01*
X151860587Y-81694594D01*
X151890299Y-81658676D01*
X151894212Y-81654376D01*
X154053786Y-79494802D01*
X154066048Y-79484980D01*
X154065865Y-79484759D01*
X154071867Y-79479792D01*
X154071877Y-79479786D01*
X154119241Y-79429348D01*
X154140120Y-79408470D01*
X154144373Y-79402986D01*
X154148150Y-79398563D01*
X154180062Y-79364582D01*
X154189714Y-79347023D01*
X154200389Y-79330772D01*
X154212674Y-79314936D01*
X154231186Y-79272152D01*
X154233742Y-79266935D01*
X154256197Y-79226092D01*
X154261180Y-79206680D01*
X154267477Y-79188291D01*
X154275438Y-79169895D01*
X154282729Y-79123853D01*
X154283908Y-79118162D01*
X154295500Y-79073019D01*
X154295500Y-79052983D01*
X154297027Y-79033582D01*
X154300160Y-79013804D01*
X154295775Y-78967415D01*
X154295500Y-78961577D01*
X154295500Y-76234549D01*
X154315185Y-76167510D01*
X154367989Y-76121755D01*
X154376152Y-76118373D01*
X154482337Y-76078769D01*
X154727213Y-75945056D01*
X154950568Y-75777855D01*
X155147855Y-75580568D01*
X155315056Y-75357213D01*
X155448769Y-75112337D01*
X155546271Y-74850923D01*
X155605578Y-74578294D01*
X155625482Y-74300000D01*
X155605578Y-74021706D01*
X155546271Y-73749077D01*
X155448769Y-73487663D01*
X155404177Y-73406000D01*
X155315059Y-73242792D01*
X155315054Y-73242784D01*
X155147861Y-73019439D01*
X155147845Y-73019421D01*
X154950578Y-72822154D01*
X154950560Y-72822138D01*
X154727215Y-72654945D01*
X154727207Y-72654940D01*
X154482342Y-72521233D01*
X154482338Y-72521231D01*
X154383230Y-72484266D01*
X154220923Y-72423729D01*
X154220919Y-72423728D01*
X154220916Y-72423727D01*
X153948299Y-72364422D01*
X153670001Y-72344518D01*
X153669999Y-72344518D01*
X153391700Y-72364422D01*
X153119083Y-72423727D01*
X153119078Y-72423728D01*
X153119077Y-72423729D01*
X153055875Y-72447301D01*
X152857661Y-72521231D01*
X152857657Y-72521233D01*
X152612792Y-72654940D01*
X152612784Y-72654945D01*
X152389439Y-72822138D01*
X152389421Y-72822154D01*
X152192154Y-73019421D01*
X152192138Y-73019439D01*
X152024945Y-73242784D01*
X152024940Y-73242792D01*
X151891233Y-73487657D01*
X151891231Y-73487661D01*
X151793727Y-73749083D01*
X151734422Y-74021700D01*
X151714518Y-74299998D01*
X151714518Y-74300001D01*
X151734422Y-74578299D01*
X151786008Y-74815431D01*
X151793729Y-74850923D01*
X151832255Y-74954216D01*
X151891231Y-75112338D01*
X151891233Y-75112342D01*
X152024940Y-75357207D01*
X152024945Y-75357215D01*
X152192138Y-75580560D01*
X152192154Y-75580578D01*
X152389421Y-75777845D01*
X152389439Y-75777861D01*
X152612784Y-75945054D01*
X152612792Y-75945059D01*
X152857657Y-76078766D01*
X152857665Y-76078770D01*
X152887505Y-76089899D01*
X152963833Y-76118368D01*
X153019766Y-76160238D01*
X153044184Y-76225702D01*
X153044500Y-76234549D01*
X153044500Y-78683547D01*
X153024815Y-78750586D01*
X153008181Y-78771228D01*
X151206228Y-80573181D01*
X151144905Y-80606666D01*
X151118547Y-80609500D01*
X148809017Y-80609500D01*
X148741978Y-80589815D01*
X148696223Y-80537011D01*
X148691311Y-80524505D01*
X148691311Y-80524504D01*
X148671814Y-80465666D01*
X148579712Y-80316344D01*
X148455656Y-80192288D01*
X148306334Y-80100186D01*
X148139797Y-80045001D01*
X148139795Y-80045000D01*
X148037010Y-80034500D01*
X147411998Y-80034500D01*
X147411980Y-80034501D01*
X147309203Y-80045000D01*
X147309200Y-80045001D01*
X147142668Y-80100185D01*
X147142663Y-80100187D01*
X146993342Y-80192289D01*
X146899681Y-80285951D01*
X146838358Y-80319436D01*
X146768666Y-80314452D01*
X146724319Y-80285951D01*
X146630657Y-80192289D01*
X146630656Y-80192288D01*
X146481334Y-80100186D01*
X146314797Y-80045001D01*
X146314795Y-80045000D01*
X146212010Y-80034500D01*
X145586998Y-80034500D01*
X145586980Y-80034501D01*
X145484203Y-80045000D01*
X145484200Y-80045001D01*
X145317668Y-80100185D01*
X145317663Y-80100187D01*
X145168342Y-80192289D01*
X145044289Y-80316342D01*
X144952187Y-80465663D01*
X144952186Y-80465666D01*
X144932689Y-80524505D01*
X144892916Y-80581949D01*
X144828400Y-80608772D01*
X144814983Y-80609500D01*
X144250255Y-80609500D01*
X144183216Y-80589815D01*
X144137461Y-80537011D01*
X144132549Y-80524504D01*
X144125297Y-80502620D01*
X144111862Y-80462075D01*
X144111856Y-80462066D01*
X144020528Y-80314000D01*
X144020525Y-80313996D01*
X143897503Y-80190974D01*
X143897499Y-80190971D01*
X143749433Y-80099642D01*
X143749427Y-80099639D01*
X143749425Y-80099638D01*
X143718052Y-80089242D01*
X143584276Y-80044913D01*
X143482355Y-80034500D01*
X143482348Y-80034500D01*
X142895652Y-80034500D01*
X142895644Y-80034500D01*
X142793723Y-80044913D01*
X142628577Y-80099637D01*
X142628566Y-80099642D01*
X142480500Y-80190971D01*
X142480496Y-80190974D01*
X142357474Y-80313996D01*
X142357467Y-80314005D01*
X142356734Y-80315194D01*
X142356019Y-80315836D01*
X142352993Y-80319664D01*
X142352338Y-80319146D01*
X142304780Y-80361911D01*
X142235816Y-80373123D01*
X142171738Y-80345271D01*
X142149738Y-80319877D01*
X142149612Y-80319977D01*
X142147385Y-80317161D01*
X142145663Y-80315173D01*
X142145130Y-80314309D01*
X142022191Y-80191370D01*
X141874214Y-80100096D01*
X141874209Y-80100094D01*
X141709173Y-80045407D01*
X141607315Y-80035000D01*
X141564000Y-80035000D01*
X141564000Y-82435000D01*
X141064000Y-82435000D01*
X141064000Y-81485000D01*
X140326500Y-81485000D01*
X136545499Y-81485000D01*
X136545499Y-80985000D01*
X140326500Y-80985000D01*
X141064000Y-80985000D01*
X141064000Y-80035000D01*
X141020684Y-80035000D01*
X140918826Y-80045407D01*
X140753790Y-80100094D01*
X140753785Y-80100096D01*
X140605808Y-80191370D01*
X140482870Y-80314308D01*
X140391596Y-80462285D01*
X140391594Y-80462290D01*
X140336907Y-80627326D01*
X140326500Y-80729184D01*
X140326500Y-80985000D01*
X136545499Y-80985000D01*
X136545499Y-80734998D01*
X136545498Y-80734981D01*
X136534999Y-80632203D01*
X136534998Y-80632200D01*
X136531556Y-80621814D01*
X136479814Y-80465666D01*
X136387712Y-80316344D01*
X136263656Y-80192288D01*
X136114334Y-80100186D01*
X135947797Y-80045001D01*
X135947795Y-80045000D01*
X135845010Y-80034500D01*
X135219998Y-80034500D01*
X135219980Y-80034501D01*
X135117203Y-80045000D01*
X135117200Y-80045001D01*
X134950668Y-80100185D01*
X134950663Y-80100187D01*
X134801342Y-80192289D01*
X134707681Y-80285951D01*
X134646358Y-80319436D01*
X134576666Y-80314452D01*
X134532319Y-80285951D01*
X134438657Y-80192289D01*
X134438656Y-80192288D01*
X134289334Y-80100186D01*
X134122797Y-80045001D01*
X134122795Y-80045000D01*
X134020010Y-80034500D01*
X133394998Y-80034500D01*
X133394980Y-80034501D01*
X133292203Y-80045000D01*
X133292200Y-80045001D01*
X133125668Y-80100185D01*
X133125663Y-80100187D01*
X132976342Y-80192289D01*
X132852289Y-80316342D01*
X132760187Y-80465663D01*
X132760186Y-80465666D01*
X132740689Y-80524505D01*
X132700916Y-80581949D01*
X132636400Y-80608772D01*
X132622983Y-80609500D01*
X132208755Y-80609500D01*
X132141716Y-80589815D01*
X132095961Y-80537011D01*
X132091049Y-80524504D01*
X132083797Y-80502620D01*
X132070362Y-80462075D01*
X132070356Y-80462066D01*
X131979028Y-80314000D01*
X131979025Y-80313996D01*
X131856003Y-80190974D01*
X131855999Y-80190971D01*
X131707933Y-80099642D01*
X131707927Y-80099639D01*
X131707925Y-80099638D01*
X131676552Y-80089242D01*
X131542776Y-80044913D01*
X131440855Y-80034500D01*
X131440848Y-80034500D01*
X130854152Y-80034500D01*
X130854144Y-80034500D01*
X130752223Y-80044913D01*
X130587077Y-80099637D01*
X130587066Y-80099642D01*
X130439000Y-80190971D01*
X130438996Y-80190974D01*
X130315974Y-80313996D01*
X130315971Y-80314000D01*
X130315538Y-80314703D01*
X130315114Y-80315083D01*
X130311493Y-80319664D01*
X130310710Y-80319045D01*
X130263590Y-80361428D01*
X130194628Y-80372649D01*
X130130546Y-80344806D01*
X130108657Y-80319544D01*
X130108507Y-80319664D01*
X130105859Y-80316315D01*
X130104462Y-80314703D01*
X130104028Y-80314000D01*
X130104025Y-80313996D01*
X129981003Y-80190974D01*
X129980999Y-80190971D01*
X129832933Y-80099642D01*
X129832927Y-80099639D01*
X129832925Y-80099638D01*
X129801552Y-80089242D01*
X129667776Y-80044913D01*
X129565855Y-80034500D01*
X129565848Y-80034500D01*
X129007953Y-80034500D01*
X128940914Y-80014815D01*
X128920272Y-79998181D01*
X127661819Y-78739728D01*
X127628334Y-78678405D01*
X127625500Y-78652047D01*
X127625500Y-72685353D01*
X127645185Y-72618314D01*
X127697989Y-72572559D01*
X127709627Y-72567938D01*
X127843902Y-72522359D01*
X128102611Y-72394778D01*
X128342454Y-72234520D01*
X128559327Y-72044327D01*
X128749520Y-71827454D01*
X128909778Y-71587611D01*
X129037359Y-71328902D01*
X129130081Y-71055753D01*
X129186356Y-70772839D01*
X129205222Y-70485000D01*
X129186356Y-70197161D01*
X129130081Y-69914247D01*
X129108274Y-69850007D01*
X147655280Y-69850007D01*
X147674140Y-70137757D01*
X147674144Y-70137784D01*
X147730402Y-70420615D01*
X147730407Y-70420635D01*
X147823100Y-70693702D01*
X147823104Y-70693712D01*
X147950653Y-70952356D01*
X148110873Y-71192141D01*
X148110878Y-71192147D01*
X148135837Y-71220607D01*
X149143337Y-70213107D01*
X149230577Y-70351948D01*
X149358052Y-70479423D01*
X149496891Y-70566661D01*
X148489391Y-71574161D01*
X148489391Y-71574162D01*
X148517852Y-71599121D01*
X148517858Y-71599126D01*
X148757643Y-71759346D01*
X149016287Y-71886895D01*
X149016297Y-71886899D01*
X149289364Y-71979592D01*
X149289384Y-71979597D01*
X149572215Y-72035855D01*
X149572242Y-72035859D01*
X149859993Y-72054720D01*
X149860007Y-72054720D01*
X150147757Y-72035859D01*
X150147784Y-72035855D01*
X150430615Y-71979597D01*
X150430635Y-71979592D01*
X150703702Y-71886899D01*
X150703712Y-71886895D01*
X150962356Y-71759346D01*
X151202146Y-71599122D01*
X151230607Y-71574161D01*
X151230607Y-71574160D01*
X150223108Y-70566661D01*
X150361948Y-70479423D01*
X150489423Y-70351948D01*
X150576661Y-70213108D01*
X151584160Y-71220607D01*
X151584161Y-71220607D01*
X151609122Y-71192146D01*
X151769346Y-70952356D01*
X151896895Y-70693712D01*
X151896899Y-70693702D01*
X151989592Y-70420635D01*
X151989597Y-70420615D01*
X152045855Y-70137784D01*
X152045859Y-70137757D01*
X152064720Y-69850007D01*
X152064720Y-69849992D01*
X152045859Y-69562242D01*
X152045855Y-69562215D01*
X151989597Y-69279384D01*
X151989592Y-69279364D01*
X151896899Y-69006297D01*
X151896895Y-69006287D01*
X151769346Y-68747643D01*
X151609126Y-68507858D01*
X151609121Y-68507852D01*
X151584161Y-68479391D01*
X150576661Y-69486891D01*
X150489423Y-69348052D01*
X150361948Y-69220577D01*
X150223107Y-69133338D01*
X151230607Y-68125837D01*
X151230607Y-68125836D01*
X151202147Y-68100878D01*
X151202141Y-68100873D01*
X150962356Y-67940653D01*
X150703712Y-67813104D01*
X150703702Y-67813100D01*
X150430635Y-67720407D01*
X150430615Y-67720402D01*
X150147784Y-67664144D01*
X150147757Y-67664140D01*
X149860007Y-67645280D01*
X149859993Y-67645280D01*
X149572242Y-67664140D01*
X149572215Y-67664144D01*
X149289384Y-67720402D01*
X149289364Y-67720407D01*
X149016297Y-67813100D01*
X149016287Y-67813104D01*
X148757643Y-67940653D01*
X148517853Y-68100876D01*
X148517847Y-68100881D01*
X148489391Y-68125835D01*
X148489391Y-68125838D01*
X149496891Y-69133338D01*
X149358052Y-69220577D01*
X149230577Y-69348052D01*
X149143338Y-69486891D01*
X148135838Y-68479391D01*
X148135835Y-68479391D01*
X148110881Y-68507847D01*
X148110876Y-68507853D01*
X147950653Y-68747643D01*
X147823104Y-69006287D01*
X147823100Y-69006297D01*
X147730407Y-69279364D01*
X147730402Y-69279384D01*
X147674144Y-69562215D01*
X147674140Y-69562242D01*
X147655280Y-69849992D01*
X147655280Y-69850007D01*
X129108274Y-69850007D01*
X129037359Y-69641098D01*
X128946359Y-69456568D01*
X128909780Y-69382393D01*
X128909776Y-69382386D01*
X128749521Y-69142547D01*
X128559327Y-68925672D01*
X128342452Y-68735478D01*
X128102613Y-68575223D01*
X128102606Y-68575219D01*
X127843905Y-68447642D01*
X127570760Y-68354921D01*
X127570754Y-68354919D01*
X127570753Y-68354919D01*
X127570751Y-68354918D01*
X127570745Y-68354917D01*
X127287849Y-68298646D01*
X127287839Y-68298644D01*
X127000000Y-68279778D01*
X126712161Y-68298644D01*
X126712155Y-68298645D01*
X126712150Y-68298646D01*
X126429254Y-68354917D01*
X126429239Y-68354921D01*
X126156094Y-68447642D01*
X125897393Y-68575219D01*
X125897386Y-68575223D01*
X125657547Y-68735478D01*
X125440672Y-68925672D01*
X125250478Y-69142547D01*
X125090223Y-69382386D01*
X125090219Y-69382393D01*
X124962642Y-69641094D01*
X124869921Y-69914239D01*
X124869917Y-69914254D01*
X124825460Y-70137757D01*
X124813644Y-70197161D01*
X124794778Y-70485000D01*
X121487743Y-70485000D01*
X121509592Y-70420635D01*
X121509597Y-70420615D01*
X121565855Y-70137784D01*
X121565859Y-70137757D01*
X121584720Y-69850007D01*
X121584720Y-69849992D01*
X121565859Y-69562242D01*
X121565855Y-69562215D01*
X121509597Y-69279384D01*
X121509592Y-69279364D01*
X121416899Y-69006297D01*
X121416895Y-69006287D01*
X121289346Y-68747643D01*
X121129126Y-68507858D01*
X121129121Y-68507852D01*
X121104161Y-68479391D01*
X120096661Y-69486891D01*
X120009423Y-69348052D01*
X119881948Y-69220577D01*
X119743107Y-69133338D01*
X120750607Y-68125837D01*
X120750607Y-68125836D01*
X120722147Y-68100878D01*
X120722141Y-68100873D01*
X120482356Y-67940653D01*
X120223712Y-67813104D01*
X120223702Y-67813100D01*
X119950635Y-67720407D01*
X119950615Y-67720402D01*
X119667784Y-67664144D01*
X119667757Y-67664140D01*
X119380007Y-67645280D01*
X119379993Y-67645280D01*
X119092242Y-67664140D01*
X119092215Y-67664144D01*
X118809384Y-67720402D01*
X118809364Y-67720407D01*
X118536297Y-67813100D01*
X118536287Y-67813104D01*
X118277643Y-67940653D01*
X118037853Y-68100876D01*
X118037847Y-68100881D01*
X118009391Y-68125835D01*
X118009391Y-68125838D01*
X119016891Y-69133338D01*
X118878052Y-69220577D01*
X118750577Y-69348052D01*
X118663338Y-69486891D01*
X117655838Y-68479391D01*
X117655835Y-68479391D01*
X117630881Y-68507847D01*
X117630876Y-68507853D01*
X117470653Y-68747643D01*
X117343104Y-69006287D01*
X117343100Y-69006297D01*
X117250407Y-69279364D01*
X117250402Y-69279384D01*
X117194144Y-69562215D01*
X117194140Y-69562242D01*
X117175280Y-69849992D01*
X117175280Y-69850007D01*
X98628274Y-69850007D01*
X98557359Y-69641098D01*
X98466359Y-69456568D01*
X98429780Y-69382393D01*
X98429776Y-69382386D01*
X98269521Y-69142547D01*
X98079327Y-68925672D01*
X97862452Y-68735478D01*
X97622613Y-68575223D01*
X97622606Y-68575219D01*
X97363905Y-68447642D01*
X97090760Y-68354921D01*
X97090754Y-68354919D01*
X97090753Y-68354919D01*
X97090751Y-68354918D01*
X97090745Y-68354917D01*
X96807849Y-68298646D01*
X96807839Y-68298644D01*
X96520000Y-68279778D01*
X96232161Y-68298644D01*
X96232155Y-68298645D01*
X96232150Y-68298646D01*
X95949254Y-68354917D01*
X95949239Y-68354921D01*
X95676094Y-68447642D01*
X95417393Y-68575219D01*
X95417386Y-68575223D01*
X95177547Y-68735478D01*
X94960672Y-68925672D01*
X94770478Y-69142547D01*
X94610223Y-69382386D01*
X94610219Y-69382393D01*
X94482642Y-69641094D01*
X94389921Y-69914239D01*
X94389917Y-69914254D01*
X94345460Y-70137757D01*
X94333644Y-70197161D01*
X94314778Y-70485000D01*
X91007743Y-70485000D01*
X91029592Y-70420635D01*
X91029597Y-70420615D01*
X91085855Y-70137784D01*
X91085859Y-70137757D01*
X91104720Y-69850007D01*
X91104720Y-69849992D01*
X91085859Y-69562242D01*
X91085855Y-69562215D01*
X91029597Y-69279384D01*
X91029592Y-69279364D01*
X90936899Y-69006297D01*
X90936895Y-69006287D01*
X90809346Y-68747643D01*
X90649126Y-68507858D01*
X90649121Y-68507852D01*
X90624161Y-68479391D01*
X89616661Y-69486891D01*
X89529423Y-69348052D01*
X89401948Y-69220577D01*
X89263107Y-69133338D01*
X90270607Y-68125837D01*
X90270607Y-68125836D01*
X90242147Y-68100878D01*
X90242141Y-68100873D01*
X90002356Y-67940653D01*
X89743712Y-67813104D01*
X89743702Y-67813100D01*
X89470635Y-67720407D01*
X89470615Y-67720402D01*
X89187784Y-67664144D01*
X89187757Y-67664140D01*
X88900007Y-67645280D01*
X88899993Y-67645280D01*
X88612242Y-67664140D01*
X88612215Y-67664144D01*
X88329384Y-67720402D01*
X88329364Y-67720407D01*
X88056297Y-67813100D01*
X88056287Y-67813104D01*
X87797643Y-67940653D01*
X87557853Y-68100876D01*
X87557847Y-68100881D01*
X87529391Y-68125835D01*
X87529391Y-68125838D01*
X88536891Y-69133338D01*
X88398052Y-69220577D01*
X88270577Y-69348052D01*
X88183338Y-69486891D01*
X87175838Y-68479391D01*
X87175835Y-68479391D01*
X87150881Y-68507847D01*
X87150876Y-68507853D01*
X86990653Y-68747643D01*
X86863104Y-69006287D01*
X86863100Y-69006297D01*
X86770407Y-69279364D01*
X86770402Y-69279384D01*
X86714144Y-69562215D01*
X86714140Y-69562242D01*
X86695280Y-69849992D01*
X86695280Y-69850007D01*
X69596500Y-69850007D01*
X69596500Y-66040000D01*
X95464417Y-66040000D01*
X95484699Y-66245932D01*
X95484700Y-66245934D01*
X95544768Y-66443954D01*
X95642315Y-66626450D01*
X95659298Y-66647144D01*
X95773589Y-66786410D01*
X95870209Y-66865702D01*
X95933550Y-66917685D01*
X96116046Y-67015232D01*
X96314066Y-67075300D01*
X96314065Y-67075300D01*
X96352647Y-67079100D01*
X96468392Y-67090500D01*
X96468395Y-67090500D01*
X96571605Y-67090500D01*
X96571608Y-67090500D01*
X96725934Y-67075300D01*
X96923954Y-67015232D01*
X97106450Y-66917685D01*
X97266410Y-66786410D01*
X97397685Y-66626450D01*
X97495232Y-66443954D01*
X97555300Y-66245934D01*
X97575583Y-66040000D01*
X97555300Y-65834066D01*
X97540720Y-65786000D01*
X98916540Y-65786000D01*
X98936326Y-65974256D01*
X98936327Y-65974259D01*
X98994818Y-66154277D01*
X98994821Y-66154284D01*
X99089467Y-66318216D01*
X99197982Y-66438734D01*
X99216129Y-66458888D01*
X99369265Y-66570148D01*
X99369270Y-66570151D01*
X99542192Y-66647142D01*
X99542197Y-66647144D01*
X99727354Y-66686500D01*
X99727355Y-66686500D01*
X99916644Y-66686500D01*
X99916646Y-66686500D01*
X100101803Y-66647144D01*
X100274730Y-66570151D01*
X100427871Y-66458888D01*
X100554533Y-66318216D01*
X100649179Y-66154284D01*
X100686312Y-66040000D01*
X125944417Y-66040000D01*
X125964699Y-66245932D01*
X125964700Y-66245934D01*
X126024768Y-66443954D01*
X126122315Y-66626450D01*
X126139298Y-66647144D01*
X126253589Y-66786410D01*
X126350209Y-66865702D01*
X126413550Y-66917685D01*
X126596046Y-67015232D01*
X126794066Y-67075300D01*
X126794065Y-67075300D01*
X126832647Y-67079100D01*
X126948392Y-67090500D01*
X126948395Y-67090500D01*
X127051605Y-67090500D01*
X127051608Y-67090500D01*
X127205934Y-67075300D01*
X127403954Y-67015232D01*
X127586450Y-66917685D01*
X127746410Y-66786410D01*
X127877685Y-66626450D01*
X127975232Y-66443954D01*
X128035300Y-66245934D01*
X128055583Y-66040000D01*
X156424417Y-66040000D01*
X156444699Y-66245932D01*
X156444700Y-66245934D01*
X156504768Y-66443954D01*
X156602315Y-66626450D01*
X156619298Y-66647144D01*
X156733589Y-66786410D01*
X156830209Y-66865702D01*
X156893550Y-66917685D01*
X157076046Y-67015232D01*
X157274066Y-67075300D01*
X157274065Y-67075300D01*
X157312647Y-67079100D01*
X157428392Y-67090500D01*
X157428395Y-67090500D01*
X157531605Y-67090500D01*
X157531608Y-67090500D01*
X157685934Y-67075300D01*
X157883954Y-67015232D01*
X158066450Y-66917685D01*
X158226410Y-66786410D01*
X158357685Y-66626450D01*
X158455232Y-66443954D01*
X158515300Y-66245934D01*
X158535583Y-66040000D01*
X186904417Y-66040000D01*
X186924699Y-66245932D01*
X186924700Y-66245934D01*
X186984768Y-66443954D01*
X187082315Y-66626450D01*
X187099298Y-66647144D01*
X187213589Y-66786410D01*
X187310209Y-66865702D01*
X187373550Y-66917685D01*
X187556046Y-67015232D01*
X187754066Y-67075300D01*
X187754065Y-67075300D01*
X187792647Y-67079100D01*
X187908392Y-67090500D01*
X187908395Y-67090500D01*
X188011605Y-67090500D01*
X188011608Y-67090500D01*
X188165934Y-67075300D01*
X188363954Y-67015232D01*
X188546450Y-66917685D01*
X188706410Y-66786410D01*
X188837685Y-66626450D01*
X188935232Y-66443954D01*
X188995300Y-66245934D01*
X189015583Y-66040000D01*
X188995300Y-65834066D01*
X188935232Y-65636046D01*
X188837685Y-65453550D01*
X188785702Y-65390209D01*
X188706410Y-65293589D01*
X188546452Y-65162317D01*
X188546453Y-65162317D01*
X188546450Y-65162315D01*
X188363954Y-65064768D01*
X188165934Y-65004700D01*
X188165932Y-65004699D01*
X188165934Y-65004699D01*
X188046805Y-64992966D01*
X188011608Y-64989500D01*
X187908392Y-64989500D01*
X187870298Y-64993251D01*
X187754067Y-65004699D01*
X187556043Y-65064769D01*
X187445898Y-65123643D01*
X187373550Y-65162315D01*
X187373548Y-65162316D01*
X187373547Y-65162317D01*
X187213589Y-65293589D01*
X187082317Y-65453547D01*
X186984769Y-65636043D01*
X186924699Y-65834067D01*
X186904417Y-66040000D01*
X158535583Y-66040000D01*
X158515300Y-65834066D01*
X158455232Y-65636046D01*
X158357685Y-65453550D01*
X158305702Y-65390209D01*
X158226410Y-65293589D01*
X158066452Y-65162317D01*
X158066453Y-65162317D01*
X158066450Y-65162315D01*
X157883954Y-65064768D01*
X157685934Y-65004700D01*
X157685932Y-65004699D01*
X157685934Y-65004699D01*
X157566805Y-64992966D01*
X157531608Y-64989500D01*
X157428392Y-64989500D01*
X157390298Y-64993251D01*
X157274067Y-65004699D01*
X157076043Y-65064769D01*
X156965898Y-65123643D01*
X156893550Y-65162315D01*
X156893548Y-65162316D01*
X156893547Y-65162317D01*
X156733589Y-65293589D01*
X156602317Y-65453547D01*
X156504769Y-65636043D01*
X156444699Y-65834067D01*
X156424417Y-66040000D01*
X128055583Y-66040000D01*
X128035300Y-65834066D01*
X127975232Y-65636046D01*
X127877685Y-65453550D01*
X127825702Y-65390209D01*
X127746410Y-65293589D01*
X127586452Y-65162317D01*
X127586453Y-65162317D01*
X127586450Y-65162315D01*
X127403954Y-65064768D01*
X127205934Y-65004700D01*
X127205932Y-65004699D01*
X127205934Y-65004699D01*
X127086805Y-64992966D01*
X127051608Y-64989500D01*
X126948392Y-64989500D01*
X126910298Y-64993251D01*
X126794067Y-65004699D01*
X126596043Y-65064769D01*
X126485898Y-65123643D01*
X126413550Y-65162315D01*
X126413548Y-65162316D01*
X126413547Y-65162317D01*
X126253589Y-65293589D01*
X126122317Y-65453547D01*
X126024769Y-65636043D01*
X125964699Y-65834067D01*
X125944417Y-66040000D01*
X100686312Y-66040000D01*
X100707674Y-65974256D01*
X100725321Y-65806345D01*
X100751905Y-65741732D01*
X100760952Y-65731636D01*
X103695771Y-62796819D01*
X103757094Y-62763334D01*
X103783452Y-62760500D01*
X201424257Y-62760500D01*
X201439877Y-62762224D01*
X201439904Y-62761939D01*
X201447660Y-62762671D01*
X201447667Y-62762673D01*
X201516814Y-62760500D01*
X201546350Y-62760500D01*
X201546352Y-62760499D01*
X201550238Y-62760255D01*
X201550361Y-62762219D01*
X201611583Y-62772037D01*
X201663638Y-62818642D01*
X201682234Y-62885992D01*
X201678025Y-62916074D01*
X201650367Y-63019299D01*
X201650364Y-63019313D01*
X201630532Y-63245998D01*
X201630532Y-63246001D01*
X201650364Y-63472686D01*
X201650366Y-63472697D01*
X201709258Y-63692488D01*
X201709261Y-63692497D01*
X201805431Y-63898732D01*
X201805432Y-63898734D01*
X201935954Y-64085141D01*
X202096858Y-64246045D01*
X202096861Y-64246047D01*
X202283266Y-64376568D01*
X202341275Y-64403618D01*
X202393714Y-64449791D01*
X202412866Y-64516984D01*
X202392650Y-64583865D01*
X202341275Y-64628382D01*
X202283267Y-64655431D01*
X202283265Y-64655432D01*
X202096858Y-64785954D01*
X201935954Y-64946858D01*
X201805432Y-65133265D01*
X201805431Y-65133267D01*
X201709261Y-65339502D01*
X201709258Y-65339511D01*
X201650366Y-65559302D01*
X201650364Y-65559313D01*
X201630532Y-65785998D01*
X201630532Y-65786001D01*
X201650364Y-66012686D01*
X201650366Y-66012697D01*
X201709258Y-66232488D01*
X201709261Y-66232497D01*
X201805431Y-66438732D01*
X201805432Y-66438734D01*
X201935954Y-66625141D01*
X202096858Y-66786045D01*
X202096861Y-66786047D01*
X202283266Y-66916568D01*
X202341275Y-66943618D01*
X202393714Y-66989791D01*
X202412866Y-67056984D01*
X202392650Y-67123865D01*
X202341275Y-67168382D01*
X202283267Y-67195431D01*
X202283265Y-67195432D01*
X202096858Y-67325954D01*
X201935954Y-67486858D01*
X201805432Y-67673265D01*
X201805431Y-67673267D01*
X201709261Y-67879502D01*
X201709258Y-67879511D01*
X201650366Y-68099302D01*
X201650364Y-68099313D01*
X201630532Y-68325998D01*
X201630532Y-68326001D01*
X201650364Y-68552686D01*
X201650366Y-68552697D01*
X201709258Y-68772488D01*
X201709261Y-68772497D01*
X201805431Y-68978732D01*
X201805432Y-68978734D01*
X201935954Y-69165141D01*
X202096858Y-69326045D01*
X202096861Y-69326047D01*
X202283266Y-69456568D01*
X202341275Y-69483618D01*
X202393714Y-69529791D01*
X202412866Y-69596984D01*
X202392650Y-69663865D01*
X202341275Y-69708382D01*
X202283267Y-69735431D01*
X202283265Y-69735432D01*
X202096858Y-69865954D01*
X201935954Y-70026858D01*
X201805432Y-70213265D01*
X201805431Y-70213267D01*
X201709261Y-70419502D01*
X201709258Y-70419511D01*
X201650366Y-70639302D01*
X201650364Y-70639313D01*
X201630532Y-70865998D01*
X201630532Y-70866001D01*
X201650364Y-71092686D01*
X201650366Y-71092697D01*
X201709258Y-71312488D01*
X201709261Y-71312497D01*
X201805431Y-71518732D01*
X201805432Y-71518734D01*
X201935954Y-71705141D01*
X202096858Y-71866045D01*
X202096861Y-71866047D01*
X202283266Y-71996568D01*
X202341275Y-72023618D01*
X202393714Y-72069791D01*
X202412866Y-72136984D01*
X202392650Y-72203865D01*
X202341275Y-72248382D01*
X202283267Y-72275431D01*
X202283265Y-72275432D01*
X202096858Y-72405954D01*
X201935954Y-72566858D01*
X201805432Y-72753265D01*
X201805431Y-72753267D01*
X201709261Y-72959502D01*
X201709258Y-72959511D01*
X201650366Y-73179302D01*
X201650364Y-73179313D01*
X201630532Y-73405998D01*
X201630532Y-73406001D01*
X201650364Y-73632686D01*
X201650366Y-73632697D01*
X201709258Y-73852488D01*
X201709261Y-73852497D01*
X201805431Y-74058732D01*
X201805432Y-74058734D01*
X201935954Y-74245141D01*
X202096858Y-74406045D01*
X202096861Y-74406047D01*
X202283266Y-74536568D01*
X202341275Y-74563618D01*
X202393714Y-74609791D01*
X202412866Y-74676984D01*
X202392650Y-74743865D01*
X202341275Y-74788382D01*
X202283267Y-74815431D01*
X202283265Y-74815432D01*
X202096858Y-74945954D01*
X201935954Y-75106858D01*
X201805432Y-75293265D01*
X201805431Y-75293267D01*
X201709261Y-75499502D01*
X201709258Y-75499511D01*
X201650366Y-75719302D01*
X201650364Y-75719313D01*
X201630532Y-75945998D01*
X201630532Y-75946001D01*
X201650364Y-76172686D01*
X201650366Y-76172697D01*
X201709258Y-76392488D01*
X201709261Y-76392497D01*
X201805431Y-76598732D01*
X201805432Y-76598734D01*
X201935954Y-76785141D01*
X202096858Y-76946045D01*
X202096861Y-76946047D01*
X202283266Y-77076568D01*
X202341275Y-77103618D01*
X202393714Y-77149791D01*
X202412866Y-77216984D01*
X202392650Y-77283865D01*
X202341275Y-77328382D01*
X202283267Y-77355431D01*
X202283265Y-77355432D01*
X202096858Y-77485954D01*
X201935954Y-77646858D01*
X201805432Y-77833265D01*
X201805431Y-77833267D01*
X201709261Y-78039502D01*
X201709258Y-78039511D01*
X201650366Y-78259302D01*
X201650364Y-78259313D01*
X201630532Y-78485998D01*
X201630532Y-78486001D01*
X201650364Y-78712686D01*
X201650366Y-78712697D01*
X201709258Y-78932488D01*
X201709261Y-78932497D01*
X201805431Y-79138732D01*
X201805432Y-79138734D01*
X201935954Y-79325141D01*
X202096858Y-79486045D01*
X202096861Y-79486047D01*
X202283266Y-79616568D01*
X202341275Y-79643618D01*
X202393714Y-79689791D01*
X202412866Y-79756984D01*
X202392650Y-79823865D01*
X202341275Y-79868382D01*
X202283267Y-79895431D01*
X202283265Y-79895432D01*
X202096858Y-80025954D01*
X201935954Y-80186858D01*
X201805432Y-80373265D01*
X201805431Y-80373267D01*
X201709261Y-80579502D01*
X201709258Y-80579511D01*
X201650366Y-80799302D01*
X201650364Y-80799313D01*
X201630532Y-81025998D01*
X201630532Y-81026001D01*
X201650364Y-81252686D01*
X201650366Y-81252697D01*
X201681638Y-81369407D01*
X201679975Y-81439257D01*
X201640812Y-81497119D01*
X201576583Y-81524623D01*
X201561863Y-81525500D01*
X197822452Y-81525500D01*
X197755413Y-81505815D01*
X197734771Y-81489181D01*
X197645318Y-81399728D01*
X197611833Y-81338405D01*
X197608999Y-81312047D01*
X197608999Y-80734998D01*
X197608998Y-80734981D01*
X197598499Y-80632203D01*
X197598498Y-80632200D01*
X197595056Y-80621814D01*
X197543314Y-80465666D01*
X197451212Y-80316344D01*
X197327156Y-80192288D01*
X197177834Y-80100186D01*
X197011297Y-80045001D01*
X197011295Y-80045000D01*
X196908510Y-80034500D01*
X196283498Y-80034500D01*
X196283480Y-80034501D01*
X196180703Y-80045000D01*
X196180700Y-80045001D01*
X196014168Y-80100185D01*
X196014163Y-80100187D01*
X195864842Y-80192289D01*
X195771181Y-80285951D01*
X195709858Y-80319436D01*
X195640166Y-80314452D01*
X195595819Y-80285951D01*
X195502157Y-80192289D01*
X195502156Y-80192288D01*
X195352834Y-80100186D01*
X195186297Y-80045001D01*
X195186295Y-80045000D01*
X195083510Y-80034500D01*
X194458498Y-80034500D01*
X194458480Y-80034501D01*
X194355703Y-80045000D01*
X194355700Y-80045001D01*
X194189168Y-80100185D01*
X194189163Y-80100187D01*
X194039842Y-80192289D01*
X193915789Y-80316342D01*
X193823687Y-80465663D01*
X193823686Y-80465666D01*
X193804189Y-80524505D01*
X193764416Y-80581949D01*
X193699900Y-80608772D01*
X193686483Y-80609500D01*
X193272255Y-80609500D01*
X193205216Y-80589815D01*
X193159461Y-80537011D01*
X193154549Y-80524504D01*
X193147297Y-80502620D01*
X193133862Y-80462075D01*
X193133856Y-80462066D01*
X193042528Y-80314000D01*
X193042525Y-80313996D01*
X192919503Y-80190974D01*
X192919499Y-80190971D01*
X192771433Y-80099642D01*
X192771427Y-80099639D01*
X192771425Y-80099638D01*
X192740052Y-80089242D01*
X192606276Y-80044913D01*
X192504355Y-80034500D01*
X192504348Y-80034500D01*
X191917652Y-80034500D01*
X191917644Y-80034500D01*
X191815723Y-80044913D01*
X191650577Y-80099637D01*
X191650566Y-80099642D01*
X191502500Y-80190971D01*
X191502496Y-80190974D01*
X191379474Y-80313996D01*
X191379471Y-80314000D01*
X191379038Y-80314703D01*
X191378614Y-80315083D01*
X191374993Y-80319664D01*
X191374210Y-80319045D01*
X191327090Y-80361428D01*
X191258128Y-80372649D01*
X191194046Y-80344806D01*
X191172157Y-80319544D01*
X191172007Y-80319664D01*
X191169359Y-80316315D01*
X191167962Y-80314703D01*
X191167528Y-80314000D01*
X191167525Y-80313996D01*
X191044503Y-80190974D01*
X191044499Y-80190971D01*
X190896433Y-80099642D01*
X190896427Y-80099639D01*
X190896425Y-80099638D01*
X190865052Y-80089242D01*
X190731276Y-80044913D01*
X190629355Y-80034500D01*
X190629348Y-80034500D01*
X190071453Y-80034500D01*
X190004414Y-80014815D01*
X189983772Y-79998181D01*
X188621819Y-78636228D01*
X188588334Y-78574905D01*
X188585500Y-78548547D01*
X188585500Y-72685353D01*
X188605185Y-72618314D01*
X188657989Y-72572559D01*
X188669627Y-72567938D01*
X188803902Y-72522359D01*
X189062611Y-72394778D01*
X189302454Y-72234520D01*
X189519327Y-72044327D01*
X189709520Y-71827454D01*
X189869778Y-71587611D01*
X189997359Y-71328902D01*
X190090081Y-71055753D01*
X190146356Y-70772839D01*
X190165222Y-70485000D01*
X190146356Y-70197161D01*
X190090081Y-69914247D01*
X189997359Y-69641098D01*
X189906359Y-69456568D01*
X189869780Y-69382393D01*
X189869776Y-69382386D01*
X189709521Y-69142547D01*
X189519327Y-68925672D01*
X189302452Y-68735478D01*
X189062613Y-68575223D01*
X189062606Y-68575219D01*
X188803905Y-68447642D01*
X188530760Y-68354921D01*
X188530754Y-68354919D01*
X188530753Y-68354919D01*
X188530751Y-68354918D01*
X188530745Y-68354917D01*
X188247849Y-68298646D01*
X188247839Y-68298644D01*
X187960000Y-68279778D01*
X187672161Y-68298644D01*
X187672155Y-68298645D01*
X187672150Y-68298646D01*
X187389254Y-68354917D01*
X187389239Y-68354921D01*
X187116094Y-68447642D01*
X186857393Y-68575219D01*
X186857386Y-68575223D01*
X186617547Y-68735478D01*
X186400672Y-68925672D01*
X186210478Y-69142547D01*
X186050223Y-69382386D01*
X186050219Y-69382393D01*
X185922642Y-69641094D01*
X185829921Y-69914239D01*
X185829917Y-69914254D01*
X185785460Y-70137757D01*
X185773644Y-70197161D01*
X185754778Y-70485000D01*
X185764601Y-70634877D01*
X185773644Y-70772837D01*
X185773646Y-70772849D01*
X185829917Y-71055745D01*
X185829921Y-71055760D01*
X185922642Y-71328905D01*
X186050219Y-71587606D01*
X186050223Y-71587613D01*
X186210478Y-71827452D01*
X186400672Y-72044327D01*
X186617547Y-72234521D01*
X186857386Y-72394776D01*
X186857393Y-72394780D01*
X187116093Y-72522357D01*
X187116096Y-72522358D01*
X187116098Y-72522359D01*
X187250360Y-72567934D01*
X187307512Y-72608122D01*
X187333866Y-72672831D01*
X187334500Y-72685353D01*
X187334500Y-78776255D01*
X187332775Y-78791872D01*
X187333061Y-78791899D01*
X187332326Y-78799665D01*
X187334500Y-78868814D01*
X187334500Y-78898343D01*
X187334501Y-78898360D01*
X187335368Y-78905231D01*
X187335826Y-78911050D01*
X187337290Y-78957624D01*
X187337291Y-78957627D01*
X187342880Y-78976867D01*
X187346824Y-78995911D01*
X187349336Y-79015792D01*
X187357299Y-79035905D01*
X187366490Y-79059119D01*
X187368382Y-79064647D01*
X187380336Y-79105792D01*
X187381382Y-79109390D01*
X187389947Y-79123874D01*
X187391580Y-79126634D01*
X187400138Y-79144103D01*
X187407514Y-79162732D01*
X187434898Y-79200423D01*
X187438106Y-79205307D01*
X187461827Y-79245416D01*
X187461833Y-79245424D01*
X187475990Y-79259580D01*
X187488627Y-79274375D01*
X187500406Y-79290587D01*
X187522430Y-79308807D01*
X187536309Y-79320288D01*
X187540620Y-79324210D01*
X188502361Y-80285951D01*
X189311681Y-81095271D01*
X189345166Y-81156594D01*
X189348000Y-81182952D01*
X189348000Y-81740855D01*
X189358413Y-81842776D01*
X189413137Y-82007922D01*
X189413142Y-82007933D01*
X189504471Y-82155999D01*
X189504474Y-82156003D01*
X189627496Y-82279025D01*
X189627500Y-82279028D01*
X189775566Y-82370357D01*
X189775569Y-82370358D01*
X189775575Y-82370362D01*
X189940725Y-82425087D01*
X190042652Y-82435500D01*
X190042657Y-82435500D01*
X190629343Y-82435500D01*
X190629348Y-82435500D01*
X190731275Y-82425087D01*
X190896425Y-82370362D01*
X191044503Y-82279026D01*
X191167526Y-82156003D01*
X191167958Y-82155301D01*
X191168381Y-82154921D01*
X191172007Y-82150336D01*
X191172790Y-82150955D01*
X191219902Y-82108575D01*
X191288864Y-82097349D01*
X191352948Y-82125188D01*
X191374842Y-82150455D01*
X191374993Y-82150336D01*
X191377643Y-82153687D01*
X191379040Y-82155299D01*
X191379469Y-82155995D01*
X191379475Y-82156004D01*
X191502496Y-82279025D01*
X191502500Y-82279028D01*
X191650566Y-82370357D01*
X191650569Y-82370358D01*
X191650575Y-82370362D01*
X191815725Y-82425087D01*
X191917652Y-82435500D01*
X191917657Y-82435500D01*
X192504343Y-82435500D01*
X192504348Y-82435500D01*
X192606275Y-82425087D01*
X192771425Y-82370362D01*
X192919503Y-82279026D01*
X193042526Y-82156003D01*
X193133862Y-82007925D01*
X193154549Y-81945495D01*
X193194322Y-81888051D01*
X193258838Y-81861228D01*
X193272255Y-81860500D01*
X193686483Y-81860500D01*
X193753522Y-81880185D01*
X193799277Y-81932989D01*
X193804189Y-81945495D01*
X193823686Y-82004333D01*
X193823687Y-82004336D01*
X193854880Y-82054908D01*
X193915788Y-82153656D01*
X194039844Y-82277712D01*
X194189166Y-82369814D01*
X194355703Y-82424999D01*
X194458491Y-82435500D01*
X195083508Y-82435499D01*
X195083516Y-82435498D01*
X195083519Y-82435498D01*
X195139802Y-82429748D01*
X195186297Y-82424999D01*
X195352834Y-82369814D01*
X195502156Y-82277712D01*
X195595819Y-82184049D01*
X195657142Y-82150564D01*
X195726834Y-82155548D01*
X195771181Y-82184049D01*
X195864844Y-82277712D01*
X196014166Y-82369814D01*
X196180703Y-82424999D01*
X196283491Y-82435500D01*
X196860547Y-82435499D01*
X196927586Y-82455183D01*
X196948228Y-82471818D01*
X197011194Y-82534784D01*
X197021019Y-82547048D01*
X197021240Y-82546866D01*
X197026210Y-82552873D01*
X197026213Y-82552876D01*
X197026214Y-82552877D01*
X197076651Y-82600241D01*
X197097530Y-82621120D01*
X197103004Y-82625366D01*
X197107442Y-82629156D01*
X197141418Y-82661062D01*
X197141422Y-82661064D01*
X197158973Y-82670713D01*
X197175231Y-82681392D01*
X197191064Y-82693674D01*
X197213015Y-82703172D01*
X197233837Y-82712183D01*
X197239081Y-82714752D01*
X197279908Y-82737197D01*
X197299312Y-82742179D01*
X197317710Y-82748478D01*
X197336105Y-82756438D01*
X197382129Y-82763726D01*
X197387832Y-82764907D01*
X197432981Y-82776500D01*
X197453016Y-82776500D01*
X197472413Y-82778026D01*
X197492196Y-82781160D01*
X197538584Y-82776775D01*
X197544422Y-82776500D01*
X201674566Y-82776500D01*
X201741605Y-82796185D01*
X201787360Y-82848989D01*
X201797304Y-82918147D01*
X201786948Y-82952905D01*
X201709262Y-83119502D01*
X201709258Y-83119511D01*
X201650366Y-83339302D01*
X201650364Y-83339313D01*
X201630532Y-83565998D01*
X201630532Y-83566001D01*
X201650364Y-83792686D01*
X201650366Y-83792697D01*
X201709258Y-84012488D01*
X201709261Y-84012497D01*
X201805431Y-84218732D01*
X201805432Y-84218734D01*
X201935954Y-84405141D01*
X202096858Y-84566045D01*
X202096861Y-84566047D01*
X202283266Y-84696568D01*
X202341275Y-84723618D01*
X202393714Y-84769791D01*
X202412866Y-84836984D01*
X202392650Y-84903865D01*
X202341275Y-84948382D01*
X202283267Y-84975431D01*
X202283265Y-84975432D01*
X202096858Y-85105954D01*
X201935954Y-85266858D01*
X201805432Y-85453265D01*
X201805431Y-85453267D01*
X201709261Y-85659502D01*
X201709258Y-85659511D01*
X201650366Y-85879302D01*
X201650364Y-85879313D01*
X201630532Y-86105998D01*
X201630532Y-86106001D01*
X201650364Y-86332686D01*
X201650366Y-86332697D01*
X201709258Y-86552488D01*
X201709261Y-86552497D01*
X201805431Y-86758732D01*
X201805432Y-86758734D01*
X201935954Y-86945141D01*
X202096858Y-87106045D01*
X202096861Y-87106047D01*
X202283266Y-87236568D01*
X202341275Y-87263618D01*
X202393714Y-87309791D01*
X202412866Y-87376984D01*
X202392650Y-87443865D01*
X202341275Y-87488382D01*
X202283267Y-87515431D01*
X202283265Y-87515432D01*
X202096858Y-87645954D01*
X201935954Y-87806858D01*
X201805432Y-87993265D01*
X201805431Y-87993267D01*
X201709261Y-88199502D01*
X201709258Y-88199511D01*
X201650366Y-88419302D01*
X201650364Y-88419313D01*
X201630532Y-88645998D01*
X201630532Y-88646001D01*
X201650364Y-88872686D01*
X201650366Y-88872697D01*
X201709258Y-89092488D01*
X201709261Y-89092497D01*
X201805431Y-89298732D01*
X201805432Y-89298734D01*
X201935954Y-89485141D01*
X202096858Y-89646045D01*
X202096861Y-89646047D01*
X202283266Y-89776568D01*
X202340681Y-89803341D01*
X202341275Y-89803618D01*
X202393714Y-89849791D01*
X202412866Y-89916984D01*
X202392650Y-89983865D01*
X202341275Y-90028382D01*
X202283267Y-90055431D01*
X202283265Y-90055432D01*
X202096858Y-90185954D01*
X201935954Y-90346858D01*
X201805432Y-90533265D01*
X201805431Y-90533267D01*
X201709261Y-90739502D01*
X201709258Y-90739511D01*
X201650366Y-90959302D01*
X201650364Y-90959313D01*
X201630532Y-91185998D01*
X201630532Y-91186001D01*
X201650364Y-91412686D01*
X201650366Y-91412697D01*
X201709258Y-91632488D01*
X201709261Y-91632497D01*
X201805431Y-91838732D01*
X201805432Y-91838734D01*
X201935954Y-92025141D01*
X202096858Y-92186045D01*
X202096861Y-92186047D01*
X202283266Y-92316568D01*
X202341865Y-92343893D01*
X202394305Y-92390065D01*
X202413457Y-92457258D01*
X202393242Y-92524139D01*
X202341867Y-92568657D01*
X202283515Y-92595867D01*
X202097179Y-92726342D01*
X201936342Y-92887179D01*
X201805865Y-93073517D01*
X201709734Y-93279673D01*
X201709730Y-93279682D01*
X201657127Y-93475999D01*
X201657128Y-93476000D01*
X202502314Y-93476000D01*
X202476507Y-93516156D01*
X202436000Y-93654111D01*
X202436000Y-93797889D01*
X202476507Y-93935844D01*
X202502314Y-93976000D01*
X201657128Y-93976000D01*
X201709730Y-94172317D01*
X201709734Y-94172326D01*
X201805865Y-94378482D01*
X201936342Y-94564820D01*
X202097179Y-94725657D01*
X202283518Y-94856134D01*
X202283520Y-94856135D01*
X202341865Y-94883342D01*
X202394305Y-94929514D01*
X202413457Y-94996707D01*
X202393242Y-95063589D01*
X202341867Y-95108105D01*
X202283268Y-95135431D01*
X202283264Y-95135433D01*
X202096858Y-95265954D01*
X201935954Y-95426858D01*
X201805432Y-95613265D01*
X201805431Y-95613267D01*
X201709261Y-95819502D01*
X201709258Y-95819511D01*
X201650366Y-96039302D01*
X201650364Y-96039313D01*
X201630532Y-96265998D01*
X201630532Y-96266001D01*
X201650364Y-96492686D01*
X201650366Y-96492697D01*
X201709258Y-96712488D01*
X201709261Y-96712497D01*
X201805431Y-96918732D01*
X201805432Y-96918734D01*
X201935954Y-97105141D01*
X202096858Y-97266045D01*
X202096861Y-97266047D01*
X202283266Y-97396568D01*
X202489504Y-97492739D01*
X202709308Y-97551635D01*
X202871230Y-97565801D01*
X202935998Y-97571468D01*
X202936000Y-97571468D01*
X202936002Y-97571468D01*
X202992807Y-97566498D01*
X203162692Y-97551635D01*
X203382496Y-97492739D01*
X203588734Y-97396568D01*
X203775139Y-97266047D01*
X203936047Y-97105139D01*
X204066568Y-96918734D01*
X204162739Y-96712496D01*
X204221635Y-96492692D01*
X204241468Y-96266000D01*
X204221635Y-96039308D01*
X204162739Y-95819504D01*
X204066568Y-95613266D01*
X203936047Y-95426861D01*
X203936045Y-95426858D01*
X203775141Y-95265954D01*
X203588734Y-95135432D01*
X203588732Y-95135431D01*
X203577275Y-95130088D01*
X203530132Y-95108105D01*
X203477694Y-95061934D01*
X203458542Y-94994740D01*
X203478758Y-94927859D01*
X203530134Y-94883341D01*
X203588484Y-94856132D01*
X203774820Y-94725657D01*
X203935657Y-94564820D01*
X204066134Y-94378482D01*
X204162265Y-94172326D01*
X204162269Y-94172317D01*
X204214872Y-93976000D01*
X203369686Y-93976000D01*
X203395493Y-93935844D01*
X203436000Y-93797889D01*
X203436000Y-93654111D01*
X203395493Y-93516156D01*
X203369686Y-93476000D01*
X204214872Y-93476000D01*
X204214872Y-93475999D01*
X204162269Y-93279682D01*
X204162265Y-93279673D01*
X204066134Y-93073517D01*
X203935657Y-92887179D01*
X203774820Y-92726342D01*
X203588482Y-92595865D01*
X203530133Y-92568657D01*
X203477694Y-92522484D01*
X203458542Y-92455291D01*
X203478758Y-92388410D01*
X203530129Y-92343895D01*
X203588734Y-92316568D01*
X203775139Y-92186047D01*
X203936047Y-92025139D01*
X204066568Y-91838734D01*
X204162739Y-91632496D01*
X204221635Y-91412692D01*
X204241468Y-91186000D01*
X204221635Y-90959308D01*
X204162739Y-90739504D01*
X204066568Y-90533266D01*
X203936047Y-90346861D01*
X203936045Y-90346858D01*
X203775141Y-90185954D01*
X203588734Y-90055432D01*
X203588728Y-90055429D01*
X203530725Y-90028382D01*
X203478285Y-89982210D01*
X203459133Y-89915017D01*
X203479348Y-89848135D01*
X203530725Y-89803618D01*
X203531319Y-89803341D01*
X203588734Y-89776568D01*
X203775139Y-89646047D01*
X203936047Y-89485139D01*
X204066568Y-89298734D01*
X204162739Y-89092496D01*
X204221635Y-88872692D01*
X204241468Y-88646000D01*
X204221635Y-88419308D01*
X204162739Y-88199504D01*
X204066568Y-87993266D01*
X203936047Y-87806861D01*
X203936045Y-87806858D01*
X203775141Y-87645954D01*
X203588734Y-87515432D01*
X203588728Y-87515429D01*
X203530725Y-87488382D01*
X203478285Y-87442210D01*
X203459133Y-87375017D01*
X203479348Y-87308135D01*
X203530725Y-87263618D01*
X203588734Y-87236568D01*
X203775139Y-87106047D01*
X203936047Y-86945139D01*
X204066568Y-86758734D01*
X204162739Y-86552496D01*
X204221635Y-86332692D01*
X204241468Y-86106000D01*
X204221635Y-85879308D01*
X204162739Y-85659504D01*
X204066568Y-85453266D01*
X203936047Y-85266861D01*
X203936045Y-85266858D01*
X203775141Y-85105954D01*
X203588734Y-84975432D01*
X203588728Y-84975429D01*
X203530725Y-84948382D01*
X203478285Y-84902210D01*
X203459133Y-84835017D01*
X203479348Y-84768135D01*
X203530725Y-84723618D01*
X203588734Y-84696568D01*
X203775139Y-84566047D01*
X203936047Y-84405139D01*
X204066568Y-84218734D01*
X204162739Y-84012496D01*
X204221635Y-83792692D01*
X204241468Y-83566000D01*
X204237930Y-83525566D01*
X204226159Y-83391019D01*
X204221635Y-83339308D01*
X204162739Y-83119504D01*
X204066568Y-82913266D01*
X204016071Y-82841149D01*
X203993745Y-82774944D01*
X204010755Y-82707177D01*
X204054528Y-82663294D01*
X204058309Y-82661058D01*
X204078411Y-82649170D01*
X204092580Y-82634999D01*
X204107370Y-82622368D01*
X204123578Y-82610594D01*
X204153290Y-82574676D01*
X204157203Y-82570376D01*
X204444786Y-82282793D01*
X204457048Y-82272971D01*
X204456865Y-82272750D01*
X204462867Y-82267783D01*
X204462877Y-82267777D01*
X204510241Y-82217339D01*
X204531120Y-82196461D01*
X204535373Y-82190977D01*
X204539150Y-82186554D01*
X204571062Y-82152573D01*
X204580714Y-82135014D01*
X204591389Y-82118763D01*
X204603674Y-82102927D01*
X204622186Y-82060143D01*
X204624742Y-82054926D01*
X204647197Y-82014083D01*
X204652180Y-81994671D01*
X204658477Y-81976282D01*
X204666438Y-81957886D01*
X204673729Y-81911844D01*
X204674908Y-81906153D01*
X204686500Y-81861010D01*
X204686500Y-81840974D01*
X204688027Y-81821573D01*
X204689287Y-81813618D01*
X204691160Y-81801795D01*
X204686775Y-81755406D01*
X204686500Y-81749568D01*
X204686500Y-64453737D01*
X204688224Y-64438123D01*
X204687938Y-64438096D01*
X204688672Y-64430333D01*
X204686500Y-64361203D01*
X204686500Y-64331651D01*
X204686500Y-64331650D01*
X204685629Y-64324759D01*
X204685172Y-64318945D01*
X204683709Y-64272372D01*
X204678122Y-64253144D01*
X204674174Y-64234084D01*
X204671664Y-64214208D01*
X204654507Y-64170875D01*
X204652619Y-64165359D01*
X204639619Y-64120612D01*
X204629418Y-64103363D01*
X204620860Y-64085894D01*
X204613486Y-64067268D01*
X204613483Y-64067264D01*
X204613483Y-64067263D01*
X204586098Y-64029571D01*
X204582890Y-64024687D01*
X204559172Y-63984582D01*
X204559163Y-63984571D01*
X204545005Y-63970413D01*
X204532370Y-63955620D01*
X204520593Y-63939412D01*
X204484693Y-63909713D01*
X204480381Y-63905790D01*
X204235413Y-63660822D01*
X204201928Y-63599499D01*
X204203319Y-63541048D01*
X204221635Y-63472692D01*
X204241468Y-63246000D01*
X204221635Y-63019308D01*
X204162739Y-62799504D01*
X204066568Y-62593266D01*
X203936047Y-62406861D01*
X203936045Y-62406858D01*
X203775141Y-62245954D01*
X203588734Y-62115432D01*
X203588728Y-62115429D01*
X203530725Y-62088382D01*
X203478285Y-62042210D01*
X203459133Y-61975017D01*
X203479348Y-61908135D01*
X203530725Y-61863618D01*
X203588734Y-61836568D01*
X203775139Y-61706047D01*
X203936047Y-61545139D01*
X204066568Y-61358734D01*
X204162739Y-61152496D01*
X204221635Y-60932692D01*
X204241468Y-60706000D01*
X204241201Y-60702952D01*
X204230606Y-60581846D01*
X204221635Y-60479308D01*
X204196382Y-60385061D01*
X204190362Y-60362593D01*
X204192025Y-60292743D01*
X204231188Y-60234881D01*
X204295417Y-60207377D01*
X204310137Y-60206500D01*
X216740547Y-60206500D01*
X216807586Y-60226185D01*
X216828229Y-60242820D01*
X216876587Y-60291179D01*
X216910071Y-60352502D01*
X216908680Y-60410951D01*
X216890367Y-60479300D01*
X216890364Y-60479313D01*
X216870532Y-60705999D01*
X216870532Y-60706001D01*
X216890364Y-60932686D01*
X216890366Y-60932697D01*
X216949258Y-61152488D01*
X216949261Y-61152497D01*
X217045431Y-61358732D01*
X217045432Y-61358734D01*
X217175954Y-61545141D01*
X217336858Y-61706045D01*
X217336861Y-61706047D01*
X217523266Y-61836568D01*
X217581275Y-61863618D01*
X217633714Y-61909791D01*
X217652866Y-61976984D01*
X217632650Y-62043865D01*
X217581275Y-62088382D01*
X217523267Y-62115431D01*
X217523265Y-62115432D01*
X217336858Y-62245954D01*
X217175954Y-62406858D01*
X217045432Y-62593265D01*
X217045431Y-62593267D01*
X216949261Y-62799502D01*
X216949258Y-62799511D01*
X216890366Y-63019302D01*
X216890364Y-63019313D01*
X216870532Y-63245998D01*
X216870532Y-63246001D01*
X216890364Y-63472686D01*
X216890366Y-63472697D01*
X216949258Y-63692488D01*
X216949261Y-63692497D01*
X217045431Y-63898732D01*
X217045432Y-63898734D01*
X217175954Y-64085141D01*
X217336858Y-64246045D01*
X217336861Y-64246047D01*
X217523266Y-64376568D01*
X217581275Y-64403618D01*
X217633714Y-64449791D01*
X217652866Y-64516984D01*
X217632650Y-64583865D01*
X217581275Y-64628382D01*
X217523267Y-64655431D01*
X217523265Y-64655432D01*
X217336858Y-64785954D01*
X217175954Y-64946858D01*
X217045432Y-65133265D01*
X217045431Y-65133267D01*
X216949261Y-65339502D01*
X216949258Y-65339511D01*
X216890366Y-65559302D01*
X216890364Y-65559313D01*
X216870532Y-65785998D01*
X216870532Y-65786001D01*
X216890364Y-66012686D01*
X216890366Y-66012697D01*
X216949258Y-66232488D01*
X216949261Y-66232497D01*
X217045431Y-66438732D01*
X217045432Y-66438734D01*
X217175954Y-66625141D01*
X217336858Y-66786045D01*
X217336861Y-66786047D01*
X217523266Y-66916568D01*
X217581275Y-66943618D01*
X217633714Y-66989791D01*
X217652866Y-67056984D01*
X217632650Y-67123865D01*
X217581275Y-67168382D01*
X217523267Y-67195431D01*
X217523265Y-67195432D01*
X217336858Y-67325954D01*
X217175954Y-67486858D01*
X217045432Y-67673265D01*
X217045431Y-67673267D01*
X216949261Y-67879502D01*
X216949258Y-67879511D01*
X216890366Y-68099302D01*
X216890364Y-68099313D01*
X216870532Y-68325998D01*
X216870532Y-68326001D01*
X216890364Y-68552686D01*
X216890366Y-68552697D01*
X216949258Y-68772488D01*
X216949261Y-68772497D01*
X217045431Y-68978732D01*
X217045432Y-68978734D01*
X217175954Y-69165141D01*
X217336858Y-69326045D01*
X217336861Y-69326047D01*
X217523266Y-69456568D01*
X217581275Y-69483618D01*
X217633714Y-69529791D01*
X217652866Y-69596984D01*
X217632650Y-69663865D01*
X217581275Y-69708382D01*
X217523267Y-69735431D01*
X217523265Y-69735432D01*
X217336858Y-69865954D01*
X217175954Y-70026858D01*
X217045432Y-70213265D01*
X217045431Y-70213267D01*
X216949261Y-70419502D01*
X216949258Y-70419511D01*
X216890366Y-70639302D01*
X216890364Y-70639313D01*
X216870532Y-70865998D01*
X216870532Y-70866001D01*
X216890364Y-71092686D01*
X216890366Y-71092697D01*
X216949258Y-71312488D01*
X216949261Y-71312497D01*
X217045431Y-71518732D01*
X217045432Y-71518734D01*
X217175954Y-71705141D01*
X217336858Y-71866045D01*
X217336861Y-71866047D01*
X217523266Y-71996568D01*
X217581275Y-72023618D01*
X217633714Y-72069791D01*
X217652866Y-72136984D01*
X217632650Y-72203865D01*
X217581275Y-72248382D01*
X217523267Y-72275431D01*
X217523265Y-72275432D01*
X217336858Y-72405954D01*
X217175954Y-72566858D01*
X217063387Y-72727623D01*
X217008811Y-72771248D01*
X216961812Y-72780500D01*
X208870743Y-72780500D01*
X208855122Y-72778775D01*
X208855096Y-72779061D01*
X208847334Y-72778327D01*
X208847333Y-72778327D01*
X208778186Y-72780500D01*
X208748649Y-72780500D01*
X208741766Y-72781369D01*
X208735949Y-72781826D01*
X208689373Y-72783290D01*
X208670129Y-72788881D01*
X208651079Y-72792825D01*
X208631211Y-72795334D01*
X208587884Y-72812488D01*
X208582358Y-72814379D01*
X208537614Y-72827379D01*
X208537610Y-72827381D01*
X208520366Y-72837579D01*
X208502905Y-72846133D01*
X208484274Y-72853510D01*
X208484262Y-72853517D01*
X208446570Y-72880902D01*
X208441687Y-72884109D01*
X208401580Y-72907829D01*
X208387414Y-72921995D01*
X208372624Y-72934627D01*
X208356414Y-72946404D01*
X208356411Y-72946407D01*
X208326710Y-72982309D01*
X208322777Y-72986631D01*
X207824228Y-73485181D01*
X207762905Y-73518666D01*
X207736547Y-73521500D01*
X207677354Y-73521500D01*
X207644897Y-73528398D01*
X207492197Y-73560855D01*
X207492192Y-73560857D01*
X207319270Y-73637848D01*
X207319265Y-73637851D01*
X207166129Y-73749111D01*
X207039466Y-73889785D01*
X206944821Y-74053715D01*
X206944818Y-74053722D01*
X206886327Y-74233740D01*
X206886326Y-74233744D01*
X206866540Y-74422000D01*
X206886326Y-74610256D01*
X206886327Y-74610259D01*
X206944818Y-74790277D01*
X206944821Y-74790284D01*
X207039467Y-74954216D01*
X207166129Y-75094888D01*
X207319265Y-75206148D01*
X207319270Y-75206151D01*
X207492192Y-75283142D01*
X207492197Y-75283144D01*
X207677354Y-75322500D01*
X207677355Y-75322500D01*
X207866644Y-75322500D01*
X207866646Y-75322500D01*
X208051803Y-75283144D01*
X208224730Y-75206151D01*
X208377871Y-75094888D01*
X208504533Y-74954216D01*
X208599179Y-74790284D01*
X208657674Y-74610256D01*
X208675321Y-74442344D01*
X208701904Y-74377734D01*
X208710941Y-74367648D01*
X209010773Y-74067816D01*
X209072095Y-74034334D01*
X209098453Y-74031500D01*
X216961812Y-74031500D01*
X217028851Y-74051185D01*
X217063387Y-74084377D01*
X217175954Y-74245141D01*
X217336858Y-74406045D01*
X217336861Y-74406047D01*
X217523266Y-74536568D01*
X217581275Y-74563618D01*
X217633714Y-74609791D01*
X217652866Y-74676984D01*
X217632650Y-74743865D01*
X217581275Y-74788382D01*
X217523267Y-74815431D01*
X217523265Y-74815432D01*
X217336858Y-74945954D01*
X217175954Y-75106858D01*
X217063387Y-75267623D01*
X217008811Y-75311248D01*
X216961812Y-75320500D01*
X209124737Y-75320500D01*
X209109120Y-75318776D01*
X209109093Y-75319062D01*
X209101331Y-75318327D01*
X209032203Y-75320500D01*
X209002650Y-75320500D01*
X209001929Y-75320590D01*
X208995757Y-75321369D01*
X208989945Y-75321826D01*
X208943373Y-75323290D01*
X208943372Y-75323290D01*
X208924129Y-75328881D01*
X208905079Y-75332825D01*
X208885211Y-75335334D01*
X208885209Y-75335335D01*
X208841884Y-75352488D01*
X208836357Y-75354380D01*
X208791610Y-75367381D01*
X208791609Y-75367382D01*
X208774367Y-75377579D01*
X208756899Y-75386137D01*
X208738269Y-75393513D01*
X208738267Y-75393514D01*
X208700576Y-75420898D01*
X208695694Y-75424105D01*
X208655579Y-75447830D01*
X208641408Y-75462000D01*
X208626623Y-75474628D01*
X208610412Y-75486407D01*
X208580709Y-75522310D01*
X208576777Y-75526631D01*
X207824228Y-76279181D01*
X207762905Y-76312666D01*
X207736547Y-76315500D01*
X207677354Y-76315500D01*
X207644897Y-76322398D01*
X207492197Y-76354855D01*
X207492192Y-76354857D01*
X207319270Y-76431848D01*
X207319265Y-76431851D01*
X207166129Y-76543111D01*
X207039466Y-76683785D01*
X206944821Y-76847715D01*
X206944818Y-76847722D01*
X206886327Y-77027740D01*
X206886326Y-77027744D01*
X206866540Y-77216000D01*
X206886326Y-77404256D01*
X206886327Y-77404259D01*
X206944818Y-77584277D01*
X206944821Y-77584284D01*
X207039467Y-77748216D01*
X207143081Y-77863291D01*
X207166129Y-77888888D01*
X207319265Y-78000148D01*
X207319270Y-78000151D01*
X207492192Y-78077142D01*
X207492197Y-78077144D01*
X207677354Y-78116500D01*
X207677355Y-78116500D01*
X207866644Y-78116500D01*
X207866646Y-78116500D01*
X208051803Y-78077144D01*
X208224730Y-78000151D01*
X208377871Y-77888888D01*
X208504533Y-77748216D01*
X208599179Y-77584284D01*
X208657674Y-77404256D01*
X208675321Y-77236344D01*
X208701904Y-77171734D01*
X208710950Y-77161639D01*
X209264772Y-76607819D01*
X209326095Y-76574334D01*
X209352453Y-76571500D01*
X216961812Y-76571500D01*
X217028851Y-76591185D01*
X217063387Y-76624377D01*
X217175954Y-76785141D01*
X217336858Y-76946045D01*
X217336861Y-76946047D01*
X217523266Y-77076568D01*
X217581275Y-77103618D01*
X217633714Y-77149791D01*
X217652866Y-77216984D01*
X217632650Y-77283865D01*
X217581275Y-77328382D01*
X217523267Y-77355431D01*
X217523265Y-77355432D01*
X217336858Y-77485954D01*
X217175954Y-77646858D01*
X217063387Y-77807623D01*
X217008811Y-77851248D01*
X216961812Y-77860500D01*
X209124737Y-77860500D01*
X209109120Y-77858776D01*
X209109093Y-77859062D01*
X209101331Y-77858327D01*
X209032203Y-77860500D01*
X209002650Y-77860500D01*
X209001929Y-77860590D01*
X208995757Y-77861369D01*
X208989945Y-77861826D01*
X208943373Y-77863290D01*
X208943372Y-77863290D01*
X208924129Y-77868881D01*
X208905079Y-77872825D01*
X208885211Y-77875334D01*
X208885209Y-77875335D01*
X208841884Y-77892488D01*
X208836357Y-77894380D01*
X208791610Y-77907381D01*
X208791609Y-77907382D01*
X208774367Y-77917579D01*
X208756899Y-77926137D01*
X208738269Y-77933513D01*
X208738267Y-77933514D01*
X208700576Y-77960898D01*
X208695694Y-77964105D01*
X208655579Y-77987830D01*
X208641408Y-78002000D01*
X208626623Y-78014628D01*
X208610412Y-78026407D01*
X208580709Y-78062310D01*
X208576776Y-78066631D01*
X208183994Y-78459415D01*
X207824228Y-78819181D01*
X207762905Y-78852666D01*
X207736547Y-78855500D01*
X207677354Y-78855500D01*
X207644897Y-78862398D01*
X207492197Y-78894855D01*
X207492192Y-78894857D01*
X207319270Y-78971848D01*
X207319265Y-78971851D01*
X207166129Y-79083111D01*
X207039466Y-79223785D01*
X206944821Y-79387715D01*
X206944818Y-79387722D01*
X206901800Y-79520119D01*
X206886326Y-79567744D01*
X206866540Y-79756000D01*
X206886326Y-79944256D01*
X206886327Y-79944259D01*
X206944818Y-80124277D01*
X206944821Y-80124284D01*
X207039467Y-80288216D01*
X207143081Y-80403291D01*
X207166129Y-80428888D01*
X207319265Y-80540148D01*
X207319270Y-80540151D01*
X207492192Y-80617142D01*
X207492197Y-80617144D01*
X207677354Y-80656500D01*
X207677355Y-80656500D01*
X207866644Y-80656500D01*
X207866646Y-80656500D01*
X208051803Y-80617144D01*
X208224730Y-80540151D01*
X208377871Y-80428888D01*
X208504533Y-80288216D01*
X208599179Y-80124284D01*
X208657674Y-79944256D01*
X208675321Y-79776344D01*
X208701904Y-79711734D01*
X208710950Y-79701639D01*
X209264772Y-79147819D01*
X209326095Y-79114334D01*
X209352453Y-79111500D01*
X216961812Y-79111500D01*
X217028851Y-79131185D01*
X217063387Y-79164377D01*
X217175954Y-79325141D01*
X217336858Y-79486045D01*
X217336861Y-79486047D01*
X217523266Y-79616568D01*
X217581275Y-79643618D01*
X217633714Y-79689791D01*
X217652866Y-79756984D01*
X217632650Y-79823865D01*
X217581275Y-79868382D01*
X217523267Y-79895431D01*
X217523265Y-79895432D01*
X217336858Y-80025954D01*
X217175954Y-80186858D01*
X217063387Y-80347623D01*
X217008811Y-80391248D01*
X216961812Y-80400500D01*
X209124737Y-80400500D01*
X209109120Y-80398776D01*
X209109093Y-80399062D01*
X209101331Y-80398327D01*
X209032203Y-80400500D01*
X209002650Y-80400500D01*
X209001929Y-80400590D01*
X208995757Y-80401369D01*
X208989945Y-80401826D01*
X208943373Y-80403290D01*
X208943372Y-80403290D01*
X208924129Y-80408881D01*
X208905079Y-80412825D01*
X208885211Y-80415334D01*
X208885209Y-80415335D01*
X208841884Y-80432488D01*
X208836357Y-80434380D01*
X208791610Y-80447381D01*
X208791609Y-80447382D01*
X208774367Y-80457579D01*
X208756899Y-80466137D01*
X208738269Y-80473513D01*
X208738267Y-80473514D01*
X208700576Y-80500898D01*
X208695694Y-80504105D01*
X208655579Y-80527830D01*
X208641408Y-80542000D01*
X208626623Y-80554628D01*
X208610412Y-80566407D01*
X208580709Y-80602310D01*
X208576776Y-80606631D01*
X208198409Y-80985000D01*
X207824228Y-81359181D01*
X207762905Y-81392666D01*
X207736547Y-81395500D01*
X207677354Y-81395500D01*
X207657463Y-81399728D01*
X207492197Y-81434855D01*
X207492192Y-81434857D01*
X207319270Y-81511848D01*
X207319265Y-81511851D01*
X207166129Y-81623111D01*
X207039466Y-81763785D01*
X206944821Y-81927715D01*
X206944818Y-81927722D01*
X206887891Y-82102927D01*
X206886326Y-82107744D01*
X206866540Y-82296000D01*
X206886326Y-82484256D01*
X206886327Y-82484259D01*
X206944818Y-82664277D01*
X206944821Y-82664284D01*
X207039467Y-82828216D01*
X207151738Y-82952905D01*
X207166129Y-82968888D01*
X207319265Y-83080148D01*
X207319270Y-83080151D01*
X207492192Y-83157142D01*
X207492197Y-83157144D01*
X207677354Y-83196500D01*
X207677355Y-83196500D01*
X207866644Y-83196500D01*
X207866646Y-83196500D01*
X208051803Y-83157144D01*
X208224730Y-83080151D01*
X208377871Y-82968888D01*
X208504533Y-82828216D01*
X208599179Y-82664284D01*
X208657674Y-82484256D01*
X208675321Y-82316344D01*
X208701904Y-82251734D01*
X208710950Y-82241639D01*
X209264772Y-81687819D01*
X209326095Y-81654334D01*
X209352453Y-81651500D01*
X216961812Y-81651500D01*
X217028851Y-81671185D01*
X217063387Y-81704377D01*
X217175954Y-81865141D01*
X217336858Y-82026045D01*
X217336861Y-82026047D01*
X217523266Y-82156568D01*
X217581275Y-82183618D01*
X217633714Y-82229791D01*
X217652866Y-82296984D01*
X217632650Y-82363865D01*
X217581275Y-82408382D01*
X217523267Y-82435431D01*
X217523265Y-82435432D01*
X217336858Y-82565954D01*
X217175954Y-82726858D01*
X217045432Y-82913265D01*
X217045431Y-82913267D01*
X216949261Y-83119502D01*
X216949258Y-83119511D01*
X216890366Y-83339302D01*
X216890364Y-83339313D01*
X216870532Y-83565998D01*
X216870532Y-83566001D01*
X216890364Y-83792686D01*
X216890366Y-83792697D01*
X216949258Y-84012488D01*
X216949261Y-84012497D01*
X217045431Y-84218732D01*
X217045432Y-84218734D01*
X217175954Y-84405141D01*
X217336858Y-84566045D01*
X217336861Y-84566047D01*
X217523266Y-84696568D01*
X217581275Y-84723618D01*
X217633714Y-84769791D01*
X217652866Y-84836984D01*
X217632650Y-84903865D01*
X217581275Y-84948382D01*
X217523267Y-84975431D01*
X217523265Y-84975432D01*
X217336858Y-85105954D01*
X217175954Y-85266858D01*
X217045432Y-85453265D01*
X217045431Y-85453267D01*
X216949261Y-85659502D01*
X216949258Y-85659511D01*
X216890366Y-85879302D01*
X216890364Y-85879313D01*
X216870532Y-86105998D01*
X216870532Y-86106001D01*
X216890364Y-86332686D01*
X216890366Y-86332697D01*
X216949258Y-86552488D01*
X216949261Y-86552497D01*
X217045431Y-86758732D01*
X217045432Y-86758734D01*
X217175954Y-86945141D01*
X217336858Y-87106045D01*
X217336861Y-87106047D01*
X217523266Y-87236568D01*
X217581865Y-87263893D01*
X217634305Y-87310065D01*
X217653457Y-87377258D01*
X217633242Y-87444139D01*
X217581867Y-87488657D01*
X217523515Y-87515867D01*
X217337179Y-87646342D01*
X217176342Y-87807179D01*
X217045865Y-87993517D01*
X216949734Y-88199673D01*
X216949730Y-88199682D01*
X216897127Y-88395999D01*
X216897128Y-88396000D01*
X217742314Y-88396000D01*
X217716507Y-88436156D01*
X217676000Y-88574111D01*
X217676000Y-88717889D01*
X217716507Y-88855844D01*
X217742314Y-88896000D01*
X216897128Y-88896000D01*
X216949730Y-89092317D01*
X216949734Y-89092326D01*
X217045865Y-89298482D01*
X217176342Y-89484820D01*
X217337179Y-89645657D01*
X217523518Y-89776134D01*
X217523520Y-89776135D01*
X217581865Y-89803342D01*
X217634305Y-89849514D01*
X217653457Y-89916707D01*
X217633242Y-89983589D01*
X217581867Y-90028105D01*
X217523268Y-90055431D01*
X217523264Y-90055433D01*
X217336858Y-90185954D01*
X217175954Y-90346858D01*
X217045432Y-90533265D01*
X217045431Y-90533267D01*
X216949261Y-90739502D01*
X216949258Y-90739511D01*
X216890366Y-90959302D01*
X216890364Y-90959313D01*
X216870532Y-91185998D01*
X216870532Y-91186001D01*
X216890364Y-91412686D01*
X216890366Y-91412697D01*
X216949258Y-91632488D01*
X216949261Y-91632497D01*
X217045431Y-91838732D01*
X217045432Y-91838734D01*
X217175954Y-92025141D01*
X217336858Y-92186045D01*
X217336861Y-92186047D01*
X217523266Y-92316568D01*
X217581275Y-92343618D01*
X217633714Y-92389791D01*
X217652866Y-92456984D01*
X217632650Y-92523865D01*
X217581275Y-92568382D01*
X217523267Y-92595431D01*
X217523265Y-92595432D01*
X217336858Y-92725954D01*
X217175954Y-92886858D01*
X217045432Y-93073265D01*
X217045431Y-93073267D01*
X216949261Y-93279502D01*
X216949258Y-93279511D01*
X216890366Y-93499302D01*
X216890364Y-93499313D01*
X216870532Y-93725998D01*
X216870532Y-93726001D01*
X216890364Y-93952686D01*
X216890366Y-93952697D01*
X216949258Y-94172488D01*
X216949261Y-94172497D01*
X217045431Y-94378732D01*
X217045432Y-94378734D01*
X217175954Y-94565141D01*
X217336858Y-94726045D01*
X217361462Y-94743273D01*
X217405087Y-94797849D01*
X217412281Y-94867348D01*
X217380758Y-94929703D01*
X217320529Y-94965117D01*
X217303593Y-94968138D01*
X217268516Y-94971908D01*
X217133671Y-95022202D01*
X217133664Y-95022206D01*
X217018455Y-95108452D01*
X217018452Y-95108455D01*
X216932206Y-95223664D01*
X216932202Y-95223671D01*
X216881908Y-95358517D01*
X216875501Y-95418116D01*
X216875501Y-95418123D01*
X216875500Y-95418135D01*
X216875500Y-97113870D01*
X216875501Y-97113876D01*
X216881908Y-97173483D01*
X216932202Y-97308328D01*
X216932206Y-97308335D01*
X217018452Y-97423544D01*
X217018455Y-97423547D01*
X217133664Y-97509793D01*
X217133671Y-97509797D01*
X217268517Y-97560091D01*
X217268516Y-97560091D01*
X217275444Y-97560835D01*
X217328127Y-97566500D01*
X219023872Y-97566499D01*
X219083483Y-97560091D01*
X219218331Y-97509796D01*
X219333546Y-97423546D01*
X219419796Y-97308331D01*
X219470091Y-97173483D01*
X219476500Y-97113873D01*
X219476499Y-95418128D01*
X219470091Y-95358517D01*
X219435567Y-95265954D01*
X219419797Y-95223671D01*
X219419793Y-95223664D01*
X219333547Y-95108455D01*
X219333544Y-95108452D01*
X219218335Y-95022206D01*
X219218328Y-95022202D01*
X219083482Y-94971908D01*
X219083483Y-94971908D01*
X219048404Y-94968137D01*
X218983853Y-94941399D01*
X218944005Y-94884006D01*
X218941512Y-94814181D01*
X218977165Y-94754092D01*
X218990539Y-94743272D01*
X219015140Y-94726046D01*
X219176045Y-94565141D01*
X219176047Y-94565139D01*
X219306568Y-94378734D01*
X219402739Y-94172496D01*
X219461635Y-93952692D01*
X219481468Y-93726000D01*
X219461635Y-93499308D01*
X219402739Y-93279504D01*
X219306568Y-93073266D01*
X219176047Y-92886861D01*
X219176045Y-92886858D01*
X219015141Y-92725954D01*
X218828734Y-92595432D01*
X218828728Y-92595429D01*
X218770725Y-92568382D01*
X218718285Y-92522210D01*
X218699133Y-92455017D01*
X218719348Y-92388135D01*
X218770725Y-92343618D01*
X218828734Y-92316568D01*
X219015139Y-92186047D01*
X219176047Y-92025139D01*
X219306568Y-91838734D01*
X219402739Y-91632496D01*
X219461635Y-91412692D01*
X219481468Y-91186000D01*
X219461635Y-90959308D01*
X219402739Y-90739504D01*
X219306568Y-90533266D01*
X219176047Y-90346861D01*
X219176045Y-90346858D01*
X219015141Y-90185954D01*
X218828734Y-90055432D01*
X218828732Y-90055431D01*
X218770725Y-90028382D01*
X218770132Y-90028105D01*
X218717694Y-89981934D01*
X218698542Y-89914740D01*
X218718758Y-89847859D01*
X218770134Y-89803341D01*
X218828484Y-89776132D01*
X219014820Y-89645657D01*
X219175657Y-89484820D01*
X219306134Y-89298482D01*
X219402265Y-89092326D01*
X219402269Y-89092317D01*
X219454872Y-88896000D01*
X218609686Y-88896000D01*
X218635493Y-88855844D01*
X218676000Y-88717889D01*
X218676000Y-88574111D01*
X218635493Y-88436156D01*
X218609686Y-88396000D01*
X219454872Y-88396000D01*
X219454872Y-88395999D01*
X219402269Y-88199682D01*
X219402265Y-88199673D01*
X219306134Y-87993517D01*
X219175657Y-87807179D01*
X219014820Y-87646342D01*
X218828482Y-87515865D01*
X218770133Y-87488657D01*
X218717694Y-87442484D01*
X218698542Y-87375291D01*
X218718758Y-87308410D01*
X218770129Y-87263895D01*
X218828734Y-87236568D01*
X219015139Y-87106047D01*
X219176047Y-86945139D01*
X219306568Y-86758734D01*
X219402739Y-86552496D01*
X219461635Y-86332692D01*
X219481468Y-86106000D01*
X219461635Y-85879308D01*
X219402739Y-85659504D01*
X219306568Y-85453266D01*
X219176047Y-85266861D01*
X219176045Y-85266858D01*
X219015141Y-85105954D01*
X218828734Y-84975432D01*
X218828728Y-84975429D01*
X218770725Y-84948382D01*
X218718285Y-84902210D01*
X218699133Y-84835017D01*
X218719348Y-84768135D01*
X218770725Y-84723618D01*
X218828734Y-84696568D01*
X219015139Y-84566047D01*
X219176047Y-84405139D01*
X219306568Y-84218734D01*
X219402739Y-84012496D01*
X219461635Y-83792692D01*
X219481468Y-83566000D01*
X219477930Y-83525566D01*
X219466159Y-83391019D01*
X219461635Y-83339308D01*
X219402739Y-83119504D01*
X219306568Y-82913266D01*
X219178722Y-82730681D01*
X219176045Y-82726858D01*
X219015141Y-82565954D01*
X218828734Y-82435432D01*
X218828728Y-82435429D01*
X218801038Y-82422517D01*
X218770724Y-82408381D01*
X218718285Y-82362210D01*
X218699133Y-82295017D01*
X218719348Y-82228135D01*
X218770725Y-82183618D01*
X218828734Y-82156568D01*
X219015139Y-82026047D01*
X219176047Y-81865139D01*
X219306568Y-81678734D01*
X219402739Y-81472496D01*
X219461635Y-81252692D01*
X219481468Y-81026000D01*
X219461635Y-80799308D01*
X219402739Y-80579504D01*
X219306568Y-80373266D01*
X219176047Y-80186861D01*
X219176045Y-80186858D01*
X219015141Y-80025954D01*
X218828734Y-79895432D01*
X218828728Y-79895429D01*
X218770725Y-79868382D01*
X218718285Y-79822210D01*
X218699133Y-79755017D01*
X218719348Y-79688135D01*
X218770725Y-79643618D01*
X218828734Y-79616568D01*
X219015139Y-79486047D01*
X219176047Y-79325139D01*
X219306568Y-79138734D01*
X219402739Y-78932496D01*
X219461635Y-78712692D01*
X219481468Y-78486000D01*
X219461635Y-78259308D01*
X219402739Y-78039504D01*
X219306568Y-77833266D01*
X219176047Y-77646861D01*
X219176045Y-77646858D01*
X219015141Y-77485954D01*
X218828734Y-77355432D01*
X218828728Y-77355429D01*
X218770725Y-77328382D01*
X218718285Y-77282210D01*
X218699133Y-77215017D01*
X218719348Y-77148135D01*
X218770725Y-77103618D01*
X218828734Y-77076568D01*
X219015139Y-76946047D01*
X219176047Y-76785139D01*
X219306568Y-76598734D01*
X219402739Y-76392496D01*
X219461635Y-76172692D01*
X219480231Y-75960134D01*
X219481468Y-75946001D01*
X219481468Y-75945998D01*
X219468073Y-75792894D01*
X219461635Y-75719308D01*
X219402739Y-75499504D01*
X219306568Y-75293266D01*
X219176047Y-75106861D01*
X219176045Y-75106858D01*
X219015141Y-74945954D01*
X218828734Y-74815432D01*
X218828728Y-74815429D01*
X218770725Y-74788382D01*
X218718285Y-74742210D01*
X218699133Y-74675017D01*
X218719348Y-74608135D01*
X218770725Y-74563618D01*
X218828734Y-74536568D01*
X219015139Y-74406047D01*
X219176047Y-74245139D01*
X219306568Y-74058734D01*
X219402739Y-73852496D01*
X219461635Y-73632692D01*
X219481468Y-73406000D01*
X219461635Y-73179308D01*
X219402739Y-72959504D01*
X219306568Y-72753266D01*
X219176047Y-72566861D01*
X219176045Y-72566858D01*
X219015141Y-72405954D01*
X218828734Y-72275432D01*
X218828728Y-72275429D01*
X218770725Y-72248382D01*
X218718285Y-72202210D01*
X218699133Y-72135017D01*
X218719348Y-72068135D01*
X218770725Y-72023618D01*
X218828734Y-71996568D01*
X219015139Y-71866047D01*
X219176047Y-71705139D01*
X219306568Y-71518734D01*
X219402739Y-71312496D01*
X219461635Y-71092692D01*
X219481468Y-70866000D01*
X219461635Y-70639308D01*
X219402739Y-70419504D01*
X219306568Y-70213266D01*
X219176047Y-70026861D01*
X219176045Y-70026858D01*
X219015141Y-69865954D01*
X218828734Y-69735432D01*
X218828728Y-69735429D01*
X218770725Y-69708382D01*
X218718285Y-69662210D01*
X218699133Y-69595017D01*
X218719348Y-69528135D01*
X218770725Y-69483618D01*
X218828734Y-69456568D01*
X219015139Y-69326047D01*
X219176047Y-69165139D01*
X219306568Y-68978734D01*
X219402739Y-68772496D01*
X219461635Y-68552692D01*
X219481468Y-68326000D01*
X219461635Y-68099308D01*
X219402739Y-67879504D01*
X219306568Y-67673266D01*
X219176047Y-67486861D01*
X219176045Y-67486858D01*
X219015141Y-67325954D01*
X218828734Y-67195432D01*
X218828728Y-67195429D01*
X218770725Y-67168382D01*
X218718285Y-67122210D01*
X218699133Y-67055017D01*
X218719348Y-66988135D01*
X218770725Y-66943618D01*
X218828734Y-66916568D01*
X219015139Y-66786047D01*
X219176047Y-66625139D01*
X219306568Y-66438734D01*
X219402739Y-66232496D01*
X219461635Y-66012692D01*
X219481468Y-65786000D01*
X219461635Y-65559308D01*
X219402739Y-65339504D01*
X219306568Y-65133266D01*
X219176047Y-64946861D01*
X219176045Y-64946858D01*
X219015141Y-64785954D01*
X218828734Y-64655432D01*
X218828728Y-64655429D01*
X218770725Y-64628382D01*
X218718285Y-64582210D01*
X218699133Y-64515017D01*
X218719348Y-64448135D01*
X218770725Y-64403618D01*
X218828734Y-64376568D01*
X219015139Y-64246047D01*
X219176047Y-64085139D01*
X219306568Y-63898734D01*
X219402739Y-63692496D01*
X219461635Y-63472692D01*
X219481468Y-63246000D01*
X219461635Y-63019308D01*
X219402739Y-62799504D01*
X219306568Y-62593266D01*
X219176047Y-62406861D01*
X219176045Y-62406858D01*
X219015141Y-62245954D01*
X218828734Y-62115432D01*
X218828728Y-62115429D01*
X218770725Y-62088382D01*
X218718285Y-62042210D01*
X218699133Y-61975017D01*
X218719348Y-61908135D01*
X218770725Y-61863618D01*
X218828734Y-61836568D01*
X219015139Y-61706047D01*
X219176047Y-61545139D01*
X219306568Y-61358734D01*
X219402739Y-61152496D01*
X219461635Y-60932692D01*
X219481468Y-60706000D01*
X219481201Y-60702952D01*
X219470606Y-60581846D01*
X219461635Y-60479308D01*
X219402739Y-60259504D01*
X219306568Y-60053266D01*
X219176047Y-59866861D01*
X219176045Y-59866858D01*
X219015141Y-59705954D01*
X218828734Y-59575432D01*
X218828732Y-59575431D01*
X218675041Y-59503763D01*
X223189787Y-59503763D01*
X223219413Y-59773013D01*
X223219415Y-59773024D01*
X223287926Y-60035082D01*
X223287928Y-60035088D01*
X223393870Y-60284390D01*
X223512827Y-60479308D01*
X223534979Y-60515605D01*
X223534986Y-60515615D01*
X223708253Y-60723819D01*
X223708259Y-60723824D01*
X223790586Y-60797589D01*
X223909998Y-60904582D01*
X224135910Y-61054044D01*
X224381176Y-61169020D01*
X224381183Y-61169022D01*
X224381185Y-61169023D01*
X224640557Y-61247057D01*
X224640564Y-61247058D01*
X224640569Y-61247060D01*
X224908561Y-61286500D01*
X224908566Y-61286500D01*
X225111636Y-61286500D01*
X225163133Y-61282730D01*
X225314156Y-61271677D01*
X225426758Y-61246593D01*
X225578546Y-61212782D01*
X225578548Y-61212781D01*
X225578553Y-61212780D01*
X225831558Y-61116014D01*
X226067777Y-60983441D01*
X226282177Y-60817888D01*
X226470186Y-60622881D01*
X226627799Y-60402579D01*
X226724965Y-60213590D01*
X226751649Y-60161690D01*
X226751651Y-60161684D01*
X226751656Y-60161675D01*
X226838304Y-59907690D01*
X226839115Y-59905314D01*
X226839115Y-59905313D01*
X226839118Y-59905305D01*
X226888319Y-59638933D01*
X226898212Y-59368235D01*
X226868586Y-59098982D01*
X226800072Y-58836912D01*
X226694130Y-58587610D01*
X226553018Y-58356390D01*
X226551845Y-58354981D01*
X226379746Y-58148180D01*
X226379740Y-58148175D01*
X226178002Y-57967418D01*
X225952092Y-57817957D01*
X225914025Y-57800112D01*
X225706824Y-57702980D01*
X225706819Y-57702978D01*
X225706814Y-57702976D01*
X225447442Y-57624942D01*
X225447428Y-57624939D01*
X225331791Y-57607921D01*
X225179439Y-57585500D01*
X224976369Y-57585500D01*
X224976364Y-57585500D01*
X224773844Y-57600323D01*
X224773831Y-57600325D01*
X224509453Y-57659217D01*
X224509446Y-57659220D01*
X224256439Y-57755987D01*
X224020226Y-57888557D01*
X223805822Y-58054112D01*
X223617822Y-58249109D01*
X223617816Y-58249116D01*
X223460202Y-58469419D01*
X223460199Y-58469424D01*
X223336350Y-58710309D01*
X223336343Y-58710327D01*
X223248884Y-58966685D01*
X223248881Y-58966699D01*
X223199681Y-59233068D01*
X223199680Y-59233075D01*
X223189787Y-59503763D01*
X218675041Y-59503763D01*
X218622497Y-59479261D01*
X218622488Y-59479258D01*
X218402697Y-59420366D01*
X218402693Y-59420365D01*
X218402692Y-59420365D01*
X218402691Y-59420364D01*
X218402686Y-59420364D01*
X218176002Y-59400532D01*
X218175999Y-59400532D01*
X217949313Y-59420364D01*
X217949296Y-59420367D01*
X217880949Y-59438680D01*
X217811099Y-59437016D01*
X217761177Y-59406586D01*
X217551803Y-59197212D01*
X217541980Y-59184950D01*
X217541759Y-59185134D01*
X217536786Y-59179123D01*
X217486364Y-59131773D01*
X217475919Y-59121328D01*
X217465475Y-59110883D01*
X217459986Y-59106625D01*
X217455561Y-59102847D01*
X217421582Y-59070938D01*
X217421580Y-59070936D01*
X217421577Y-59070935D01*
X217404029Y-59061288D01*
X217387763Y-59050604D01*
X217371933Y-59038325D01*
X217329168Y-59019818D01*
X217323922Y-59017248D01*
X217283093Y-58994803D01*
X217283092Y-58994802D01*
X217263693Y-58989822D01*
X217245281Y-58983518D01*
X217226898Y-58975562D01*
X217226892Y-58975560D01*
X217180874Y-58968272D01*
X217175152Y-58967087D01*
X217130021Y-58955500D01*
X217130019Y-58955500D01*
X217109984Y-58955500D01*
X217090586Y-58953973D01*
X217083162Y-58952797D01*
X217070805Y-58950840D01*
X217070804Y-58950840D01*
X217024416Y-58955225D01*
X217018578Y-58955500D01*
X129223737Y-58955500D01*
X129208120Y-58953776D01*
X129208093Y-58954062D01*
X129200331Y-58953327D01*
X129131203Y-58955500D01*
X129101650Y-58955500D01*
X129100929Y-58955590D01*
X129094757Y-58956369D01*
X129088945Y-58956826D01*
X129042373Y-58958290D01*
X129042372Y-58958290D01*
X129023129Y-58963881D01*
X129004079Y-58967825D01*
X128984211Y-58970334D01*
X128984209Y-58970335D01*
X128940884Y-58987488D01*
X128935357Y-58989380D01*
X128890610Y-59002381D01*
X128890609Y-59002382D01*
X128873367Y-59012579D01*
X128855899Y-59021137D01*
X128837269Y-59028513D01*
X128837267Y-59028514D01*
X128799576Y-59055898D01*
X128794694Y-59059105D01*
X128754579Y-59082830D01*
X128740408Y-59097000D01*
X128725623Y-59109628D01*
X128709411Y-59121407D01*
X128709409Y-59121410D01*
X128679713Y-59157305D01*
X128675782Y-59161625D01*
X128652458Y-59184950D01*
X128561880Y-59275529D01*
X128561876Y-59275533D01*
X127632208Y-60205199D01*
X127619951Y-60215020D01*
X127620134Y-60215241D01*
X127614123Y-60220213D01*
X127566772Y-60270636D01*
X127545889Y-60291519D01*
X127545877Y-60291532D01*
X127541621Y-60297017D01*
X127537837Y-60301447D01*
X127505937Y-60335418D01*
X127505936Y-60335420D01*
X127496284Y-60352976D01*
X127485610Y-60369226D01*
X127473329Y-60385061D01*
X127473324Y-60385068D01*
X127454815Y-60427838D01*
X127452245Y-60433084D01*
X127429803Y-60473906D01*
X127424822Y-60493307D01*
X127418521Y-60511710D01*
X127410562Y-60530102D01*
X127410561Y-60530105D01*
X127403271Y-60576127D01*
X127402087Y-60581846D01*
X127390501Y-60626972D01*
X127390500Y-60626982D01*
X127390500Y-60647016D01*
X127388973Y-60666415D01*
X127385840Y-60686194D01*
X127385839Y-60686199D01*
X127387423Y-60702952D01*
X127374133Y-60771546D01*
X127356124Y-60797589D01*
X127283466Y-60878285D01*
X127188821Y-61042215D01*
X127188818Y-61042222D01*
X127133401Y-61212779D01*
X127130326Y-61222244D01*
X127111805Y-61398463D01*
X127085222Y-61463076D01*
X127027924Y-61503061D01*
X126988485Y-61509500D01*
X120478276Y-61509500D01*
X120411237Y-61489815D01*
X120365482Y-61437011D01*
X120355538Y-61367853D01*
X120359615Y-61349505D01*
X120378727Y-61286499D01*
X120415300Y-61165934D01*
X120435583Y-60960000D01*
X120415300Y-60754066D01*
X120355232Y-60556046D01*
X120257685Y-60373550D01*
X120184513Y-60284389D01*
X120126410Y-60213589D01*
X119966452Y-60082317D01*
X119966453Y-60082317D01*
X119966450Y-60082315D01*
X119783954Y-59984768D01*
X119585934Y-59924700D01*
X119585932Y-59924699D01*
X119585934Y-59924699D01*
X119466805Y-59912966D01*
X119431608Y-59909500D01*
X119328392Y-59909500D01*
X119290298Y-59913251D01*
X119174067Y-59924699D01*
X118976043Y-59984769D01*
X118890696Y-60030389D01*
X118793550Y-60082315D01*
X118793548Y-60082316D01*
X118793547Y-60082317D01*
X118633589Y-60213589D01*
X118502317Y-60373547D01*
X118502315Y-60373550D01*
X118486801Y-60402575D01*
X118404769Y-60556043D01*
X118404768Y-60556045D01*
X118404768Y-60556046D01*
X118402389Y-60563888D01*
X118344699Y-60754067D01*
X118324417Y-60960000D01*
X118344699Y-61165932D01*
X118400385Y-61349505D01*
X118401008Y-61419372D01*
X118363759Y-61478485D01*
X118300465Y-61508076D01*
X118281724Y-61509500D01*
X103555743Y-61509500D01*
X103540122Y-61507775D01*
X103540095Y-61508061D01*
X103532333Y-61507326D01*
X103463172Y-61509500D01*
X103433649Y-61509500D01*
X103426778Y-61510367D01*
X103420959Y-61510825D01*
X103374374Y-61512289D01*
X103374368Y-61512290D01*
X103355126Y-61517880D01*
X103336087Y-61521823D01*
X103316217Y-61524334D01*
X103316203Y-61524337D01*
X103272883Y-61541488D01*
X103267358Y-61543380D01*
X103222613Y-61556380D01*
X103222610Y-61556381D01*
X103205366Y-61566579D01*
X103187905Y-61575133D01*
X103169274Y-61582510D01*
X103169262Y-61582517D01*
X103131570Y-61609902D01*
X103126687Y-61613109D01*
X103086580Y-61636829D01*
X103072414Y-61650995D01*
X103057624Y-61663627D01*
X103041414Y-61675404D01*
X103041411Y-61675407D01*
X103011710Y-61711309D01*
X103007777Y-61715631D01*
X99874228Y-64849181D01*
X99812905Y-64882666D01*
X99786547Y-64885500D01*
X99727354Y-64885500D01*
X99694897Y-64892398D01*
X99542197Y-64924855D01*
X99542192Y-64924857D01*
X99369270Y-65001848D01*
X99369265Y-65001851D01*
X99216129Y-65113111D01*
X99089466Y-65253785D01*
X98994821Y-65417715D01*
X98994818Y-65417722D01*
X98948813Y-65559313D01*
X98936326Y-65597744D01*
X98916540Y-65786000D01*
X97540720Y-65786000D01*
X97495232Y-65636046D01*
X97397685Y-65453550D01*
X97345702Y-65390209D01*
X97266410Y-65293589D01*
X97106452Y-65162317D01*
X97106453Y-65162317D01*
X97106450Y-65162315D01*
X96923954Y-65064768D01*
X96725934Y-65004700D01*
X96725932Y-65004699D01*
X96725934Y-65004699D01*
X96606805Y-64992966D01*
X96571608Y-64989500D01*
X96468392Y-64989500D01*
X96430298Y-64993251D01*
X96314067Y-65004699D01*
X96116043Y-65064769D01*
X96005898Y-65123643D01*
X95933550Y-65162315D01*
X95933548Y-65162316D01*
X95933547Y-65162317D01*
X95773589Y-65293589D01*
X95642317Y-65453547D01*
X95544769Y-65636043D01*
X95484699Y-65834067D01*
X95464417Y-66040000D01*
X69596500Y-66040000D01*
X69596500Y-59249763D01*
X73075787Y-59249763D01*
X73105413Y-59519013D01*
X73105415Y-59519024D01*
X73173926Y-59781082D01*
X73173928Y-59781088D01*
X73279870Y-60030390D01*
X73409514Y-60242819D01*
X73420979Y-60261605D01*
X73420986Y-60261615D01*
X73594253Y-60469819D01*
X73594259Y-60469824D01*
X73719284Y-60581846D01*
X73795998Y-60650582D01*
X74021910Y-60800044D01*
X74267176Y-60915020D01*
X74267183Y-60915022D01*
X74267185Y-60915023D01*
X74526557Y-60993057D01*
X74526564Y-60993058D01*
X74526569Y-60993060D01*
X74794561Y-61032500D01*
X74794566Y-61032500D01*
X74997636Y-61032500D01*
X75049133Y-61028730D01*
X75200156Y-61017677D01*
X75353842Y-60983442D01*
X75459078Y-60960000D01*
X87844417Y-60960000D01*
X87864699Y-61165932D01*
X87864700Y-61165934D01*
X87924768Y-61363954D01*
X88022315Y-61546450D01*
X88051909Y-61582510D01*
X88153589Y-61706410D01*
X88250209Y-61785702D01*
X88313550Y-61837685D01*
X88496046Y-61935232D01*
X88694066Y-61995300D01*
X88694065Y-61995300D01*
X88732647Y-61999100D01*
X88848392Y-62010500D01*
X88848395Y-62010500D01*
X88951605Y-62010500D01*
X88951608Y-62010500D01*
X89105934Y-61995300D01*
X89303954Y-61935232D01*
X89486450Y-61837685D01*
X89646410Y-61706410D01*
X89777685Y-61546450D01*
X89875232Y-61363954D01*
X89935300Y-61165934D01*
X89955583Y-60960000D01*
X89935300Y-60754066D01*
X89875232Y-60556046D01*
X89777685Y-60373550D01*
X89704513Y-60284389D01*
X89646410Y-60213589D01*
X89486452Y-60082317D01*
X89486453Y-60082317D01*
X89486450Y-60082315D01*
X89303954Y-59984768D01*
X89105934Y-59924700D01*
X89105932Y-59924699D01*
X89105934Y-59924699D01*
X88986805Y-59912966D01*
X88951608Y-59909500D01*
X88848392Y-59909500D01*
X88810298Y-59913251D01*
X88694067Y-59924699D01*
X88496043Y-59984769D01*
X88410696Y-60030389D01*
X88313550Y-60082315D01*
X88313548Y-60082316D01*
X88313547Y-60082317D01*
X88153589Y-60213589D01*
X88022317Y-60373547D01*
X88022315Y-60373550D01*
X88006801Y-60402575D01*
X87924769Y-60556043D01*
X87924768Y-60556045D01*
X87924768Y-60556046D01*
X87922389Y-60563888D01*
X87864699Y-60754067D01*
X87844417Y-60960000D01*
X75459078Y-60960000D01*
X75464546Y-60958782D01*
X75464548Y-60958781D01*
X75464553Y-60958780D01*
X75717558Y-60862014D01*
X75953777Y-60729441D01*
X76168177Y-60563888D01*
X76356186Y-60368881D01*
X76513799Y-60148579D01*
X76628903Y-59924700D01*
X76637649Y-59907690D01*
X76637651Y-59907684D01*
X76637656Y-59907675D01*
X76725118Y-59651305D01*
X76774319Y-59384933D01*
X76784212Y-59114235D01*
X76754586Y-58844982D01*
X76686072Y-58582912D01*
X76580130Y-58333610D01*
X76439018Y-58102390D01*
X76349747Y-57995119D01*
X76265746Y-57894180D01*
X76265740Y-57894175D01*
X76064002Y-57713418D01*
X75838092Y-57563957D01*
X75838090Y-57563956D01*
X75592824Y-57448980D01*
X75592819Y-57448978D01*
X75592814Y-57448976D01*
X75333442Y-57370942D01*
X75333428Y-57370939D01*
X75217791Y-57353921D01*
X75065439Y-57331500D01*
X74862369Y-57331500D01*
X74862364Y-57331500D01*
X74659844Y-57346323D01*
X74659831Y-57346325D01*
X74395453Y-57405217D01*
X74395446Y-57405220D01*
X74142439Y-57501987D01*
X73906226Y-57634557D01*
X73691822Y-57800112D01*
X73503822Y-57995109D01*
X73503816Y-57995116D01*
X73346202Y-58215419D01*
X73346199Y-58215424D01*
X73222350Y-58456309D01*
X73222343Y-58456327D01*
X73134884Y-58712685D01*
X73134882Y-58712695D01*
X73086329Y-58975562D01*
X73085681Y-58979068D01*
X73085680Y-58979075D01*
X73075787Y-59249763D01*
X69596500Y-59249763D01*
X69596500Y-53972500D01*
X69616185Y-53905461D01*
X69668989Y-53859706D01*
X69720500Y-53848500D01*
X230253500Y-53848500D01*
X230320539Y-53868185D01*
G37*
%TD.AperFunction*%
%TD*%
M02*
