%TF.GenerationSoftware,KiCad,Pcbnew,7.0.9*%
%TF.CreationDate,2023-12-01T11:37:00-08:00*%
%TF.ProjectId,gameshow_v4,67616d65-7368-46f7-975f-76342e6b6963,rev?*%
%TF.SameCoordinates,Original*%
%TF.FileFunction,Legend,Bot*%
%TF.FilePolarity,Positive*%
%FSLAX46Y46*%
G04 Gerber Fmt 4.6, Leading zero omitted, Abs format (unit mm)*
G04 Created by KiCad (PCBNEW 7.0.9) date 2023-12-01 11:37:00*
%MOMM*%
%LPD*%
G01*
G04 APERTURE LIST*
%ADD10C,3.200000*%
%ADD11R,1.600000X1.600000*%
%ADD12O,1.600000X1.600000*%
%ADD13C,1.600000*%
%ADD14C,3.400000*%
%ADD15C,2.900000*%
G04 APERTURE END LIST*
%LPC*%
D10*
%TO.C,H4*%
X225044000Y-99822000D03*
%TD*%
D11*
%TO.C,A1*%
X218176000Y-96266000D03*
D12*
X218176000Y-93726000D03*
X218176000Y-91186000D03*
X218176000Y-88646000D03*
X218176000Y-86106000D03*
X218176000Y-83566000D03*
X218176000Y-81026000D03*
X218176000Y-78486000D03*
X218176000Y-75946000D03*
X218176000Y-73406000D03*
X218176000Y-70866000D03*
X218176000Y-68326000D03*
X218176000Y-65786000D03*
X218176000Y-63246000D03*
X218176000Y-60706000D03*
X202936000Y-60706000D03*
X202936000Y-63246000D03*
X202936000Y-65786000D03*
X202936000Y-68326000D03*
X202936000Y-70866000D03*
X202936000Y-73406000D03*
X202936000Y-75946000D03*
X202936000Y-78486000D03*
X202936000Y-81026000D03*
X202936000Y-83566000D03*
X202936000Y-86106000D03*
X202936000Y-88646000D03*
X202936000Y-91186000D03*
X202936000Y-93726000D03*
X202936000Y-96266000D03*
%TD*%
D13*
%TO.C,J3*%
X157480000Y-66040000D03*
X149860000Y-60960000D03*
D14*
X149860000Y-69850000D03*
X157480000Y-70485000D03*
D15*
X153670000Y-74300000D03*
%TD*%
D10*
%TO.C,H5*%
X107950000Y-99822000D03*
%TD*%
D13*
%TO.C,J1*%
X96520000Y-66040000D03*
X88900000Y-60960000D03*
D14*
X88900000Y-69850000D03*
X96520000Y-70485000D03*
D15*
X92710000Y-74300000D03*
%TD*%
D10*
%TO.C,H3*%
X74930000Y-99822000D03*
%TD*%
D13*
%TO.C,J4*%
X187960000Y-66040000D03*
X180340000Y-60960000D03*
D14*
X180340000Y-69850000D03*
X187960000Y-70485000D03*
D15*
X184150000Y-74300000D03*
%TD*%
D10*
%TO.C,H1*%
X74930000Y-59182000D03*
%TD*%
%TO.C,H2*%
X225044000Y-59436000D03*
%TD*%
D13*
%TO.C,J2*%
X127000000Y-66040000D03*
X119380000Y-60960000D03*
D14*
X119380000Y-69850000D03*
X127000000Y-70485000D03*
D15*
X123190000Y-74300000D03*
%TD*%
D10*
%TO.C,H6*%
X169910000Y-99822000D03*
%TD*%
%LPD*%
M02*
