%TF.GenerationSoftware,KiCad,Pcbnew,7.0.9*%
%TF.CreationDate,2023-12-01T11:37:00-08:00*%
%TF.ProjectId,gameshow_v4,67616d65-7368-46f7-975f-76342e6b6963,rev?*%
%TF.SameCoordinates,Original*%
%TF.FileFunction,Other,Comment*%
%FSLAX46Y46*%
G04 Gerber Fmt 4.6, Leading zero omitted, Abs format (unit mm)*
G04 Created by KiCad (PCBNEW 7.0.9) date 2023-12-01 11:37:00*
%MOMM*%
%LPD*%
G01*
G04 APERTURE LIST*
%ADD10C,0.150000*%
G04 APERTURE END LIST*
D10*
X119669160Y-100168104D02*
X120145350Y-100168104D01*
X119573922Y-100453819D02*
X119907255Y-99453819D01*
X119907255Y-99453819D02*
X120240588Y-100453819D01*
X120716779Y-100453819D02*
X120621541Y-100406200D01*
X120621541Y-100406200D02*
X120573922Y-100310961D01*
X120573922Y-100310961D02*
X120573922Y-99453819D01*
X121240589Y-100453819D02*
X121145351Y-100406200D01*
X121145351Y-100406200D02*
X121097732Y-100310961D01*
X121097732Y-100310961D02*
X121097732Y-99453819D01*
X122335828Y-100406200D02*
X122431066Y-100453819D01*
X122431066Y-100453819D02*
X122621542Y-100453819D01*
X122621542Y-100453819D02*
X122716780Y-100406200D01*
X122716780Y-100406200D02*
X122764399Y-100310961D01*
X122764399Y-100310961D02*
X122764399Y-100263342D01*
X122764399Y-100263342D02*
X122716780Y-100168104D01*
X122716780Y-100168104D02*
X122621542Y-100120485D01*
X122621542Y-100120485D02*
X122478685Y-100120485D01*
X122478685Y-100120485D02*
X122383447Y-100072866D01*
X122383447Y-100072866D02*
X122335828Y-99977628D01*
X122335828Y-99977628D02*
X122335828Y-99930009D01*
X122335828Y-99930009D02*
X122383447Y-99834771D01*
X122383447Y-99834771D02*
X122478685Y-99787152D01*
X122478685Y-99787152D02*
X122621542Y-99787152D01*
X122621542Y-99787152D02*
X122716780Y-99834771D01*
X123621542Y-100406200D02*
X123526304Y-100453819D01*
X123526304Y-100453819D02*
X123335828Y-100453819D01*
X123335828Y-100453819D02*
X123240590Y-100406200D01*
X123240590Y-100406200D02*
X123192971Y-100358580D01*
X123192971Y-100358580D02*
X123145352Y-100263342D01*
X123145352Y-100263342D02*
X123145352Y-99977628D01*
X123145352Y-99977628D02*
X123192971Y-99882390D01*
X123192971Y-99882390D02*
X123240590Y-99834771D01*
X123240590Y-99834771D02*
X123335828Y-99787152D01*
X123335828Y-99787152D02*
X123526304Y-99787152D01*
X123526304Y-99787152D02*
X123621542Y-99834771D01*
X124050114Y-100453819D02*
X124050114Y-99787152D01*
X124050114Y-99977628D02*
X124097733Y-99882390D01*
X124097733Y-99882390D02*
X124145352Y-99834771D01*
X124145352Y-99834771D02*
X124240590Y-99787152D01*
X124240590Y-99787152D02*
X124335828Y-99787152D01*
X125050114Y-100406200D02*
X124954876Y-100453819D01*
X124954876Y-100453819D02*
X124764400Y-100453819D01*
X124764400Y-100453819D02*
X124669162Y-100406200D01*
X124669162Y-100406200D02*
X124621543Y-100310961D01*
X124621543Y-100310961D02*
X124621543Y-99930009D01*
X124621543Y-99930009D02*
X124669162Y-99834771D01*
X124669162Y-99834771D02*
X124764400Y-99787152D01*
X124764400Y-99787152D02*
X124954876Y-99787152D01*
X124954876Y-99787152D02*
X125050114Y-99834771D01*
X125050114Y-99834771D02*
X125097733Y-99930009D01*
X125097733Y-99930009D02*
X125097733Y-100025247D01*
X125097733Y-100025247D02*
X124621543Y-100120485D01*
X125431067Y-99787152D02*
X125621543Y-100453819D01*
X125621543Y-100453819D02*
X125812019Y-99977628D01*
X125812019Y-99977628D02*
X126002495Y-100453819D01*
X126002495Y-100453819D02*
X126192971Y-99787152D01*
X127335829Y-100453819D02*
X127335829Y-99453819D01*
X127764400Y-100453819D02*
X127764400Y-99930009D01*
X127764400Y-99930009D02*
X127716781Y-99834771D01*
X127716781Y-99834771D02*
X127621543Y-99787152D01*
X127621543Y-99787152D02*
X127478686Y-99787152D01*
X127478686Y-99787152D02*
X127383448Y-99834771D01*
X127383448Y-99834771D02*
X127335829Y-99882390D01*
X128383448Y-100453819D02*
X128288210Y-100406200D01*
X128288210Y-100406200D02*
X128240591Y-100358580D01*
X128240591Y-100358580D02*
X128192972Y-100263342D01*
X128192972Y-100263342D02*
X128192972Y-99977628D01*
X128192972Y-99977628D02*
X128240591Y-99882390D01*
X128240591Y-99882390D02*
X128288210Y-99834771D01*
X128288210Y-99834771D02*
X128383448Y-99787152D01*
X128383448Y-99787152D02*
X128526305Y-99787152D01*
X128526305Y-99787152D02*
X128621543Y-99834771D01*
X128621543Y-99834771D02*
X128669162Y-99882390D01*
X128669162Y-99882390D02*
X128716781Y-99977628D01*
X128716781Y-99977628D02*
X128716781Y-100263342D01*
X128716781Y-100263342D02*
X128669162Y-100358580D01*
X128669162Y-100358580D02*
X128621543Y-100406200D01*
X128621543Y-100406200D02*
X128526305Y-100453819D01*
X128526305Y-100453819D02*
X128383448Y-100453819D01*
X129288210Y-100453819D02*
X129192972Y-100406200D01*
X129192972Y-100406200D02*
X129145353Y-100310961D01*
X129145353Y-100310961D02*
X129145353Y-99453819D01*
X130050115Y-100406200D02*
X129954877Y-100453819D01*
X129954877Y-100453819D02*
X129764401Y-100453819D01*
X129764401Y-100453819D02*
X129669163Y-100406200D01*
X129669163Y-100406200D02*
X129621544Y-100310961D01*
X129621544Y-100310961D02*
X129621544Y-99930009D01*
X129621544Y-99930009D02*
X129669163Y-99834771D01*
X129669163Y-99834771D02*
X129764401Y-99787152D01*
X129764401Y-99787152D02*
X129954877Y-99787152D01*
X129954877Y-99787152D02*
X130050115Y-99834771D01*
X130050115Y-99834771D02*
X130097734Y-99930009D01*
X130097734Y-99930009D02*
X130097734Y-100025247D01*
X130097734Y-100025247D02*
X129621544Y-100120485D01*
X130478687Y-100406200D02*
X130573925Y-100453819D01*
X130573925Y-100453819D02*
X130764401Y-100453819D01*
X130764401Y-100453819D02*
X130859639Y-100406200D01*
X130859639Y-100406200D02*
X130907258Y-100310961D01*
X130907258Y-100310961D02*
X130907258Y-100263342D01*
X130907258Y-100263342D02*
X130859639Y-100168104D01*
X130859639Y-100168104D02*
X130764401Y-100120485D01*
X130764401Y-100120485D02*
X130621544Y-100120485D01*
X130621544Y-100120485D02*
X130526306Y-100072866D01*
X130526306Y-100072866D02*
X130478687Y-99977628D01*
X130478687Y-99977628D02*
X130478687Y-99930009D01*
X130478687Y-99930009D02*
X130526306Y-99834771D01*
X130526306Y-99834771D02*
X130621544Y-99787152D01*
X130621544Y-99787152D02*
X130764401Y-99787152D01*
X130764401Y-99787152D02*
X130859639Y-99834771D01*
X132097735Y-100453819D02*
X132097735Y-99453819D01*
X132097735Y-99453819D02*
X132431068Y-100168104D01*
X132431068Y-100168104D02*
X132764401Y-99453819D01*
X132764401Y-99453819D02*
X132764401Y-100453819D01*
X133145354Y-99453819D02*
X133764401Y-99453819D01*
X133764401Y-99453819D02*
X133431068Y-99834771D01*
X133431068Y-99834771D02*
X133573925Y-99834771D01*
X133573925Y-99834771D02*
X133669163Y-99882390D01*
X133669163Y-99882390D02*
X133716782Y-99930009D01*
X133716782Y-99930009D02*
X133764401Y-100025247D01*
X133764401Y-100025247D02*
X133764401Y-100263342D01*
X133764401Y-100263342D02*
X133716782Y-100358580D01*
X133716782Y-100358580D02*
X133669163Y-100406200D01*
X133669163Y-100406200D02*
X133573925Y-100453819D01*
X133573925Y-100453819D02*
X133288211Y-100453819D01*
X133288211Y-100453819D02*
X133192973Y-100406200D01*
X133192973Y-100406200D02*
X133145354Y-100358580D01*
X135240592Y-100834771D02*
X135192973Y-100787152D01*
X135192973Y-100787152D02*
X135097735Y-100644295D01*
X135097735Y-100644295D02*
X135050116Y-100549057D01*
X135050116Y-100549057D02*
X135002497Y-100406200D01*
X135002497Y-100406200D02*
X134954878Y-100168104D01*
X134954878Y-100168104D02*
X134954878Y-99977628D01*
X134954878Y-99977628D02*
X135002497Y-99739533D01*
X135002497Y-99739533D02*
X135050116Y-99596676D01*
X135050116Y-99596676D02*
X135097735Y-99501438D01*
X135097735Y-99501438D02*
X135192973Y-99358580D01*
X135192973Y-99358580D02*
X135240592Y-99310961D01*
X135573926Y-99549057D02*
X135621545Y-99501438D01*
X135621545Y-99501438D02*
X135716783Y-99453819D01*
X135716783Y-99453819D02*
X135954878Y-99453819D01*
X135954878Y-99453819D02*
X136050116Y-99501438D01*
X136050116Y-99501438D02*
X136097735Y-99549057D01*
X136097735Y-99549057D02*
X136145354Y-99644295D01*
X136145354Y-99644295D02*
X136145354Y-99739533D01*
X136145354Y-99739533D02*
X136097735Y-99882390D01*
X136097735Y-99882390D02*
X135526307Y-100453819D01*
X135526307Y-100453819D02*
X136145354Y-100453819D01*
X136573926Y-100358580D02*
X136621545Y-100406200D01*
X136621545Y-100406200D02*
X136573926Y-100453819D01*
X136573926Y-100453819D02*
X136526307Y-100406200D01*
X136526307Y-100406200D02*
X136573926Y-100358580D01*
X136573926Y-100358580D02*
X136573926Y-100453819D01*
X137526306Y-99453819D02*
X137050116Y-99453819D01*
X137050116Y-99453819D02*
X137002497Y-99930009D01*
X137002497Y-99930009D02*
X137050116Y-99882390D01*
X137050116Y-99882390D02*
X137145354Y-99834771D01*
X137145354Y-99834771D02*
X137383449Y-99834771D01*
X137383449Y-99834771D02*
X137478687Y-99882390D01*
X137478687Y-99882390D02*
X137526306Y-99930009D01*
X137526306Y-99930009D02*
X137573925Y-100025247D01*
X137573925Y-100025247D02*
X137573925Y-100263342D01*
X137573925Y-100263342D02*
X137526306Y-100358580D01*
X137526306Y-100358580D02*
X137478687Y-100406200D01*
X137478687Y-100406200D02*
X137383449Y-100453819D01*
X137383449Y-100453819D02*
X137145354Y-100453819D01*
X137145354Y-100453819D02*
X137050116Y-100406200D01*
X137050116Y-100406200D02*
X137002497Y-100358580D01*
X137954878Y-99549057D02*
X138002497Y-99501438D01*
X138002497Y-99501438D02*
X138097735Y-99453819D01*
X138097735Y-99453819D02*
X138335830Y-99453819D01*
X138335830Y-99453819D02*
X138431068Y-99501438D01*
X138431068Y-99501438D02*
X138478687Y-99549057D01*
X138478687Y-99549057D02*
X138526306Y-99644295D01*
X138526306Y-99644295D02*
X138526306Y-99739533D01*
X138526306Y-99739533D02*
X138478687Y-99882390D01*
X138478687Y-99882390D02*
X137907259Y-100453819D01*
X137907259Y-100453819D02*
X138526306Y-100453819D01*
X138954878Y-100453819D02*
X138954878Y-99787152D01*
X138954878Y-99882390D02*
X139002497Y-99834771D01*
X139002497Y-99834771D02*
X139097735Y-99787152D01*
X139097735Y-99787152D02*
X139240592Y-99787152D01*
X139240592Y-99787152D02*
X139335830Y-99834771D01*
X139335830Y-99834771D02*
X139383449Y-99930009D01*
X139383449Y-99930009D02*
X139383449Y-100453819D01*
X139383449Y-99930009D02*
X139431068Y-99834771D01*
X139431068Y-99834771D02*
X139526306Y-99787152D01*
X139526306Y-99787152D02*
X139669163Y-99787152D01*
X139669163Y-99787152D02*
X139764402Y-99834771D01*
X139764402Y-99834771D02*
X139812021Y-99930009D01*
X139812021Y-99930009D02*
X139812021Y-100453819D01*
X140288211Y-100453819D02*
X140288211Y-99787152D01*
X140288211Y-99882390D02*
X140335830Y-99834771D01*
X140335830Y-99834771D02*
X140431068Y-99787152D01*
X140431068Y-99787152D02*
X140573925Y-99787152D01*
X140573925Y-99787152D02*
X140669163Y-99834771D01*
X140669163Y-99834771D02*
X140716782Y-99930009D01*
X140716782Y-99930009D02*
X140716782Y-100453819D01*
X140716782Y-99930009D02*
X140764401Y-99834771D01*
X140764401Y-99834771D02*
X140859639Y-99787152D01*
X140859639Y-99787152D02*
X141002496Y-99787152D01*
X141002496Y-99787152D02*
X141097735Y-99834771D01*
X141097735Y-99834771D02*
X141145354Y-99930009D01*
X141145354Y-99930009D02*
X141145354Y-100453819D01*
X142240592Y-99787152D02*
X142621544Y-99787152D01*
X142383449Y-99453819D02*
X142383449Y-100310961D01*
X142383449Y-100310961D02*
X142431068Y-100406200D01*
X142431068Y-100406200D02*
X142526306Y-100453819D01*
X142526306Y-100453819D02*
X142621544Y-100453819D01*
X142954878Y-100453819D02*
X142954878Y-99453819D01*
X143383449Y-100453819D02*
X143383449Y-99930009D01*
X143383449Y-99930009D02*
X143335830Y-99834771D01*
X143335830Y-99834771D02*
X143240592Y-99787152D01*
X143240592Y-99787152D02*
X143097735Y-99787152D01*
X143097735Y-99787152D02*
X143002497Y-99834771D01*
X143002497Y-99834771D02*
X142954878Y-99882390D01*
X143859640Y-100453819D02*
X143859640Y-99787152D01*
X143859640Y-99977628D02*
X143907259Y-99882390D01*
X143907259Y-99882390D02*
X143954878Y-99834771D01*
X143954878Y-99834771D02*
X144050116Y-99787152D01*
X144050116Y-99787152D02*
X144145354Y-99787152D01*
X144859640Y-100406200D02*
X144764402Y-100453819D01*
X144764402Y-100453819D02*
X144573926Y-100453819D01*
X144573926Y-100453819D02*
X144478688Y-100406200D01*
X144478688Y-100406200D02*
X144431069Y-100310961D01*
X144431069Y-100310961D02*
X144431069Y-99930009D01*
X144431069Y-99930009D02*
X144478688Y-99834771D01*
X144478688Y-99834771D02*
X144573926Y-99787152D01*
X144573926Y-99787152D02*
X144764402Y-99787152D01*
X144764402Y-99787152D02*
X144859640Y-99834771D01*
X144859640Y-99834771D02*
X144907259Y-99930009D01*
X144907259Y-99930009D02*
X144907259Y-100025247D01*
X144907259Y-100025247D02*
X144431069Y-100120485D01*
X145764402Y-100453819D02*
X145764402Y-99930009D01*
X145764402Y-99930009D02*
X145716783Y-99834771D01*
X145716783Y-99834771D02*
X145621545Y-99787152D01*
X145621545Y-99787152D02*
X145431069Y-99787152D01*
X145431069Y-99787152D02*
X145335831Y-99834771D01*
X145764402Y-100406200D02*
X145669164Y-100453819D01*
X145669164Y-100453819D02*
X145431069Y-100453819D01*
X145431069Y-100453819D02*
X145335831Y-100406200D01*
X145335831Y-100406200D02*
X145288212Y-100310961D01*
X145288212Y-100310961D02*
X145288212Y-100215723D01*
X145288212Y-100215723D02*
X145335831Y-100120485D01*
X145335831Y-100120485D02*
X145431069Y-100072866D01*
X145431069Y-100072866D02*
X145669164Y-100072866D01*
X145669164Y-100072866D02*
X145764402Y-100025247D01*
X146669164Y-100453819D02*
X146669164Y-99453819D01*
X146669164Y-100406200D02*
X146573926Y-100453819D01*
X146573926Y-100453819D02*
X146383450Y-100453819D01*
X146383450Y-100453819D02*
X146288212Y-100406200D01*
X146288212Y-100406200D02*
X146240593Y-100358580D01*
X146240593Y-100358580D02*
X146192974Y-100263342D01*
X146192974Y-100263342D02*
X146192974Y-99977628D01*
X146192974Y-99977628D02*
X146240593Y-99882390D01*
X146240593Y-99882390D02*
X146288212Y-99834771D01*
X146288212Y-99834771D02*
X146383450Y-99787152D01*
X146383450Y-99787152D02*
X146573926Y-99787152D01*
X146573926Y-99787152D02*
X146669164Y-99834771D01*
X147907260Y-100453819D02*
X147907260Y-99787152D01*
X147907260Y-99453819D02*
X147859641Y-99501438D01*
X147859641Y-99501438D02*
X147907260Y-99549057D01*
X147907260Y-99549057D02*
X147954879Y-99501438D01*
X147954879Y-99501438D02*
X147907260Y-99453819D01*
X147907260Y-99453819D02*
X147907260Y-99549057D01*
X148383450Y-99787152D02*
X148383450Y-100453819D01*
X148383450Y-99882390D02*
X148431069Y-99834771D01*
X148431069Y-99834771D02*
X148526307Y-99787152D01*
X148526307Y-99787152D02*
X148669164Y-99787152D01*
X148669164Y-99787152D02*
X148764402Y-99834771D01*
X148764402Y-99834771D02*
X148812021Y-99930009D01*
X148812021Y-99930009D02*
X148812021Y-100453819D01*
X149954879Y-99453819D02*
X150573926Y-99453819D01*
X150573926Y-99453819D02*
X150240593Y-99834771D01*
X150240593Y-99834771D02*
X150383450Y-99834771D01*
X150383450Y-99834771D02*
X150478688Y-99882390D01*
X150478688Y-99882390D02*
X150526307Y-99930009D01*
X150526307Y-99930009D02*
X150573926Y-100025247D01*
X150573926Y-100025247D02*
X150573926Y-100263342D01*
X150573926Y-100263342D02*
X150526307Y-100358580D01*
X150526307Y-100358580D02*
X150478688Y-100406200D01*
X150478688Y-100406200D02*
X150383450Y-100453819D01*
X150383450Y-100453819D02*
X150097736Y-100453819D01*
X150097736Y-100453819D02*
X150002498Y-100406200D01*
X150002498Y-100406200D02*
X149954879Y-100358580D01*
X151002498Y-100358580D02*
X151050117Y-100406200D01*
X151050117Y-100406200D02*
X151002498Y-100453819D01*
X151002498Y-100453819D02*
X150954879Y-100406200D01*
X150954879Y-100406200D02*
X151002498Y-100358580D01*
X151002498Y-100358580D02*
X151002498Y-100453819D01*
X151431069Y-99549057D02*
X151478688Y-99501438D01*
X151478688Y-99501438D02*
X151573926Y-99453819D01*
X151573926Y-99453819D02*
X151812021Y-99453819D01*
X151812021Y-99453819D02*
X151907259Y-99501438D01*
X151907259Y-99501438D02*
X151954878Y-99549057D01*
X151954878Y-99549057D02*
X152002497Y-99644295D01*
X152002497Y-99644295D02*
X152002497Y-99739533D01*
X152002497Y-99739533D02*
X151954878Y-99882390D01*
X151954878Y-99882390D02*
X151383450Y-100453819D01*
X151383450Y-100453819D02*
X152002497Y-100453819D01*
X152431069Y-100453819D02*
X152431069Y-99787152D01*
X152431069Y-99882390D02*
X152478688Y-99834771D01*
X152478688Y-99834771D02*
X152573926Y-99787152D01*
X152573926Y-99787152D02*
X152716783Y-99787152D01*
X152716783Y-99787152D02*
X152812021Y-99834771D01*
X152812021Y-99834771D02*
X152859640Y-99930009D01*
X152859640Y-99930009D02*
X152859640Y-100453819D01*
X152859640Y-99930009D02*
X152907259Y-99834771D01*
X152907259Y-99834771D02*
X153002497Y-99787152D01*
X153002497Y-99787152D02*
X153145354Y-99787152D01*
X153145354Y-99787152D02*
X153240593Y-99834771D01*
X153240593Y-99834771D02*
X153288212Y-99930009D01*
X153288212Y-99930009D02*
X153288212Y-100453819D01*
X153764402Y-100453819D02*
X153764402Y-99787152D01*
X153764402Y-99882390D02*
X153812021Y-99834771D01*
X153812021Y-99834771D02*
X153907259Y-99787152D01*
X153907259Y-99787152D02*
X154050116Y-99787152D01*
X154050116Y-99787152D02*
X154145354Y-99834771D01*
X154145354Y-99834771D02*
X154192973Y-99930009D01*
X154192973Y-99930009D02*
X154192973Y-100453819D01*
X154192973Y-99930009D02*
X154240592Y-99834771D01*
X154240592Y-99834771D02*
X154335830Y-99787152D01*
X154335830Y-99787152D02*
X154478687Y-99787152D01*
X154478687Y-99787152D02*
X154573926Y-99834771D01*
X154573926Y-99834771D02*
X154621545Y-99930009D01*
X154621545Y-99930009D02*
X154621545Y-100453819D01*
X155859640Y-100453819D02*
X155859640Y-99453819D01*
X155859640Y-99453819D02*
X156097735Y-99453819D01*
X156097735Y-99453819D02*
X156240592Y-99501438D01*
X156240592Y-99501438D02*
X156335830Y-99596676D01*
X156335830Y-99596676D02*
X156383449Y-99691914D01*
X156383449Y-99691914D02*
X156431068Y-99882390D01*
X156431068Y-99882390D02*
X156431068Y-100025247D01*
X156431068Y-100025247D02*
X156383449Y-100215723D01*
X156383449Y-100215723D02*
X156335830Y-100310961D01*
X156335830Y-100310961D02*
X156240592Y-100406200D01*
X156240592Y-100406200D02*
X156097735Y-100453819D01*
X156097735Y-100453819D02*
X155859640Y-100453819D01*
X156859640Y-100453819D02*
X156859640Y-99453819D01*
X157335830Y-100453819D02*
X157335830Y-99453819D01*
X157335830Y-99453819D02*
X157907258Y-100453819D01*
X157907258Y-100453819D02*
X157907258Y-99453819D01*
X159145354Y-100453819D02*
X159145354Y-99453819D01*
X159573925Y-100453819D02*
X159573925Y-99930009D01*
X159573925Y-99930009D02*
X159526306Y-99834771D01*
X159526306Y-99834771D02*
X159431068Y-99787152D01*
X159431068Y-99787152D02*
X159288211Y-99787152D01*
X159288211Y-99787152D02*
X159192973Y-99834771D01*
X159192973Y-99834771D02*
X159145354Y-99882390D01*
X160192973Y-100453819D02*
X160097735Y-100406200D01*
X160097735Y-100406200D02*
X160050116Y-100358580D01*
X160050116Y-100358580D02*
X160002497Y-100263342D01*
X160002497Y-100263342D02*
X160002497Y-99977628D01*
X160002497Y-99977628D02*
X160050116Y-99882390D01*
X160050116Y-99882390D02*
X160097735Y-99834771D01*
X160097735Y-99834771D02*
X160192973Y-99787152D01*
X160192973Y-99787152D02*
X160335830Y-99787152D01*
X160335830Y-99787152D02*
X160431068Y-99834771D01*
X160431068Y-99834771D02*
X160478687Y-99882390D01*
X160478687Y-99882390D02*
X160526306Y-99977628D01*
X160526306Y-99977628D02*
X160526306Y-100263342D01*
X160526306Y-100263342D02*
X160478687Y-100358580D01*
X160478687Y-100358580D02*
X160431068Y-100406200D01*
X160431068Y-100406200D02*
X160335830Y-100453819D01*
X160335830Y-100453819D02*
X160192973Y-100453819D01*
X161097735Y-100453819D02*
X161002497Y-100406200D01*
X161002497Y-100406200D02*
X160954878Y-100310961D01*
X160954878Y-100310961D02*
X160954878Y-99453819D01*
X161859640Y-100406200D02*
X161764402Y-100453819D01*
X161764402Y-100453819D02*
X161573926Y-100453819D01*
X161573926Y-100453819D02*
X161478688Y-100406200D01*
X161478688Y-100406200D02*
X161431069Y-100310961D01*
X161431069Y-100310961D02*
X161431069Y-99930009D01*
X161431069Y-99930009D02*
X161478688Y-99834771D01*
X161478688Y-99834771D02*
X161573926Y-99787152D01*
X161573926Y-99787152D02*
X161764402Y-99787152D01*
X161764402Y-99787152D02*
X161859640Y-99834771D01*
X161859640Y-99834771D02*
X161907259Y-99930009D01*
X161907259Y-99930009D02*
X161907259Y-100025247D01*
X161907259Y-100025247D02*
X161431069Y-100120485D01*
X162240593Y-100834771D02*
X162288212Y-100787152D01*
X162288212Y-100787152D02*
X162383450Y-100644295D01*
X162383450Y-100644295D02*
X162431069Y-100549057D01*
X162431069Y-100549057D02*
X162478688Y-100406200D01*
X162478688Y-100406200D02*
X162526307Y-100168104D01*
X162526307Y-100168104D02*
X162526307Y-99977628D01*
X162526307Y-99977628D02*
X162478688Y-99739533D01*
X162478688Y-99739533D02*
X162431069Y-99596676D01*
X162431069Y-99596676D02*
X162383450Y-99501438D01*
X162383450Y-99501438D02*
X162288212Y-99358580D01*
X162288212Y-99358580D02*
X162240593Y-99310961D01*
%TO.C,H4*%
X228244000Y-99822000D02*
G75*
G03*
X228244000Y-99822000I-3200000J0D01*
G01*
%TO.C,H5*%
X111150000Y-99822000D02*
G75*
G03*
X111150000Y-99822000I-3200000J0D01*
G01*
%TO.C,H3*%
X78130000Y-99822000D02*
G75*
G03*
X78130000Y-99822000I-3200000J0D01*
G01*
%TO.C,H1*%
X78130000Y-59182000D02*
G75*
G03*
X78130000Y-59182000I-3200000J0D01*
G01*
%TO.C,H2*%
X228244000Y-59436000D02*
G75*
G03*
X228244000Y-59436000I-3200000J0D01*
G01*
%TO.C,H6*%
X173110000Y-99822000D02*
G75*
G03*
X173110000Y-99822000I-3200000J0D01*
G01*
%TD*%
M02*
