%TF.GenerationSoftware,KiCad,Pcbnew,7.0.9*%
%TF.CreationDate,2023-12-01T11:37:00-08:00*%
%TF.ProjectId,gameshow_v4,67616d65-7368-46f7-975f-76342e6b6963,rev?*%
%TF.SameCoordinates,Original*%
%TF.FileFunction,Copper,L2,Bot*%
%TF.FilePolarity,Positive*%
%FSLAX46Y46*%
G04 Gerber Fmt 4.6, Leading zero omitted, Abs format (unit mm)*
G04 Created by KiCad (PCBNEW 7.0.9) date 2023-12-01 11:37:00*
%MOMM*%
%LPD*%
G01*
G04 APERTURE LIST*
%TA.AperFunction,ComponentPad*%
%ADD10R,1.600000X1.600000*%
%TD*%
%TA.AperFunction,ComponentPad*%
%ADD11O,1.600000X1.600000*%
%TD*%
%TA.AperFunction,ComponentPad*%
%ADD12C,3.400000*%
%TD*%
%TA.AperFunction,ComponentPad*%
%ADD13C,2.900000*%
%TD*%
%TA.AperFunction,ViaPad*%
%ADD14C,0.800000*%
%TD*%
%TA.AperFunction,Conductor*%
%ADD15C,0.250000*%
%TD*%
G04 APERTURE END LIST*
D10*
%TO.P,A1,1,D1/TX*%
%TO.N,unconnected-(A1-D1{slash}TX-Pad1)*%
X218176000Y-96266000D03*
D11*
%TO.P,A1,2,D0/RX*%
%TO.N,unconnected-(A1-D0{slash}RX-Pad2)*%
X218176000Y-93726000D03*
%TO.P,A1,3,~{RESET}*%
%TO.N,unconnected-(A1-~{RESET}-Pad3)*%
X218176000Y-91186000D03*
%TO.P,A1,4,GND*%
%TO.N,GND*%
X218176000Y-88646000D03*
%TO.P,A1,5,D2*%
%TO.N,unconnected-(A1-D2-Pad5)*%
X218176000Y-86106000D03*
%TO.P,A1,6,D3*%
%TO.N,unconnected-(A1-D3-Pad6)*%
X218176000Y-83566000D03*
%TO.P,A1,7,D4*%
%TO.N,P1_LED*%
X218176000Y-81026000D03*
%TO.P,A1,8,D5*%
%TO.N,P2_LED*%
X218176000Y-78486000D03*
%TO.P,A1,9,D6*%
%TO.N,P3_LED*%
X218176000Y-75946000D03*
%TO.P,A1,10,D7*%
%TO.N,P4_LED*%
X218176000Y-73406000D03*
%TO.P,A1,11,D8*%
%TO.N,unconnected-(A1-D8-Pad11)*%
X218176000Y-70866000D03*
%TO.P,A1,12,D9*%
%TO.N,unconnected-(A1-D9-Pad12)*%
X218176000Y-68326000D03*
%TO.P,A1,13,D10*%
%TO.N,P4_SW*%
X218176000Y-65786000D03*
%TO.P,A1,14,D11*%
%TO.N,P3_SW*%
X218176000Y-63246000D03*
%TO.P,A1,15,D12*%
%TO.N,P2_SW*%
X218176000Y-60706000D03*
%TO.P,A1,16,D13*%
%TO.N,P1_SW*%
X202936000Y-60706000D03*
%TO.P,A1,17,3V3*%
%TO.N,+3V3*%
X202936000Y-63246000D03*
%TO.P,A1,18,AREF*%
%TO.N,unconnected-(A1-AREF-Pad18)*%
X202936000Y-65786000D03*
%TO.P,A1,19,A0*%
%TO.N,unconnected-(A1-A0-Pad19)*%
X202936000Y-68326000D03*
%TO.P,A1,20,A1*%
%TO.N,unconnected-(A1-A1-Pad20)*%
X202936000Y-70866000D03*
%TO.P,A1,21,A2*%
%TO.N,unconnected-(A1-A2-Pad21)*%
X202936000Y-73406000D03*
%TO.P,A1,22,A3*%
%TO.N,unconnected-(A1-A3-Pad22)*%
X202936000Y-75946000D03*
%TO.P,A1,23,A4*%
%TO.N,unconnected-(A1-A4-Pad23)*%
X202936000Y-78486000D03*
%TO.P,A1,24,A5*%
%TO.N,unconnected-(A1-A5-Pad24)*%
X202936000Y-81026000D03*
%TO.P,A1,25,A6*%
%TO.N,unconnected-(A1-A6-Pad25)*%
X202936000Y-83566000D03*
%TO.P,A1,26,A7*%
%TO.N,unconnected-(A1-A7-Pad26)*%
X202936000Y-86106000D03*
%TO.P,A1,27,+5V*%
%TO.N,unconnected-(A1-+5V-Pad27)*%
X202936000Y-88646000D03*
%TO.P,A1,28,~{RESET}*%
%TO.N,unconnected-(A1-~{RESET}-Pad28)*%
X202936000Y-91186000D03*
%TO.P,A1,29,GND*%
%TO.N,GND*%
X202936000Y-93726000D03*
%TO.P,A1,30,VIN*%
%TO.N,unconnected-(A1-VIN-Pad30)*%
X202936000Y-96266000D03*
%TD*%
D12*
%TO.P,J3,1*%
%TO.N,GND*%
X149860000Y-69850000D03*
%TO.P,J3,2*%
%TO.N,P3_SW*%
X157480000Y-70485000D03*
D13*
%TO.P,J3,3*%
%TO.N,P3_LED*%
X153670000Y-74300000D03*
%TD*%
D12*
%TO.P,J1,1*%
%TO.N,GND*%
X88900000Y-69850000D03*
%TO.P,J1,2*%
%TO.N,P1_SW*%
X96520000Y-70485000D03*
D13*
%TO.P,J1,3*%
%TO.N,P1_LED*%
X92710000Y-74300000D03*
%TD*%
D12*
%TO.P,J4,1*%
%TO.N,GND*%
X180340000Y-69850000D03*
%TO.P,J4,2*%
%TO.N,P4_SW*%
X187960000Y-70485000D03*
D13*
%TO.P,J4,3*%
%TO.N,P4_LED*%
X184150000Y-74300000D03*
%TD*%
D12*
%TO.P,J2,1*%
%TO.N,GND*%
X119380000Y-69850000D03*
%TO.P,J2,2*%
%TO.N,P2_SW*%
X127000000Y-70485000D03*
D13*
%TO.P,J2,3*%
%TO.N,P2_LED*%
X123190000Y-74300000D03*
%TD*%
D14*
%TO.N,P1_LED*%
X207772000Y-82296000D03*
%TO.N,P2_LED*%
X207772000Y-79756000D03*
%TO.N,P3_LED*%
X207772000Y-77216000D03*
%TO.N,P4_LED*%
X207772000Y-74422000D03*
%TO.N,+3V3*%
X140462000Y-86360000D03*
X110236000Y-86360000D03*
%TO.N,P1_SW*%
X99822000Y-65786000D03*
%TO.N,P2_SW*%
X128016000Y-61410500D03*
%TD*%
D15*
%TO.N,P1_LED*%
X207772000Y-82296000D02*
X100706000Y-82296000D01*
X100706000Y-82296000D02*
X92710000Y-74300000D01*
%TO.N,P2_LED*%
X151159770Y-74300000D02*
X123190000Y-74300000D01*
X156615770Y-79756000D02*
X151159770Y-74300000D01*
X207772000Y-79756000D02*
X156615770Y-79756000D01*
%TO.N,P3_LED*%
X207772000Y-77216000D02*
X156586000Y-77216000D01*
X156586000Y-77216000D02*
X153670000Y-74300000D01*
%TO.N,P4_LED*%
X207772000Y-74422000D02*
X207663000Y-74531000D01*
X184381000Y-74531000D02*
X184150000Y-74300000D01*
X207663000Y-74531000D02*
X184381000Y-74531000D01*
%TO.N,+3V3*%
X110236000Y-86360000D02*
X140462000Y-86360000D01*
%TO.N,P1_SW*%
X99822000Y-67183000D02*
X96520000Y-70485000D01*
X99822000Y-65786000D02*
X99822000Y-67183000D01*
%TO.N,P2_SW*%
X128016000Y-61410500D02*
X128700000Y-62094500D01*
X128700000Y-62094500D02*
X128700000Y-68785000D01*
X128700000Y-68785000D02*
X127000000Y-70485000D01*
%TO.N,P3_SW*%
X218176000Y-63246000D02*
X217051000Y-64371000D01*
X217051000Y-64371000D02*
X163594000Y-64371000D01*
X163594000Y-64371000D02*
X157480000Y-70485000D01*
%TO.N,P4_SW*%
X218176000Y-65786000D02*
X214511000Y-69451000D01*
X214511000Y-69451000D02*
X188994000Y-69451000D01*
X188994000Y-69451000D02*
X187960000Y-70485000D01*
%TD*%
%TA.AperFunction,Conductor*%
%TO.N,GND*%
G36*
X230320539Y-53868185D02*
G01*
X230366294Y-53920989D01*
X230377500Y-53972500D01*
X230377500Y-105031500D01*
X230357815Y-105098539D01*
X230305011Y-105144294D01*
X230253500Y-105155500D01*
X69720500Y-105155500D01*
X69653461Y-105135815D01*
X69607706Y-105083011D01*
X69596500Y-105031500D01*
X69596500Y-99889763D01*
X73075787Y-99889763D01*
X73105413Y-100159013D01*
X73105415Y-100159024D01*
X73173926Y-100421082D01*
X73173928Y-100421088D01*
X73279870Y-100670390D01*
X73351998Y-100788575D01*
X73420979Y-100901605D01*
X73420986Y-100901615D01*
X73594253Y-101109819D01*
X73594259Y-101109824D01*
X73795998Y-101290582D01*
X74021910Y-101440044D01*
X74267176Y-101555020D01*
X74267183Y-101555022D01*
X74267185Y-101555023D01*
X74526557Y-101633057D01*
X74526564Y-101633058D01*
X74526569Y-101633060D01*
X74794561Y-101672500D01*
X74794566Y-101672500D01*
X74997636Y-101672500D01*
X75049133Y-101668730D01*
X75200156Y-101657677D01*
X75312758Y-101632593D01*
X75464546Y-101598782D01*
X75464548Y-101598781D01*
X75464553Y-101598780D01*
X75717558Y-101502014D01*
X75953777Y-101369441D01*
X76168177Y-101203888D01*
X76356186Y-101008881D01*
X76513799Y-100788579D01*
X76587787Y-100644669D01*
X76637649Y-100547690D01*
X76637651Y-100547684D01*
X76637656Y-100547675D01*
X76725118Y-100291305D01*
X76774319Y-100024933D01*
X76779259Y-99889763D01*
X106095787Y-99889763D01*
X106125413Y-100159013D01*
X106125415Y-100159024D01*
X106193926Y-100421082D01*
X106193928Y-100421088D01*
X106299870Y-100670390D01*
X106371998Y-100788575D01*
X106440979Y-100901605D01*
X106440986Y-100901615D01*
X106614253Y-101109819D01*
X106614259Y-101109824D01*
X106815998Y-101290582D01*
X107041910Y-101440044D01*
X107287176Y-101555020D01*
X107287183Y-101555022D01*
X107287185Y-101555023D01*
X107546557Y-101633057D01*
X107546564Y-101633058D01*
X107546569Y-101633060D01*
X107814561Y-101672500D01*
X107814566Y-101672500D01*
X108017636Y-101672500D01*
X108069133Y-101668730D01*
X108220156Y-101657677D01*
X108332758Y-101632593D01*
X108484546Y-101598782D01*
X108484548Y-101598781D01*
X108484553Y-101598780D01*
X108737558Y-101502014D01*
X108973777Y-101369441D01*
X109188177Y-101203888D01*
X109376186Y-101008881D01*
X109533799Y-100788579D01*
X109607787Y-100644669D01*
X109657649Y-100547690D01*
X109657651Y-100547684D01*
X109657656Y-100547675D01*
X109745118Y-100291305D01*
X109794319Y-100024933D01*
X109799259Y-99889763D01*
X168055787Y-99889763D01*
X168085413Y-100159013D01*
X168085415Y-100159024D01*
X168153926Y-100421082D01*
X168153928Y-100421088D01*
X168259870Y-100670390D01*
X168331998Y-100788575D01*
X168400979Y-100901605D01*
X168400986Y-100901615D01*
X168574253Y-101109819D01*
X168574259Y-101109824D01*
X168775998Y-101290582D01*
X169001910Y-101440044D01*
X169247176Y-101555020D01*
X169247183Y-101555022D01*
X169247185Y-101555023D01*
X169506557Y-101633057D01*
X169506564Y-101633058D01*
X169506569Y-101633060D01*
X169774561Y-101672500D01*
X169774566Y-101672500D01*
X169977636Y-101672500D01*
X170029133Y-101668730D01*
X170180156Y-101657677D01*
X170292758Y-101632593D01*
X170444546Y-101598782D01*
X170444548Y-101598781D01*
X170444553Y-101598780D01*
X170697558Y-101502014D01*
X170933777Y-101369441D01*
X171148177Y-101203888D01*
X171336186Y-101008881D01*
X171493799Y-100788579D01*
X171567787Y-100644669D01*
X171617649Y-100547690D01*
X171617651Y-100547684D01*
X171617656Y-100547675D01*
X171705118Y-100291305D01*
X171754319Y-100024933D01*
X171759259Y-99889763D01*
X223189787Y-99889763D01*
X223219413Y-100159013D01*
X223219415Y-100159024D01*
X223287926Y-100421082D01*
X223287928Y-100421088D01*
X223393870Y-100670390D01*
X223465998Y-100788575D01*
X223534979Y-100901605D01*
X223534986Y-100901615D01*
X223708253Y-101109819D01*
X223708259Y-101109824D01*
X223909998Y-101290582D01*
X224135910Y-101440044D01*
X224381176Y-101555020D01*
X224381183Y-101555022D01*
X224381185Y-101555023D01*
X224640557Y-101633057D01*
X224640564Y-101633058D01*
X224640569Y-101633060D01*
X224908561Y-101672500D01*
X224908566Y-101672500D01*
X225111636Y-101672500D01*
X225163133Y-101668730D01*
X225314156Y-101657677D01*
X225426758Y-101632593D01*
X225578546Y-101598782D01*
X225578548Y-101598781D01*
X225578553Y-101598780D01*
X225831558Y-101502014D01*
X226067777Y-101369441D01*
X226282177Y-101203888D01*
X226470186Y-101008881D01*
X226627799Y-100788579D01*
X226701787Y-100644669D01*
X226751649Y-100547690D01*
X226751651Y-100547684D01*
X226751656Y-100547675D01*
X226839118Y-100291305D01*
X226888319Y-100024933D01*
X226898212Y-99754235D01*
X226868586Y-99484982D01*
X226800072Y-99222912D01*
X226694130Y-98973610D01*
X226553018Y-98742390D01*
X226463747Y-98635119D01*
X226379746Y-98534180D01*
X226379740Y-98534175D01*
X226178002Y-98353418D01*
X225952092Y-98203957D01*
X225952090Y-98203956D01*
X225706824Y-98088980D01*
X225706819Y-98088978D01*
X225706814Y-98088976D01*
X225447442Y-98010942D01*
X225447428Y-98010939D01*
X225331791Y-97993921D01*
X225179439Y-97971500D01*
X224976369Y-97971500D01*
X224976364Y-97971500D01*
X224773844Y-97986323D01*
X224773831Y-97986325D01*
X224509453Y-98045217D01*
X224509446Y-98045220D01*
X224256439Y-98141987D01*
X224020226Y-98274557D01*
X223805822Y-98440112D01*
X223617822Y-98635109D01*
X223617816Y-98635116D01*
X223460202Y-98855419D01*
X223460199Y-98855424D01*
X223336350Y-99096309D01*
X223336343Y-99096327D01*
X223248884Y-99352685D01*
X223248881Y-99352699D01*
X223199681Y-99619068D01*
X223199680Y-99619075D01*
X223189787Y-99889763D01*
X171759259Y-99889763D01*
X171764212Y-99754235D01*
X171734586Y-99484982D01*
X171666072Y-99222912D01*
X171560130Y-98973610D01*
X171419018Y-98742390D01*
X171329747Y-98635119D01*
X171245746Y-98534180D01*
X171245740Y-98534175D01*
X171044002Y-98353418D01*
X170818092Y-98203957D01*
X170818090Y-98203956D01*
X170572824Y-98088980D01*
X170572819Y-98088978D01*
X170572814Y-98088976D01*
X170313442Y-98010942D01*
X170313428Y-98010939D01*
X170197791Y-97993921D01*
X170045439Y-97971500D01*
X169842369Y-97971500D01*
X169842364Y-97971500D01*
X169639844Y-97986323D01*
X169639831Y-97986325D01*
X169375453Y-98045217D01*
X169375446Y-98045220D01*
X169122439Y-98141987D01*
X168886226Y-98274557D01*
X168671822Y-98440112D01*
X168483822Y-98635109D01*
X168483816Y-98635116D01*
X168326202Y-98855419D01*
X168326199Y-98855424D01*
X168202350Y-99096309D01*
X168202343Y-99096327D01*
X168114884Y-99352685D01*
X168114881Y-99352699D01*
X168065681Y-99619068D01*
X168065680Y-99619075D01*
X168055787Y-99889763D01*
X109799259Y-99889763D01*
X109804212Y-99754235D01*
X109774586Y-99484982D01*
X109706072Y-99222912D01*
X109600130Y-98973610D01*
X109459018Y-98742390D01*
X109369747Y-98635119D01*
X109285746Y-98534180D01*
X109285740Y-98534175D01*
X109084002Y-98353418D01*
X108858092Y-98203957D01*
X108858090Y-98203956D01*
X108612824Y-98088980D01*
X108612819Y-98088978D01*
X108612814Y-98088976D01*
X108353442Y-98010942D01*
X108353428Y-98010939D01*
X108237791Y-97993921D01*
X108085439Y-97971500D01*
X107882369Y-97971500D01*
X107882364Y-97971500D01*
X107679844Y-97986323D01*
X107679831Y-97986325D01*
X107415453Y-98045217D01*
X107415446Y-98045220D01*
X107162439Y-98141987D01*
X106926226Y-98274557D01*
X106711822Y-98440112D01*
X106523822Y-98635109D01*
X106523816Y-98635116D01*
X106366202Y-98855419D01*
X106366199Y-98855424D01*
X106242350Y-99096309D01*
X106242343Y-99096327D01*
X106154884Y-99352685D01*
X106154881Y-99352699D01*
X106105681Y-99619068D01*
X106105680Y-99619075D01*
X106095787Y-99889763D01*
X76779259Y-99889763D01*
X76784212Y-99754235D01*
X76754586Y-99484982D01*
X76686072Y-99222912D01*
X76580130Y-98973610D01*
X76439018Y-98742390D01*
X76349747Y-98635119D01*
X76265746Y-98534180D01*
X76265740Y-98534175D01*
X76064002Y-98353418D01*
X75838092Y-98203957D01*
X75838090Y-98203956D01*
X75592824Y-98088980D01*
X75592819Y-98088978D01*
X75592814Y-98088976D01*
X75333442Y-98010942D01*
X75333428Y-98010939D01*
X75217791Y-97993921D01*
X75065439Y-97971500D01*
X74862369Y-97971500D01*
X74862364Y-97971500D01*
X74659844Y-97986323D01*
X74659831Y-97986325D01*
X74395453Y-98045217D01*
X74395446Y-98045220D01*
X74142439Y-98141987D01*
X73906226Y-98274557D01*
X73691822Y-98440112D01*
X73503822Y-98635109D01*
X73503816Y-98635116D01*
X73346202Y-98855419D01*
X73346199Y-98855424D01*
X73222350Y-99096309D01*
X73222343Y-99096327D01*
X73134884Y-99352685D01*
X73134881Y-99352699D01*
X73085681Y-99619068D01*
X73085680Y-99619075D01*
X73075787Y-99889763D01*
X69596500Y-99889763D01*
X69596500Y-86360000D01*
X109330540Y-86360000D01*
X109350326Y-86548256D01*
X109350327Y-86548259D01*
X109408818Y-86728277D01*
X109408821Y-86728284D01*
X109503467Y-86892216D01*
X109605185Y-87005185D01*
X109630129Y-87032888D01*
X109783265Y-87144148D01*
X109783270Y-87144151D01*
X109956192Y-87221142D01*
X109956197Y-87221144D01*
X110141354Y-87260500D01*
X110141355Y-87260500D01*
X110330644Y-87260500D01*
X110330646Y-87260500D01*
X110515803Y-87221144D01*
X110688730Y-87144151D01*
X110841871Y-87032888D01*
X110844788Y-87029647D01*
X110847600Y-87026526D01*
X110907087Y-86989879D01*
X110939748Y-86985500D01*
X139758252Y-86985500D01*
X139825291Y-87005185D01*
X139850400Y-87026526D01*
X139856126Y-87032885D01*
X139856130Y-87032889D01*
X140009265Y-87144148D01*
X140009270Y-87144151D01*
X140182192Y-87221142D01*
X140182197Y-87221144D01*
X140367354Y-87260500D01*
X140367355Y-87260500D01*
X140556644Y-87260500D01*
X140556646Y-87260500D01*
X140741803Y-87221144D01*
X140914730Y-87144151D01*
X141067871Y-87032888D01*
X141194533Y-86892216D01*
X141289179Y-86728284D01*
X141347674Y-86548256D01*
X141367460Y-86360000D01*
X141347674Y-86171744D01*
X141289179Y-85991716D01*
X141194533Y-85827784D01*
X141067871Y-85687112D01*
X141067870Y-85687111D01*
X140914734Y-85575851D01*
X140914729Y-85575848D01*
X140741807Y-85498857D01*
X140741802Y-85498855D01*
X140596001Y-85467865D01*
X140556646Y-85459500D01*
X140367354Y-85459500D01*
X140334897Y-85466398D01*
X140182197Y-85498855D01*
X140182192Y-85498857D01*
X140009270Y-85575848D01*
X140009265Y-85575851D01*
X139856130Y-85687110D01*
X139856126Y-85687114D01*
X139850400Y-85693474D01*
X139790913Y-85730121D01*
X139758252Y-85734500D01*
X110939748Y-85734500D01*
X110872709Y-85714815D01*
X110847600Y-85693474D01*
X110841873Y-85687114D01*
X110841869Y-85687110D01*
X110688734Y-85575851D01*
X110688729Y-85575848D01*
X110515807Y-85498857D01*
X110515802Y-85498855D01*
X110370001Y-85467865D01*
X110330646Y-85459500D01*
X110141354Y-85459500D01*
X110108897Y-85466398D01*
X109956197Y-85498855D01*
X109956192Y-85498857D01*
X109783270Y-85575848D01*
X109783265Y-85575851D01*
X109630129Y-85687111D01*
X109503466Y-85827785D01*
X109408821Y-85991715D01*
X109408818Y-85991722D01*
X109371687Y-86106001D01*
X109350326Y-86171744D01*
X109330540Y-86360000D01*
X69596500Y-86360000D01*
X69596500Y-74300001D01*
X90754518Y-74300001D01*
X90774422Y-74578299D01*
X90826008Y-74815431D01*
X90833729Y-74850923D01*
X90872255Y-74954216D01*
X90931231Y-75112338D01*
X90931233Y-75112342D01*
X91064940Y-75357207D01*
X91064945Y-75357215D01*
X91232138Y-75580560D01*
X91232154Y-75580578D01*
X91429421Y-75777845D01*
X91429439Y-75777861D01*
X91652784Y-75945054D01*
X91652792Y-75945059D01*
X91897657Y-76078766D01*
X91897661Y-76078768D01*
X91897663Y-76078769D01*
X92159077Y-76176271D01*
X92284481Y-76203551D01*
X92431700Y-76235577D01*
X92431702Y-76235577D01*
X92431706Y-76235578D01*
X92679014Y-76253265D01*
X92709999Y-76255482D01*
X92710000Y-76255482D01*
X92710001Y-76255482D01*
X92737881Y-76253487D01*
X92988294Y-76235578D01*
X93260923Y-76176271D01*
X93507282Y-76084383D01*
X93576972Y-76079400D01*
X93638295Y-76112885D01*
X100205194Y-82679784D01*
X100215019Y-82692048D01*
X100215240Y-82691866D01*
X100220210Y-82697873D01*
X100220213Y-82697876D01*
X100220214Y-82697877D01*
X100270651Y-82745241D01*
X100291530Y-82766120D01*
X100297004Y-82770366D01*
X100301442Y-82774156D01*
X100335418Y-82806062D01*
X100335422Y-82806064D01*
X100352973Y-82815713D01*
X100369231Y-82826392D01*
X100385064Y-82838674D01*
X100407015Y-82848172D01*
X100427837Y-82857183D01*
X100433081Y-82859752D01*
X100473908Y-82882197D01*
X100493312Y-82887179D01*
X100511710Y-82893478D01*
X100530105Y-82901438D01*
X100576129Y-82908726D01*
X100581832Y-82909907D01*
X100626981Y-82921500D01*
X100647016Y-82921500D01*
X100666413Y-82923026D01*
X100686196Y-82926160D01*
X100732584Y-82921775D01*
X100738422Y-82921500D01*
X201606951Y-82921500D01*
X201673990Y-82941185D01*
X201719745Y-82993989D01*
X201729689Y-83063147D01*
X201719333Y-83097905D01*
X201709262Y-83119502D01*
X201709258Y-83119511D01*
X201650366Y-83339302D01*
X201650364Y-83339313D01*
X201630532Y-83565998D01*
X201630532Y-83566001D01*
X201650364Y-83792686D01*
X201650366Y-83792697D01*
X201709258Y-84012488D01*
X201709261Y-84012497D01*
X201805431Y-84218732D01*
X201805432Y-84218734D01*
X201935954Y-84405141D01*
X202096858Y-84566045D01*
X202096861Y-84566047D01*
X202283266Y-84696568D01*
X202341275Y-84723618D01*
X202393714Y-84769791D01*
X202412866Y-84836984D01*
X202392650Y-84903865D01*
X202341275Y-84948382D01*
X202283267Y-84975431D01*
X202283265Y-84975432D01*
X202096858Y-85105954D01*
X201935954Y-85266858D01*
X201805432Y-85453265D01*
X201805431Y-85453267D01*
X201709261Y-85659502D01*
X201709258Y-85659511D01*
X201650366Y-85879302D01*
X201650364Y-85879313D01*
X201630532Y-86105998D01*
X201630532Y-86106001D01*
X201650364Y-86332686D01*
X201650366Y-86332697D01*
X201709258Y-86552488D01*
X201709261Y-86552497D01*
X201805431Y-86758732D01*
X201805432Y-86758734D01*
X201935954Y-86945141D01*
X202096858Y-87106045D01*
X202096861Y-87106047D01*
X202283266Y-87236568D01*
X202341275Y-87263618D01*
X202393714Y-87309791D01*
X202412866Y-87376984D01*
X202392650Y-87443865D01*
X202341275Y-87488382D01*
X202283267Y-87515431D01*
X202283265Y-87515432D01*
X202096858Y-87645954D01*
X201935954Y-87806858D01*
X201805432Y-87993265D01*
X201805431Y-87993267D01*
X201709261Y-88199502D01*
X201709258Y-88199511D01*
X201650366Y-88419302D01*
X201650364Y-88419313D01*
X201630532Y-88645998D01*
X201630532Y-88646001D01*
X201650364Y-88872686D01*
X201650366Y-88872697D01*
X201709258Y-89092488D01*
X201709261Y-89092497D01*
X201805431Y-89298732D01*
X201805432Y-89298734D01*
X201935954Y-89485141D01*
X202096858Y-89646045D01*
X202096861Y-89646047D01*
X202283266Y-89776568D01*
X202340681Y-89803341D01*
X202341275Y-89803618D01*
X202393714Y-89849791D01*
X202412866Y-89916984D01*
X202392650Y-89983865D01*
X202341275Y-90028382D01*
X202283267Y-90055431D01*
X202283265Y-90055432D01*
X202096858Y-90185954D01*
X201935954Y-90346858D01*
X201805432Y-90533265D01*
X201805431Y-90533267D01*
X201709261Y-90739502D01*
X201709258Y-90739511D01*
X201650366Y-90959302D01*
X201650364Y-90959313D01*
X201630532Y-91185998D01*
X201630532Y-91186001D01*
X201650364Y-91412686D01*
X201650366Y-91412697D01*
X201709258Y-91632488D01*
X201709261Y-91632497D01*
X201805431Y-91838732D01*
X201805432Y-91838734D01*
X201935954Y-92025141D01*
X202096858Y-92186045D01*
X202096861Y-92186047D01*
X202283266Y-92316568D01*
X202341865Y-92343893D01*
X202394305Y-92390065D01*
X202413457Y-92457258D01*
X202393242Y-92524139D01*
X202341867Y-92568657D01*
X202283515Y-92595867D01*
X202097179Y-92726342D01*
X201936342Y-92887179D01*
X201805865Y-93073517D01*
X201709734Y-93279673D01*
X201709730Y-93279682D01*
X201657127Y-93475999D01*
X201657128Y-93476000D01*
X202502314Y-93476000D01*
X202476507Y-93516156D01*
X202436000Y-93654111D01*
X202436000Y-93797889D01*
X202476507Y-93935844D01*
X202502314Y-93976000D01*
X201657128Y-93976000D01*
X201709730Y-94172317D01*
X201709734Y-94172326D01*
X201805865Y-94378482D01*
X201936342Y-94564820D01*
X202097179Y-94725657D01*
X202283518Y-94856134D01*
X202283520Y-94856135D01*
X202341865Y-94883342D01*
X202394305Y-94929514D01*
X202413457Y-94996707D01*
X202393242Y-95063589D01*
X202341867Y-95108105D01*
X202283268Y-95135431D01*
X202283264Y-95135433D01*
X202096858Y-95265954D01*
X201935954Y-95426858D01*
X201805432Y-95613265D01*
X201805431Y-95613267D01*
X201709261Y-95819502D01*
X201709258Y-95819511D01*
X201650366Y-96039302D01*
X201650364Y-96039313D01*
X201630532Y-96265998D01*
X201630532Y-96266001D01*
X201650364Y-96492686D01*
X201650366Y-96492697D01*
X201709258Y-96712488D01*
X201709261Y-96712497D01*
X201805431Y-96918732D01*
X201805432Y-96918734D01*
X201935954Y-97105141D01*
X202096858Y-97266045D01*
X202096861Y-97266047D01*
X202283266Y-97396568D01*
X202489504Y-97492739D01*
X202709308Y-97551635D01*
X202871230Y-97565801D01*
X202935998Y-97571468D01*
X202936000Y-97571468D01*
X202936002Y-97571468D01*
X202992807Y-97566498D01*
X203162692Y-97551635D01*
X203382496Y-97492739D01*
X203588734Y-97396568D01*
X203775139Y-97266047D01*
X203936047Y-97105139D01*
X204066568Y-96918734D01*
X204162739Y-96712496D01*
X204221635Y-96492692D01*
X204241468Y-96266000D01*
X204221635Y-96039308D01*
X204162739Y-95819504D01*
X204066568Y-95613266D01*
X203936047Y-95426861D01*
X203936045Y-95426858D01*
X203775141Y-95265954D01*
X203588734Y-95135432D01*
X203588732Y-95135431D01*
X203577275Y-95130088D01*
X203530132Y-95108105D01*
X203477694Y-95061934D01*
X203458542Y-94994740D01*
X203478758Y-94927859D01*
X203530134Y-94883341D01*
X203588484Y-94856132D01*
X203774820Y-94725657D01*
X203935657Y-94564820D01*
X204066134Y-94378482D01*
X204162265Y-94172326D01*
X204162269Y-94172317D01*
X204214872Y-93976000D01*
X203369686Y-93976000D01*
X203395493Y-93935844D01*
X203436000Y-93797889D01*
X203436000Y-93654111D01*
X203395493Y-93516156D01*
X203369686Y-93476000D01*
X204214872Y-93476000D01*
X204214872Y-93475999D01*
X204162269Y-93279682D01*
X204162265Y-93279673D01*
X204066134Y-93073517D01*
X203935657Y-92887179D01*
X203774820Y-92726342D01*
X203588482Y-92595865D01*
X203530133Y-92568657D01*
X203477694Y-92522484D01*
X203458542Y-92455291D01*
X203478758Y-92388410D01*
X203530129Y-92343895D01*
X203588734Y-92316568D01*
X203775139Y-92186047D01*
X203936047Y-92025139D01*
X204066568Y-91838734D01*
X204162739Y-91632496D01*
X204221635Y-91412692D01*
X204241468Y-91186000D01*
X204221635Y-90959308D01*
X204162739Y-90739504D01*
X204066568Y-90533266D01*
X203936047Y-90346861D01*
X203936045Y-90346858D01*
X203775141Y-90185954D01*
X203588734Y-90055432D01*
X203588728Y-90055429D01*
X203530725Y-90028382D01*
X203478285Y-89982210D01*
X203459133Y-89915017D01*
X203479348Y-89848135D01*
X203530725Y-89803618D01*
X203531319Y-89803341D01*
X203588734Y-89776568D01*
X203775139Y-89646047D01*
X203936047Y-89485139D01*
X204066568Y-89298734D01*
X204162739Y-89092496D01*
X204221635Y-88872692D01*
X204241468Y-88646000D01*
X204221635Y-88419308D01*
X204162739Y-88199504D01*
X204066568Y-87993266D01*
X203936047Y-87806861D01*
X203936045Y-87806858D01*
X203775141Y-87645954D01*
X203588734Y-87515432D01*
X203588728Y-87515429D01*
X203530725Y-87488382D01*
X203478285Y-87442210D01*
X203459133Y-87375017D01*
X203479348Y-87308135D01*
X203530725Y-87263618D01*
X203588734Y-87236568D01*
X203775139Y-87106047D01*
X203936047Y-86945139D01*
X204066568Y-86758734D01*
X204162739Y-86552496D01*
X204221635Y-86332692D01*
X204241468Y-86106000D01*
X204221635Y-85879308D01*
X204162739Y-85659504D01*
X204066568Y-85453266D01*
X203936047Y-85266861D01*
X203936045Y-85266858D01*
X203775141Y-85105954D01*
X203588734Y-84975432D01*
X203588728Y-84975429D01*
X203530725Y-84948382D01*
X203478285Y-84902210D01*
X203459133Y-84835017D01*
X203479348Y-84768135D01*
X203530725Y-84723618D01*
X203588734Y-84696568D01*
X203775139Y-84566047D01*
X203936047Y-84405139D01*
X204066568Y-84218734D01*
X204162739Y-84012496D01*
X204221635Y-83792692D01*
X204241468Y-83566000D01*
X204221635Y-83339308D01*
X204162739Y-83119504D01*
X204152666Y-83097904D01*
X204142175Y-83028827D01*
X204170695Y-82965043D01*
X204229171Y-82926804D01*
X204265049Y-82921500D01*
X207068252Y-82921500D01*
X207135291Y-82941185D01*
X207160400Y-82962526D01*
X207166126Y-82968885D01*
X207166130Y-82968889D01*
X207319265Y-83080148D01*
X207319270Y-83080151D01*
X207492192Y-83157142D01*
X207492197Y-83157144D01*
X207677354Y-83196500D01*
X207677355Y-83196500D01*
X207866644Y-83196500D01*
X207866646Y-83196500D01*
X208051803Y-83157144D01*
X208224730Y-83080151D01*
X208377871Y-82968888D01*
X208504533Y-82828216D01*
X208599179Y-82664284D01*
X208657674Y-82484256D01*
X208677460Y-82296000D01*
X208657674Y-82107744D01*
X208599179Y-81927716D01*
X208504533Y-81763784D01*
X208377871Y-81623112D01*
X208377870Y-81623111D01*
X208224734Y-81511851D01*
X208224729Y-81511848D01*
X208051807Y-81434857D01*
X208051802Y-81434855D01*
X207906001Y-81403865D01*
X207866646Y-81395500D01*
X207677354Y-81395500D01*
X207644897Y-81402398D01*
X207492197Y-81434855D01*
X207492192Y-81434857D01*
X207319270Y-81511848D01*
X207319265Y-81511851D01*
X207166130Y-81623110D01*
X207166126Y-81623114D01*
X207160400Y-81629474D01*
X207100913Y-81666121D01*
X207068252Y-81670500D01*
X204265049Y-81670500D01*
X204198010Y-81650815D01*
X204152255Y-81598011D01*
X204142311Y-81528853D01*
X204152667Y-81494095D01*
X204162739Y-81472496D01*
X204221635Y-81252692D01*
X204241468Y-81026000D01*
X204221635Y-80799308D01*
X204162739Y-80579504D01*
X204152666Y-80557904D01*
X204142175Y-80488827D01*
X204170695Y-80425043D01*
X204229171Y-80386804D01*
X204265049Y-80381500D01*
X207068252Y-80381500D01*
X207135291Y-80401185D01*
X207160400Y-80422526D01*
X207166126Y-80428885D01*
X207166130Y-80428889D01*
X207319265Y-80540148D01*
X207319270Y-80540151D01*
X207492192Y-80617142D01*
X207492197Y-80617144D01*
X207677354Y-80656500D01*
X207677355Y-80656500D01*
X207866644Y-80656500D01*
X207866646Y-80656500D01*
X208051803Y-80617144D01*
X208224730Y-80540151D01*
X208377871Y-80428888D01*
X208504533Y-80288216D01*
X208599179Y-80124284D01*
X208657674Y-79944256D01*
X208677460Y-79756000D01*
X208657674Y-79567744D01*
X208599179Y-79387716D01*
X208504533Y-79223784D01*
X208377871Y-79083112D01*
X208377870Y-79083111D01*
X208224734Y-78971851D01*
X208224729Y-78971848D01*
X208051807Y-78894857D01*
X208051802Y-78894855D01*
X207906001Y-78863865D01*
X207866646Y-78855500D01*
X207677354Y-78855500D01*
X207644897Y-78862398D01*
X207492197Y-78894855D01*
X207492192Y-78894857D01*
X207319270Y-78971848D01*
X207319265Y-78971851D01*
X207166130Y-79083110D01*
X207166126Y-79083114D01*
X207160400Y-79089474D01*
X207100913Y-79126121D01*
X207068252Y-79130500D01*
X204265049Y-79130500D01*
X204198010Y-79110815D01*
X204152255Y-79058011D01*
X204142311Y-78988853D01*
X204152667Y-78954095D01*
X204162739Y-78932496D01*
X204221635Y-78712692D01*
X204241468Y-78486000D01*
X204221635Y-78259308D01*
X204162739Y-78039504D01*
X204152666Y-78017904D01*
X204142175Y-77948827D01*
X204170695Y-77885043D01*
X204229171Y-77846804D01*
X204265049Y-77841500D01*
X207068252Y-77841500D01*
X207135291Y-77861185D01*
X207160400Y-77882526D01*
X207166126Y-77888885D01*
X207166130Y-77888889D01*
X207319265Y-78000148D01*
X207319270Y-78000151D01*
X207492192Y-78077142D01*
X207492197Y-78077144D01*
X207677354Y-78116500D01*
X207677355Y-78116500D01*
X207866644Y-78116500D01*
X207866646Y-78116500D01*
X208051803Y-78077144D01*
X208224730Y-78000151D01*
X208377871Y-77888888D01*
X208504533Y-77748216D01*
X208599179Y-77584284D01*
X208657674Y-77404256D01*
X208677460Y-77216000D01*
X208657674Y-77027744D01*
X208599179Y-76847716D01*
X208504533Y-76683784D01*
X208377871Y-76543112D01*
X208377870Y-76543111D01*
X208224734Y-76431851D01*
X208224729Y-76431848D01*
X208051807Y-76354857D01*
X208051802Y-76354855D01*
X207906001Y-76323865D01*
X207866646Y-76315500D01*
X207677354Y-76315500D01*
X207644897Y-76322398D01*
X207492197Y-76354855D01*
X207492192Y-76354857D01*
X207319270Y-76431848D01*
X207319265Y-76431851D01*
X207166130Y-76543110D01*
X207166126Y-76543114D01*
X207160400Y-76549474D01*
X207100913Y-76586121D01*
X207068252Y-76590500D01*
X204265049Y-76590500D01*
X204198010Y-76570815D01*
X204152255Y-76518011D01*
X204142311Y-76448853D01*
X204152667Y-76414095D01*
X204162739Y-76392496D01*
X204221635Y-76172692D01*
X204241468Y-75946000D01*
X204241385Y-75945056D01*
X204235801Y-75881230D01*
X204221635Y-75719308D01*
X204162739Y-75499504D01*
X204085051Y-75332904D01*
X204074560Y-75263827D01*
X204103080Y-75200043D01*
X204161556Y-75161804D01*
X204197434Y-75156500D01*
X207210641Y-75156500D01*
X207277680Y-75176185D01*
X207283526Y-75180182D01*
X207319265Y-75206148D01*
X207319270Y-75206151D01*
X207492192Y-75283142D01*
X207492197Y-75283144D01*
X207677354Y-75322500D01*
X207677355Y-75322500D01*
X207866644Y-75322500D01*
X207866646Y-75322500D01*
X208051803Y-75283144D01*
X208224730Y-75206151D01*
X208377871Y-75094888D01*
X208504533Y-74954216D01*
X208599179Y-74790284D01*
X208657674Y-74610256D01*
X208677460Y-74422000D01*
X208657674Y-74233744D01*
X208599179Y-74053716D01*
X208504533Y-73889784D01*
X208377871Y-73749112D01*
X208377823Y-73749077D01*
X208224734Y-73637851D01*
X208224729Y-73637848D01*
X208051807Y-73560857D01*
X208051802Y-73560855D01*
X207906001Y-73529865D01*
X207866646Y-73521500D01*
X207677354Y-73521500D01*
X207644897Y-73528398D01*
X207492197Y-73560855D01*
X207492192Y-73560857D01*
X207319270Y-73637848D01*
X207319265Y-73637851D01*
X207166129Y-73749111D01*
X207062258Y-73864472D01*
X207002771Y-73901121D01*
X206970108Y-73905500D01*
X204310137Y-73905500D01*
X204243098Y-73885815D01*
X204197343Y-73833011D01*
X204187399Y-73763853D01*
X204190362Y-73749407D01*
X204207328Y-73686087D01*
X204221635Y-73632692D01*
X204241468Y-73406000D01*
X204221635Y-73179308D01*
X204162739Y-72959504D01*
X204066568Y-72753266D01*
X203936047Y-72566861D01*
X203936045Y-72566858D01*
X203775141Y-72405954D01*
X203588734Y-72275432D01*
X203588728Y-72275429D01*
X203530725Y-72248382D01*
X203478285Y-72202210D01*
X203459133Y-72135017D01*
X203479348Y-72068135D01*
X203530725Y-72023618D01*
X203588734Y-71996568D01*
X203775139Y-71866047D01*
X203936047Y-71705139D01*
X204066568Y-71518734D01*
X204162739Y-71312496D01*
X204221635Y-71092692D01*
X204241468Y-70866000D01*
X204221635Y-70639308D01*
X204162739Y-70419504D01*
X204085051Y-70252904D01*
X204074560Y-70183827D01*
X204103080Y-70120043D01*
X204161556Y-70081804D01*
X204197434Y-70076500D01*
X214428257Y-70076500D01*
X214443877Y-70078224D01*
X214443904Y-70077939D01*
X214451660Y-70078671D01*
X214451667Y-70078673D01*
X214520814Y-70076500D01*
X214550350Y-70076500D01*
X214557228Y-70075630D01*
X214563041Y-70075172D01*
X214609627Y-70073709D01*
X214628869Y-70068117D01*
X214647912Y-70064174D01*
X214667792Y-70061664D01*
X214711122Y-70044507D01*
X214716646Y-70042617D01*
X214720396Y-70041527D01*
X214761390Y-70029618D01*
X214778629Y-70019422D01*
X214796103Y-70010862D01*
X214814727Y-70003488D01*
X214814727Y-70003487D01*
X214814732Y-70003486D01*
X214852449Y-69976082D01*
X214857305Y-69972892D01*
X214897420Y-69949170D01*
X214911589Y-69934999D01*
X214926379Y-69922368D01*
X214942587Y-69910594D01*
X214972299Y-69874676D01*
X214976212Y-69870376D01*
X216663183Y-68183405D01*
X216724504Y-68149922D01*
X216794196Y-68154906D01*
X216850129Y-68196778D01*
X216874546Y-68262242D01*
X216874390Y-68281894D01*
X216870532Y-68325996D01*
X216870532Y-68326001D01*
X216890364Y-68552686D01*
X216890366Y-68552697D01*
X216949258Y-68772488D01*
X216949261Y-68772497D01*
X217045431Y-68978732D01*
X217045432Y-68978734D01*
X217175954Y-69165141D01*
X217336858Y-69326045D01*
X217336861Y-69326047D01*
X217523266Y-69456568D01*
X217581275Y-69483618D01*
X217633714Y-69529791D01*
X217652866Y-69596984D01*
X217632650Y-69663865D01*
X217581275Y-69708382D01*
X217523267Y-69735431D01*
X217523265Y-69735432D01*
X217336858Y-69865954D01*
X217175954Y-70026858D01*
X217045432Y-70213265D01*
X217045431Y-70213267D01*
X216949261Y-70419502D01*
X216949258Y-70419511D01*
X216890366Y-70639302D01*
X216890364Y-70639313D01*
X216870532Y-70865998D01*
X216870532Y-70866001D01*
X216890364Y-71092686D01*
X216890366Y-71092697D01*
X216949258Y-71312488D01*
X216949261Y-71312497D01*
X217045431Y-71518732D01*
X217045432Y-71518734D01*
X217175954Y-71705141D01*
X217336858Y-71866045D01*
X217336861Y-71866047D01*
X217523266Y-71996568D01*
X217581275Y-72023618D01*
X217633714Y-72069791D01*
X217652866Y-72136984D01*
X217632650Y-72203865D01*
X217581275Y-72248382D01*
X217523267Y-72275431D01*
X217523265Y-72275432D01*
X217336858Y-72405954D01*
X217175954Y-72566858D01*
X217045432Y-72753265D01*
X217045431Y-72753267D01*
X216949261Y-72959502D01*
X216949258Y-72959511D01*
X216890366Y-73179302D01*
X216890364Y-73179313D01*
X216870532Y-73405998D01*
X216870532Y-73406001D01*
X216890364Y-73632686D01*
X216890366Y-73632697D01*
X216949258Y-73852488D01*
X216949261Y-73852497D01*
X217045431Y-74058732D01*
X217045432Y-74058734D01*
X217175954Y-74245141D01*
X217336858Y-74406045D01*
X217336861Y-74406047D01*
X217523266Y-74536568D01*
X217581275Y-74563618D01*
X217633714Y-74609791D01*
X217652866Y-74676984D01*
X217632650Y-74743865D01*
X217581275Y-74788382D01*
X217523267Y-74815431D01*
X217523265Y-74815432D01*
X217336858Y-74945954D01*
X217175954Y-75106858D01*
X217045432Y-75293265D01*
X217045431Y-75293267D01*
X216949261Y-75499502D01*
X216949258Y-75499511D01*
X216890366Y-75719302D01*
X216890364Y-75719313D01*
X216870532Y-75945998D01*
X216870532Y-75946001D01*
X216890364Y-76172686D01*
X216890366Y-76172697D01*
X216949258Y-76392488D01*
X216949261Y-76392497D01*
X217045431Y-76598732D01*
X217045432Y-76598734D01*
X217175954Y-76785141D01*
X217336858Y-76946045D01*
X217336861Y-76946047D01*
X217523266Y-77076568D01*
X217581275Y-77103618D01*
X217633714Y-77149791D01*
X217652866Y-77216984D01*
X217632650Y-77283865D01*
X217581275Y-77328382D01*
X217523267Y-77355431D01*
X217523265Y-77355432D01*
X217336858Y-77485954D01*
X217175954Y-77646858D01*
X217045432Y-77833265D01*
X217045431Y-77833267D01*
X216949261Y-78039502D01*
X216949258Y-78039511D01*
X216890366Y-78259302D01*
X216890364Y-78259313D01*
X216870532Y-78485998D01*
X216870532Y-78486001D01*
X216890364Y-78712686D01*
X216890366Y-78712697D01*
X216949258Y-78932488D01*
X216949261Y-78932497D01*
X217045431Y-79138732D01*
X217045432Y-79138734D01*
X217175954Y-79325141D01*
X217336858Y-79486045D01*
X217336861Y-79486047D01*
X217523266Y-79616568D01*
X217581275Y-79643618D01*
X217633714Y-79689791D01*
X217652866Y-79756984D01*
X217632650Y-79823865D01*
X217581275Y-79868382D01*
X217523267Y-79895431D01*
X217523265Y-79895432D01*
X217336858Y-80025954D01*
X217175954Y-80186858D01*
X217045432Y-80373265D01*
X217045431Y-80373267D01*
X216949261Y-80579502D01*
X216949258Y-80579511D01*
X216890366Y-80799302D01*
X216890364Y-80799313D01*
X216870532Y-81025998D01*
X216870532Y-81026001D01*
X216890364Y-81252686D01*
X216890366Y-81252697D01*
X216949258Y-81472488D01*
X216949261Y-81472497D01*
X217045431Y-81678732D01*
X217045432Y-81678734D01*
X217175954Y-81865141D01*
X217336858Y-82026045D01*
X217336861Y-82026047D01*
X217523266Y-82156568D01*
X217581275Y-82183618D01*
X217633714Y-82229791D01*
X217652866Y-82296984D01*
X217632650Y-82363865D01*
X217581275Y-82408382D01*
X217523267Y-82435431D01*
X217523265Y-82435432D01*
X217336858Y-82565954D01*
X217175954Y-82726858D01*
X217045432Y-82913265D01*
X217045431Y-82913267D01*
X216949261Y-83119502D01*
X216949258Y-83119511D01*
X216890366Y-83339302D01*
X216890364Y-83339313D01*
X216870532Y-83565998D01*
X216870532Y-83566001D01*
X216890364Y-83792686D01*
X216890366Y-83792697D01*
X216949258Y-84012488D01*
X216949261Y-84012497D01*
X217045431Y-84218732D01*
X217045432Y-84218734D01*
X217175954Y-84405141D01*
X217336858Y-84566045D01*
X217336861Y-84566047D01*
X217523266Y-84696568D01*
X217581275Y-84723618D01*
X217633714Y-84769791D01*
X217652866Y-84836984D01*
X217632650Y-84903865D01*
X217581275Y-84948382D01*
X217523267Y-84975431D01*
X217523265Y-84975432D01*
X217336858Y-85105954D01*
X217175954Y-85266858D01*
X217045432Y-85453265D01*
X217045431Y-85453267D01*
X216949261Y-85659502D01*
X216949258Y-85659511D01*
X216890366Y-85879302D01*
X216890364Y-85879313D01*
X216870532Y-86105998D01*
X216870532Y-86106001D01*
X216890364Y-86332686D01*
X216890366Y-86332697D01*
X216949258Y-86552488D01*
X216949261Y-86552497D01*
X217045431Y-86758732D01*
X217045432Y-86758734D01*
X217175954Y-86945141D01*
X217336858Y-87106045D01*
X217336861Y-87106047D01*
X217523266Y-87236568D01*
X217581865Y-87263893D01*
X217634305Y-87310065D01*
X217653457Y-87377258D01*
X217633242Y-87444139D01*
X217581867Y-87488657D01*
X217523515Y-87515867D01*
X217337179Y-87646342D01*
X217176342Y-87807179D01*
X217045865Y-87993517D01*
X216949734Y-88199673D01*
X216949730Y-88199682D01*
X216897127Y-88395999D01*
X216897128Y-88396000D01*
X217742314Y-88396000D01*
X217716507Y-88436156D01*
X217676000Y-88574111D01*
X217676000Y-88717889D01*
X217716507Y-88855844D01*
X217742314Y-88896000D01*
X216897128Y-88896000D01*
X216949730Y-89092317D01*
X216949734Y-89092326D01*
X217045865Y-89298482D01*
X217176342Y-89484820D01*
X217337179Y-89645657D01*
X217523518Y-89776134D01*
X217523520Y-89776135D01*
X217581865Y-89803342D01*
X217634305Y-89849514D01*
X217653457Y-89916707D01*
X217633242Y-89983589D01*
X217581867Y-90028105D01*
X217523268Y-90055431D01*
X217523264Y-90055433D01*
X217336858Y-90185954D01*
X217175954Y-90346858D01*
X217045432Y-90533265D01*
X217045431Y-90533267D01*
X216949261Y-90739502D01*
X216949258Y-90739511D01*
X216890366Y-90959302D01*
X216890364Y-90959313D01*
X216870532Y-91185998D01*
X216870532Y-91186001D01*
X216890364Y-91412686D01*
X216890366Y-91412697D01*
X216949258Y-91632488D01*
X216949261Y-91632497D01*
X217045431Y-91838732D01*
X217045432Y-91838734D01*
X217175954Y-92025141D01*
X217336858Y-92186045D01*
X217336861Y-92186047D01*
X217523266Y-92316568D01*
X217581275Y-92343618D01*
X217633714Y-92389791D01*
X217652866Y-92456984D01*
X217632650Y-92523865D01*
X217581275Y-92568382D01*
X217523267Y-92595431D01*
X217523265Y-92595432D01*
X217336858Y-92725954D01*
X217175954Y-92886858D01*
X217045432Y-93073265D01*
X217045431Y-93073267D01*
X216949261Y-93279502D01*
X216949258Y-93279511D01*
X216890366Y-93499302D01*
X216890364Y-93499313D01*
X216870532Y-93725998D01*
X216870532Y-93726001D01*
X216890364Y-93952686D01*
X216890366Y-93952697D01*
X216949258Y-94172488D01*
X216949261Y-94172497D01*
X217045431Y-94378732D01*
X217045432Y-94378734D01*
X217175954Y-94565141D01*
X217336858Y-94726045D01*
X217361462Y-94743273D01*
X217405087Y-94797849D01*
X217412281Y-94867348D01*
X217380758Y-94929703D01*
X217320529Y-94965117D01*
X217303593Y-94968138D01*
X217268516Y-94971908D01*
X217133671Y-95022202D01*
X217133664Y-95022206D01*
X217018455Y-95108452D01*
X217018452Y-95108455D01*
X216932206Y-95223664D01*
X216932202Y-95223671D01*
X216881908Y-95358517D01*
X216875501Y-95418116D01*
X216875501Y-95418123D01*
X216875500Y-95418135D01*
X216875500Y-97113870D01*
X216875501Y-97113876D01*
X216881908Y-97173483D01*
X216932202Y-97308328D01*
X216932206Y-97308335D01*
X217018452Y-97423544D01*
X217018455Y-97423547D01*
X217133664Y-97509793D01*
X217133671Y-97509797D01*
X217268517Y-97560091D01*
X217268516Y-97560091D01*
X217275444Y-97560835D01*
X217328127Y-97566500D01*
X219023872Y-97566499D01*
X219083483Y-97560091D01*
X219218331Y-97509796D01*
X219333546Y-97423546D01*
X219419796Y-97308331D01*
X219470091Y-97173483D01*
X219476500Y-97113873D01*
X219476499Y-95418128D01*
X219470091Y-95358517D01*
X219435567Y-95265954D01*
X219419797Y-95223671D01*
X219419793Y-95223664D01*
X219333547Y-95108455D01*
X219333544Y-95108452D01*
X219218335Y-95022206D01*
X219218328Y-95022202D01*
X219083482Y-94971908D01*
X219083483Y-94971908D01*
X219048404Y-94968137D01*
X218983853Y-94941399D01*
X218944005Y-94884006D01*
X218941512Y-94814181D01*
X218977165Y-94754092D01*
X218990539Y-94743272D01*
X219015140Y-94726046D01*
X219176045Y-94565141D01*
X219176047Y-94565139D01*
X219306568Y-94378734D01*
X219402739Y-94172496D01*
X219461635Y-93952692D01*
X219481468Y-93726000D01*
X219461635Y-93499308D01*
X219402739Y-93279504D01*
X219306568Y-93073266D01*
X219176047Y-92886861D01*
X219176045Y-92886858D01*
X219015141Y-92725954D01*
X218828734Y-92595432D01*
X218828728Y-92595429D01*
X218770725Y-92568382D01*
X218718285Y-92522210D01*
X218699133Y-92455017D01*
X218719348Y-92388135D01*
X218770725Y-92343618D01*
X218828734Y-92316568D01*
X219015139Y-92186047D01*
X219176047Y-92025139D01*
X219306568Y-91838734D01*
X219402739Y-91632496D01*
X219461635Y-91412692D01*
X219481468Y-91186000D01*
X219461635Y-90959308D01*
X219402739Y-90739504D01*
X219306568Y-90533266D01*
X219176047Y-90346861D01*
X219176045Y-90346858D01*
X219015141Y-90185954D01*
X218828734Y-90055432D01*
X218828732Y-90055431D01*
X218770725Y-90028382D01*
X218770132Y-90028105D01*
X218717694Y-89981934D01*
X218698542Y-89914740D01*
X218718758Y-89847859D01*
X218770134Y-89803341D01*
X218828484Y-89776132D01*
X219014820Y-89645657D01*
X219175657Y-89484820D01*
X219306134Y-89298482D01*
X219402265Y-89092326D01*
X219402269Y-89092317D01*
X219454872Y-88896000D01*
X218609686Y-88896000D01*
X218635493Y-88855844D01*
X218676000Y-88717889D01*
X218676000Y-88574111D01*
X218635493Y-88436156D01*
X218609686Y-88396000D01*
X219454872Y-88396000D01*
X219454872Y-88395999D01*
X219402269Y-88199682D01*
X219402265Y-88199673D01*
X219306134Y-87993517D01*
X219175657Y-87807179D01*
X219014820Y-87646342D01*
X218828482Y-87515865D01*
X218770133Y-87488657D01*
X218717694Y-87442484D01*
X218698542Y-87375291D01*
X218718758Y-87308410D01*
X218770129Y-87263895D01*
X218828734Y-87236568D01*
X219015139Y-87106047D01*
X219176047Y-86945139D01*
X219306568Y-86758734D01*
X219402739Y-86552496D01*
X219461635Y-86332692D01*
X219481468Y-86106000D01*
X219461635Y-85879308D01*
X219402739Y-85659504D01*
X219306568Y-85453266D01*
X219176047Y-85266861D01*
X219176045Y-85266858D01*
X219015141Y-85105954D01*
X218828734Y-84975432D01*
X218828728Y-84975429D01*
X218770725Y-84948382D01*
X218718285Y-84902210D01*
X218699133Y-84835017D01*
X218719348Y-84768135D01*
X218770725Y-84723618D01*
X218828734Y-84696568D01*
X219015139Y-84566047D01*
X219176047Y-84405139D01*
X219306568Y-84218734D01*
X219402739Y-84012496D01*
X219461635Y-83792692D01*
X219481468Y-83566000D01*
X219461635Y-83339308D01*
X219402739Y-83119504D01*
X219306568Y-82913266D01*
X219176047Y-82726861D01*
X219176045Y-82726858D01*
X219015141Y-82565954D01*
X218828734Y-82435432D01*
X218828728Y-82435429D01*
X218770725Y-82408382D01*
X218718285Y-82362210D01*
X218699133Y-82295017D01*
X218719348Y-82228135D01*
X218770725Y-82183618D01*
X218828734Y-82156568D01*
X219015139Y-82026047D01*
X219176047Y-81865139D01*
X219306568Y-81678734D01*
X219402739Y-81472496D01*
X219461635Y-81252692D01*
X219481468Y-81026000D01*
X219461635Y-80799308D01*
X219402739Y-80579504D01*
X219306568Y-80373266D01*
X219176047Y-80186861D01*
X219176045Y-80186858D01*
X219015141Y-80025954D01*
X218828734Y-79895432D01*
X218828728Y-79895429D01*
X218770725Y-79868382D01*
X218718285Y-79822210D01*
X218699133Y-79755017D01*
X218719348Y-79688135D01*
X218770725Y-79643618D01*
X218828734Y-79616568D01*
X219015139Y-79486047D01*
X219176047Y-79325139D01*
X219306568Y-79138734D01*
X219402739Y-78932496D01*
X219461635Y-78712692D01*
X219481468Y-78486000D01*
X219461635Y-78259308D01*
X219402739Y-78039504D01*
X219306568Y-77833266D01*
X219176047Y-77646861D01*
X219176045Y-77646858D01*
X219015141Y-77485954D01*
X218828734Y-77355432D01*
X218828728Y-77355429D01*
X218770725Y-77328382D01*
X218718285Y-77282210D01*
X218699133Y-77215017D01*
X218719348Y-77148135D01*
X218770725Y-77103618D01*
X218828734Y-77076568D01*
X219015139Y-76946047D01*
X219176047Y-76785139D01*
X219306568Y-76598734D01*
X219402739Y-76392496D01*
X219461635Y-76172692D01*
X219481468Y-75946000D01*
X219481385Y-75945056D01*
X219475801Y-75881230D01*
X219461635Y-75719308D01*
X219402739Y-75499504D01*
X219306568Y-75293266D01*
X219176047Y-75106861D01*
X219176045Y-75106858D01*
X219015141Y-74945954D01*
X218828734Y-74815432D01*
X218828728Y-74815429D01*
X218770725Y-74788382D01*
X218718285Y-74742210D01*
X218699133Y-74675017D01*
X218719348Y-74608135D01*
X218770725Y-74563618D01*
X218828734Y-74536568D01*
X219015139Y-74406047D01*
X219176047Y-74245139D01*
X219306568Y-74058734D01*
X219402739Y-73852496D01*
X219461635Y-73632692D01*
X219481468Y-73406000D01*
X219461635Y-73179308D01*
X219402739Y-72959504D01*
X219306568Y-72753266D01*
X219176047Y-72566861D01*
X219176045Y-72566858D01*
X219015141Y-72405954D01*
X218828734Y-72275432D01*
X218828728Y-72275429D01*
X218770725Y-72248382D01*
X218718285Y-72202210D01*
X218699133Y-72135017D01*
X218719348Y-72068135D01*
X218770725Y-72023618D01*
X218828734Y-71996568D01*
X219015139Y-71866047D01*
X219176047Y-71705139D01*
X219306568Y-71518734D01*
X219402739Y-71312496D01*
X219461635Y-71092692D01*
X219481468Y-70866000D01*
X219461635Y-70639308D01*
X219402739Y-70419504D01*
X219306568Y-70213266D01*
X219187079Y-70042617D01*
X219176045Y-70026858D01*
X219015141Y-69865954D01*
X218828734Y-69735432D01*
X218828728Y-69735429D01*
X218770725Y-69708382D01*
X218718285Y-69662210D01*
X218699133Y-69595017D01*
X218719348Y-69528135D01*
X218770725Y-69483618D01*
X218828734Y-69456568D01*
X219015139Y-69326047D01*
X219176047Y-69165139D01*
X219306568Y-68978734D01*
X219402739Y-68772496D01*
X219461635Y-68552692D01*
X219481468Y-68326000D01*
X219461635Y-68099308D01*
X219402739Y-67879504D01*
X219306568Y-67673266D01*
X219176047Y-67486861D01*
X219176045Y-67486858D01*
X219015141Y-67325954D01*
X218828734Y-67195432D01*
X218828728Y-67195429D01*
X218770725Y-67168382D01*
X218718285Y-67122210D01*
X218699133Y-67055017D01*
X218719348Y-66988135D01*
X218770725Y-66943618D01*
X218779374Y-66939585D01*
X218828734Y-66916568D01*
X219015139Y-66786047D01*
X219176047Y-66625139D01*
X219306568Y-66438734D01*
X219402739Y-66232496D01*
X219461635Y-66012692D01*
X219481468Y-65786000D01*
X219461635Y-65559308D01*
X219402739Y-65339504D01*
X219306568Y-65133266D01*
X219176047Y-64946861D01*
X219176045Y-64946858D01*
X219015141Y-64785954D01*
X218828734Y-64655432D01*
X218828728Y-64655429D01*
X218770725Y-64628382D01*
X218718285Y-64582210D01*
X218699133Y-64515017D01*
X218719348Y-64448135D01*
X218770725Y-64403618D01*
X218828734Y-64376568D01*
X219015139Y-64246047D01*
X219176047Y-64085139D01*
X219306568Y-63898734D01*
X219402739Y-63692496D01*
X219461635Y-63472692D01*
X219481468Y-63246000D01*
X219461635Y-63019308D01*
X219402739Y-62799504D01*
X219306568Y-62593266D01*
X219176047Y-62406861D01*
X219176045Y-62406858D01*
X219015141Y-62245954D01*
X218828734Y-62115432D01*
X218828728Y-62115429D01*
X218770725Y-62088382D01*
X218718285Y-62042210D01*
X218699133Y-61975017D01*
X218719348Y-61908135D01*
X218770725Y-61863618D01*
X218828734Y-61836568D01*
X219015139Y-61706047D01*
X219176047Y-61545139D01*
X219306568Y-61358734D01*
X219402739Y-61152496D01*
X219461635Y-60932692D01*
X219481468Y-60706000D01*
X219461635Y-60479308D01*
X219402739Y-60259504D01*
X219306568Y-60053266D01*
X219176047Y-59866861D01*
X219176045Y-59866858D01*
X219015141Y-59705954D01*
X218828734Y-59575432D01*
X218828732Y-59575431D01*
X218675041Y-59503763D01*
X223189787Y-59503763D01*
X223219413Y-59773013D01*
X223219415Y-59773024D01*
X223287926Y-60035082D01*
X223287928Y-60035088D01*
X223393870Y-60284390D01*
X223512827Y-60479308D01*
X223534979Y-60515605D01*
X223534986Y-60515615D01*
X223708253Y-60723819D01*
X223708259Y-60723824D01*
X223793324Y-60800042D01*
X223909998Y-60904582D01*
X224135910Y-61054044D01*
X224381176Y-61169020D01*
X224381183Y-61169022D01*
X224381185Y-61169023D01*
X224640557Y-61247057D01*
X224640564Y-61247058D01*
X224640569Y-61247060D01*
X224908561Y-61286500D01*
X224908566Y-61286500D01*
X225111636Y-61286500D01*
X225163133Y-61282730D01*
X225314156Y-61271677D01*
X225426758Y-61246593D01*
X225578546Y-61212782D01*
X225578548Y-61212781D01*
X225578553Y-61212780D01*
X225831558Y-61116014D01*
X226067777Y-60983441D01*
X226282177Y-60817888D01*
X226470186Y-60622881D01*
X226627799Y-60402579D01*
X226724965Y-60213590D01*
X226751649Y-60161690D01*
X226751651Y-60161684D01*
X226751656Y-60161675D01*
X226838304Y-59907690D01*
X226839115Y-59905314D01*
X226839115Y-59905313D01*
X226839118Y-59905305D01*
X226888319Y-59638933D01*
X226898212Y-59368235D01*
X226868586Y-59098982D01*
X226800072Y-58836912D01*
X226694130Y-58587610D01*
X226553018Y-58356390D01*
X226551845Y-58354981D01*
X226379746Y-58148180D01*
X226379740Y-58148175D01*
X226178002Y-57967418D01*
X225952092Y-57817957D01*
X225914025Y-57800112D01*
X225706824Y-57702980D01*
X225706819Y-57702978D01*
X225706814Y-57702976D01*
X225447442Y-57624942D01*
X225447428Y-57624939D01*
X225331791Y-57607921D01*
X225179439Y-57585500D01*
X224976369Y-57585500D01*
X224976364Y-57585500D01*
X224773844Y-57600323D01*
X224773831Y-57600325D01*
X224509453Y-57659217D01*
X224509446Y-57659220D01*
X224256439Y-57755987D01*
X224020226Y-57888557D01*
X223805822Y-58054112D01*
X223617822Y-58249109D01*
X223617816Y-58249116D01*
X223460202Y-58469419D01*
X223460199Y-58469424D01*
X223336350Y-58710309D01*
X223336343Y-58710327D01*
X223248884Y-58966685D01*
X223248881Y-58966699D01*
X223199681Y-59233068D01*
X223199680Y-59233075D01*
X223189787Y-59503763D01*
X218675041Y-59503763D01*
X218622497Y-59479261D01*
X218622488Y-59479258D01*
X218402697Y-59420366D01*
X218402693Y-59420365D01*
X218402692Y-59420365D01*
X218402691Y-59420364D01*
X218402686Y-59420364D01*
X218176002Y-59400532D01*
X218175998Y-59400532D01*
X217949313Y-59420364D01*
X217949302Y-59420366D01*
X217729511Y-59479258D01*
X217729502Y-59479261D01*
X217523267Y-59575431D01*
X217523265Y-59575432D01*
X217336858Y-59705954D01*
X217175954Y-59866858D01*
X217045432Y-60053265D01*
X217045431Y-60053267D01*
X216949261Y-60259502D01*
X216949258Y-60259511D01*
X216890366Y-60479302D01*
X216890364Y-60479313D01*
X216870532Y-60705998D01*
X216870532Y-60706001D01*
X216890364Y-60932686D01*
X216890366Y-60932697D01*
X216949258Y-61152488D01*
X216949261Y-61152497D01*
X217045431Y-61358732D01*
X217045432Y-61358734D01*
X217175954Y-61545141D01*
X217336858Y-61706045D01*
X217336861Y-61706047D01*
X217523266Y-61836568D01*
X217581275Y-61863618D01*
X217633714Y-61909791D01*
X217652866Y-61976984D01*
X217632650Y-62043865D01*
X217581275Y-62088382D01*
X217523267Y-62115431D01*
X217523265Y-62115432D01*
X217336858Y-62245954D01*
X217175954Y-62406858D01*
X217045432Y-62593265D01*
X217045431Y-62593267D01*
X216949261Y-62799502D01*
X216949258Y-62799511D01*
X216890366Y-63019302D01*
X216890364Y-63019313D01*
X216870532Y-63245998D01*
X216870532Y-63246000D01*
X216890364Y-63472686D01*
X216890365Y-63472691D01*
X216890366Y-63472697D01*
X216908680Y-63541048D01*
X216907017Y-63610897D01*
X216876587Y-63660820D01*
X216828228Y-63709180D01*
X216766905Y-63742666D01*
X216740546Y-63745500D01*
X204310137Y-63745500D01*
X204243098Y-63725815D01*
X204197343Y-63673011D01*
X204187399Y-63603853D01*
X204190362Y-63589407D01*
X204204263Y-63537524D01*
X204221635Y-63472692D01*
X204241468Y-63246000D01*
X204221635Y-63019308D01*
X204162739Y-62799504D01*
X204066568Y-62593266D01*
X203936047Y-62406861D01*
X203936045Y-62406858D01*
X203775141Y-62245954D01*
X203588734Y-62115432D01*
X203588728Y-62115429D01*
X203530725Y-62088382D01*
X203478285Y-62042210D01*
X203459133Y-61975017D01*
X203479348Y-61908135D01*
X203530725Y-61863618D01*
X203588734Y-61836568D01*
X203775139Y-61706047D01*
X203936047Y-61545139D01*
X204066568Y-61358734D01*
X204162739Y-61152496D01*
X204221635Y-60932692D01*
X204241468Y-60706000D01*
X204221635Y-60479308D01*
X204162739Y-60259504D01*
X204066568Y-60053266D01*
X203936047Y-59866861D01*
X203936045Y-59866858D01*
X203775141Y-59705954D01*
X203588734Y-59575432D01*
X203588732Y-59575431D01*
X203382497Y-59479261D01*
X203382488Y-59479258D01*
X203162697Y-59420366D01*
X203162693Y-59420365D01*
X203162692Y-59420365D01*
X203162691Y-59420364D01*
X203162686Y-59420364D01*
X202936002Y-59400532D01*
X202935998Y-59400532D01*
X202709313Y-59420364D01*
X202709302Y-59420366D01*
X202489511Y-59479258D01*
X202489502Y-59479261D01*
X202283267Y-59575431D01*
X202283265Y-59575432D01*
X202096858Y-59705954D01*
X201935954Y-59866858D01*
X201805432Y-60053265D01*
X201805431Y-60053267D01*
X201709261Y-60259502D01*
X201709258Y-60259511D01*
X201650366Y-60479302D01*
X201650364Y-60479313D01*
X201630532Y-60705998D01*
X201630532Y-60706001D01*
X201650364Y-60932686D01*
X201650366Y-60932697D01*
X201709258Y-61152488D01*
X201709261Y-61152497D01*
X201805431Y-61358732D01*
X201805432Y-61358734D01*
X201935954Y-61545141D01*
X202096858Y-61706045D01*
X202096861Y-61706047D01*
X202283266Y-61836568D01*
X202341275Y-61863618D01*
X202393714Y-61909791D01*
X202412866Y-61976984D01*
X202392650Y-62043865D01*
X202341275Y-62088382D01*
X202283267Y-62115431D01*
X202283265Y-62115432D01*
X202096858Y-62245954D01*
X201935954Y-62406858D01*
X201805432Y-62593265D01*
X201805431Y-62593267D01*
X201709261Y-62799502D01*
X201709258Y-62799511D01*
X201650366Y-63019302D01*
X201650364Y-63019313D01*
X201630532Y-63245998D01*
X201630532Y-63246001D01*
X201650364Y-63472686D01*
X201650366Y-63472697D01*
X201681638Y-63589407D01*
X201679975Y-63659257D01*
X201640812Y-63717119D01*
X201576583Y-63744623D01*
X201561863Y-63745500D01*
X163676743Y-63745500D01*
X163661122Y-63743775D01*
X163661095Y-63744061D01*
X163653333Y-63743326D01*
X163584172Y-63745500D01*
X163554649Y-63745500D01*
X163547778Y-63746367D01*
X163541959Y-63746825D01*
X163495374Y-63748289D01*
X163495368Y-63748290D01*
X163476126Y-63753880D01*
X163457087Y-63757823D01*
X163437217Y-63760334D01*
X163437203Y-63760337D01*
X163393883Y-63777488D01*
X163388358Y-63779380D01*
X163343613Y-63792380D01*
X163343610Y-63792381D01*
X163326366Y-63802579D01*
X163308905Y-63811133D01*
X163290274Y-63818510D01*
X163290262Y-63818517D01*
X163252570Y-63845902D01*
X163247687Y-63849109D01*
X163207580Y-63872829D01*
X163193414Y-63886995D01*
X163178624Y-63899627D01*
X163162414Y-63911404D01*
X163162411Y-63911407D01*
X163132710Y-63947309D01*
X163128777Y-63951631D01*
X158593589Y-68486819D01*
X158532266Y-68520304D01*
X158462574Y-68515320D01*
X158451064Y-68510350D01*
X158323905Y-68447642D01*
X158050760Y-68354921D01*
X158050754Y-68354919D01*
X158050753Y-68354919D01*
X158050751Y-68354918D01*
X158050745Y-68354917D01*
X157767849Y-68298646D01*
X157767839Y-68298644D01*
X157480000Y-68279778D01*
X157192161Y-68298644D01*
X157192155Y-68298645D01*
X157192150Y-68298646D01*
X156909254Y-68354917D01*
X156909239Y-68354921D01*
X156636094Y-68447642D01*
X156377393Y-68575219D01*
X156377386Y-68575223D01*
X156137547Y-68735478D01*
X155920672Y-68925672D01*
X155730478Y-69142547D01*
X155570223Y-69382386D01*
X155570219Y-69382393D01*
X155442642Y-69641094D01*
X155349921Y-69914239D01*
X155349917Y-69914254D01*
X155305460Y-70137757D01*
X155293644Y-70197161D01*
X155274778Y-70485000D01*
X155284601Y-70634877D01*
X155293644Y-70772837D01*
X155293646Y-70772849D01*
X155349917Y-71055745D01*
X155349921Y-71055760D01*
X155442642Y-71328905D01*
X155570219Y-71587606D01*
X155570223Y-71587613D01*
X155730478Y-71827452D01*
X155920672Y-72044327D01*
X156137547Y-72234521D01*
X156331958Y-72364422D01*
X156377389Y-72394778D01*
X156636098Y-72522359D01*
X156909247Y-72615081D01*
X157192161Y-72671356D01*
X157480000Y-72690222D01*
X157767839Y-72671356D01*
X158050753Y-72615081D01*
X158323902Y-72522359D01*
X158582611Y-72394778D01*
X158822454Y-72234520D01*
X159039327Y-72044327D01*
X159229520Y-71827454D01*
X159389778Y-71587611D01*
X159517359Y-71328902D01*
X159610081Y-71055753D01*
X159666356Y-70772839D01*
X159685222Y-70485000D01*
X159666356Y-70197161D01*
X159610081Y-69914247D01*
X159588274Y-69850007D01*
X178135280Y-69850007D01*
X178154140Y-70137757D01*
X178154144Y-70137784D01*
X178210402Y-70420615D01*
X178210407Y-70420635D01*
X178303100Y-70693702D01*
X178303104Y-70693712D01*
X178430653Y-70952356D01*
X178590873Y-71192141D01*
X178590878Y-71192147D01*
X178615837Y-71220607D01*
X179623337Y-70213107D01*
X179710577Y-70351948D01*
X179838052Y-70479423D01*
X179976891Y-70566661D01*
X178969391Y-71574161D01*
X178969391Y-71574162D01*
X178997852Y-71599121D01*
X178997858Y-71599126D01*
X179237643Y-71759346D01*
X179496287Y-71886895D01*
X179496297Y-71886899D01*
X179769364Y-71979592D01*
X179769384Y-71979597D01*
X180052215Y-72035855D01*
X180052242Y-72035859D01*
X180339993Y-72054720D01*
X180340007Y-72054720D01*
X180627757Y-72035859D01*
X180627784Y-72035855D01*
X180910615Y-71979597D01*
X180910635Y-71979592D01*
X181183702Y-71886899D01*
X181183712Y-71886895D01*
X181442356Y-71759346D01*
X181682146Y-71599122D01*
X181710607Y-71574161D01*
X181710607Y-71574160D01*
X180703108Y-70566661D01*
X180841948Y-70479423D01*
X180969423Y-70351948D01*
X181056661Y-70213108D01*
X182064160Y-71220607D01*
X182064161Y-71220607D01*
X182089122Y-71192146D01*
X182249346Y-70952356D01*
X182376895Y-70693712D01*
X182376899Y-70693702D01*
X182469592Y-70420635D01*
X182469597Y-70420615D01*
X182525855Y-70137784D01*
X182525859Y-70137757D01*
X182544720Y-69850007D01*
X182544720Y-69849992D01*
X182525859Y-69562242D01*
X182525855Y-69562215D01*
X182469597Y-69279384D01*
X182469592Y-69279364D01*
X182376899Y-69006297D01*
X182376895Y-69006287D01*
X182249346Y-68747643D01*
X182089126Y-68507858D01*
X182089121Y-68507852D01*
X182064161Y-68479391D01*
X181056661Y-69486891D01*
X180969423Y-69348052D01*
X180841948Y-69220577D01*
X180703107Y-69133338D01*
X181710607Y-68125837D01*
X181710607Y-68125836D01*
X181682147Y-68100878D01*
X181682141Y-68100873D01*
X181442356Y-67940653D01*
X181183712Y-67813104D01*
X181183702Y-67813100D01*
X180910635Y-67720407D01*
X180910615Y-67720402D01*
X180627784Y-67664144D01*
X180627757Y-67664140D01*
X180340007Y-67645280D01*
X180339993Y-67645280D01*
X180052242Y-67664140D01*
X180052215Y-67664144D01*
X179769384Y-67720402D01*
X179769364Y-67720407D01*
X179496297Y-67813100D01*
X179496287Y-67813104D01*
X179237643Y-67940653D01*
X178997853Y-68100876D01*
X178997847Y-68100881D01*
X178969391Y-68125835D01*
X178969391Y-68125838D01*
X179976891Y-69133338D01*
X179838052Y-69220577D01*
X179710577Y-69348052D01*
X179623338Y-69486891D01*
X178615838Y-68479391D01*
X178615835Y-68479391D01*
X178590881Y-68507847D01*
X178590876Y-68507853D01*
X178430653Y-68747643D01*
X178303104Y-69006287D01*
X178303100Y-69006297D01*
X178210407Y-69279364D01*
X178210402Y-69279384D01*
X178154144Y-69562215D01*
X178154140Y-69562242D01*
X178135280Y-69849992D01*
X178135280Y-69850007D01*
X159588274Y-69850007D01*
X159517359Y-69641098D01*
X159454647Y-69513932D01*
X159442651Y-69445103D01*
X159469773Y-69380711D01*
X159478169Y-69371419D01*
X163816771Y-65032819D01*
X163878094Y-64999334D01*
X163904452Y-64996500D01*
X187229039Y-64996500D01*
X187296078Y-65016185D01*
X187341833Y-65068989D01*
X187351777Y-65138147D01*
X187322752Y-65201703D01*
X187307703Y-65216354D01*
X187213589Y-65293589D01*
X187082317Y-65453547D01*
X186984769Y-65636043D01*
X186924699Y-65834067D01*
X186904417Y-66040000D01*
X186924699Y-66245932D01*
X186924700Y-66245934D01*
X186984768Y-66443954D01*
X187082315Y-66626450D01*
X187082317Y-66626452D01*
X187213589Y-66786410D01*
X187310209Y-66865702D01*
X187373550Y-66917685D01*
X187556046Y-67015232D01*
X187754066Y-67075300D01*
X187754065Y-67075300D01*
X187792647Y-67079100D01*
X187908392Y-67090500D01*
X187908395Y-67090500D01*
X188011605Y-67090500D01*
X188011608Y-67090500D01*
X188165934Y-67075300D01*
X188363954Y-67015232D01*
X188546450Y-66917685D01*
X188706410Y-66786410D01*
X188837685Y-66626450D01*
X188935232Y-66443954D01*
X188995300Y-66245934D01*
X189015583Y-66040000D01*
X188995300Y-65834066D01*
X188935232Y-65636046D01*
X188837685Y-65453550D01*
X188750088Y-65346812D01*
X188706410Y-65293589D01*
X188612297Y-65216354D01*
X188572962Y-65158608D01*
X188571091Y-65088764D01*
X188607278Y-65028995D01*
X188670034Y-64998279D01*
X188690961Y-64996500D01*
X201674566Y-64996500D01*
X201741605Y-65016185D01*
X201787360Y-65068989D01*
X201797304Y-65138147D01*
X201786948Y-65172905D01*
X201709262Y-65339502D01*
X201709258Y-65339511D01*
X201650366Y-65559302D01*
X201650364Y-65559313D01*
X201630532Y-65785998D01*
X201630532Y-65786001D01*
X201650364Y-66012686D01*
X201650366Y-66012697D01*
X201709258Y-66232488D01*
X201709261Y-66232497D01*
X201805431Y-66438732D01*
X201805432Y-66438734D01*
X201935954Y-66625141D01*
X202096858Y-66786045D01*
X202096861Y-66786047D01*
X202283266Y-66916568D01*
X202332626Y-66939585D01*
X202341275Y-66943618D01*
X202393714Y-66989791D01*
X202412866Y-67056984D01*
X202392650Y-67123865D01*
X202341275Y-67168382D01*
X202283267Y-67195431D01*
X202283265Y-67195432D01*
X202096858Y-67325954D01*
X201935954Y-67486858D01*
X201805432Y-67673265D01*
X201805431Y-67673267D01*
X201709261Y-67879502D01*
X201709258Y-67879511D01*
X201650366Y-68099302D01*
X201650364Y-68099313D01*
X201630532Y-68325998D01*
X201630532Y-68326001D01*
X201650364Y-68552686D01*
X201650366Y-68552697D01*
X201681638Y-68669407D01*
X201679975Y-68739257D01*
X201640812Y-68797119D01*
X201576583Y-68824623D01*
X201561863Y-68825500D01*
X189451772Y-68825500D01*
X189384733Y-68805815D01*
X189370013Y-68794728D01*
X189302452Y-68735478D01*
X189062613Y-68575223D01*
X189062606Y-68575219D01*
X188803905Y-68447642D01*
X188530760Y-68354921D01*
X188530754Y-68354919D01*
X188530753Y-68354919D01*
X188530751Y-68354918D01*
X188530745Y-68354917D01*
X188247849Y-68298646D01*
X188247839Y-68298644D01*
X187960000Y-68279778D01*
X187672161Y-68298644D01*
X187672155Y-68298645D01*
X187672150Y-68298646D01*
X187389254Y-68354917D01*
X187389239Y-68354921D01*
X187116094Y-68447642D01*
X186857393Y-68575219D01*
X186857386Y-68575223D01*
X186617547Y-68735478D01*
X186400672Y-68925672D01*
X186210478Y-69142547D01*
X186050223Y-69382386D01*
X186050219Y-69382393D01*
X185922642Y-69641094D01*
X185829921Y-69914239D01*
X185829917Y-69914254D01*
X185785460Y-70137757D01*
X185773644Y-70197161D01*
X185754778Y-70485000D01*
X185764601Y-70634877D01*
X185773644Y-70772837D01*
X185773646Y-70772849D01*
X185829917Y-71055745D01*
X185829921Y-71055760D01*
X185922642Y-71328905D01*
X186050219Y-71587606D01*
X186050223Y-71587613D01*
X186210478Y-71827452D01*
X186400672Y-72044327D01*
X186617547Y-72234521D01*
X186811958Y-72364422D01*
X186857389Y-72394778D01*
X187116098Y-72522359D01*
X187389247Y-72615081D01*
X187672161Y-72671356D01*
X187960000Y-72690222D01*
X188247839Y-72671356D01*
X188530753Y-72615081D01*
X188803902Y-72522359D01*
X189062611Y-72394778D01*
X189302454Y-72234520D01*
X189519327Y-72044327D01*
X189709520Y-71827454D01*
X189869778Y-71587611D01*
X189997359Y-71328902D01*
X190090081Y-71055753D01*
X190146356Y-70772839D01*
X190165222Y-70485000D01*
X190147106Y-70208608D01*
X190162364Y-70140427D01*
X190212063Y-70091316D01*
X190270841Y-70076500D01*
X201674566Y-70076500D01*
X201741605Y-70096185D01*
X201787360Y-70148989D01*
X201797304Y-70218147D01*
X201786948Y-70252905D01*
X201709262Y-70419502D01*
X201709258Y-70419511D01*
X201650366Y-70639302D01*
X201650364Y-70639313D01*
X201630532Y-70865998D01*
X201630532Y-70866001D01*
X201650364Y-71092686D01*
X201650366Y-71092697D01*
X201709258Y-71312488D01*
X201709261Y-71312497D01*
X201805431Y-71518732D01*
X201805432Y-71518734D01*
X201935954Y-71705141D01*
X202096858Y-71866045D01*
X202096861Y-71866047D01*
X202283266Y-71996568D01*
X202341275Y-72023618D01*
X202393714Y-72069791D01*
X202412866Y-72136984D01*
X202392650Y-72203865D01*
X202341275Y-72248382D01*
X202283267Y-72275431D01*
X202283265Y-72275432D01*
X202096858Y-72405954D01*
X201935954Y-72566858D01*
X201805432Y-72753265D01*
X201805431Y-72753267D01*
X201709261Y-72959502D01*
X201709258Y-72959511D01*
X201650366Y-73179302D01*
X201650364Y-73179313D01*
X201630532Y-73405998D01*
X201630532Y-73406001D01*
X201650364Y-73632686D01*
X201650366Y-73632697D01*
X201681638Y-73749407D01*
X201679975Y-73819257D01*
X201640812Y-73877119D01*
X201576583Y-73904623D01*
X201561863Y-73905500D01*
X186160224Y-73905500D01*
X186093185Y-73885815D01*
X186047430Y-73833011D01*
X186039058Y-73807857D01*
X186026273Y-73749085D01*
X186026273Y-73749083D01*
X186026271Y-73749077D01*
X185928769Y-73487663D01*
X185884177Y-73406000D01*
X185795059Y-73242792D01*
X185795054Y-73242784D01*
X185627861Y-73019439D01*
X185627845Y-73019421D01*
X185430578Y-72822154D01*
X185430560Y-72822138D01*
X185207215Y-72654945D01*
X185207207Y-72654940D01*
X184962342Y-72521233D01*
X184962338Y-72521231D01*
X184863230Y-72484266D01*
X184700923Y-72423729D01*
X184700919Y-72423728D01*
X184700916Y-72423727D01*
X184428299Y-72364422D01*
X184150001Y-72344518D01*
X184149999Y-72344518D01*
X183871700Y-72364422D01*
X183599083Y-72423727D01*
X183599078Y-72423728D01*
X183599077Y-72423729D01*
X183535875Y-72447301D01*
X183337661Y-72521231D01*
X183337657Y-72521233D01*
X183092792Y-72654940D01*
X183092784Y-72654945D01*
X182869439Y-72822138D01*
X182869421Y-72822154D01*
X182672154Y-73019421D01*
X182672138Y-73019439D01*
X182504945Y-73242784D01*
X182504940Y-73242792D01*
X182371233Y-73487657D01*
X182371231Y-73487661D01*
X182317140Y-73632686D01*
X182277556Y-73738818D01*
X182273727Y-73749083D01*
X182214422Y-74021700D01*
X182194518Y-74299998D01*
X182194518Y-74300001D01*
X182214422Y-74578299D01*
X182266008Y-74815431D01*
X182273729Y-74850923D01*
X182312255Y-74954216D01*
X182371231Y-75112338D01*
X182371233Y-75112342D01*
X182504940Y-75357207D01*
X182504945Y-75357215D01*
X182672138Y-75580560D01*
X182672154Y-75580578D01*
X182869421Y-75777845D01*
X182869439Y-75777861D01*
X183092784Y-75945054D01*
X183092792Y-75945059D01*
X183337657Y-76078766D01*
X183337661Y-76078768D01*
X183337663Y-76078769D01*
X183599077Y-76176271D01*
X183724481Y-76203551D01*
X183871700Y-76235577D01*
X183871702Y-76235577D01*
X183871706Y-76235578D01*
X184119014Y-76253265D01*
X184149999Y-76255482D01*
X184150000Y-76255482D01*
X184150001Y-76255482D01*
X184177881Y-76253487D01*
X184428294Y-76235578D01*
X184700923Y-76176271D01*
X184962337Y-76078769D01*
X185207213Y-75945056D01*
X185430568Y-75777855D01*
X185627855Y-75580568D01*
X185795056Y-75357213D01*
X185795060Y-75357207D01*
X185869394Y-75221073D01*
X185918799Y-75171668D01*
X185978226Y-75156500D01*
X201674566Y-75156500D01*
X201741605Y-75176185D01*
X201787360Y-75228989D01*
X201797304Y-75298147D01*
X201786948Y-75332905D01*
X201709262Y-75499502D01*
X201709258Y-75499511D01*
X201650366Y-75719302D01*
X201650364Y-75719313D01*
X201630532Y-75945998D01*
X201630532Y-75946001D01*
X201650364Y-76172686D01*
X201650366Y-76172697D01*
X201709258Y-76392488D01*
X201709260Y-76392492D01*
X201709261Y-76392496D01*
X201719333Y-76414095D01*
X201729825Y-76483173D01*
X201701305Y-76546957D01*
X201642829Y-76585196D01*
X201606951Y-76590500D01*
X156896452Y-76590500D01*
X156829413Y-76570815D01*
X156808771Y-76554181D01*
X155482885Y-75228295D01*
X155449400Y-75166972D01*
X155454383Y-75097282D01*
X155546271Y-74850923D01*
X155605578Y-74578294D01*
X155625482Y-74300000D01*
X155605578Y-74021706D01*
X155546271Y-73749077D01*
X155448769Y-73487663D01*
X155404177Y-73406000D01*
X155315059Y-73242792D01*
X155315054Y-73242784D01*
X155147861Y-73019439D01*
X155147845Y-73019421D01*
X154950578Y-72822154D01*
X154950560Y-72822138D01*
X154727215Y-72654945D01*
X154727207Y-72654940D01*
X154482342Y-72521233D01*
X154482338Y-72521231D01*
X154383230Y-72484266D01*
X154220923Y-72423729D01*
X154220919Y-72423728D01*
X154220916Y-72423727D01*
X153948299Y-72364422D01*
X153670001Y-72344518D01*
X153669999Y-72344518D01*
X153391700Y-72364422D01*
X153119083Y-72423727D01*
X153119078Y-72423728D01*
X153119077Y-72423729D01*
X153055875Y-72447301D01*
X152857661Y-72521231D01*
X152857657Y-72521233D01*
X152612792Y-72654940D01*
X152612784Y-72654945D01*
X152389439Y-72822138D01*
X152389421Y-72822154D01*
X152192154Y-73019421D01*
X152192138Y-73019439D01*
X152024945Y-73242784D01*
X152024940Y-73242792D01*
X151891233Y-73487657D01*
X151891231Y-73487661D01*
X151837140Y-73632686D01*
X151797556Y-73738818D01*
X151793727Y-73749083D01*
X151788347Y-73773815D01*
X151754862Y-73835138D01*
X151693539Y-73868623D01*
X151623847Y-73863639D01*
X151579500Y-73835138D01*
X151574246Y-73829884D01*
X151568756Y-73825625D01*
X151564331Y-73821847D01*
X151530352Y-73789938D01*
X151530350Y-73789936D01*
X151530347Y-73789935D01*
X151512799Y-73780288D01*
X151496533Y-73769604D01*
X151480703Y-73757325D01*
X151437938Y-73738818D01*
X151432692Y-73736248D01*
X151391863Y-73713803D01*
X151391862Y-73713802D01*
X151372463Y-73708822D01*
X151354051Y-73702518D01*
X151335668Y-73694562D01*
X151335662Y-73694560D01*
X151289644Y-73687272D01*
X151283922Y-73686087D01*
X151238791Y-73674500D01*
X151238789Y-73674500D01*
X151218754Y-73674500D01*
X151199356Y-73672973D01*
X151191932Y-73671797D01*
X151179575Y-73669840D01*
X151179574Y-73669840D01*
X151133186Y-73674225D01*
X151127348Y-73674500D01*
X125124550Y-73674500D01*
X125057511Y-73654815D01*
X125011756Y-73602011D01*
X125008368Y-73593833D01*
X124968768Y-73487661D01*
X124968766Y-73487657D01*
X124835059Y-73242792D01*
X124835054Y-73242784D01*
X124667861Y-73019439D01*
X124667845Y-73019421D01*
X124470578Y-72822154D01*
X124470560Y-72822138D01*
X124247215Y-72654945D01*
X124247207Y-72654940D01*
X124002342Y-72521233D01*
X124002338Y-72521231D01*
X123903230Y-72484266D01*
X123740923Y-72423729D01*
X123740919Y-72423728D01*
X123740916Y-72423727D01*
X123468299Y-72364422D01*
X123190001Y-72344518D01*
X123189999Y-72344518D01*
X122911700Y-72364422D01*
X122639083Y-72423727D01*
X122639078Y-72423728D01*
X122639077Y-72423729D01*
X122575875Y-72447301D01*
X122377661Y-72521231D01*
X122377657Y-72521233D01*
X122132792Y-72654940D01*
X122132784Y-72654945D01*
X121909439Y-72822138D01*
X121909421Y-72822154D01*
X121712154Y-73019421D01*
X121712138Y-73019439D01*
X121544945Y-73242784D01*
X121544940Y-73242792D01*
X121411233Y-73487657D01*
X121411231Y-73487661D01*
X121357140Y-73632686D01*
X121317556Y-73738818D01*
X121313727Y-73749083D01*
X121254422Y-74021700D01*
X121234518Y-74299998D01*
X121234518Y-74300001D01*
X121254422Y-74578299D01*
X121306008Y-74815431D01*
X121313729Y-74850923D01*
X121352255Y-74954216D01*
X121411231Y-75112338D01*
X121411233Y-75112342D01*
X121544940Y-75357207D01*
X121544945Y-75357215D01*
X121712138Y-75580560D01*
X121712154Y-75580578D01*
X121909421Y-75777845D01*
X121909439Y-75777861D01*
X122132784Y-75945054D01*
X122132792Y-75945059D01*
X122377657Y-76078766D01*
X122377661Y-76078768D01*
X122377663Y-76078769D01*
X122639077Y-76176271D01*
X122764481Y-76203551D01*
X122911700Y-76235577D01*
X122911702Y-76235577D01*
X122911706Y-76235578D01*
X123159014Y-76253265D01*
X123189999Y-76255482D01*
X123190000Y-76255482D01*
X123190001Y-76255482D01*
X123217881Y-76253487D01*
X123468294Y-76235578D01*
X123740923Y-76176271D01*
X124002337Y-76078769D01*
X124247213Y-75945056D01*
X124470568Y-75777855D01*
X124667855Y-75580568D01*
X124835056Y-75357213D01*
X124968769Y-75112337D01*
X125008368Y-75006166D01*
X125050239Y-74950233D01*
X125115704Y-74925816D01*
X125124550Y-74925500D01*
X150849318Y-74925500D01*
X150916357Y-74945185D01*
X150936999Y-74961819D01*
X156114967Y-80139788D01*
X156124792Y-80152051D01*
X156125013Y-80151869D01*
X156129984Y-80157878D01*
X156155987Y-80182295D01*
X156180405Y-80205226D01*
X156201299Y-80226120D01*
X156206781Y-80230373D01*
X156211213Y-80234157D01*
X156245188Y-80266062D01*
X156262746Y-80275714D01*
X156279005Y-80286395D01*
X156294834Y-80298673D01*
X156337608Y-80317182D01*
X156342826Y-80319738D01*
X156383678Y-80342197D01*
X156403086Y-80347180D01*
X156421487Y-80353480D01*
X156439874Y-80361437D01*
X156483258Y-80368308D01*
X156485889Y-80368725D01*
X156491609Y-80369909D01*
X156536751Y-80381500D01*
X156556786Y-80381500D01*
X156576184Y-80383026D01*
X156595964Y-80386159D01*
X156595965Y-80386160D01*
X156595965Y-80386159D01*
X156595966Y-80386160D01*
X156642354Y-80381775D01*
X156648192Y-80381500D01*
X201606951Y-80381500D01*
X201673990Y-80401185D01*
X201719745Y-80453989D01*
X201729689Y-80523147D01*
X201719333Y-80557905D01*
X201709262Y-80579502D01*
X201709258Y-80579511D01*
X201650366Y-80799302D01*
X201650364Y-80799313D01*
X201630532Y-81025998D01*
X201630532Y-81026001D01*
X201650364Y-81252686D01*
X201650366Y-81252697D01*
X201709258Y-81472488D01*
X201709260Y-81472492D01*
X201709261Y-81472496D01*
X201719333Y-81494095D01*
X201729825Y-81563173D01*
X201701305Y-81626957D01*
X201642829Y-81665196D01*
X201606951Y-81670500D01*
X101016452Y-81670500D01*
X100949413Y-81650815D01*
X100928771Y-81634181D01*
X94522885Y-75228294D01*
X94489400Y-75166971D01*
X94494383Y-75097283D01*
X94586271Y-74850923D01*
X94638726Y-74609791D01*
X94645577Y-74578299D01*
X94645577Y-74578298D01*
X94645578Y-74578294D01*
X94665482Y-74300000D01*
X94645578Y-74021706D01*
X94586271Y-73749077D01*
X94488769Y-73487663D01*
X94444177Y-73406000D01*
X94355059Y-73242792D01*
X94355054Y-73242784D01*
X94187861Y-73019439D01*
X94187845Y-73019421D01*
X93990578Y-72822154D01*
X93990560Y-72822138D01*
X93767215Y-72654945D01*
X93767207Y-72654940D01*
X93522342Y-72521233D01*
X93522338Y-72521231D01*
X93423230Y-72484266D01*
X93260923Y-72423729D01*
X93260919Y-72423728D01*
X93260916Y-72423727D01*
X92988299Y-72364422D01*
X92710001Y-72344518D01*
X92709999Y-72344518D01*
X92431700Y-72364422D01*
X92159083Y-72423727D01*
X92159078Y-72423728D01*
X92159077Y-72423729D01*
X92095875Y-72447301D01*
X91897661Y-72521231D01*
X91897657Y-72521233D01*
X91652792Y-72654940D01*
X91652784Y-72654945D01*
X91429439Y-72822138D01*
X91429421Y-72822154D01*
X91232154Y-73019421D01*
X91232138Y-73019439D01*
X91064945Y-73242784D01*
X91064940Y-73242792D01*
X90931233Y-73487657D01*
X90931231Y-73487661D01*
X90877140Y-73632686D01*
X90837556Y-73738818D01*
X90833727Y-73749083D01*
X90774422Y-74021700D01*
X90754518Y-74299998D01*
X90754518Y-74300001D01*
X69596500Y-74300001D01*
X69596500Y-69850007D01*
X86695280Y-69850007D01*
X86714140Y-70137757D01*
X86714144Y-70137784D01*
X86770402Y-70420615D01*
X86770407Y-70420635D01*
X86863100Y-70693702D01*
X86863104Y-70693712D01*
X86990653Y-70952356D01*
X87150873Y-71192141D01*
X87150878Y-71192147D01*
X87175837Y-71220607D01*
X88183337Y-70213107D01*
X88270577Y-70351948D01*
X88398052Y-70479423D01*
X88536891Y-70566661D01*
X87529391Y-71574161D01*
X87529391Y-71574162D01*
X87557852Y-71599121D01*
X87557858Y-71599126D01*
X87797643Y-71759346D01*
X88056287Y-71886895D01*
X88056297Y-71886899D01*
X88329364Y-71979592D01*
X88329384Y-71979597D01*
X88612215Y-72035855D01*
X88612242Y-72035859D01*
X88899993Y-72054720D01*
X88900007Y-72054720D01*
X89187757Y-72035859D01*
X89187784Y-72035855D01*
X89470615Y-71979597D01*
X89470635Y-71979592D01*
X89743702Y-71886899D01*
X89743712Y-71886895D01*
X90002356Y-71759346D01*
X90242146Y-71599122D01*
X90270607Y-71574161D01*
X90270607Y-71574160D01*
X89263108Y-70566661D01*
X89401948Y-70479423D01*
X89529423Y-70351948D01*
X89616661Y-70213108D01*
X90624160Y-71220607D01*
X90624161Y-71220607D01*
X90649122Y-71192146D01*
X90809346Y-70952356D01*
X90936895Y-70693712D01*
X90936899Y-70693702D01*
X91007743Y-70485000D01*
X94314778Y-70485000D01*
X94324601Y-70634877D01*
X94333644Y-70772837D01*
X94333646Y-70772849D01*
X94389917Y-71055745D01*
X94389921Y-71055760D01*
X94482642Y-71328905D01*
X94610219Y-71587606D01*
X94610223Y-71587613D01*
X94770478Y-71827452D01*
X94960672Y-72044327D01*
X95177547Y-72234521D01*
X95371958Y-72364422D01*
X95417389Y-72394778D01*
X95676098Y-72522359D01*
X95949247Y-72615081D01*
X96232161Y-72671356D01*
X96520000Y-72690222D01*
X96807839Y-72671356D01*
X97090753Y-72615081D01*
X97363902Y-72522359D01*
X97622611Y-72394778D01*
X97862454Y-72234520D01*
X98079327Y-72044327D01*
X98269520Y-71827454D01*
X98429778Y-71587611D01*
X98557359Y-71328902D01*
X98650081Y-71055753D01*
X98706356Y-70772839D01*
X98725222Y-70485000D01*
X98706356Y-70197161D01*
X98650081Y-69914247D01*
X98628274Y-69850007D01*
X117175280Y-69850007D01*
X117194140Y-70137757D01*
X117194144Y-70137784D01*
X117250402Y-70420615D01*
X117250407Y-70420635D01*
X117343100Y-70693702D01*
X117343104Y-70693712D01*
X117470653Y-70952356D01*
X117630873Y-71192141D01*
X117630878Y-71192147D01*
X117655837Y-71220607D01*
X118663337Y-70213107D01*
X118750577Y-70351948D01*
X118878052Y-70479423D01*
X119016891Y-70566661D01*
X118009391Y-71574161D01*
X118009391Y-71574162D01*
X118037852Y-71599121D01*
X118037858Y-71599126D01*
X118277643Y-71759346D01*
X118536287Y-71886895D01*
X118536297Y-71886899D01*
X118809364Y-71979592D01*
X118809384Y-71979597D01*
X119092215Y-72035855D01*
X119092242Y-72035859D01*
X119379993Y-72054720D01*
X119380007Y-72054720D01*
X119667757Y-72035859D01*
X119667784Y-72035855D01*
X119950615Y-71979597D01*
X119950635Y-71979592D01*
X120223702Y-71886899D01*
X120223712Y-71886895D01*
X120482356Y-71759346D01*
X120722146Y-71599122D01*
X120750607Y-71574161D01*
X120750607Y-71574160D01*
X119743108Y-70566661D01*
X119881948Y-70479423D01*
X120009423Y-70351948D01*
X120096661Y-70213108D01*
X121104160Y-71220607D01*
X121104161Y-71220607D01*
X121129122Y-71192146D01*
X121289346Y-70952356D01*
X121416895Y-70693712D01*
X121416899Y-70693702D01*
X121487743Y-70485000D01*
X124794778Y-70485000D01*
X124804601Y-70634877D01*
X124813644Y-70772837D01*
X124813646Y-70772849D01*
X124869917Y-71055745D01*
X124869921Y-71055760D01*
X124962642Y-71328905D01*
X125090219Y-71587606D01*
X125090223Y-71587613D01*
X125250478Y-71827452D01*
X125440672Y-72044327D01*
X125657547Y-72234521D01*
X125851958Y-72364422D01*
X125897389Y-72394778D01*
X126156098Y-72522359D01*
X126429247Y-72615081D01*
X126712161Y-72671356D01*
X127000000Y-72690222D01*
X127287839Y-72671356D01*
X127570753Y-72615081D01*
X127843902Y-72522359D01*
X128102611Y-72394778D01*
X128342454Y-72234520D01*
X128559327Y-72044327D01*
X128749520Y-71827454D01*
X128909778Y-71587611D01*
X129037359Y-71328902D01*
X129130081Y-71055753D01*
X129186356Y-70772839D01*
X129205222Y-70485000D01*
X129186356Y-70197161D01*
X129130081Y-69914247D01*
X129108274Y-69850007D01*
X147655280Y-69850007D01*
X147674140Y-70137757D01*
X147674144Y-70137784D01*
X147730402Y-70420615D01*
X147730407Y-70420635D01*
X147823100Y-70693702D01*
X147823104Y-70693712D01*
X147950653Y-70952356D01*
X148110873Y-71192141D01*
X148110878Y-71192147D01*
X148135837Y-71220607D01*
X149143337Y-70213107D01*
X149230577Y-70351948D01*
X149358052Y-70479423D01*
X149496891Y-70566661D01*
X148489391Y-71574161D01*
X148489391Y-71574162D01*
X148517852Y-71599121D01*
X148517858Y-71599126D01*
X148757643Y-71759346D01*
X149016287Y-71886895D01*
X149016297Y-71886899D01*
X149289364Y-71979592D01*
X149289384Y-71979597D01*
X149572215Y-72035855D01*
X149572242Y-72035859D01*
X149859993Y-72054720D01*
X149860007Y-72054720D01*
X150147757Y-72035859D01*
X150147784Y-72035855D01*
X150430615Y-71979597D01*
X150430635Y-71979592D01*
X150703702Y-71886899D01*
X150703712Y-71886895D01*
X150962356Y-71759346D01*
X151202146Y-71599122D01*
X151230607Y-71574161D01*
X151230607Y-71574160D01*
X150223108Y-70566661D01*
X150361948Y-70479423D01*
X150489423Y-70351948D01*
X150576661Y-70213108D01*
X151584160Y-71220607D01*
X151584161Y-71220607D01*
X151609122Y-71192146D01*
X151769346Y-70952356D01*
X151896895Y-70693712D01*
X151896899Y-70693702D01*
X151989592Y-70420635D01*
X151989597Y-70420615D01*
X152045855Y-70137784D01*
X152045859Y-70137757D01*
X152064720Y-69850007D01*
X152064720Y-69849992D01*
X152045859Y-69562242D01*
X152045855Y-69562215D01*
X151989597Y-69279384D01*
X151989592Y-69279364D01*
X151896899Y-69006297D01*
X151896895Y-69006287D01*
X151769346Y-68747643D01*
X151609126Y-68507858D01*
X151609121Y-68507852D01*
X151584161Y-68479391D01*
X150576661Y-69486891D01*
X150489423Y-69348052D01*
X150361948Y-69220577D01*
X150223107Y-69133338D01*
X151230607Y-68125837D01*
X151230607Y-68125836D01*
X151202147Y-68100878D01*
X151202141Y-68100873D01*
X150962356Y-67940653D01*
X150703712Y-67813104D01*
X150703702Y-67813100D01*
X150430635Y-67720407D01*
X150430615Y-67720402D01*
X150147784Y-67664144D01*
X150147757Y-67664140D01*
X149860007Y-67645280D01*
X149859993Y-67645280D01*
X149572242Y-67664140D01*
X149572215Y-67664144D01*
X149289384Y-67720402D01*
X149289364Y-67720407D01*
X149016297Y-67813100D01*
X149016287Y-67813104D01*
X148757643Y-67940653D01*
X148517853Y-68100876D01*
X148517847Y-68100881D01*
X148489391Y-68125835D01*
X148489391Y-68125838D01*
X149496891Y-69133338D01*
X149358052Y-69220577D01*
X149230577Y-69348052D01*
X149143338Y-69486891D01*
X148135838Y-68479391D01*
X148135835Y-68479391D01*
X148110881Y-68507847D01*
X148110876Y-68507853D01*
X147950653Y-68747643D01*
X147823104Y-69006287D01*
X147823100Y-69006297D01*
X147730407Y-69279364D01*
X147730402Y-69279384D01*
X147674144Y-69562215D01*
X147674140Y-69562242D01*
X147655280Y-69849992D01*
X147655280Y-69850007D01*
X129108274Y-69850007D01*
X129037359Y-69641098D01*
X128974649Y-69513935D01*
X128962652Y-69445103D01*
X128989774Y-69380712D01*
X128998180Y-69371410D01*
X129083785Y-69285805D01*
X129096042Y-69275986D01*
X129095859Y-69275764D01*
X129101866Y-69270792D01*
X129101877Y-69270786D01*
X129132775Y-69237882D01*
X129149227Y-69220364D01*
X129159671Y-69209918D01*
X129170120Y-69199471D01*
X129174379Y-69193978D01*
X129178152Y-69189561D01*
X129210062Y-69155582D01*
X129219715Y-69138020D01*
X129230389Y-69121770D01*
X129242673Y-69105936D01*
X129261180Y-69063167D01*
X129263749Y-69057924D01*
X129286196Y-69017093D01*
X129286197Y-69017092D01*
X129291177Y-68997691D01*
X129297478Y-68979288D01*
X129305438Y-68960896D01*
X129312730Y-68914849D01*
X129313911Y-68909152D01*
X129325500Y-68864019D01*
X129325500Y-68843983D01*
X129327027Y-68824582D01*
X129330160Y-68804804D01*
X129325775Y-68758415D01*
X129325500Y-68752577D01*
X129325500Y-66040000D01*
X156424417Y-66040000D01*
X156444699Y-66245932D01*
X156444700Y-66245934D01*
X156504768Y-66443954D01*
X156602315Y-66626450D01*
X156602317Y-66626452D01*
X156733589Y-66786410D01*
X156830209Y-66865702D01*
X156893550Y-66917685D01*
X157076046Y-67015232D01*
X157274066Y-67075300D01*
X157274065Y-67075300D01*
X157312647Y-67079100D01*
X157428392Y-67090500D01*
X157428395Y-67090500D01*
X157531605Y-67090500D01*
X157531608Y-67090500D01*
X157685934Y-67075300D01*
X157883954Y-67015232D01*
X158066450Y-66917685D01*
X158226410Y-66786410D01*
X158357685Y-66626450D01*
X158455232Y-66443954D01*
X158515300Y-66245934D01*
X158535583Y-66040000D01*
X158515300Y-65834066D01*
X158455232Y-65636046D01*
X158357685Y-65453550D01*
X158270088Y-65346812D01*
X158226410Y-65293589D01*
X158066452Y-65162317D01*
X158066453Y-65162317D01*
X158066450Y-65162315D01*
X157883954Y-65064768D01*
X157685934Y-65004700D01*
X157685932Y-65004699D01*
X157685934Y-65004699D01*
X157566805Y-64992966D01*
X157531608Y-64989500D01*
X157428392Y-64989500D01*
X157390298Y-64993251D01*
X157274067Y-65004699D01*
X157076043Y-65064769D01*
X156965898Y-65123643D01*
X156893550Y-65162315D01*
X156893548Y-65162316D01*
X156893547Y-65162317D01*
X156733589Y-65293589D01*
X156602317Y-65453547D01*
X156504769Y-65636043D01*
X156444699Y-65834067D01*
X156424417Y-66040000D01*
X129325500Y-66040000D01*
X129325500Y-62177238D01*
X129327224Y-62161624D01*
X129326938Y-62161597D01*
X129327672Y-62153834D01*
X129325500Y-62084703D01*
X129325500Y-62055151D01*
X129325500Y-62055150D01*
X129324629Y-62048259D01*
X129324172Y-62042445D01*
X129322709Y-61995872D01*
X129317122Y-61976644D01*
X129313174Y-61957584D01*
X129310663Y-61937704D01*
X129293512Y-61894387D01*
X129291619Y-61888858D01*
X129278618Y-61844109D01*
X129278616Y-61844106D01*
X129268423Y-61826871D01*
X129259861Y-61809394D01*
X129252487Y-61790770D01*
X129252486Y-61790768D01*
X129225079Y-61753045D01*
X129221888Y-61748186D01*
X129198172Y-61708083D01*
X129198165Y-61708074D01*
X129184006Y-61693915D01*
X129171368Y-61679119D01*
X129159594Y-61662913D01*
X129123688Y-61633209D01*
X129119376Y-61629286D01*
X128954959Y-61464868D01*
X128921475Y-61403547D01*
X128919323Y-61390171D01*
X128901674Y-61222244D01*
X128843179Y-61042216D01*
X128795712Y-60960000D01*
X148804417Y-60960000D01*
X148824699Y-61165932D01*
X148824700Y-61165934D01*
X148884768Y-61363954D01*
X148982315Y-61546450D01*
X148982317Y-61546452D01*
X149113589Y-61706410D01*
X149167561Y-61750703D01*
X149273550Y-61837685D01*
X149456046Y-61935232D01*
X149654066Y-61995300D01*
X149654065Y-61995300D01*
X149692647Y-61999100D01*
X149808392Y-62010500D01*
X149808395Y-62010500D01*
X149911605Y-62010500D01*
X149911608Y-62010500D01*
X150065934Y-61995300D01*
X150263954Y-61935232D01*
X150446450Y-61837685D01*
X150606410Y-61706410D01*
X150737685Y-61546450D01*
X150835232Y-61363954D01*
X150895300Y-61165934D01*
X150915583Y-60960000D01*
X179284417Y-60960000D01*
X179304699Y-61165932D01*
X179304700Y-61165934D01*
X179364768Y-61363954D01*
X179462315Y-61546450D01*
X179462317Y-61546452D01*
X179593589Y-61706410D01*
X179647561Y-61750703D01*
X179753550Y-61837685D01*
X179936046Y-61935232D01*
X180134066Y-61995300D01*
X180134065Y-61995300D01*
X180172647Y-61999100D01*
X180288392Y-62010500D01*
X180288395Y-62010500D01*
X180391605Y-62010500D01*
X180391608Y-62010500D01*
X180545934Y-61995300D01*
X180743954Y-61935232D01*
X180926450Y-61837685D01*
X181086410Y-61706410D01*
X181217685Y-61546450D01*
X181315232Y-61363954D01*
X181375300Y-61165934D01*
X181395583Y-60960000D01*
X181375300Y-60754066D01*
X181315232Y-60556046D01*
X181217685Y-60373550D01*
X181125815Y-60261605D01*
X181086410Y-60213589D01*
X180926452Y-60082317D01*
X180926453Y-60082317D01*
X180926450Y-60082315D01*
X180743954Y-59984768D01*
X180545934Y-59924700D01*
X180545932Y-59924699D01*
X180545934Y-59924699D01*
X180426805Y-59912966D01*
X180391608Y-59909500D01*
X180288392Y-59909500D01*
X180250298Y-59913251D01*
X180134067Y-59924699D01*
X179936043Y-59984769D01*
X179850696Y-60030389D01*
X179753550Y-60082315D01*
X179753548Y-60082316D01*
X179753547Y-60082317D01*
X179593589Y-60213589D01*
X179462317Y-60373547D01*
X179364769Y-60556043D01*
X179364768Y-60556045D01*
X179364768Y-60556046D01*
X179362389Y-60563888D01*
X179304699Y-60754067D01*
X179284417Y-60960000D01*
X150915583Y-60960000D01*
X150895300Y-60754066D01*
X150835232Y-60556046D01*
X150737685Y-60373550D01*
X150645815Y-60261605D01*
X150606410Y-60213589D01*
X150446452Y-60082317D01*
X150446453Y-60082317D01*
X150446450Y-60082315D01*
X150263954Y-59984768D01*
X150065934Y-59924700D01*
X150065932Y-59924699D01*
X150065934Y-59924699D01*
X149946805Y-59912966D01*
X149911608Y-59909500D01*
X149808392Y-59909500D01*
X149770298Y-59913251D01*
X149654067Y-59924699D01*
X149456043Y-59984769D01*
X149370696Y-60030389D01*
X149273550Y-60082315D01*
X149273548Y-60082316D01*
X149273547Y-60082317D01*
X149113589Y-60213589D01*
X148982317Y-60373547D01*
X148884769Y-60556043D01*
X148884768Y-60556045D01*
X148884768Y-60556046D01*
X148882389Y-60563888D01*
X148824699Y-60754067D01*
X148804417Y-60960000D01*
X128795712Y-60960000D01*
X128748533Y-60878284D01*
X128621871Y-60737612D01*
X128610625Y-60729441D01*
X128468734Y-60626351D01*
X128468729Y-60626348D01*
X128295807Y-60549357D01*
X128295802Y-60549355D01*
X128150001Y-60518365D01*
X128110646Y-60510000D01*
X127921354Y-60510000D01*
X127894961Y-60515610D01*
X127736197Y-60549355D01*
X127736192Y-60549357D01*
X127563270Y-60626348D01*
X127563265Y-60626351D01*
X127410129Y-60737611D01*
X127283466Y-60878285D01*
X127188821Y-61042215D01*
X127188818Y-61042222D01*
X127133401Y-61212779D01*
X127130326Y-61222244D01*
X127110540Y-61410500D01*
X127130326Y-61598756D01*
X127130327Y-61598759D01*
X127188818Y-61778777D01*
X127188821Y-61778784D01*
X127283467Y-61942716D01*
X127352389Y-62019261D01*
X127410129Y-62083388D01*
X127563265Y-62194648D01*
X127563270Y-62194651D01*
X127736192Y-62271642D01*
X127736197Y-62271644D01*
X127921354Y-62311000D01*
X127950500Y-62311000D01*
X128017539Y-62330685D01*
X128063294Y-62383489D01*
X128074500Y-62435000D01*
X128074500Y-65346812D01*
X128054815Y-65413851D01*
X128002011Y-65459606D01*
X127932853Y-65469550D01*
X127869297Y-65440525D01*
X127854647Y-65425477D01*
X127746410Y-65293590D01*
X127652297Y-65216354D01*
X127586450Y-65162315D01*
X127403954Y-65064768D01*
X127205934Y-65004700D01*
X127205932Y-65004699D01*
X127205934Y-65004699D01*
X127086805Y-64992966D01*
X127051608Y-64989500D01*
X126948392Y-64989500D01*
X126910298Y-64993251D01*
X126794067Y-65004699D01*
X126596043Y-65064769D01*
X126485898Y-65123643D01*
X126413550Y-65162315D01*
X126413548Y-65162316D01*
X126413547Y-65162317D01*
X126253589Y-65293589D01*
X126122317Y-65453547D01*
X126024769Y-65636043D01*
X125964699Y-65834067D01*
X125944417Y-66040000D01*
X125964699Y-66245932D01*
X125964700Y-66245934D01*
X126024768Y-66443954D01*
X126122315Y-66626450D01*
X126122317Y-66626452D01*
X126253589Y-66786410D01*
X126350209Y-66865702D01*
X126413550Y-66917685D01*
X126596046Y-67015232D01*
X126794066Y-67075300D01*
X126794065Y-67075300D01*
X126832647Y-67079100D01*
X126948392Y-67090500D01*
X126948395Y-67090500D01*
X127051605Y-67090500D01*
X127051608Y-67090500D01*
X127205934Y-67075300D01*
X127403954Y-67015232D01*
X127586450Y-66917685D01*
X127746410Y-66786410D01*
X127854646Y-66654522D01*
X127912392Y-66615188D01*
X127982236Y-66613317D01*
X128042005Y-66649504D01*
X128072721Y-66712260D01*
X128074500Y-66733187D01*
X128074500Y-68361950D01*
X128054815Y-68428989D01*
X128002011Y-68474744D01*
X127932853Y-68484688D01*
X127895657Y-68473163D01*
X127843902Y-68447641D01*
X127570760Y-68354921D01*
X127570754Y-68354919D01*
X127570753Y-68354919D01*
X127570751Y-68354918D01*
X127570745Y-68354917D01*
X127287849Y-68298646D01*
X127287839Y-68298644D01*
X127000000Y-68279778D01*
X126712161Y-68298644D01*
X126712155Y-68298645D01*
X126712150Y-68298646D01*
X126429254Y-68354917D01*
X126429239Y-68354921D01*
X126156094Y-68447642D01*
X125897393Y-68575219D01*
X125897386Y-68575223D01*
X125657547Y-68735478D01*
X125440672Y-68925672D01*
X125250478Y-69142547D01*
X125090223Y-69382386D01*
X125090219Y-69382393D01*
X124962642Y-69641094D01*
X124869921Y-69914239D01*
X124869917Y-69914254D01*
X124825460Y-70137757D01*
X124813644Y-70197161D01*
X124794778Y-70485000D01*
X121487743Y-70485000D01*
X121509592Y-70420635D01*
X121509597Y-70420615D01*
X121565855Y-70137784D01*
X121565859Y-70137757D01*
X121584720Y-69850007D01*
X121584720Y-69849992D01*
X121565859Y-69562242D01*
X121565855Y-69562215D01*
X121509597Y-69279384D01*
X121509592Y-69279364D01*
X121416899Y-69006297D01*
X121416895Y-69006287D01*
X121289346Y-68747643D01*
X121129126Y-68507858D01*
X121129121Y-68507852D01*
X121104161Y-68479391D01*
X120096661Y-69486891D01*
X120009423Y-69348052D01*
X119881948Y-69220577D01*
X119743107Y-69133338D01*
X120750607Y-68125837D01*
X120750607Y-68125836D01*
X120722147Y-68100878D01*
X120722141Y-68100873D01*
X120482356Y-67940653D01*
X120223712Y-67813104D01*
X120223702Y-67813100D01*
X119950635Y-67720407D01*
X119950615Y-67720402D01*
X119667784Y-67664144D01*
X119667757Y-67664140D01*
X119380007Y-67645280D01*
X119379993Y-67645280D01*
X119092242Y-67664140D01*
X119092215Y-67664144D01*
X118809384Y-67720402D01*
X118809364Y-67720407D01*
X118536297Y-67813100D01*
X118536287Y-67813104D01*
X118277643Y-67940653D01*
X118037853Y-68100876D01*
X118037847Y-68100881D01*
X118009391Y-68125835D01*
X118009391Y-68125838D01*
X119016891Y-69133338D01*
X118878052Y-69220577D01*
X118750577Y-69348052D01*
X118663338Y-69486891D01*
X117655838Y-68479391D01*
X117655835Y-68479391D01*
X117630881Y-68507847D01*
X117630876Y-68507853D01*
X117470653Y-68747643D01*
X117343104Y-69006287D01*
X117343100Y-69006297D01*
X117250407Y-69279364D01*
X117250402Y-69279384D01*
X117194144Y-69562215D01*
X117194140Y-69562242D01*
X117175280Y-69849992D01*
X117175280Y-69850007D01*
X98628274Y-69850007D01*
X98557359Y-69641098D01*
X98494647Y-69513932D01*
X98482651Y-69445103D01*
X98509773Y-69380711D01*
X98518169Y-69371419D01*
X100205787Y-67683801D01*
X100218042Y-67673986D01*
X100217859Y-67673764D01*
X100223866Y-67668792D01*
X100223877Y-67668786D01*
X100254775Y-67635882D01*
X100271227Y-67618364D01*
X100281671Y-67607918D01*
X100292120Y-67597471D01*
X100296379Y-67591978D01*
X100300152Y-67587561D01*
X100332062Y-67553582D01*
X100341713Y-67536024D01*
X100352396Y-67519761D01*
X100364673Y-67503936D01*
X100383185Y-67461153D01*
X100385738Y-67455941D01*
X100408197Y-67415092D01*
X100413180Y-67395680D01*
X100419481Y-67377280D01*
X100427437Y-67358896D01*
X100434729Y-67312852D01*
X100435906Y-67307171D01*
X100447500Y-67262019D01*
X100447500Y-67241983D01*
X100449027Y-67222582D01*
X100452160Y-67202804D01*
X100447775Y-67156415D01*
X100447500Y-67150577D01*
X100447500Y-66484687D01*
X100467185Y-66417648D01*
X100479350Y-66401715D01*
X100497891Y-66381122D01*
X100554533Y-66318216D01*
X100649179Y-66154284D01*
X100707674Y-65974256D01*
X100727460Y-65786000D01*
X100707674Y-65597744D01*
X100649179Y-65417716D01*
X100554533Y-65253784D01*
X100427871Y-65113112D01*
X100427870Y-65113111D01*
X100274734Y-65001851D01*
X100274729Y-65001848D01*
X100101807Y-64924857D01*
X100101802Y-64924855D01*
X99956001Y-64893865D01*
X99916646Y-64885500D01*
X99727354Y-64885500D01*
X99694897Y-64892398D01*
X99542197Y-64924855D01*
X99542192Y-64924857D01*
X99369270Y-65001848D01*
X99369265Y-65001851D01*
X99216129Y-65113111D01*
X99089466Y-65253785D01*
X98994821Y-65417715D01*
X98994818Y-65417722D01*
X98948813Y-65559313D01*
X98936326Y-65597744D01*
X98916540Y-65786000D01*
X98936326Y-65974256D01*
X98936327Y-65974259D01*
X98994818Y-66154277D01*
X98994821Y-66154284D01*
X99089467Y-66318216D01*
X99132772Y-66366310D01*
X99164650Y-66401715D01*
X99194880Y-66464706D01*
X99196500Y-66484687D01*
X99196500Y-66872546D01*
X99176815Y-66939585D01*
X99160181Y-66960227D01*
X97633589Y-68486818D01*
X97572266Y-68520303D01*
X97502574Y-68515319D01*
X97491065Y-68510350D01*
X97415656Y-68473163D01*
X97363902Y-68447641D01*
X97363898Y-68447639D01*
X97090760Y-68354921D01*
X97090754Y-68354919D01*
X97090753Y-68354919D01*
X97090751Y-68354918D01*
X97090745Y-68354917D01*
X96807849Y-68298646D01*
X96807839Y-68298644D01*
X96520000Y-68279778D01*
X96232161Y-68298644D01*
X96232155Y-68298645D01*
X96232150Y-68298646D01*
X95949254Y-68354917D01*
X95949239Y-68354921D01*
X95676094Y-68447642D01*
X95417393Y-68575219D01*
X95417386Y-68575223D01*
X95177547Y-68735478D01*
X94960672Y-68925672D01*
X94770478Y-69142547D01*
X94610223Y-69382386D01*
X94610219Y-69382393D01*
X94482642Y-69641094D01*
X94389921Y-69914239D01*
X94389917Y-69914254D01*
X94345460Y-70137757D01*
X94333644Y-70197161D01*
X94314778Y-70485000D01*
X91007743Y-70485000D01*
X91029592Y-70420635D01*
X91029597Y-70420615D01*
X91085855Y-70137784D01*
X91085859Y-70137757D01*
X91104720Y-69850007D01*
X91104720Y-69849992D01*
X91085859Y-69562242D01*
X91085855Y-69562215D01*
X91029597Y-69279384D01*
X91029592Y-69279364D01*
X90936899Y-69006297D01*
X90936895Y-69006287D01*
X90809346Y-68747643D01*
X90649126Y-68507858D01*
X90649121Y-68507852D01*
X90624161Y-68479391D01*
X89616661Y-69486891D01*
X89529423Y-69348052D01*
X89401948Y-69220577D01*
X89263107Y-69133338D01*
X90270607Y-68125837D01*
X90270607Y-68125836D01*
X90242147Y-68100878D01*
X90242141Y-68100873D01*
X90002356Y-67940653D01*
X89743712Y-67813104D01*
X89743702Y-67813100D01*
X89470635Y-67720407D01*
X89470615Y-67720402D01*
X89187784Y-67664144D01*
X89187757Y-67664140D01*
X88900007Y-67645280D01*
X88899993Y-67645280D01*
X88612242Y-67664140D01*
X88612215Y-67664144D01*
X88329384Y-67720402D01*
X88329364Y-67720407D01*
X88056297Y-67813100D01*
X88056287Y-67813104D01*
X87797643Y-67940653D01*
X87557853Y-68100876D01*
X87557847Y-68100881D01*
X87529391Y-68125835D01*
X87529391Y-68125838D01*
X88536891Y-69133338D01*
X88398052Y-69220577D01*
X88270577Y-69348052D01*
X88183338Y-69486891D01*
X87175838Y-68479391D01*
X87175835Y-68479391D01*
X87150881Y-68507847D01*
X87150876Y-68507853D01*
X86990653Y-68747643D01*
X86863104Y-69006287D01*
X86863100Y-69006297D01*
X86770407Y-69279364D01*
X86770402Y-69279384D01*
X86714144Y-69562215D01*
X86714140Y-69562242D01*
X86695280Y-69849992D01*
X86695280Y-69850007D01*
X69596500Y-69850007D01*
X69596500Y-66040000D01*
X95464417Y-66040000D01*
X95484699Y-66245932D01*
X95484700Y-66245934D01*
X95544768Y-66443954D01*
X95642315Y-66626450D01*
X95642317Y-66626452D01*
X95773589Y-66786410D01*
X95870209Y-66865702D01*
X95933550Y-66917685D01*
X96116046Y-67015232D01*
X96314066Y-67075300D01*
X96314065Y-67075300D01*
X96352647Y-67079100D01*
X96468392Y-67090500D01*
X96468395Y-67090500D01*
X96571605Y-67090500D01*
X96571608Y-67090500D01*
X96725934Y-67075300D01*
X96923954Y-67015232D01*
X97106450Y-66917685D01*
X97266410Y-66786410D01*
X97397685Y-66626450D01*
X97495232Y-66443954D01*
X97555300Y-66245934D01*
X97575583Y-66040000D01*
X97555300Y-65834066D01*
X97495232Y-65636046D01*
X97397685Y-65453550D01*
X97310088Y-65346812D01*
X97266410Y-65293589D01*
X97106452Y-65162317D01*
X97106453Y-65162317D01*
X97106450Y-65162315D01*
X96923954Y-65064768D01*
X96725934Y-65004700D01*
X96725932Y-65004699D01*
X96725934Y-65004699D01*
X96606805Y-64992966D01*
X96571608Y-64989500D01*
X96468392Y-64989500D01*
X96430298Y-64993251D01*
X96314067Y-65004699D01*
X96116043Y-65064769D01*
X96005898Y-65123643D01*
X95933550Y-65162315D01*
X95933548Y-65162316D01*
X95933547Y-65162317D01*
X95773589Y-65293589D01*
X95642317Y-65453547D01*
X95544769Y-65636043D01*
X95484699Y-65834067D01*
X95464417Y-66040000D01*
X69596500Y-66040000D01*
X69596500Y-59249763D01*
X73075787Y-59249763D01*
X73105413Y-59519013D01*
X73105415Y-59519024D01*
X73173926Y-59781082D01*
X73173928Y-59781088D01*
X73279870Y-60030390D01*
X73360002Y-60161690D01*
X73420979Y-60261605D01*
X73420986Y-60261615D01*
X73594253Y-60469819D01*
X73594259Y-60469824D01*
X73683023Y-60549356D01*
X73795998Y-60650582D01*
X74021910Y-60800044D01*
X74267176Y-60915020D01*
X74267183Y-60915022D01*
X74267185Y-60915023D01*
X74526557Y-60993057D01*
X74526564Y-60993058D01*
X74526569Y-60993060D01*
X74794561Y-61032500D01*
X74794566Y-61032500D01*
X74997636Y-61032500D01*
X75049133Y-61028730D01*
X75200156Y-61017677D01*
X75353842Y-60983442D01*
X75459078Y-60960000D01*
X87844417Y-60960000D01*
X87864699Y-61165932D01*
X87864700Y-61165934D01*
X87924768Y-61363954D01*
X88022315Y-61546450D01*
X88022317Y-61546452D01*
X88153589Y-61706410D01*
X88207561Y-61750703D01*
X88313550Y-61837685D01*
X88496046Y-61935232D01*
X88694066Y-61995300D01*
X88694065Y-61995300D01*
X88732647Y-61999100D01*
X88848392Y-62010500D01*
X88848395Y-62010500D01*
X88951605Y-62010500D01*
X88951608Y-62010500D01*
X89105934Y-61995300D01*
X89303954Y-61935232D01*
X89486450Y-61837685D01*
X89646410Y-61706410D01*
X89777685Y-61546450D01*
X89875232Y-61363954D01*
X89935300Y-61165934D01*
X89955583Y-60960000D01*
X118324417Y-60960000D01*
X118344699Y-61165932D01*
X118344700Y-61165934D01*
X118404768Y-61363954D01*
X118502315Y-61546450D01*
X118502317Y-61546452D01*
X118633589Y-61706410D01*
X118687561Y-61750703D01*
X118793550Y-61837685D01*
X118976046Y-61935232D01*
X119174066Y-61995300D01*
X119174065Y-61995300D01*
X119212647Y-61999100D01*
X119328392Y-62010500D01*
X119328395Y-62010500D01*
X119431605Y-62010500D01*
X119431608Y-62010500D01*
X119585934Y-61995300D01*
X119783954Y-61935232D01*
X119966450Y-61837685D01*
X120126410Y-61706410D01*
X120257685Y-61546450D01*
X120355232Y-61363954D01*
X120415300Y-61165934D01*
X120435583Y-60960000D01*
X120415300Y-60754066D01*
X120355232Y-60556046D01*
X120257685Y-60373550D01*
X120165815Y-60261605D01*
X120126410Y-60213589D01*
X119966452Y-60082317D01*
X119966453Y-60082317D01*
X119966450Y-60082315D01*
X119783954Y-59984768D01*
X119585934Y-59924700D01*
X119585932Y-59924699D01*
X119585934Y-59924699D01*
X119466805Y-59912966D01*
X119431608Y-59909500D01*
X119328392Y-59909500D01*
X119290298Y-59913251D01*
X119174067Y-59924699D01*
X118976043Y-59984769D01*
X118890696Y-60030389D01*
X118793550Y-60082315D01*
X118793548Y-60082316D01*
X118793547Y-60082317D01*
X118633589Y-60213589D01*
X118502317Y-60373547D01*
X118404769Y-60556043D01*
X118404768Y-60556045D01*
X118404768Y-60556046D01*
X118402389Y-60563888D01*
X118344699Y-60754067D01*
X118324417Y-60960000D01*
X89955583Y-60960000D01*
X89935300Y-60754066D01*
X89875232Y-60556046D01*
X89777685Y-60373550D01*
X89685815Y-60261605D01*
X89646410Y-60213589D01*
X89486452Y-60082317D01*
X89486453Y-60082317D01*
X89486450Y-60082315D01*
X89303954Y-59984768D01*
X89105934Y-59924700D01*
X89105932Y-59924699D01*
X89105934Y-59924699D01*
X88986805Y-59912966D01*
X88951608Y-59909500D01*
X88848392Y-59909500D01*
X88810298Y-59913251D01*
X88694067Y-59924699D01*
X88496043Y-59984769D01*
X88410696Y-60030389D01*
X88313550Y-60082315D01*
X88313548Y-60082316D01*
X88313547Y-60082317D01*
X88153589Y-60213589D01*
X88022317Y-60373547D01*
X87924769Y-60556043D01*
X87924768Y-60556045D01*
X87924768Y-60556046D01*
X87922389Y-60563888D01*
X87864699Y-60754067D01*
X87844417Y-60960000D01*
X75459078Y-60960000D01*
X75464546Y-60958782D01*
X75464548Y-60958781D01*
X75464553Y-60958780D01*
X75717558Y-60862014D01*
X75953777Y-60729441D01*
X76168177Y-60563888D01*
X76356186Y-60368881D01*
X76513799Y-60148579D01*
X76628903Y-59924700D01*
X76637649Y-59907690D01*
X76637651Y-59907684D01*
X76637656Y-59907675D01*
X76725118Y-59651305D01*
X76774319Y-59384933D01*
X76784212Y-59114235D01*
X76754586Y-58844982D01*
X76686072Y-58582912D01*
X76580130Y-58333610D01*
X76439018Y-58102390D01*
X76349747Y-57995119D01*
X76265746Y-57894180D01*
X76265740Y-57894175D01*
X76064002Y-57713418D01*
X75838092Y-57563957D01*
X75838090Y-57563956D01*
X75592824Y-57448980D01*
X75592819Y-57448978D01*
X75592814Y-57448976D01*
X75333442Y-57370942D01*
X75333428Y-57370939D01*
X75217791Y-57353921D01*
X75065439Y-57331500D01*
X74862369Y-57331500D01*
X74862364Y-57331500D01*
X74659844Y-57346323D01*
X74659831Y-57346325D01*
X74395453Y-57405217D01*
X74395446Y-57405220D01*
X74142439Y-57501987D01*
X73906226Y-57634557D01*
X73691822Y-57800112D01*
X73503822Y-57995109D01*
X73503816Y-57995116D01*
X73346202Y-58215419D01*
X73346199Y-58215424D01*
X73222350Y-58456309D01*
X73222343Y-58456327D01*
X73134884Y-58712685D01*
X73134882Y-58712695D01*
X73087966Y-58966699D01*
X73085681Y-58979068D01*
X73085680Y-58979075D01*
X73075787Y-59249763D01*
X69596500Y-59249763D01*
X69596500Y-53972500D01*
X69616185Y-53905461D01*
X69668989Y-53859706D01*
X69720500Y-53848500D01*
X230253500Y-53848500D01*
X230320539Y-53868185D01*
G37*
%TD.AperFunction*%
%TD*%
M02*
